<svg width="80" height="80" viewBox="0 0 80 80" fill="none" xmlns="http://www.w3.org/2000/svg">
<g id="Frame">
<g id="Layer_x0020_1">
<g id="_340683448">
<g id="Group">
<path id="Vector" d="M49.1624 11.341V11.4347V11.4816C49.1156 11.9971 48.6469 12.4189 48.1314 12.372C47.8502 12.3252 47.569 12.3252 47.3347 12.3252C47.1003 12.2783 46.866 12.2783 46.5379 12.2783H45.4132C45.9287 12.2783 46.3505 11.8565 46.3505 11.341C46.3505 9.60695 45.6475 8.01351 44.4759 6.84187C43.3511 5.71709 41.7576 4.96723 39.9767 4.96723C38.2427 4.96723 36.6493 5.71709 35.4776 6.84187C34.3528 8.01351 33.603 9.60695 33.603 11.341C33.603 11.8565 34.0248 12.2783 34.5403 12.2783H33.4624C33.1343 12.2783 32.8531 12.2783 32.6657 12.3252C32.4313 12.3252 32.197 12.3252 31.8689 12.372C31.8689 12.372 31.8221 12.372 31.7752 12.372C31.2597 12.372 30.8379 11.9502 30.8379 11.4347V11.341C30.8379 8.8571 31.8689 6.56067 33.5092 4.8735C35.1964 3.2332 37.4928 2.20215 39.9767 2.20215C42.5075 2.20215 44.8039 3.2332 46.4442 4.8735C48.1314 6.56067 49.1624 8.8571 49.1624 11.341Z" fill="#2D404E"/>
<path id="Vector_2" d="M62.6133 4.31143L60.4575 15.9342C60.4575 16.0748 60.4106 16.2622 60.27 16.4028C59.942 16.8246 59.3796 16.8715 58.9578 16.5434C57.8799 15.7467 56.7551 14.9968 55.5366 14.3876C54.3181 13.8252 53.0995 13.3565 51.7873 12.9816C51.2718 12.8879 50.9437 12.4192 51.0374 11.9037L52.7715 2.5774V2.53053C52.9121 1.68695 53.3807 0.983958 54.0369 0.562165C54.6461 0.0935066 55.4428 -0.0939568 56.2396 0.0466407H56.3333L60.1294 0.749628C60.973 0.890226 61.676 1.35888 62.0978 2.01501C62.5664 2.67113 62.7539 3.46785 62.6133 4.31143Z" fill="#46647A"/>
<path id="Vector_3" d="M19.4964 15.9342L17.3875 4.31143C17.2469 3.46785 17.4343 2.67113 17.903 2.01501C18.3248 1.35888 19.0278 0.890226 19.8714 0.749628L23.6675 0.0466407H23.7612C24.5579 -0.0939568 25.3078 0.0935066 25.9639 0.562165C26.5732 0.983958 27.0887 1.68695 27.2293 2.53053V2.5774L28.9633 11.9037C29.0571 12.4192 28.729 12.8879 28.2135 12.9816C26.9012 13.3565 25.6358 13.8252 24.4642 14.3876C23.2457 14.9968 22.074 15.7467 21.043 16.5434C20.6212 16.8715 20.0119 16.8246 19.7308 16.4028C19.5902 16.2622 19.5433 16.0748 19.4964 15.9342Z" fill="#46647A"/>
</g>
<path id="Vector_4" d="M67.8621 49.4434C69.7836 49.4434 71.5645 50.2401 72.8299 51.5055C74.0953 52.7708 74.892 54.5517 74.892 56.4732V66.0807C74.892 67.5336 74.3296 68.799 73.3923 69.7363C72.455 70.7205 71.1427 71.2828 69.6899 71.2828H67.8621C67.2997 71.2828 66.9248 70.8611 66.9248 70.3455V50.3807C66.9248 49.8652 67.2997 49.4434 67.8621 49.4434Z" fill="#5CCFC9"/>
<path id="Vector_5" d="M7.17049 51.5055C8.43586 50.2401 10.2168 49.4434 12.1383 49.4434C12.6538 49.4434 13.0756 49.8652 13.0756 50.3807V70.3455C13.0756 70.8611 12.6538 71.2828 12.1383 71.2828H10.2636C8.85766 71.2828 7.54541 70.7205 6.6081 69.7363C5.67078 68.799 5.06152 67.5336 5.06152 66.0807V56.4732C5.06152 54.5517 5.85824 52.7708 7.17049 51.5055Z" fill="#5CCFC9"/>
<path id="Vector_6" d="M33.4624 10.4043H46.538C52.6306 10.4043 58.2076 12.9351 62.2381 16.9655C66.2685 20.996 68.7993 26.573 68.7993 32.6656V74.798C68.7993 76.2039 68.19 77.5162 67.2527 78.4535C66.3154 79.3908 65.0032 80.0001 63.5972 80.0001H16.4033C14.9973 80.0001 13.6851 79.3908 12.7477 78.4535C11.8104 77.5162 11.2012 76.2039 11.2012 74.798V32.6656C11.2012 26.573 13.7319 20.996 17.7624 16.9655C21.7929 12.9351 27.323 10.4043 33.4624 10.4043Z" fill="#FF5858"/>
<path id="Vector_7" d="M33.4625 10.4043H46.5381C52.6306 10.4043 58.2077 12.9351 62.2381 16.9655C65.5656 20.2461 67.8152 24.6046 68.5182 29.4318C66.0343 31.0721 63.4098 32.3844 60.6447 33.3686C58.1139 34.3059 55.4426 34.962 52.7244 35.4775V37.2116C52.7244 39.7423 50.6623 41.8513 48.1315 41.8513C45.5539 41.8513 43.4918 39.7423 43.4918 37.2116V36.5554C43.3512 36.5554 43.2106 36.5554 43.1169 36.5554C42.0858 36.6023 41.0079 36.6492 39.9768 36.6492C38.9458 36.6492 37.9148 36.6023 36.8837 36.5554C36.7431 36.5554 36.6494 36.5554 36.5088 36.5554V37.2116C36.5088 39.7423 34.3998 41.8513 31.8691 41.8513C29.3383 41.8513 27.2293 39.7423 27.2293 37.2116V35.4775C24.558 34.9151 21.8866 34.3059 19.309 33.3686C17.0594 32.5718 14.763 31.5408 12.6541 30.2285V30.2754L11.4355 29.4318C12.1854 24.6046 14.435 20.2461 17.7624 16.9655C21.7929 12.9351 27.3231 10.4043 33.4625 10.4043Z" fill="#3F5E75"/>
<path id="Vector_8" d="M25.2138 52.7236H54.3644C55.8172 52.7236 57.1295 53.3329 58.0668 54.2702C59.0041 55.2075 59.5665 56.4729 59.5665 57.9257V68.5643C59.5665 70.0171 59.0041 71.3294 58.0668 72.2667C57.1295 73.204 55.8172 73.7664 54.3644 73.7664H25.2138C23.761 73.7664 22.4487 73.204 21.5114 72.2667C20.5741 71.3294 20.0117 70.0171 20.0117 68.5643V57.9257C20.0117 56.4729 20.5741 55.2075 21.5114 54.2702C22.4487 53.3329 23.761 52.7236 25.2138 52.7236Z" fill="white"/>
<g id="Group_2">
<path id="Vector_9" d="M33.4622 10.4043H46.5378C51.5993 10.4043 56.3327 12.1852 60.082 15.0909C63.925 18.0434 66.7838 22.2614 68.0492 27.0885C68.1898 27.5103 68.0023 27.9321 67.6274 28.1196C65.6122 29.5724 63.0814 30.8378 60.1289 31.9157C57.2232 32.9468 53.9426 33.7435 50.3808 34.3059C49.8652 34.3996 49.3966 34.0247 49.3029 33.5092C49.3029 33.4623 49.3029 33.4154 49.3029 33.3686V31.0721C49.3029 30.7441 49.1623 30.4629 48.9748 30.2285C48.7405 29.9942 48.4593 29.9005 48.1312 29.9005C47.8031 29.9005 47.4751 29.9942 47.2876 30.2285C47.2408 30.2285 47.2408 30.2754 47.2408 30.2754C47.0533 30.4629 46.9127 30.7441 46.9127 31.0721V33.8841C46.9127 34.3996 46.5378 34.7745 46.0222 34.8214C45.0849 34.9151 44.1007 34.962 43.0228 35.0089C41.9918 35.0557 40.9607 35.0557 39.9765 35.0557C38.9924 35.0557 38.0082 35.0557 36.9303 35.0089C35.8992 34.962 34.8682 34.9151 33.9309 34.8214C33.4153 34.7745 33.0873 34.3527 33.0873 33.8841V31.0721C33.0873 30.416 32.5249 29.9005 31.8688 29.9005C31.2126 29.9005 30.6971 30.416 30.6971 31.0721V33.3686C30.6971 33.8841 30.2753 34.3059 29.7598 34.3059C29.6661 34.3059 29.6192 34.3059 29.5723 34.3059C26.0105 33.7435 22.7299 32.9468 19.8711 31.9157C16.9186 30.8378 14.3409 29.5724 12.2788 28.1196C11.9508 27.8384 11.8102 27.4166 11.9508 26.9948C13.2162 22.2145 16.075 18.0434 19.8711 15.0909C23.6672 12.1852 28.3538 10.4043 33.4622 10.4043Z" fill="#56C4BE"/>
<g id="Group_3">
<path id="Vector_10" d="M31.8685 28.0254C32.7121 28.0254 33.462 28.3535 34.0244 28.9158C34.0712 28.9158 34.0712 28.9627 34.1181 28.9627C34.6336 29.5251 34.9617 30.275 34.9617 31.0717V37.2111C34.9617 38.8983 33.5557 40.2574 31.8685 40.2574C30.1814 40.2574 28.8223 38.8983 28.8223 37.2111V31.0717C28.8223 30.2281 29.1503 29.4782 29.7127 28.9158C30.2751 28.3535 31.025 28.0254 31.8685 28.0254Z" fill="white"/>
<path id="Vector_11" d="M48.1312 28.0254C49.8184 28.0254 51.1775 29.3845 51.1775 31.0717V37.2111C51.1775 38.8983 49.8184 40.2574 48.1312 40.2574C46.4441 40.2574 45.0381 38.8983 45.0381 37.2111V31.0717C45.0381 29.3845 46.4441 28.0254 48.1312 28.0254Z" fill="white"/>
</g>
</g>
<g id="Group_4">
<g id="Group_5">
<path id="Vector_12" d="M59.5663 58.7695V58.9101V63.4092C59.4725 63.503 59.3319 63.503 59.1913 63.503H49.7713C49.2089 63.503 48.7871 63.0812 48.7871 62.5657V59.66C48.7871 59.1444 49.2089 58.7227 49.7713 58.7227H59.1913C59.3319 58.7227 59.4725 58.7227 59.5663 58.7695Z" fill="black"/>
<path id="Vector_13" d="M20.0117 63.4092V58.9101V58.7695C20.1055 58.7227 20.246 58.7227 20.3866 58.7227H46.9596C47.4751 58.7227 47.8969 59.1444 47.8969 59.66V62.5657C47.8969 63.0812 47.4751 63.503 46.9596 63.503H20.3866C20.246 63.503 20.1055 63.503 20.0117 63.4092Z" fill="black"/>
</g>
<path id="Vector_14" d="M48.1314 56.1924C48.7406 56.1924 49.303 56.4267 49.7248 56.8485C50.1466 57.2703 50.4278 57.8327 50.4278 58.4888V62.4255C50.4278 63.0348 50.1466 63.5972 49.7248 64.019C49.303 64.4408 48.7406 64.722 48.1314 64.722C47.4753 64.722 46.9129 64.4408 46.4911 64.019C46.4442 64.019 46.4442 63.9721 46.4442 63.9721C46.0224 63.5503 45.7881 62.9879 45.7881 62.4255V58.4888C45.7881 57.8327 46.0693 57.2703 46.4911 56.8485C46.9129 56.4267 47.4753 56.1924 48.1314 56.1924Z" fill="black"/>
</g>
<g id="Group_6">
<g id="Group_7">
<path id="Vector_15" d="M59.5663 57.832V57.9257V62.4717C59.4725 62.5186 59.3319 62.5186 59.1913 62.5186H49.7713C49.2089 62.5186 48.7871 62.0968 48.7871 61.5813V58.6756C48.7871 58.1601 49.2089 57.7383 49.7713 57.7383H59.1913C59.3319 57.7383 59.4725 57.7383 59.5663 57.832Z" fill="#5CCFC9"/>
<path id="Vector_16" d="M20.0117 62.4717V57.9257V57.832C20.1055 57.7383 20.246 57.7383 20.3866 57.7383H46.9596C47.4751 57.7383 47.8969 58.1601 47.8969 58.6756V61.5813C47.8969 62.0968 47.4751 62.5186 46.9596 62.5186H20.3866C20.246 62.5186 20.1055 62.5186 20.0117 62.4717Z" fill="#5CCFC9"/>
</g>
<path id="Vector_17" d="M48.1314 55.208C48.7406 55.208 49.303 55.4423 49.7248 55.8641C50.1466 56.2859 50.4278 56.8483 50.4278 57.5044V61.4412C50.4278 62.0504 50.1466 62.6597 49.7248 63.0815C49.303 63.4564 48.7406 63.7376 48.1314 63.7376C47.4753 63.7376 46.9129 63.4564 46.4911 63.0815C46.4442 63.0346 46.4442 63.0346 46.4442 62.9877C46.0224 62.5659 45.7881 62.0504 45.7881 61.4412V57.5044C45.7881 56.8483 46.0693 56.2859 46.4911 55.8641C46.9129 55.4423 47.4753 55.208 48.1314 55.208Z" fill="#44B1AC"/>
</g>
</g>
</g>
</g>
</svg>
