<svg width="80" height="80" viewBox="0 0 80 80" fill="none" xmlns="http://www.w3.org/2000/svg">
<g id="Layer_1">
<g id="Group">
<g id="Group_2">
<g id="Group_3">
<g id="Group_4">
<g id="Group_5">
<g id="Group_6">
<path id="Vector" d="M76.0603 78.9699H3.93907C2.50877 78.9699 1.33301 77.8183 1.33301 76.3638V63.0426C1.33301 61.6002 2.50877 60.4365 3.93907 60.4365H76.0603C77.4906 60.4365 78.6664 61.588 78.6664 63.0426V76.3638C78.6664 77.8183 77.4906 78.9699 76.0603 78.9699Z" fill="#8561DB"/>
</g>
<g id="Group_7" opacity="0.15">
<g id="Group_8">
<path id="Vector_2" d="M42.7148 62.3271H72.3391V63.5756H42.7148V62.3271Z" fill="white"/>
</g>
</g>
<g id="Group_9">
<g id="Group_10">
<path id="Vector_3" d="M78.6662 63.0668V76.3759C78.6662 77.8183 77.5025 78.9699 76.0722 78.9699H18.8965V76.8971H74.5086C75.9389 76.8971 77.1025 75.7456 77.1025 74.3032V60.982C77.1025 60.8729 77.0904 60.7638 77.0783 60.6426C77.9995 61.0547 78.6662 61.9638 78.6662 63.0668Z" fill="#A886FB"/>
</g>
<g id="Group_11">
<path id="Vector_4" d="M10.8241 76.8969V78.9696H3.93924C2.61803 78.9696 1.50288 77.9757 1.35742 76.6787C1.68469 76.812 2.02409 76.8848 2.38772 76.8848H10.8241V76.8969Z" fill="#977BDC"/>
</g>
<g id="Group_12">
<path id="Vector_5" d="M10.8242 60.4365H18.8969V78.982H10.8242V60.4365Z" fill="#E7E9EE"/>
</g>
<g id="Group_13">
<path id="Vector_6" d="M10.8242 76.8975H18.8969V78.9702H10.8242V76.8975Z" fill="#CDD0DA"/>
</g>
</g>
</g>
</g>
</g>
<g id="Group_14">
<g id="Group_15">
<g id="Group_16">
<g id="Group_17">
<path id="Vector_7" d="M72.9208 50.0727C72.9208 53.6727 69.9754 56.6181 66.3754 56.6181H3.62386C3.38144 56.6181 3.1875 56.8121 3.1875 57.0545V60.0848C3.1875 60.3272 3.38144 60.5212 3.62386 60.5212H66.3875C72.1572 60.5212 76.8239 55.8545 76.8239 50.0848C76.8239 47.2121 75.6481 44.606 73.7572 42.7151C71.8663 40.8121 69.2602 39.6484 66.3875 39.6484H3.62386C3.38144 39.6484 3.1875 39.8424 3.1875 40.0848V43.1151C3.1875 43.3575 3.38144 43.5515 3.62386 43.5515H66.3875C69.9996 43.5393 72.9208 46.4606 72.9208 50.0727Z" fill="#35BE5E"/>
</g>
</g>
</g>
<g id="Group_18">
<g id="Group_19">
<g id="Group_20">
<path id="Vector_8" d="M3.1875 57.0549V60.0852C3.1875 60.3276 3.38144 60.5216 3.62386 60.5216H66.3875C69.9269 60.5216 73.0663 58.7519 74.9451 56.0488C73.042 58.1458 70.2905 59.467 67.2239 59.467H4.46023C4.2178 59.467 4.02386 59.2731 4.02386 59.0306V56.6306H3.62386C3.38144 56.6185 3.1875 56.8125 3.1875 57.0549Z" fill="#090B06"/>
</g>
</g>
</g>
<g id="Group_21">
<g id="Group_22">
<path id="Vector_9" d="M5.64844 43.5395V56.6183H66.3878C70 56.6183 72.9212 53.697 72.9212 50.0849C72.9212 48.291 72.1818 46.6425 70.9939 45.4546C69.806 44.2667 68.1697 43.5273 66.3636 43.5273H5.64844V43.5395Z" fill="#E7E9EE"/>
</g>
<g id="Group_23">
<path id="Vector_10" d="M5.64844 55.5152V56.6183H66.3878C70 56.6183 72.9212 53.697 72.9212 50.0849C72.9212 49.9031 72.909 49.7213 72.8969 49.5273C72.6181 52.8849 69.8181 55.5152 66.3878 55.5152H5.64844Z" fill="#CDD0DA"/>
</g>
<g id="Group_24">
<g id="Group_25">
<g id="Group_26">
<path id="Vector_11" d="M10.6064 46.9697H64.8974V48.6909H10.6064V46.9697Z" fill="#CDD0DA"/>
</g>
</g>
<g id="Group_27">
<g id="Group_28">
<path id="Vector_12" d="M10.6064 51.4668H20.061V53.188H10.6064V51.4668Z" fill="#CDD0DA"/>
</g>
</g>
<g id="Group_29">
<g id="Group_30">
<path id="Vector_13" d="M30.7764 51.4668H64.8976V53.188H30.7764V51.4668Z" fill="#CDD0DA"/>
</g>
</g>
</g>
</g>
</g>
<g id="Group_31">
<g id="Group_32">
<path id="Vector_14" d="M24.3633 64.6064H26.2299V74.8246H24.3633V64.6064Z" fill="white"/>
</g>
</g>
<g id="Group_33">
<g id="Group_34">
<path id="Vector_15" d="M28.3994 64.6064H30.2661V74.8246H28.3994V64.6064Z" fill="white"/>
</g>
</g>
<g id="Group_35">
<g id="Group_36">
<path id="Vector_16" d="M32.4482 66.5938H34.3149V72.8362H32.4482V66.5938Z" fill="white"/>
</g>
</g>
</g>
<g id="Group_37">
<g id="Group_38">
<path id="Vector_17" d="M36.266 5.43105C36.266 5.43105 35.0417 8.98257 31.4417 6.53408C31.163 6.34014 30.8842 6.15832 30.5811 6.01287L27.4902 4.46135C27.4902 4.46135 30.5205 0.667414 34.3387 1.63711C35.2842 1.87954 36.0963 2.53408 36.4236 3.45529C36.6175 4.02499 36.6539 4.69166 36.266 5.43105Z" fill="#35BE5E"/>
</g>
<g id="Group_39">
<path id="Vector_18" d="M31.5264 4.23137C32.1567 4.06167 32.8233 4.04955 33.4779 4.12227C34.1324 4.195 34.7749 4.38894 35.3809 4.65561C35.987 4.9344 36.5567 5.31015 37.0294 5.77076C37.5142 6.21924 37.8779 6.80106 38.1324 7.395C37.6233 6.97076 37.187 6.54652 36.6658 6.20712C36.1567 5.85561 35.6355 5.55258 35.0779 5.31015C33.9749 4.80106 32.787 4.48591 31.5264 4.23137Z" fill="#090B06"/>
</g>
</g>
<g id="Group_40">
<path id="Vector_19" d="M43.8665 1.01855C45.1392 1.01855 45.1392 4.59431 43.8665 4.59431H43.1877C40.9211 4.59431 39.0786 6.43674 39.0786 8.7034V9.64886H37.3574V7.52765C37.3574 3.92765 40.2665 1.01855 43.8665 1.01855Z" fill="#57687D"/>
</g>
<g id="Group_41">
<path id="Vector_20" d="M51.8901 32.7763C50.8356 34.2672 49.8174 35.3944 49.1507 36.0853C48.6174 36.6187 48.3022 36.8975 48.3022 36.8975C48.3022 36.8975 47.5143 37.5035 46.3507 38.146C44.0962 39.4066 40.4356 40.7884 38.3507 38.0975C37.0174 39.8308 35.0174 39.8672 33.1749 39.346C30.6659 38.6429 28.4113 36.8975 28.4113 36.8975C28.4113 36.8975 19.1507 29.0066 20.3871 17.0672C20.7628 13.455 21.878 11.2005 23.2477 9.79444C24.5689 8.43686 26.1446 7.89141 27.5143 7.70959C28.9083 7.52777 30.3386 7.69747 31.6598 8.19444C33.4174 8.84898 35.3325 9.16413 36.6659 9.32171C37.684 9.44292 38.3749 9.45504 38.3749 9.45504C38.3749 9.45504 39.0901 9.44292 40.1689 9.30959C41.1628 9.2005 42.4719 8.98232 43.7931 8.61868C44.2295 8.49747 44.678 8.35201 45.1022 8.19444C46.278 7.74595 47.5386 7.56413 48.7992 7.6611C51.6356 7.89141 55.5749 9.61262 56.3386 17.0672C57.0295 23.8429 54.3507 29.3096 51.8901 32.7763Z" fill="#ED4A5A"/>
</g>
<g id="Group_42" opacity="0.15">
<g id="Group_43">
<path id="Vector_21" d="M24.7634 28.5332C24.5331 28.5332 24.3271 28.412 24.218 28.1939C22.4968 24.6181 21.8059 20.9332 22.1937 17.2484C22.4847 14.4484 23.2725 12.3635 24.5453 11.0545C24.7756 10.812 25.1634 10.812 25.4059 11.0423C25.6483 11.2726 25.6483 11.6605 25.418 11.9029C24.3392 13.006 23.6604 14.8484 23.4059 17.3696C23.0544 20.8242 23.6968 24.2908 25.321 27.6605C25.4665 27.9635 25.3453 28.3272 25.0422 28.4726C24.9453 28.509 24.8483 28.5332 24.7634 28.5332Z" fill="white"/>
</g>
</g>
<g id="Group_44">
<path id="Vector_22" d="M51.8907 32.7756C50.8362 34.2666 49.818 35.3938 49.1513 36.0726C48.618 36.6059 48.3028 36.8847 48.3028 36.8847C48.3028 36.8847 47.515 37.4908 46.3513 38.1453C44.0968 39.3938 40.4362 40.7756 38.3513 38.0847C37.018 39.8181 35.018 39.8666 33.1756 39.3453C30.6665 38.6423 28.4119 36.8847 28.4119 36.8847C28.4119 36.8847 26.3998 35.1756 24.3877 32.1453C25.9392 34.1575 27.2483 35.2726 27.2483 35.2726C27.2483 35.2726 29.5028 37.0181 32.0119 37.7211C33.8544 38.2423 35.8544 38.2059 37.1877 36.4726C39.2725 39.1635 42.9331 37.7817 45.1877 36.5211C46.3513 35.8787 47.1392 35.2726 47.1392 35.2726C47.1392 35.2726 47.4544 34.9938 47.9877 34.4605C48.6665 33.7696 49.6725 32.6544 50.7271 31.1514C53.1877 27.6969 55.8665 22.2181 55.1634 15.4423C54.921 13.0544 54.3513 11.2605 53.5998 9.91504C54.9089 11.3211 55.9635 13.5635 56.3271 17.0544C57.018 23.8302 54.3513 29.309 51.8907 32.7756Z" fill="#DC4453"/>
</g>
</g>
</g>
</svg>
