<svg width="80" height="80" viewBox="0 0 80 80" fill="none" xmlns="http://www.w3.org/2000/svg">
<g id="Layer_1">
<g id="Group">
<g id="Group_2">
<g id="Group_3">
<path id="Vector" d="M26.294 60.3986C39.9324 60.3986 50.9884 49.3425 50.9884 35.7042C50.9884 22.0658 39.9324 11.0098 26.294 11.0098C12.6557 11.0098 1.59961 22.0658 1.59961 35.7042C1.59961 49.3425 12.6557 60.3986 26.294 60.3986Z" fill="#1A8453"/>
<g id="Group_4">
<path id="Vector_2" d="M34.5057 43.1841L34.2849 43.7664L33.5824 45.5129L33.0001 46.0952L32.2976 47.8417C32.2976 47.8417 32.0768 48.4641 31.7755 48.7652C31.1444 49.3963 30.1398 49.82 29.3862 50.1707L28.8641 51.335C27.4624 52.703 27.4267 52.6299 26.0737 53.1219L25.9531 54.0052H24.8488L23.9656 54.9889L23.0422 55.3502L22.219 56.4545L21.0547 54.8283L21.6369 53.3627C21.998 50.4236 21.7964 51.2888 22.3996 49.6886L22.5203 48.464L21.416 47.4201C19.7235 46.8048 20.7516 46.3259 19.4284 45.2116L18.5652 43.8062C19.6508 41.4424 19.4459 41.9035 19.8499 40.1523L19.4283 39.2691L17.6216 39.1484C16.8331 37.7936 17.2009 38.2662 15.8747 36.9401C14.4374 36.2214 14.9889 36.5268 13.4857 35.6152L11.5785 35.0731L10.1129 33.8686L8.94861 32.1624L8.42653 30.0745L7.96477 31.239L6.98109 28.91C6.98109 28.91 6.98109 27.866 6.67997 27.6854C6.39885 27.5046 5.69629 26.1193 5.69629 26.1193L6.27837 23.7905C7.01053 22.3264 6.97085 22.3302 6.86061 20.4577C9.02909 17.7073 11.7393 15.4387 14.851 13.8124C15.007 13.8436 15.8958 13.8326 16.0558 13.8326L16.9792 14.2342L17.9227 13.5918L19.027 13.9531L19.4284 14.2342C17.6841 15.119 17.9816 14.9668 17.3404 15.2782L17.5212 15.9808H16.8787C16.1632 16.9182 16.406 16.5708 15.7744 17.5667L16.3566 18.0888L16.3968 18.7715H17.6817L18.5049 19.5945L18.9667 20.518L19.4284 20.8793V19.1929L20.3116 18.7713V17.9683C19.9472 16.7768 20.0244 17.1856 19.9504 16.1012H21.0547L21.9982 16.6635L22.3393 17.848L22.9216 17.9083L23.5038 16.6635L23.9254 17.7275C24.6899 18.6644 24.3443 18.3128 25.4915 19.3136C25.9011 20.422 25.7651 20.0931 26.134 20.8795L25.09 21.1606H23.4436L22.7008 21.9836H23.9656V22.8468L24.6081 23.148H25.1902L24.4473 23.8505H23.5038L22.5201 24.5532L22.3393 25.2961L21.416 25.8784V26.4606L20.6532 26.9224L20.7132 27.9864L19.7896 28.5686L18.9064 29.492C18.835 30.5854 18.8084 30.1353 19.027 31.7606H18.6254L17.7419 30.4155L16.2361 30.0742C14.5843 30.444 15.1713 30.2971 13.6664 30.7166L13.024 31.7604L12.7428 33.3265L13.1443 34.491L14.1283 34.9728C15.1529 34.2275 14.9188 34.3974 15.5939 33.9086H16.6379L16.176 34.9728L16.4571 35.7758L17.742 36.2377V37.3017C17.742 37.3017 17.983 38.8075 18.2038 38.7473C18.4448 38.687 19.4888 38.7473 19.4888 38.7473H20.5931L21.416 37.7636C22.7728 37.7636 22.2892 37.7212 23.504 37.9443L24.9696 37.6432L25.4916 38.1051L26.6563 38.7475L27.64 39.1088L28.4628 39.7913L29.6876 40.5542V41.1364C29.6876 41.1364 29.1656 41.7788 29.6876 41.7788C30.2094 41.7788 31.1331 42.0598 31.1331 42.0598L32.2371 42.5416H33L34.5057 43.1841Z" fill="#EFEFED"/>
<path id="Vector_3" d="M42.6432 23.975C42.6432 23.975 41.556 23.4723 41.2995 23.4973C41.0307 23.5318 40.5317 22.9001 40.5317 22.9001L38.8234 21.9609L39.1005 22.8862L37.7867 21.8721L36.2664 21.396L34.804 21.3672L33.3907 21.9507L32.2946 22.0865L31.3114 22.2905L30.1154 22.1501L29.1989 21.7889L28.0479 22.5793C28.0479 22.5793 28.9215 22.4616 29.0384 22.3101C29.1434 22.168 30.0088 22.9643 30.0088 22.9643L30.5171 23.6081L31.5155 23.2736L32.0695 23.6251L32.2984 24.4897L32.9304 23.9907L33.0811 23.4574L33.3087 22.6465L34.1346 22.4678L34.9339 22.9806L35.5122 24.0627L35.6224 25.0014L35.0445 25.7933L34.3743 26.6184L33.2998 27.1317L32.1224 26.7398L31.8794 26.9317L32.6317 27.6592L33.0367 28.247L32.9434 29.2281L32.6626 30.0221L33.2075 30.6373L32.9664 31.2811L33.2446 31.6336L32.9642 32.4272L33.2095 32.9632L32.9501 33.8587L32.3791 34.3096L32.2655 35.0899L32.6174 34.8117L33.1504 34.6869L33.5629 35.2093L34.3285 34.6048L34.2722 35.4579L33.2757 36.2448L32.7784 36.9139L33.2677 37.1585L33.9157 37.5545L34.8802 37.6017L35.6213 37.7661L36.385 38.2081L36.1426 37.1765L36.524 36.9347L37.2965 37.4883L38.1362 37.3776L38.8045 36.8501L38.3459 36.3441L37.6936 35.8926L37.3096 35.4069L37.6426 34.7296L36.8367 33.7091L37.2888 33.707L38.0096 34.0453L38.9013 34.1499L39.6791 33.536L40.0295 33.9299L40.6314 33.9675L40.7088 34.715L40.7208 35.455L40.332 35.7621L40.7771 36.1008L40.5151 36.6433L40.0125 37.7305L40.3898 37.7089L41.2307 37.3998L41.4947 36.5601L42.2456 36.3616L42.9139 35.8337L42.9843 35.7979C44.0903 33.3267 44.6462 30.6584 44.6442 27.9577C44.4688 27.7606 43.936 27.136 43.792 26.9537C43.6288 26.7472 43.4037 25.6624 43.4037 25.6624L42.6432 23.975Z" fill="#EFEFED"/>
</g>
</g>
<g id="Group_5">
<path id="Vector_4" d="M36.8906 41.9951H76.0906V51.1999H36.8906V41.9951Z" fill="#FFCA67"/>
<path id="Vector_5" d="M30.0039 56.79H68.9543V64.358H30.0039V56.79Z" fill="#E4E4E3"/>
<path id="Vector_6" d="M30.0029 56.792H32.7773V64.36H30.0029V56.792Z" fill="#C7C7C7"/>
<g id="Group_6">
<path id="Vector_7" d="M69.1774 66.8815H30.004C28.6133 66.8815 27.4814 65.7495 27.4814 64.359V56.7911C27.4814 55.4004 28.6134 54.2686 30.004 54.2686H69.1773C69.8744 54.2686 70.4386 54.8327 70.4386 55.5298C70.4386 56.227 69.8744 56.7911 69.1773 56.7911H30.004V64.359H69.1773C69.8744 64.359 70.4386 64.9231 70.4386 65.6202C70.4387 66.3174 69.8746 66.8815 69.1774 66.8815Z" fill="#9152B6"/>
</g>
<g id="Group_7">
<path id="Vector_8" d="M76.8647 54.2679H39.0386C36.1619 54.2679 33.8223 51.9282 33.8223 49.0515V44.1421C33.8223 41.2655 36.1619 38.9258 39.0386 38.9258H76.8647C77.712 38.9258 78.3989 39.6125 78.3989 40.46C78.3989 41.3075 77.7122 41.9943 76.8647 41.9943H39.0386C37.8544 41.9943 36.8907 42.9579 36.8907 44.1421V49.0515C36.8907 50.2357 37.8544 51.1994 39.0386 51.1994H76.8647C77.712 51.1994 78.3989 51.8861 78.3989 52.7336C78.3989 53.5811 77.7122 54.2679 76.8647 54.2679Z" fill="#E9715F"/>
</g>
<g id="Group_8">
<path id="Vector_9" d="M39.6094 45.3183C44.5175 44.5101 52.206 44.4913 57.1988 45.3183C52.2059 46.1452 44.518 46.1265 39.6094 45.3183Z" fill="#F5B948"/>
<path id="Vector_10" d="M55.7842 47.8769C60.6923 47.0687 68.3808 47.0499 73.3736 47.8769C68.3808 48.7036 60.6928 48.6849 55.7842 47.8769Z" fill="#F5B948"/>
</g>
<path id="Vector_11" d="M36.1924 60.3994V68.9909L39.2226 67.2068L42.253 68.9909V60.3994H36.1924Z" fill="#1A8453"/>
<path id="Vector_12" d="M30.0039 28.877H68.9543V36.445H30.0039V28.877Z" fill="#E4E4E3"/>
<path id="Vector_13" d="M30.0039 32.6592H68.9543V36.4432H30.0039V32.6592Z" fill="#C7C7C7"/>
<g id="Group_9">
<path id="Vector_14" d="M69.1774 38.9665H30.004C28.6133 38.9665 27.4814 37.8345 27.4814 36.4439V28.8761C27.4814 27.4854 28.6134 26.3535 30.004 26.3535H69.1773C69.8744 26.3535 70.4386 26.9177 70.4386 27.6148C70.4386 28.3119 69.8744 28.8761 69.1773 28.8761H30.004V36.4439H69.1773C69.8744 36.4439 70.4386 37.0081 70.4386 37.7052C70.4386 38.4023 69.8746 38.9665 69.1774 38.9665Z" fill="#696967"/>
</g>
</g>
</g>
</g>
</g>
</svg>
