<svg width="80" height="80" viewBox="0 0 80 80" fill="none" xmlns="http://www.w3.org/2000/svg">
<path d="M26.25 28.75C26.9124 28.752 27.5472 29.016 28.0156 29.4844C28.484 29.9528 28.748 30.5876 28.75 31.25C28.7451 31.9115 28.4801 32.5446 28.0123 33.0123C27.5446 33.4801 26.9115 33.7451 26.25 33.75H13.75C13.0876 33.748 12.4528 33.484 11.9844 33.0156C11.516 32.5472 11.252 31.9124 11.25 31.25C11.2549 30.5885 11.5199 29.9554 11.9877 29.4877C12.4554 29.0199 13.0885 28.7549 13.75 28.75H26.25Z" fill="#C1CFE8"/>
<path d="M26.2502 50L32.1377 60C23.7502 60.175 23.6502 66.125 16.2502 67.3375C14.3072 67.7721 12.2747 67.5443 10.4762 66.6904C8.67764 65.8364 7.21645 64.4054 6.3252 62.625L13.7502 50V33.75H26.2502V50Z" fill="#EDF4FA"/>
<path d="M37.4875 69.1C38.315 70.5099 38.7509 72.1152 38.75 73.75C38.75 75.0761 38.2232 76.3479 37.2855 77.2855C36.3479 78.2232 35.0761 78.75 33.75 78.75H6.25C4.92392 78.75 3.65215 78.2232 2.71447 77.2855C1.77679 76.3479 1.25 75.0761 1.25 73.75C1.24911 72.1152 1.68497 70.5099 2.5125 69.1L6.325 62.625C7.21626 64.4054 8.67745 65.8364 10.476 66.6904C12.2745 67.5443 14.307 67.7721 16.25 67.3375C23.65 66.125 23.75 60.175 32.1375 60L37.4875 69.1Z" fill="#F04438"/>
<path d="M16.25 61.25C17.6307 61.25 18.75 60.1307 18.75 58.75C18.75 57.3693 17.6307 56.25 16.25 56.25C14.8693 56.25 13.75 57.3693 13.75 58.75C13.75 60.1307 14.8693 61.25 16.25 61.25Z" fill="#F04438"/>
<path d="M16.25 60C15.6974 59.9979 15.161 59.8128 14.7247 59.4736C14.2885 59.1343 13.9769 58.6601 13.8388 58.125C13.7824 58.3287 13.7526 58.5387 13.75 58.75C13.75 59.413 14.0134 60.0489 14.4822 60.5178C14.9511 60.9866 15.587 61.25 16.25 61.25C16.913 61.25 17.5489 60.9866 18.0178 60.5178C18.4866 60.0489 18.75 59.413 18.75 58.75C18.7474 58.5387 18.7176 58.3287 18.6613 58.125C18.5231 58.6601 18.2115 59.1343 17.7753 59.4736C17.339 59.8128 16.8026 59.9979 16.25 60Z" fill="#BD4C4E"/>
<path d="M27.5 31.25H16.25C15.9185 31.25 15.6005 31.1183 15.3661 30.8839C15.1317 30.6495 15 30.3315 15 30C15 29.6685 15.1317 29.3505 15.3661 29.1161C15.6005 28.8817 15.9185 28.75 16.25 28.75H13.75C13.0885 28.7549 12.4554 29.0199 11.9877 29.4877C11.5199 29.9554 11.2549 30.5885 11.25 31.25C11.252 31.9124 11.516 32.5472 11.9844 33.0156C12.4528 33.484 13.0876 33.748 13.75 33.75H26.25C26.9115 33.7451 27.5446 33.4801 28.0123 33.0123C28.4801 32.5446 28.7451 31.9115 28.75 31.25C28.7451 31.0022 28.703 30.7565 28.625 30.5212C28.526 30.737 28.3677 30.9201 28.1684 31.0492C27.9692 31.1782 27.7374 31.2479 27.5 31.25Z" fill="#A8B7D4"/>
<path d="M9.8652 66.36L17.5002 50V40C17.5002 39.337 17.7636 38.7011 18.2324 38.2322C18.7013 37.7634 19.3372 37.5 20.0002 37.5H26.2502V33.75H13.7502V50L6.3252 62.625C7.12173 64.1843 8.35077 65.4811 9.8652 66.36Z" fill="#C1CFE8"/>
<path d="M33.75 72.5H11.8188C11.3026 72.4998 10.7949 72.3695 10.3425 72.1212C9.89005 71.8728 9.50754 71.5144 9.23032 71.079C8.95309 70.6437 8.79009 70.1455 8.75639 69.6305C8.72269 69.1155 8.81937 68.6003 9.0375 68.1325L9.865 66.36C8.35058 65.4811 7.12154 64.1843 6.325 62.625L2.5125 69.1C1.68497 70.5099 1.24911 72.1152 1.25 73.75C1.25 75.0761 1.77679 76.3479 2.71447 77.2855C3.65215 78.2232 4.92392 78.75 6.25 78.75H33.75C35.0761 78.75 36.3479 78.2232 37.2855 77.2855C38.2232 76.3479 38.75 75.0761 38.75 73.75C38.7499 72.4991 38.4947 71.2614 38 70.1125C37.5555 70.8413 36.9312 71.4436 36.187 71.8617C35.4428 72.2797 34.6036 72.4995 33.75 72.5Z" fill="#D74A40"/>
<path d="M32.0963 76.2505H30C29.6685 76.2505 29.3505 76.1188 29.1161 75.8844C28.8817 75.65 28.75 75.332 28.75 75.0005C28.75 74.669 28.8817 74.351 29.1161 74.1166C29.3505 73.8822 29.6685 73.7505 30 73.7505H32.0963C32.3927 73.7506 32.6837 73.6709 32.9389 73.5199C33.194 73.369 33.4039 73.1522 33.5465 72.8922C33.6891 72.6323 33.7592 72.3389 33.7495 72.0426C33.7398 71.7463 33.6506 71.458 33.4912 71.208L32.6688 69.7943C32.5193 69.5086 32.486 69.1762 32.5759 68.8666C32.6657 68.5569 32.8717 68.294 33.1508 68.1326C33.4299 67.9713 33.7606 67.924 34.0737 68.0007C34.3869 68.0774 34.6583 68.2722 34.8312 68.5443L35.6262 69.9193C36.037 70.5748 36.2536 71.3332 36.2512 72.1068C36.2473 73.2065 35.8079 74.2598 35.0292 75.0364C34.2505 75.813 33.196 76.2495 32.0963 76.2505Z" fill="#EDF4FA"/>
<path d="M31.2501 66.1114C31.0307 66.1114 30.8151 66.0536 30.6251 65.9439C30.4351 65.8342 30.2773 65.6764 30.1676 65.4864L29.8063 64.8614C29.6396 64.5748 29.5935 64.2337 29.6782 63.9131C29.763 63.5926 29.9716 63.3188 30.2582 63.152C30.5448 62.9853 30.8859 62.9392 31.2065 63.0239C31.527 63.1087 31.8008 63.3173 31.9676 63.6039L32.3301 64.2289C32.4397 64.4187 32.4974 64.6341 32.4975 64.8533C32.4977 65.0725 32.4401 65.2879 32.3307 65.4778C32.2213 65.6678 32.0639 65.8256 31.8742 65.9355C31.6845 66.0454 31.4693 66.1035 31.2501 66.1039V66.1114Z" fill="#EDF4FA"/>
<path d="M16.875 58.75C17.2202 58.75 17.5 58.4702 17.5 58.125C17.5 57.7798 17.2202 57.5 16.875 57.5C16.5298 57.5 16.25 57.7798 16.25 58.125C16.25 58.4702 16.5298 58.75 16.875 58.75Z" fill="#EDF4FA"/>
<path d="M22.5 8.75C23.8807 8.75 25 7.63071 25 6.25C25 4.86929 23.8807 3.75 22.5 3.75C21.1193 3.75 20 4.86929 20 6.25C20 7.63071 21.1193 8.75 22.5 8.75Z" fill="#F04438"/>
<path d="M17.5 21.25C19.5711 21.25 21.25 19.5711 21.25 17.5C21.25 15.4289 19.5711 13.75 17.5 13.75C15.4289 13.75 13.75 15.4289 13.75 17.5C13.75 19.5711 15.4289 21.25 17.5 21.25Z" fill="#F04438"/>
<path d="M22.5 6.25C22.0635 6.24758 21.6352 6.13092 21.2578 5.91162C20.8804 5.69232 20.567 5.37803 20.3487 5C20.1231 5.37811 20.0027 5.80969 20 6.25C20 6.91304 20.2634 7.54893 20.7322 8.01777C21.2011 8.48661 21.837 8.75 22.5 8.75C23.163 8.75 23.7989 8.48661 24.2678 8.01777C24.7366 7.54893 25 6.91304 25 6.25C24.9973 5.80969 24.8769 5.37811 24.6513 5C24.433 5.37803 24.1196 5.69232 23.7422 5.91162C23.3648 6.13092 22.9365 6.24758 22.5 6.25Z" fill="#BD4C4E"/>
<path d="M17.5 18.75C16.7264 18.7496 15.9719 18.5088 15.3411 18.061C14.7103 17.6131 14.2342 16.9803 13.9788 16.25C13.7712 16.8167 13.7035 17.4251 13.7813 18.0235C13.8592 18.622 14.0804 19.1928 14.426 19.6875C14.7717 20.1822 15.2316 20.5862 15.7668 20.8651C16.3019 21.144 16.8965 21.2897 17.5 21.2897C18.1035 21.2897 18.6981 21.144 19.2332 20.8651C19.7684 20.5862 20.2283 20.1822 20.574 19.6875C20.9196 19.1928 21.1408 18.622 21.2187 18.0235C21.2965 17.4251 21.2288 16.8167 21.0212 16.25C20.7658 16.9803 20.2897 17.6131 19.6589 18.061C19.0281 18.5088 18.2736 18.7496 17.5 18.75Z" fill="#BD4C4E"/>
<path d="M18.125 16.25C18.4702 16.25 18.75 15.9702 18.75 15.625C18.75 15.2798 18.4702 15 18.125 15C17.7798 15 17.5 15.2798 17.5 15.625C17.5 15.9702 17.7798 16.25 18.125 16.25Z" fill="#EDF4FA"/>
<path d="M23.125 6.25C23.4702 6.25 23.75 5.97018 23.75 5.625C23.75 5.27982 23.4702 5 23.125 5C22.7798 5 22.5 5.27982 22.5 5.625C22.5 5.97018 22.7798 6.25 23.125 6.25Z" fill="#EDF4FA"/>
<path d="M33.75 60H41.25V63.75H33.75V60Z" fill="#5C6979"/>
<path d="M23.75 56.25H48.5125C47.8435 57.386 47.4937 58.6816 47.5 60H27.5C26.5054 60 25.5516 59.6049 24.8483 58.9016C24.1451 58.1984 23.75 57.2446 23.75 56.25Z" fill="#D6E0EB"/>
<path d="M76.25 78.75H21.25C21.2492 78.0932 21.3779 77.4426 21.6289 76.8356C21.8799 76.2286 22.2482 75.6771 22.7126 75.2126C23.1771 74.7482 23.7286 74.3799 24.3356 74.1289C24.9426 73.8779 25.5932 73.7492 26.25 73.75H71.25C72.5761 73.75 73.8479 74.2768 74.7855 75.2145C75.7232 76.1522 76.25 77.4239 76.25 78.75Z" fill="#FFBE4F"/>
<path d="M55 63.75C57.0711 63.75 58.75 62.0711 58.75 60C58.75 57.9289 57.0711 56.25 55 56.25C52.9289 56.25 51.25 57.9289 51.25 60C51.25 62.0711 52.9289 63.75 55 63.75Z" fill="#7DCDF0"/>
<path d="M55 58.7496C55.7737 58.75 56.5281 58.9908 57.1589 59.4387C57.7897 59.8866 58.2658 60.5194 58.5213 61.2496C58.7288 60.683 58.7965 60.0746 58.7187 59.4761C58.6408 58.8777 58.4196 58.3069 58.074 57.8121C57.7283 57.3174 57.2684 56.9135 56.7332 56.6345C56.1981 56.3556 55.6035 56.21 55 56.21C54.3965 56.21 53.8019 56.3556 53.2668 56.6345C52.7316 56.9135 52.2717 57.3174 51.926 57.8121C51.5804 58.3069 51.3592 58.8777 51.2813 59.4761C51.2035 60.0746 51.2712 60.683 51.4788 61.2496C51.7342 60.5194 52.2103 59.8866 52.8411 59.4387C53.4719 58.9908 54.2264 58.75 55 58.7496Z" fill="#5198CC"/>
<path d="M55 31.25C56.3807 31.25 57.5 30.1307 57.5 28.75C57.5 27.3693 56.3807 26.25 55 26.25C53.6193 26.25 52.5 27.3693 52.5 28.75C52.5 30.1307 53.6193 31.25 55 31.25Z" fill="#7DCDF0"/>
<path d="M78.7498 44.3752C78.7515 48.9716 77.1175 53.4186 74.1402 56.9203C71.1629 60.4221 67.0366 62.7501 62.4998 63.4877V60.0002C62.5054 58.6133 62.1198 57.2529 61.3873 56.0752C64.2669 55.5801 66.8629 54.0408 68.6787 51.7516C70.4945 49.4625 71.4026 46.5843 71.2293 43.6676C71.056 40.7509 69.8134 38.0004 67.7394 35.9424C65.6653 33.8844 62.9053 32.6633 59.9873 32.5127C60.8023 31.4336 61.2453 30.1192 61.2498 28.7669C61.2543 27.4145 60.8201 26.0972 60.0123 25.0127C65.0374 25.1781 69.8014 27.2905 73.2979 30.9036C76.7943 34.5166 78.7493 39.3474 78.7498 44.3752Z" fill="#D6E0EB"/>
<path d="M40.7638 41.1498L38.175 43.7498L31.25 36.8248L33.85 34.2373L40.7638 41.1498Z" fill="#D6E0EB"/>
<path d="M46.8262 35.0998L44.2263 37.6873L37.3125 30.7873V30.7748L39.9012 28.1748L46.8262 35.0998Z" fill="#5C6979"/>
<path d="M64.9902 18.6627L59.3752 24.2752C58.197 23.1236 56.6123 22.483 54.9649 22.4924C53.3174 22.5017 51.7401 23.1603 50.5751 24.3251C49.4101 25.49 48.7513 27.0672 48.7417 28.7146C48.7321 30.3621 49.3725 31.9469 50.5239 33.1252L47.6864 35.9627L46.8239 35.1002L39.8989 28.1752L39.0352 27.3127L56.3389 10.0127L64.9902 18.6627Z" fill="#EDF4FA"/>
<path d="M70.6154 12.1752C70.6372 12.1996 70.6625 12.2207 70.6904 12.2377L71.0529 12.6002L67.5904 16.0627L58.9404 7.41269L62.4029 3.9502L62.7654 4.3127C62.7824 4.34064 62.8035 4.36592 62.8279 4.3877L70.6154 12.1752Z" fill="#D6E0EB"/>
<path d="M62.7642 4.3126C62.526 4.04957 62.3693 3.72304 62.3131 3.37267C62.257 3.0223 62.3037 2.66316 62.4478 2.33886C62.5918 2.01455 62.8268 1.73904 63.1244 1.54577C63.422 1.3525 63.7693 1.24978 64.1242 1.2501C64.3659 1.24754 64.6056 1.29383 64.829 1.3862C65.0524 1.47856 65.2548 1.61509 65.4242 1.7876L73.2117 9.5751C73.5546 9.92088 73.747 10.3881 73.747 10.8751C73.747 11.3621 73.5546 11.8293 73.2117 12.1751C72.8645 12.5162 72.3983 12.7089 71.9117 12.7126C71.4588 12.7103 71.0227 12.5412 70.6867 12.2376C70.6587 12.2206 70.6335 12.1995 70.6117 12.1751L62.8242 4.3876C62.8006 4.36565 62.7804 4.34038 62.7642 4.3126Z" fill="#598EDE"/>
<path d="M58.94 7.4124L67.59 16.0624L68.0275 16.4999C68.2835 16.7564 68.4577 17.083 68.5279 17.4386C68.5982 17.7941 68.5614 18.1624 68.4222 18.497C68.283 18.8316 68.0477 19.1174 67.746 19.3182C67.4443 19.5189 67.0899 19.6257 66.7275 19.6249C66.4858 19.6275 66.246 19.5812 66.0226 19.4888C65.7992 19.3964 65.5968 19.2599 65.4275 19.0874L64.99 18.6624L56.3387 10.0124L55.9137 9.5749C55.7415 9.40501 55.6048 9.20261 55.5115 8.97944C55.4182 8.75628 55.3701 8.51679 55.3701 8.2749C55.3701 8.03301 55.4182 7.79353 55.5115 7.57036C55.6048 7.3472 55.7415 7.14479 55.9137 6.9749C56.0835 6.80456 56.2852 6.66941 56.5073 6.57719C56.7295 6.48497 56.9676 6.4375 57.2081 6.4375C57.4486 6.4375 57.6867 6.48497 57.9088 6.57719C58.131 6.66941 58.3327 6.80456 58.5025 6.9749L58.94 7.4124Z" fill="#598EDE"/>
<path d="M37.3121 30.7881L45.0884 38.5631L41.6384 42.0256L40.7634 41.1506L33.8496 34.2381L32.9746 33.3631L36.4371 29.9131L37.3121 30.7881Z" fill="#598EDE"/>
<path d="M57.4993 28.7502C57.4993 28.2558 57.3527 27.7724 57.0779 27.3613C56.8032 26.9502 56.4128 26.6298 55.956 26.4406C55.4992 26.2513 54.9965 26.2018 54.5115 26.2983C54.0266 26.3947 53.5811 26.6329 53.2315 26.9825C52.8819 27.3321 52.6438 27.7776 52.5473 28.2625C52.4508 28.7475 52.5004 29.2501 52.6896 29.707C52.8788 30.1638 53.1992 30.5542 53.6103 30.8289C54.0215 31.1036 54.5048 31.2502 54.9993 31.2502C55.6617 31.2483 56.2964 30.9842 56.7649 30.5158C57.2333 30.0474 57.4973 29.4127 57.4993 28.7502ZM60.0118 25.0128C60.7052 25.9422 61.1264 27.0462 61.2283 28.2014C61.3301 29.3566 61.1086 30.5173 60.5884 31.5537C60.0682 32.5902 59.27 33.4614 58.2829 34.0701C57.2958 34.6788 56.1589 35.0008 54.9993 35.0002C54.1666 34.9983 53.3425 34.8317 52.5744 34.5099C51.8064 34.1881 51.1096 33.7175 50.5243 33.1252C49.3825 31.9451 48.7503 30.3636 48.7639 28.7217C48.7775 27.0797 49.4357 25.5089 50.5968 24.3478C51.7579 23.1867 53.3287 22.5284 54.9707 22.5149C56.6126 22.5013 58.1942 23.1335 59.3743 24.2752C59.5994 24.5063 59.8083 24.7527 59.9993 25.0128H60.0118Z" fill="#598EDE"/>
<path d="M59.9879 29.9998C59.407 30.7734 58.6538 31.401 57.788 31.8328C56.9223 32.2646 55.9679 32.4887 55.0004 32.4873C54.1677 32.4854 53.3436 32.3187 52.5756 31.9969C51.8076 31.6751 51.1108 31.2045 50.5254 30.6123C49.6855 29.7517 49.1129 28.6664 48.8767 27.4873C48.6723 28.4883 48.7157 29.524 49.0031 30.5044C49.2904 31.4847 49.813 32.38 50.5254 33.1123C51.1108 33.7045 51.8076 34.1751 52.5756 34.4969C53.3436 34.8187 54.1677 34.9854 55.0004 34.9873C55.9294 34.9959 56.8485 34.7953 57.6895 34.4005C58.5304 34.0056 59.2718 33.4266 59.8586 32.7063C60.4454 31.986 60.8626 31.1429 61.0793 30.2395C61.296 29.336 61.3066 28.3954 61.1104 27.4873C60.9259 28.3973 60.5426 29.2552 59.9879 29.9998Z" fill="#4C76BD"/>
<path d="M58.7501 60.0004C58.7501 59.2587 58.5301 58.5337 58.1181 57.917C57.706 57.3003 57.1204 56.8197 56.4351 56.5358C55.7499 56.252 54.9959 56.1777 54.2685 56.3224C53.5411 56.4671 52.8729 56.8243 52.3484 57.3487C51.824 57.8732 51.4668 58.5414 51.3221 59.2688C51.1774 59.9962 51.2517 60.7502 51.5355 61.4354C51.8194 62.1207 52.3 62.7063 52.9167 63.1184C53.5334 63.5304 54.2584 63.7504 55.0001 63.7504C55.9946 63.7504 56.9485 63.3553 57.6517 62.652C58.355 61.9488 58.7501 60.9949 58.7501 60.0004ZM61.3876 56.0754C62.1201 57.2531 62.5057 58.6135 62.5001 60.0004V73.7504H47.5001V60.0004C47.4938 58.682 47.8436 57.3864 48.5126 56.2504C49.0863 55.2539 49.8819 54.403 50.8376 53.7637C51.7933 53.1243 52.8835 52.7138 54.0235 52.5639C55.1635 52.414 56.3227 52.5287 57.4112 52.8993C58.4998 53.2698 59.4883 53.8861 60.3001 54.7004C60.7171 55.1128 61.0823 55.5745 61.3876 56.0754Z" fill="#598EDE"/>
<path d="M28.75 76.25C28.4185 76.25 28.1005 76.1183 27.8661 75.8839C27.6317 75.6495 27.5 75.3315 27.5 75C27.5 74.6685 27.6317 74.3505 27.8661 74.1161C28.1005 73.8817 28.4185 73.75 28.75 73.75H26.25C25.5932 73.7492 24.9426 73.8779 24.3356 74.1289C23.7286 74.3799 23.1771 74.7482 22.7126 75.2126C22.2482 75.6771 21.8799 76.2286 21.6289 76.8356C21.3779 77.4426 21.2492 78.0932 21.25 78.75H76.25C76.2478 77.6655 75.8899 76.6116 75.2313 75.75C74.8043 76.072 74.2847 76.2474 73.75 76.25H28.75Z" fill="#F2A142"/>
<path d="M60.0001 70H53.7501C53.087 70 52.4512 69.7366 51.9823 69.2678C51.5135 68.7989 51.2501 68.1631 51.2501 67.5V57.5C51.2524 56.2538 51.7217 55.0536 52.5654 54.1364C53.4091 53.2191 54.5659 52.6513 55.8076 52.545C54.363 52.3857 52.9033 52.6514 51.6075 53.3095C50.3117 53.9676 49.2361 54.9896 48.5126 56.25C47.8436 57.386 47.4938 58.6816 47.5001 60V73.75H62.5001V67.5C62.5001 68.1631 62.2367 68.7989 61.7679 69.2678C61.299 69.7366 60.6631 70 60.0001 70Z" fill="#4C76BD"/>
<path d="M55 55C54.0111 55 53.0444 55.2932 52.2221 55.8427C51.3999 56.3921 50.759 57.173 50.3806 58.0866C50.0022 59.0002 49.9031 60.0055 50.0961 60.9755C50.289 61.9454 50.7652 62.8363 51.4645 63.5355C52.1637 64.2348 53.0546 64.711 54.0246 64.9039C54.9945 65.0969 55.9998 64.9978 56.9134 64.6194C57.8271 64.241 58.6079 63.6001 59.1574 62.7779C59.7068 61.9556 60 60.9889 60 60C60 58.6739 59.4732 57.4021 58.5355 56.4645C57.5979 55.5268 56.3261 55 55 55ZM55 63.75C54.2583 63.75 53.5333 63.5301 52.9166 63.118C52.2999 62.706 51.8193 62.1203 51.5355 61.4351C51.2516 60.7498 51.1774 59.9958 51.3221 59.2684C51.4668 58.541 51.8239 57.8728 52.3484 57.3484C52.8728 56.8239 53.541 56.4667 54.2684 56.3221C54.9958 56.1774 55.7498 56.2516 56.4351 56.5355C57.1203 56.8193 57.706 57.2999 58.118 57.9166C58.5301 58.5333 58.75 59.2583 58.75 60C58.75 60.9946 58.3549 61.9484 57.6517 62.6516C56.9484 63.3549 55.9946 63.75 55 63.75Z" fill="#EDF4FA"/>
<path d="M55 27.4873C55.5524 27.4897 56.0885 27.6749 56.5245 28.0141C56.9605 28.3533 57.2719 28.8274 57.41 29.3623C57.4674 29.1588 57.4976 28.9487 57.5 28.7373C57.5 28.0743 57.2366 27.4384 56.7678 26.9695C56.2989 26.5007 55.663 26.2373 55 26.2373C54.337 26.2373 53.7011 26.5007 53.2322 26.9695C52.7634 27.4384 52.5 28.0743 52.5 28.7373C52.5024 28.9487 52.5326 29.1588 52.59 29.3623C52.7281 28.8274 53.0395 28.3533 53.4755 28.0141C53.9115 27.6749 54.4476 27.4897 55 27.4873Z" fill="#5198CC"/>
<path d="M55 25C54.2583 25 53.5333 25.2199 52.9166 25.632C52.2999 26.044 51.8193 26.6297 51.5355 27.3149C51.2516 28.0002 51.1774 28.7542 51.3221 29.4816C51.4668 30.209 51.8239 30.8772 52.3484 31.4017C52.8728 31.9261 53.541 32.2833 54.2684 32.4279C54.9958 32.5726 55.7498 32.4984 56.4351 32.2145C57.1203 31.9307 57.706 31.4501 58.118 30.8334C58.5301 30.2167 58.75 29.4917 58.75 28.75C58.75 27.7554 58.3549 26.8016 57.6516 26.0983C56.9484 25.3951 55.9946 25 55 25ZM55 31.2375C54.5055 31.2375 54.0222 31.0909 53.6111 30.8162C53.2 30.5415 52.8795 30.151 52.6903 29.6942C52.5011 29.2374 52.4516 28.7347 52.548 28.2498C52.6445 27.7648 52.8826 27.3194 53.2322 26.9697C53.5819 26.6201 54.0273 26.382 54.5123 26.2855C54.9972 26.1891 55.4999 26.2386 55.9567 26.4278C56.4135 26.617 56.804 26.9375 57.0787 27.3486C57.3534 27.7597 57.5 28.243 57.5 28.7375C57.498 29.3999 57.234 30.0347 56.7656 30.5031C56.2972 30.9715 55.6624 31.2355 55 31.2375Z" fill="#EDF4FA"/>
<path d="M64.9997 28.1377V25.8539C63.3814 25.3557 61.7044 25.0728 60.0122 25.0127C60.8173 26.0923 61.2514 27.4034 61.2497 28.7502C61.2497 28.7814 61.2422 28.8102 61.2422 28.8414C61.2253 30.1668 60.7876 31.4524 59.9922 32.5127C62.9102 32.6633 65.6702 33.8844 67.7442 35.9424C69.8183 38.0004 71.0608 40.7509 71.2341 43.6676C71.4074 46.5843 70.4993 49.4625 68.6836 51.7516C66.8678 54.0408 64.2718 55.5801 61.3922 56.0752C62.0698 57.172 62.4466 58.4278 62.4847 59.7164C62.4847 59.8127 62.5047 59.9039 62.5047 60.0002V63.4877C63.3504 63.3492 64.1856 63.1534 65.0047 62.9014V60.6127C65.0053 60.1498 65.135 59.6961 65.3792 59.3029C65.6234 58.9096 65.9725 58.5922 66.3872 58.3864C68.9791 57.0766 71.1568 55.0735 72.6783 52.6C74.1998 50.1264 75.0053 47.2792 75.0053 44.3752C75.0053 41.4711 74.1998 38.624 72.6783 36.1504C71.1568 33.6768 68.9791 31.6738 66.3872 30.3639C65.9716 30.1589 65.6215 29.8418 65.3763 29.4485C65.1312 29.0551 65.0007 28.6012 64.9997 28.1377Z" fill="#A8B7D4"/>
<path d="M43.7495 56.25V57.5C43.7495 57.8315 43.6178 58.1495 43.3834 58.3839C43.149 58.6183 42.8311 58.75 42.4995 58.75H26.2495C25.6743 58.7501 25.1166 58.5519 24.6705 58.1887C24.2245 57.8255 23.9173 57.3196 23.8008 56.7562C23.9167 57.6545 24.3564 58.4796 25.0374 59.0768C25.7184 59.674 26.5938 60.0023 27.4995 60H47.4995C47.4932 58.6816 47.843 57.386 48.512 56.25H43.7495Z" fill="#A8B7D4"/>
<path d="M41.25 60H33.75V63.75H35C35 63.087 35.2634 62.4511 35.7322 61.9822C36.2011 61.5134 36.837 61.25 37.5 61.25H41.25V60Z" fill="#393D48"/>
<path d="M40.7635 41.1498L33.8498 34.2373L32.6973 35.3848L37.6785 40.3661C37.9129 40.6005 38.0445 40.9184 38.0445 41.2498C38.0445 41.5813 37.9129 41.8991 37.6785 42.1336L37.1185 42.6936L38.1748 43.7498L40.7635 41.1498Z" fill="#A8B7D4"/>
<path d="M37.3129 30.7881L36.4379 29.9131L34.9541 31.3918L41.4291 37.8668C41.6634 38.1012 41.7951 38.4191 41.7951 38.7506C41.7951 39.082 41.6634 39.3999 41.4291 39.6343L40.3379 40.7256L40.7641 41.1506L41.6391 42.0256L45.0891 38.5631L37.3129 30.7881Z" fill="#446AA9"/>
<path d="M46.826 35.0998L39.8998 28.1748L38.3223 29.7598L42.6785 34.1161C42.9129 34.3505 43.0445 34.6683 43.0445 34.9998C43.0445 35.3313 42.9129 35.6491 42.6785 35.8836L42.5535 36.0086L44.231 37.6823L46.826 35.0998Z" fill="#393D48"/>
<path d="M71.052 12.6002L70.6895 12.2377C70.6616 12.2207 70.6363 12.1996 70.6145 12.1752L62.827 4.3877C62.8026 4.36592 62.7815 4.34064 62.7645 4.3127L62.402 3.9502L61.207 5.1452L66.7945 10.7327C67.2632 11.2015 67.5265 11.8373 67.5265 12.5002C67.5265 13.1631 67.2632 13.7989 66.7945 14.2677L66.2945 14.7677L67.5895 16.0627L71.052 12.6002Z" fill="#A8B7D4"/>
<path d="M73.2148 9.57535L72.9761 9.3366L71.9461 10.3666C71.7116 10.6009 71.3938 10.7326 71.0623 10.7326C70.7309 10.7326 70.413 10.6009 70.1786 10.3666L62.3911 2.5791C62.301 2.87613 62.2881 3.19123 62.3537 3.4946C62.4194 3.79798 62.5613 4.0796 62.7661 4.31285C62.7831 4.3408 62.8041 4.36608 62.8286 4.38785L70.6161 12.1754C70.6378 12.1998 70.6631 12.2208 70.6911 12.2379C71.0271 12.5414 71.4632 12.7106 71.9161 12.7129C72.4027 12.7092 72.8689 12.5164 73.2161 12.1754C73.5588 11.8294 73.7509 11.3621 73.7507 10.8751C73.7505 10.3881 73.5579 9.92097 73.2148 9.57535Z" fill="#446AA9"/>
<path d="M67.5896 16.0624L66.2946 14.7674L65.6959 15.3662C65.4614 15.6005 65.1436 15.7322 64.8121 15.7322C64.4806 15.7322 64.1628 15.6005 63.9284 15.3662L55.7634 7.20117C55.4953 7.5476 55.3627 7.97983 55.3903 8.41697C55.4179 8.85411 55.6039 9.26622 55.9134 9.57617L56.3384 10.0137L64.9896 18.6637L65.4271 19.0887C65.5964 19.2612 65.7989 19.3977 66.0223 19.4901C66.2456 19.5824 66.4854 19.6287 66.7271 19.6262C67.0895 19.627 67.444 19.5202 67.7457 19.3194C68.0473 19.1187 68.2827 18.8329 68.4219 18.4983C68.5611 18.1637 68.5978 17.7953 68.5276 17.4398C68.4573 17.0843 68.2831 16.7576 68.0271 16.5012L67.5896 16.0624Z" fill="#446AA9"/>
<path d="M46.8258 35.1L47.6883 35.9625L50.5258 33.125C49.8715 32.4425 49.3819 31.6195 49.0945 30.7188L45.7695 34.0437L46.8258 35.1Z" fill="#A8B7D4"/>
<path d="M57.5276 22.2852L56.9701 22.8427C57.8701 23.1316 58.6925 23.6215 59.3751 24.2752L64.9876 18.6627L56.3389 10.0127L54.3389 12.0202L57.5339 15.2152C58.4704 16.1537 58.9958 17.4257 58.9947 18.7515C58.9935 20.0773 58.4658 21.3484 57.5276 22.2852Z" fill="#A8B7D4"/>
</svg>
