<svg width="80" height="80" viewBox="0 0 80 80" fill="none" xmlns="http://www.w3.org/2000/svg">
<g id="Layer_1">
<g id="Layer_x0020_1">
<g id="_386791888">
<path id="_386795416" d="M37.658 58.663C37.7864 58.2198 37.5313 57.7563 37.0881 57.6279C37.0513 57.6173 32.8813 58.1021 31.2447 57.6279C30.8015 57.4996 30.3382 57.7547 30.2097 58.1979L24.8387 76.5383C24.8017 76.6329 24.7812 76.7358 24.7812 76.8436C24.7812 77.3067 25.1567 77.6822 25.6196 77.6822H31.449C31.8173 77.6886 32.1592 77.4498 32.2678 77.0793L32.2657 77.0761L37.658 58.663Z" fill="#6370C5"/>
<path id="_386795272" d="M42.9118 57.6285C42.4686 57.7568 42.2134 58.2203 42.3418 58.6635L47.734 77.0766L47.7318 77.0798C47.8405 77.4505 48.1823 77.6891 48.5507 77.6827H54.38C54.843 77.6827 55.2184 77.3072 55.2184 76.8441C55.2184 76.7364 55.198 76.6334 55.161 76.5389L49.7902 58.1984C49.6618 57.7552 49.1983 57.5001 48.7551 57.6285C46.6853 58.2279 44.4561 57.181 42.9118 57.6285Z" fill="#6370C5"/>
<path id="_386795440" d="M22.0622 58.663C22.1905 58.2198 21.9354 57.7563 21.4922 57.6279C21.454 57.6169 17.2947 58.1047 15.6488 57.6279C15.2056 57.4996 14.7423 57.7547 14.6138 58.1979L9.24297 76.5383C9.20599 76.6329 9.18555 76.7358 9.18555 76.8436C9.18555 77.3067 9.56101 77.6822 10.0239 77.6822H15.8533C16.2216 77.6886 16.5635 77.4498 16.6721 77.0793L16.67 77.0761L22.0622 58.663Z" fill="#6370C5"/>
<path id="_386794936" d="M58.5065 57.6287C58.0633 57.757 57.8082 58.2205 57.9365 58.6637L63.3287 77.0769L63.3266 77.0801C63.4352 77.4507 63.7771 77.6893 64.1454 77.6829H69.9747C70.4377 77.6829 70.8131 77.3074 70.8131 76.8443C70.8131 76.7366 70.7927 76.6337 70.7557 76.5391L65.3849 58.1986C65.2565 57.7554 64.7931 57.5003 64.3499 57.6287C61.8272 58.3597 60.0181 57.1906 58.5065 57.6287Z" fill="#6370C5"/>
<path id="_386794912" d="M6.98379 2.31836H73.0156C74.497 2.31836 75.8432 2.92387 76.8186 3.89934C77.7941 4.8748 78.3996 6.22129 78.3996 7.70254V53.8851C78.3996 55.3664 77.7941 56.7127 76.8186 57.6881C75.8432 58.6636 74.4969 59.2693 73.0156 59.2693H6.98379C5.50254 59.2693 4.15605 58.6638 3.18059 57.6883C2.2053 56.7128 1.59961 55.3665 1.59961 53.8851V7.70236C1.59961 6.22094 2.20512 4.87463 3.18059 3.89916C4.15605 2.92369 5.50236 2.31836 6.98379 2.31836Z" fill="#5C69BE"/>
<path id="_386795584" d="M72.6599 54.3674H7.33955C6.87644 54.3674 6.50098 53.9919 6.50098 53.529V8.05733C6.50098 7.59422 6.87644 7.21875 7.33955 7.21875H72.6599C73.123 7.21875 73.4985 7.59422 73.4985 8.05733V53.529C73.4983 53.9919 73.123 54.3674 72.6599 54.3674Z" fill="white"/>
<g id="Group">
<path id="_386794120" d="M12.2112 16.9795C12.0116 16.9795 11.8496 17.1414 11.8496 17.3411V23.3507C11.8496 23.5503 12.0116 23.7123 12.2112 23.7123H14.544C14.7437 23.7123 14.9056 23.5503 14.9056 23.3507V18.0209C14.9056 17.8213 14.7437 17.6593 14.544 17.6593C13.5835 17.6593 12.872 16.9795 12.2112 16.9795Z" fill="#484A4E"/>
<path id="_386794672" d="M12.5581 22.9189H14.1976C14.3717 22.9189 14.537 22.9538 14.6913 23.0224C14.8442 23.0903 14.9805 23.1901 15.0977 23.32C15.2152 23.4503 15.3004 23.5961 15.3521 23.755C15.4035 23.9127 15.4205 24.0805 15.4024 24.2555L15.012 28.0176C14.9798 28.3278 14.8344 28.5997 14.6189 28.7938C14.4031 28.9883 14.1181 29.1051 13.8074 29.1051H12.9489C12.638 29.1051 12.353 28.9883 12.1372 28.7938C11.9219 28.5997 11.7763 28.3278 11.7441 28.0176L11.3537 24.2555C11.3356 24.0805 11.3526 23.9127 11.404 23.7549C11.4557 23.5961 11.5409 23.4501 11.6584 23.3198C11.7756 23.1899 11.9119 23.0903 12.0648 23.0222C12.2189 22.9538 12.3843 22.9189 12.5581 22.9189Z" fill="#FFC107"/>
<path id="_386794192" d="M36.4775 18.6721C36.4775 18.4725 36.3156 18.3105 36.1159 18.3105C29.6704 18.3105 23.2251 18.3105 16.7776 18.3105C16.578 18.3105 16.416 18.4725 16.416 18.6721V25.0355C16.416 25.4513 16.5607 25.8364 16.8208 26.155C17.0718 26.4624 17.429 26.7043 17.8642 26.8458L25.6578 29.3824C25.9198 29.4677 26.1833 29.5102 26.4493 29.5102C26.7152 29.5102 26.9787 29.4675 27.2407 29.3822L35.0297 26.846C35.4647 26.7043 35.8219 26.4625 36.0729 26.1552C36.333 25.8368 36.4775 25.4517 36.4775 25.0359V18.6721Z" fill="#505257"/>
<path id="_386794600" d="M36.4775 18.6721C36.4775 18.4725 36.3156 18.3105 36.1159 18.3105C29.6704 18.3105 23.2251 18.3105 16.7776 18.3105C16.578 18.3105 16.416 18.4725 16.416 18.6721V19.5171L26.1625 22.3571C26.3412 22.4092 26.5221 22.4193 26.7024 22.3669L27.2274 22.214L27.227 22.2128L36.4777 19.5171L36.4775 18.6721Z" fill="#4B4C51"/>
<path id="_386794792" d="M26.8074 18.3105H26.0869L26.0885 29.4839C26.2083 29.5015 26.3285 29.5102 26.449 29.5102C26.5694 29.5102 26.6894 29.5015 26.8089 29.4839L26.8074 18.3105Z" fill="#484A4E"/>
<path id="_386793352" d="M26.8074 18.3105H26.0869L26.0874 22.3353L26.1623 22.3571C26.341 22.4092 26.5219 22.4193 26.7022 22.3669L26.8078 22.3361L26.8074 18.3105Z" fill="#434549"/>
<path id="_386793424" d="M26.5766 12.1502L41.9931 16.6423L41.994 16.6412C42.1856 16.6971 42.2958 16.8978 42.24 17.0896C42.2011 17.2233 42.0916 17.3175 41.9638 17.3431L26.5474 21.8352L26.5478 21.8364C26.4686 21.8595 26.3879 21.8542 26.3166 21.8267L10.9001 17.3346L10.8992 17.3356C10.7076 17.2798 10.5974 17.0791 10.6532 16.8873C10.6921 16.7534 10.8016 16.6594 10.9294 16.6338L26.3458 12.1417L26.3454 12.1404C26.4246 12.1175 26.5053 12.1227 26.5766 12.1502Z" fill="#626368"/>
</g>
<path id="_386793736" d="M46.0991 13.3389H51.1297C51.5928 13.3389 51.9681 13.7143 51.9681 14.1774V28.895C51.9681 29.3581 51.5927 29.7334 51.1297 29.7334H46.0991C45.636 29.7334 45.2607 29.3579 45.2607 28.895V14.1774C45.2607 13.7143 45.636 13.3389 46.0991 13.3389Z" fill="#EF5350"/>
<path id="_386793616" d="M54.7984 21.0938H59.8289C60.292 21.0938 60.6675 21.4692 60.6675 21.9322V28.8943C60.6675 29.3574 60.292 29.7327 59.8289 29.7327H54.7984C54.3353 29.7327 53.96 29.3572 53.96 28.8943V21.9322C53.96 21.469 54.3353 21.0938 54.7984 21.0938Z" fill="#FFC107"/>
<path id="_386793448" d="M63.4966 16.2734H68.5272C68.9903 16.2734 69.3658 16.6489 69.3658 17.1118V28.8949C69.3658 29.3581 68.9903 29.7333 68.5272 29.7333H63.4966C63.0337 29.7333 62.6582 29.3579 62.6582 28.8949V17.1118C62.6582 16.6487 63.0337 16.2734 63.4966 16.2734Z" fill="#98DB7C"/>
<g id="Group_2">
<path id="_386793640" d="M40.0212 32.3428C39.5581 32.3428 39.1826 32.7182 39.1826 33.1812C39.1826 33.6443 39.5581 34.0196 40.0212 34.0196H68.5277C68.9908 34.0196 69.3663 33.6441 69.3663 33.1812C69.3663 32.7181 68.9908 32.3428 68.5277 32.3428H40.0212Z" fill="#4D4D4D"/>
<path id="_386793088" d="M40.0212 36.2588C39.5581 36.2588 39.1826 36.6343 39.1826 37.0972C39.1826 37.5603 39.5581 37.9358 40.0212 37.9358H68.5277C68.9908 37.9358 69.3663 37.5603 69.3663 37.0972C69.3663 36.6343 68.9908 36.2588 68.5277 36.2588H40.0212Z" fill="#4D4D4D"/>
<path id="_386792608" d="M40.0212 40.1758C39.5581 40.1758 39.1826 40.5512 39.1826 41.0144C39.1826 41.4773 39.5581 41.8528 40.0212 41.8528H68.5277C68.9908 41.8528 69.3663 41.4773 69.3663 41.0144C69.3663 40.5512 68.9908 40.1758 68.5277 40.1758H40.0212Z" fill="#4D4D4D"/>
<path id="_386793256" d="M40.0212 44.0918C39.5581 44.0918 39.1826 44.4673 39.1826 44.9302C39.1826 45.3931 39.5581 45.7686 40.0212 45.7686H68.5277C68.9908 45.7686 69.3663 45.3931 69.3663 44.9302C69.3663 44.4673 68.9908 44.0918 68.5277 44.0918H40.0212Z" fill="#4D4D4D"/>
<path id="_386792968" d="M40.0212 48.0078C39.5581 48.0078 39.1826 48.3833 39.1826 48.8462C39.1826 49.3093 39.5581 49.6846 40.0212 49.6846H68.5277C68.9908 49.6846 69.3663 49.3091 69.3663 48.8462C69.3663 48.3833 68.9908 48.0078 68.5277 48.0078H40.0212Z" fill="#4D4D4D"/>
</g>
<g id="Group_3">
<path id="_386792656" d="M29.1878 33.9321L29.1929 33.9342L29.1972 33.936L30.4605 32.6727C30.7385 32.3947 31.1894 32.3947 31.4674 32.6727L31.4706 32.6759L34.3375 35.5427C34.6155 35.8208 34.6155 36.2716 34.3375 36.5497L34.3343 36.5529L33.0744 37.8128L33.0763 37.8176L33.0783 37.8224H34.8646C35.2578 37.8224 35.5766 38.1412 35.5766 38.5346V42.5936C35.5766 42.9868 35.2578 43.3056 34.8646 43.3056H33.0785L33.0763 43.3108L33.0745 43.3152L34.3377 44.5785C34.6157 44.8565 34.6157 45.3074 34.3377 45.5854L34.3344 45.5886L31.4676 48.4555C31.1896 48.7335 30.7387 48.7335 30.4607 48.4555L30.4575 48.4523L29.1974 47.1922L29.1919 47.1945L29.188 47.1961V48.9829C29.188 49.3762 28.8692 49.6949 28.4758 49.6949H24.4168C24.0235 49.6949 23.7048 49.3762 23.7048 48.9829V47.1964L23.6996 47.1943L23.6952 47.1925L22.4319 48.4556C22.1538 48.7337 21.703 48.7337 21.4249 48.4556L21.4217 48.4524L18.5549 45.5856C18.2769 45.3075 18.2769 44.8567 18.5549 44.5787L18.5581 44.5755L19.8182 43.3154L19.8159 43.3099L19.8143 43.3059H18.0274C17.6342 43.3059 17.3154 42.9872 17.3154 42.594V38.5349C17.3154 38.1417 17.6342 37.8229 18.0274 37.8229H19.8139L19.8161 37.8178L19.8178 37.8133L18.5547 36.55C18.2767 36.272 18.2767 35.8211 18.5547 35.5431L18.5579 35.5399L21.4248 32.6731C21.7028 32.395 22.1537 32.395 22.4317 32.6731L22.4349 32.6763L23.695 33.9363L23.7005 33.934L23.7044 33.9324V32.1456C23.7044 31.7524 24.0232 31.4336 24.4164 31.4336H28.4754C28.8687 31.4336 29.1874 31.7524 29.1874 32.1456L29.1878 33.9321Z" fill="#354297"/>
<path id="_386792896" fill-rule="evenodd" clip-rule="evenodd" d="M26.4463 35.0293C27.9178 35.0293 29.3194 35.6099 30.3596 36.6503C31.3998 37.6906 31.9806 39.0921 31.9806 40.5635C31.9806 42.035 31.3999 43.4366 30.3596 44.4768C29.3192 45.5171 27.9178 46.0977 26.4463 46.0977C24.9749 46.0977 23.5733 45.5171 22.5331 44.4768C21.4927 43.4364 20.9121 42.035 20.9121 40.5635C20.9121 39.0921 21.4927 37.6906 22.5331 36.6503C23.5733 35.6101 24.9749 35.0293 26.4463 35.0293Z" fill="#7889A4"/>
<path id="_386793112" d="M26.4462 36.4541C27.5811 36.4541 28.6086 36.9142 29.3525 37.658C30.0963 38.4018 30.5564 39.4294 30.5564 40.5643C30.5564 41.6993 30.0963 42.7268 29.3525 43.4706C28.6086 44.2145 27.5811 44.6745 26.4462 44.6745C25.3112 44.6745 24.2837 44.2145 23.5398 43.4706C22.796 42.7268 22.3359 41.6993 22.3359 40.5643C22.3359 39.4294 22.796 38.4018 23.5398 37.658C24.2837 36.9142 25.3112 36.4541 26.4462 36.4541Z" fill="white"/>
</g>
</g>
</g>
</g>
</svg>
