<svg width="80" height="80" viewBox="0 0 80 80" fill="none" xmlns="http://www.w3.org/2000/svg">
<g id="Layer_1">
<g id="Group">
<g id="Group_2">
<g id="Group_3">
<path id="Vector" d="M73.357 58.3999C73.0176 58.3999 72.751 58.1332 72.751 57.7938V54.5211C72.751 54.1817 73.0176 53.915 73.357 53.915C73.6964 53.915 73.9631 54.1817 73.9631 54.5211V57.7938C73.9631 58.1332 73.6843 58.3999 73.357 58.3999Z" fill="#FFCE56"/>
</g>
<path id="Vector_2" d="M64.3757 41.9154C70.9495 41.9154 76.2787 36.5863 76.2787 30.0124C76.2787 23.4385 70.9495 18.1094 64.3757 18.1094C57.8018 18.1094 52.4727 23.4385 52.4727 30.0124C52.4727 36.5863 57.8018 41.9154 64.3757 41.9154Z" fill="#FCB73E"/>
<path id="Vector_3" d="M64.3753 38.315C68.9609 38.315 72.6783 34.5977 72.6783 30.012C72.6783 25.4264 68.9609 21.709 64.3753 21.709C59.7897 21.709 56.0723 25.4264 56.0723 30.012C56.0723 34.5977 59.7897 38.315 64.3753 38.315Z" fill="#FFCE56"/>
<path id="Vector_4" d="M29.6599 41.6969L40.9811 37.9393C42.0236 37.5878 43.1629 38.0484 43.6599 39.0302C44.2781 40.2181 43.7084 41.6847 42.4478 42.1453L23.6963 49.0059C22.8114 49.3332 21.8296 49.2484 21.0175 48.7756L13.4781 44.3999C12.9932 44.1211 12.4478 43.9756 11.8902 43.9756H10.1084V32.1211H12.9205C13.672 32.1211 14.4114 32.3635 15.0175 32.7999L21.3326 37.3575C21.9387 37.7938 22.6781 38.0362 23.4296 38.0362H29.5387C30.5569 38.0362 31.3811 38.8605 31.3811 39.8787C31.3811 40.8969 30.7872 41.709 29.769 41.709L21.6357 41.7211" fill="#69B6D2"/>
<path id="Vector_5" opacity="0.3" d="M43.5508 38.8486C43.2963 39.2365 42.9326 39.5395 42.4599 39.7214L23.7084 46.582C22.8235 46.9092 21.8417 46.8244 21.0296 46.3517L13.5023 41.9759C13.0175 41.6971 12.472 41.5517 11.9145 41.5517H10.1084V43.9759H11.9023C12.4599 43.9759 13.0054 44.1214 13.4902 44.4002L21.0175 48.7759C21.8296 49.2486 22.8114 49.3335 23.6963 49.0062L42.4478 42.1456C43.7084 41.685 44.2781 40.2183 43.6599 39.0305C43.6236 38.9577 43.5872 38.9092 43.5508 38.8486Z" fill="#172B42"/>
<path id="Vector_6" d="M2.42383 31.248C2.42383 30.1813 3.29656 29.3086 4.36322 29.3086H8.16928C9.23595 29.3086 10.1087 30.1813 10.1087 31.248V45.3934C10.1087 46.4601 9.23595 47.3328 8.16928 47.3328H4.36322C3.29656 47.3328 2.42383 46.4601 2.42383 45.3934V31.248Z" fill="#D1DAFE"/>
<path id="Vector_7" opacity="0.1" d="M8.16928 29.3086H7.68443V42.9571C7.68443 44.0237 6.81171 44.8965 5.74504 44.8965H2.42383V45.3813C2.42383 46.448 3.29656 47.3207 4.36322 47.3207H8.16928C9.23595 47.3207 10.1087 46.448 10.1087 45.3813V31.248C10.1087 30.1813 9.23595 29.3086 8.16928 29.3086Z" fill="#CCD0D3"/>
<path id="Vector_8" d="M39.9872 24.255C39.9872 24.6671 39.963 25.0671 39.9145 25.4428C39.1751 31.5156 32.7509 34.0004 27.0175 34.0004C20.9085 34.0004 14.0479 31.1883 14.0479 24.255C14.0479 19.5762 17.1509 14.2307 21.0539 11.2247H21.1145H32.6175C32.7266 11.2247 32.8236 11.2004 32.9085 11.1641C36.8357 14.158 39.9872 19.5519 39.9872 24.255Z" fill="#D9903B"/>
<g id="Group_4" opacity="0.25">
<path id="Vector_9" d="M16.4599 25.164C15.9629 25.164 15.5508 24.7519 15.5508 24.2549C15.5508 20.5337 17.9144 15.8913 21.3084 12.9701C21.6841 12.6428 22.2659 12.6792 22.5932 13.067C22.9205 13.4428 22.8841 14.0246 22.4962 14.3519C19.4781 16.958 17.369 21.0307 17.369 24.267C17.369 24.7519 16.969 25.164 16.4599 25.164Z" fill="white"/>
</g>
<path id="Vector_10" d="M32.9812 2.82422L30.763 8.26664H23.0297L20.8115 2.82422L22.3267 3.55149L23.8539 2.82422L25.3691 3.55149L26.8964 2.82422L28.4115 3.55149L29.9388 2.82422L31.4539 3.55149L32.9812 2.82422Z" fill="#D9903B"/>
<path id="Vector_11" d="M32.4846 8.2666H21.4664C20.7149 8.2666 20.0967 8.87266 20.0967 9.6363V9.93933C20.0967 10.6908 20.7027 11.309 21.4664 11.309H32.4846C33.2361 11.309 33.8543 10.703 33.8543 9.93933V9.6363C33.8543 8.87266 33.2361 8.2666 32.4846 8.2666Z" fill="#D8D8D8"/>
<path id="Vector_12" opacity="0.1" d="M32.4848 8.2666H30.0605C30.8121 8.2666 31.4302 8.87266 31.4302 9.6363V9.93933C31.4302 10.6908 30.8242 11.309 30.0605 11.309H32.4848C33.2363 11.309 33.8545 10.703 33.8545 9.93933V9.6363C33.8545 8.87266 33.2363 8.2666 32.4848 8.2666Z" fill="#CCD0D3"/>
<path id="Vector_13" d="M74.9332 65.3213H26.812C24.5574 65.3213 22.7393 67.1395 22.7393 69.394C22.7393 71.6486 24.5574 73.4667 26.812 73.4667H74.9332C73.4908 70.9455 73.4908 67.8425 74.9332 65.3213Z" fill="#F6F1FD"/>
<path id="Vector_14" d="M66.4966 61.612H38.9814V53.5757C48.0845 51.9878 57.3936 51.9878 66.4966 53.5757V61.612Z" fill="#715DCB"/>
<path id="Vector_15" d="M75.3811 51.4423L54.4357 42.6423C53.3448 42.1817 52.1205 42.1817 51.0417 42.6423L30.0963 51.4423C28.8963 51.9393 28.8963 53.6363 30.0963 54.1332L38.9811 57.8666H66.4963L75.3811 54.1332C76.5811 53.6363 76.5811 51.9393 75.3811 51.4423Z" fill="#715DCB"/>
<path id="Vector_16" d="M65.2966 70.5093L62.5209 68.4487L59.7451 70.5093V65.1396H65.2966V70.5093Z" fill="#282826"/>
<path id="Vector_17" d="M27.0178 29.854C31.0345 29.854 34.2906 26.5979 34.2906 22.5813C34.2906 18.5647 31.0345 15.3086 27.0178 15.3086C23.0012 15.3086 19.7451 18.5647 19.7451 22.5813C19.7451 26.5979 23.0012 29.854 27.0178 29.854Z" fill="#FFCE56"/>
<path id="Vector_18" opacity="0.1" d="M70.7631 19.9756C71.9389 21.818 72.6419 24.012 72.6419 26.3756C72.6419 32.9574 67.3086 38.2786 60.7389 38.2786C58.3874 38.2786 56.1934 37.5877 54.3389 36.3998C56.448 39.7089 60.157 41.915 64.3752 41.915C70.957 41.915 76.2783 36.5816 76.2783 30.0119C76.2783 25.7816 74.0722 22.0847 70.7631 19.9756Z" fill="#CCD0D3"/>
<path id="Vector_19" opacity="0.1" d="M32.8964 11.1641C32.8721 11.1762 32.8479 11.1762 32.8236 11.1762C34.9327 14.0125 36.3388 17.4671 36.3388 20.6065C36.3388 21.0186 36.3145 21.4186 36.2661 21.7944C35.5267 27.8671 29.1024 30.3519 23.3691 30.3519C20.4842 30.3519 17.4418 29.7095 15.0176 28.3156C17.1145 32.2913 22.2903 33.9883 27.0055 33.9883C32.7509 33.9883 39.163 31.5035 39.9024 25.4307C39.9509 25.0429 39.9752 24.655 39.9752 24.2429C39.9873 19.5519 36.8358 14.158 32.8964 11.1641Z" fill="#CCD0D3"/>
<path id="Vector_20" d="M27.0175 21.9753C26.3144 21.9753 25.7326 21.4056 25.7326 20.6904C25.7326 19.9753 26.3023 19.4056 27.0175 19.4056C27.7205 19.4056 28.3023 19.9753 28.3023 20.6904C28.3023 21.0298 28.569 21.2965 28.9084 21.2965C29.2478 21.2965 29.5144 21.0298 29.5144 20.6904C29.5144 19.5268 28.7023 18.5571 27.6235 18.2783V17.5025C27.6235 17.1632 27.3569 16.8965 27.0175 16.8965C26.6781 16.8965 26.4114 17.1632 26.4114 17.5025V18.2783C25.3326 18.545 24.5205 19.5268 24.5205 20.6904C24.5205 22.0601 25.6357 23.1874 27.0175 23.1874C27.7205 23.1874 28.3023 23.7571 28.3023 24.4722C28.3023 25.1874 27.7326 25.7571 27.0175 25.7571C26.3144 25.7571 25.7326 25.1874 25.7326 24.4722C25.7326 24.1328 25.466 23.8662 25.1266 23.8662C24.7872 23.8662 24.5205 24.1328 24.5205 24.4722C24.5205 25.6359 25.3205 26.6056 26.4114 26.8844V27.6601C26.4114 27.9995 26.6781 28.2662 27.0175 28.2662C27.3569 28.2662 27.6235 27.9995 27.6235 27.6601V26.8844C28.7023 26.6177 29.5144 25.6359 29.5144 24.4722C29.5023 23.1025 28.3872 21.9753 27.0175 21.9753Z" fill="#D9903B"/>
<path id="Vector_21" d="M73.3573 60.7029C74.2811 60.7029 75.03 59.954 75.03 59.0302C75.03 58.1063 74.2811 57.3574 73.3573 57.3574C72.4335 57.3574 71.6846 58.1063 71.6846 59.0302C71.6846 59.954 72.4335 60.7029 73.3573 60.7029Z" fill="#D9903B"/>
<path id="Vector_22" opacity="0.25" d="M72.9086 57.9883C72.5934 57.9883 72.3389 58.2428 72.3389 58.558C72.3389 58.8731 72.5934 59.1277 72.9086 59.1277C73.2237 59.1277 73.4783 58.8731 73.4783 58.558C73.4783 58.2428 73.2237 57.9883 72.9086 57.9883Z" fill="white"/>
<path id="Vector_23" d="M75.7209 73.4668H26.8118C24.2906 73.4668 22.2906 71.1638 22.824 68.5456C23.2118 66.6426 24.9694 65.3214 26.9209 65.3214H75.7209C76.7512 65.3214 77.5755 64.485 77.5755 63.4668C77.5755 62.4365 76.7391 61.6123 75.7209 61.6123H27.1391C22.8724 61.6123 19.1633 64.8972 19.03 69.1638C18.8967 73.5759 22.4361 77.1881 26.8118 77.1881H75.7209C76.7512 77.1881 77.5755 76.3517 77.5755 75.3335C77.5755 74.3032 76.7391 73.4668 75.7209 73.4668Z" fill="#2CA470"/>
<g id="Group_5" opacity="0.1">
<g id="Group_6">
<path id="Vector_24" d="M75.1514 63.4668C75.1514 64.4972 74.3151 65.3214 73.2969 65.3214H75.7211C76.7514 65.3214 77.5757 64.485 77.5757 63.4668C77.5757 62.4365 76.7393 61.6123 75.7211 61.6123H73.2969C74.3151 61.6123 75.1514 62.4365 75.1514 63.4668Z" fill="#CCD0D3"/>
<path id="Vector_25" d="M75.7211 73.4668H73.2969C74.3272 73.4668 75.1514 74.3032 75.1514 75.3213C75.1514 76.3516 74.3151 77.1759 73.2969 77.1759H75.7211C76.7514 77.1759 77.5757 76.3395 77.5757 75.3213C77.5757 74.3032 76.7393 73.4668 75.7211 73.4668Z" fill="#CCD0D3"/>
</g>
</g>
<path id="Vector_26" opacity="0.25" d="M67.9152 51.3695L66.9091 51.1998C62.2425 50.3877 57.4667 49.9756 52.7394 49.9756C48 49.9756 43.2364 50.3877 38.5697 51.1998L37.5637 51.3695C36.9819 51.4665 36.5576 51.9756 36.5576 52.5695V56.8604L38.9819 57.8786V53.5756C48.0849 51.9877 57.394 51.9877 66.497 53.5756V57.8665L68.9213 56.8483V52.5574C68.9213 51.9635 68.497 51.4665 67.9152 51.3695Z" fill="#FCFDFF"/>
<path id="Vector_27" d="M64.3749 29.4059C63.6719 29.4059 63.0901 28.8362 63.0901 28.1211C63.0901 27.4059 63.6597 26.8362 64.3749 26.8362C65.0779 26.8362 65.6597 27.4059 65.6597 28.1211C65.6597 28.4605 65.9264 28.7271 66.2658 28.7271C66.6052 28.7271 66.8719 28.4605 66.8719 28.1211C66.8719 26.9575 66.0597 25.9878 64.981 25.709V24.9332C64.981 24.5938 64.7143 24.3271 64.3749 24.3271C64.0355 24.3271 63.7688 24.5938 63.7688 24.9332V25.709C62.6901 25.9756 61.8779 26.9575 61.8779 28.1211C61.8779 29.4908 62.9931 30.6181 64.3749 30.6181C65.0779 30.6181 65.6597 31.1878 65.6597 31.9029C65.6597 32.6181 65.0901 33.1878 64.3749 33.1878C63.6719 33.1878 63.0901 32.6181 63.0901 31.9029C63.0901 31.5635 62.8234 31.2968 62.484 31.2968C62.1446 31.2968 61.8779 31.5635 61.8779 31.9029C61.8779 33.0665 62.6779 34.0362 63.7688 34.315V35.0908C63.7688 35.4302 64.0355 35.6968 64.3749 35.6968C64.7143 35.6968 64.981 35.4302 64.981 35.0908V34.3029C66.0597 34.0362 66.8719 33.0544 66.8719 31.8908C66.8597 30.5211 65.7446 29.4059 64.3749 29.4059Z" fill="#D9903B"/>
</g>
</g>
</g>
</svg>
