<svg width="83" height="82" viewBox="0 0 83 82" fill="none" xmlns="http://www.w3.org/2000/svg">
<g id="online-learning_9686274" clip-path="url(#clip0_1487_48187)">
<g id="Group">
<path id="Vector" fill-rule="evenodd" clip-rule="evenodd" d="M5.91309 9.04004H76.4211V55.698H5.91309V9.04004Z" fill="#E8F0FE"/>
<path id="Vector_2" fill-rule="evenodd" clip-rule="evenodd" d="M5.91309 9.04004H76.4209V11.9802H10.0293V55.6982H5.91309V9.04004Z" fill="#B4C2D9"/>
<path id="Vector_3" fill-rule="evenodd" clip-rule="evenodd" d="M3.04228 9.03987H79.2917C80.8705 9.03987 82.167 7.74805 82.167 6.16459C82.167 4.58577 80.8705 3.29395 79.2917 3.29395H3.04228C1.45881 3.29395 0.166992 4.58577 0.166992 6.16459C0.166992 7.74805 1.45881 9.03987 3.04228 9.03987Z" fill="#17181D"/>
<path id="Vector_4" fill-rule="evenodd" clip-rule="evenodd" d="M13.4092 55.6981H43.5237V49.4706C43.5237 43.3772 38.5324 38.3906 32.4391 38.3906H24.4938C18.3958 38.3906 13.4092 43.3772 13.4092 49.4706V55.6981Z" fill="#687387"/>
<path id="Vector_5" fill-rule="evenodd" clip-rule="evenodd" d="M24.0771 32.4082H32.856V39.5433H24.0771V32.4082Z" fill="#FFE0CC"/>
<path id="Vector_6" fill-rule="evenodd" clip-rule="evenodd" d="M24.0771 32.4082H32.856V36.5013C32.3374 36.7745 31.7911 37.0013 31.2262 37.182C30.2816 37.4783 29.3046 37.6357 28.3138 37.6357C27.3229 37.6357 26.3413 37.4783 25.3968 37.182C24.9431 37.0385 24.5032 36.8625 24.0773 36.6588L24.0771 32.4082Z" fill="#FFC5A6"/>
<path id="Vector_7" fill-rule="evenodd" clip-rule="evenodd" d="M21.1045 38.9556L23.2621 42.7709C23.3779 42.9699 23.5538 43.095 23.7761 43.1366C24.003 43.1736 24.2114 43.1181 24.3872 42.9746L28.4664 39.5437L22.4796 36.2656L21.1045 38.9556Z" fill="#F1F2F2"/>
<path id="Vector_8" fill-rule="evenodd" clip-rule="evenodd" d="M35.8241 38.9556L33.6664 42.7709C33.5553 42.9699 33.3794 43.095 33.1525 43.1366C32.9302 43.1736 32.7172 43.1181 32.546 42.9746L28.4668 39.5437L34.449 36.2656L35.8241 38.9556Z" fill="#F1F2F2"/>
<path id="Vector_9" fill-rule="evenodd" clip-rule="evenodd" d="M32.8928 7.84572C38.537 7.84572 41.8846 12.4018 41.8846 19.4905C41.8846 26.5792 37.31 32.3253 31.6658 32.3253C30.6101 32.3253 29.5868 32.1216 28.6284 31.7465C27.6422 32.1216 26.5957 32.3253 25.5123 32.3253C19.5625 32.3253 14.7379 26.2645 14.7379 18.7959C14.7379 18.3978 14.7519 18.0041 14.7796 17.6199C13.0294 17.6894 11.6311 17.1569 10.793 15.6846C15.7426 12.2305 20.1644 6.16504 25.6188 6.16504C27.7162 6.16504 29.661 6.80871 31.2954 7.96151C31.8279 7.88287 32.3604 7.84572 32.8928 7.84572Z" fill="#2D4456"/>
<path id="Vector_10" fill-rule="evenodd" clip-rule="evenodd" d="M32.2174 16.8414C33.838 19.0869 36.0975 20.9992 38.4821 22.1799C38.5191 22.6012 38.533 23.0226 38.533 23.4531C38.533 30.5419 33.9585 36.2879 28.3142 36.2879C22.67 36.2879 18.0908 30.5418 18.0908 23.4531C18.0908 22.5734 18.165 21.7122 18.2992 20.8787C22.0358 20.9483 26.3187 19.1702 29.2217 16.531C29.6615 16.1282 30.194 15.9522 30.7867 16.017C31.3793 16.0774 31.8654 16.3598 32.2174 16.8414Z" fill="#FFE0CC"/>
<g id="Group_2">
<path id="Vector_11" d="M28.4671 33.7348C27.328 33.7348 26.2167 33.1514 25.3378 32.0919C25.0495 31.7446 25.0975 31.2293 25.4449 30.9412C25.7921 30.6529 26.3077 30.7011 26.5956 31.0484C26.9938 31.5282 27.6418 32.1004 28.4671 32.1004C29.2875 32.1004 29.9384 31.5272 30.3401 31.0464C30.6293 30.7 31.1444 30.6537 31.4911 30.943C31.8375 31.2324 31.8838 31.7476 31.5944 32.0942C30.698 33.1676 29.6167 33.7348 28.4671 33.7348Z" fill="#945619"/>
</g>
<path id="Vector_12" d="M24.7182 24.9255V25.1895C24.7182 25.6408 24.3523 26.0066 23.9011 26.0066C23.4498 26.0066 23.084 25.6408 23.084 25.1895V24.9255C23.084 24.4742 23.4499 24.1084 23.9011 24.1084C24.3523 24.1084 24.7182 24.4742 24.7182 24.9255ZM33.0318 24.1084C32.5805 24.1084 32.2147 24.4742 32.2147 24.9255V25.1895C32.2147 25.6408 32.5806 26.0066 33.0318 26.0066C33.4829 26.0066 33.8489 25.6408 33.8489 25.1895V24.9255C33.8489 24.4742 33.4829 24.1084 33.0318 24.1084Z" fill="#945619"/>
<path id="Vector_13" d="M38.3609 22.1592H36.0133H30.0451C29.5938 22.1592 29.228 22.525 29.228 22.9763V23.3722H27.7044V22.9763C27.7044 22.525 27.3384 22.1592 26.8873 22.1592H20.9144H18.0993C17.648 22.1592 17.2822 22.525 17.2822 22.9763C17.2822 23.4276 17.6482 23.7934 18.0993 23.7934H20.0973V25.0551C20.0973 26.6546 21.3986 27.9559 22.998 27.9559H24.8038C26.4033 27.9559 27.7046 26.6546 27.7046 25.0551V25.0064H29.2281V25.0551C29.2281 26.6546 30.5273 27.9559 32.1242 27.9559H33.9345C35.5314 27.9559 36.8306 26.6546 36.8306 25.0551V23.7934H38.3609C38.8122 23.7934 39.178 23.4276 39.178 22.9763C39.178 22.525 38.812 22.1592 38.3609 22.1592ZM26.07 25.0553C26.07 25.7536 25.5018 26.3216 24.8036 26.3216H22.9979C22.2998 26.3216 21.7315 25.7536 21.7315 25.0553V23.7936H26.07V25.0553ZM35.196 25.0553C35.196 25.7536 34.6299 26.3216 33.9343 26.3216H32.1241C31.4285 26.3216 30.8624 25.7536 30.8624 25.0553V23.7936H35.1962L35.196 25.0553Z" fill="#1E3445"/>
<path id="Vector_14" d="M34.2544 49.711C34.7034 49.7249 35.0553 50.0998 35.0415 50.5491C35.0276 50.9981 34.6527 51.35 34.2034 51.3362L21.0399 50.8825C20.6001 50.8686 20.2527 50.5028 20.2527 50.0676H20.248V47.5951C20.248 47.1461 20.6138 46.7803 21.0676 46.7803C21.5166 46.7803 21.8824 47.1461 21.8824 47.5951V49.2805L34.2544 49.711Z" fill="#D49A44"/>
<path id="Vector_15" fill-rule="evenodd" clip-rule="evenodd" d="M49.8805 16.3096H80.3654C81.3563 16.3096 82.1665 17.1198 82.1665 18.1107V37.1129C82.1665 38.1038 81.3563 38.9094 80.3654 38.9094C70.2069 38.9094 60.0437 38.9094 49.8805 38.9094C48.8896 38.9094 48.084 38.1038 48.084 37.1129V18.106C48.084 17.12 48.8896 16.3096 49.8805 16.3096Z" fill="#039661"/>
<path id="Vector_16" d="M55.2314 21.7868C55.2314 21.3355 55.5974 20.9697 56.0486 20.9697H74.1988C74.6501 20.9697 75.0159 21.3355 75.0159 21.7868C75.0159 22.2382 74.6499 22.604 74.1988 22.604H56.0486C55.5974 22.6041 55.2314 22.2382 55.2314 21.7868ZM74.1989 26.7944H56.0486C55.5972 26.7944 55.2314 27.1602 55.2314 27.6116C55.2314 28.0629 55.5974 28.4287 56.0486 28.4287H74.1988C74.6501 28.4287 75.0159 28.0629 75.0159 27.6116C75.016 27.1602 74.6501 26.7944 74.1989 26.7944ZM74.1989 32.6192H56.0486C55.5972 32.6192 55.2314 32.985 55.2314 33.4363C55.2314 33.8876 55.5974 34.2534 56.0486 34.2534H74.1988C74.6501 34.2534 75.0159 33.8876 75.0159 33.4363C75.016 32.985 74.6501 32.6192 74.1989 32.6192Z" fill="#E8F0FE"/>
<path id="Vector_17" fill-rule="evenodd" clip-rule="evenodd" d="M3.04228 61.4395H79.2917C80.8705 61.4395 82.167 60.1477 82.167 58.5689C82.167 56.9901 80.8705 55.6982 79.2917 55.6982H3.04228C1.45881 55.6982 0.166992 56.9899 0.166992 58.5689C0.166992 60.1477 1.45881 61.4395 3.04228 61.4395Z" fill="#17181D"/>
<path id="Vector_18" fill-rule="evenodd" clip-rule="evenodd" d="M12.1032 17.0552C15.1869 14.6985 18.4697 11.2767 21.808 9.04032C23.8082 7.69757 25.8316 6.78548 27.8458 6.78548C28.3504 6.78548 28.8506 6.81784 29.3413 6.89199C28.1837 6.41969 26.9337 6.16504 25.6186 6.16504C23.1738 6.16504 20.9376 7.38271 18.766 9.04032C16.0945 11.0775 13.5248 13.7769 10.793 15.6846C11.14 16.2959 11.58 16.7403 12.1032 17.0552Z" fill="#1E3445"/>
<path id="Vector_19" fill-rule="evenodd" clip-rule="evenodd" d="M49.8805 16.3096H80.3654C81.3563 16.3096 82.1665 17.1198 82.1665 18.1107V18.37H51.9362C50.95 18.37 50.1398 19.1756 50.1398 20.1665V38.9094H49.8805C48.8896 38.9094 48.084 38.1038 48.084 37.1129V18.106C48.084 17.12 48.8896 16.3096 49.8805 16.3096Z" fill="#056042"/>
<g id="Group_3">
<path id="Vector_20" d="M32.7025 52.455C32.5212 52.455 32.3386 52.3949 32.1869 52.2714C31.837 51.9863 31.7843 51.4716 32.0692 51.1217L50.0943 28.9849C50.3794 28.6349 50.8938 28.5821 51.2441 28.8672C51.594 29.1522 51.6467 29.667 51.3618 30.0169L33.3367 52.1537C33.1751 52.3521 32.9398 52.455 32.7025 52.455Z" fill="#2D4456"/>
</g>
<g id="Group_4">
<path id="Vector_21" fill-rule="evenodd" clip-rule="evenodd" d="M35.9675 55.6984C36.8612 55.1196 37.4631 54.0871 37.4631 52.9481C37.4631 51.17 36.0045 49.7765 34.2267 49.7116L29.3975 49.5449V55.6984H35.9675Z" fill="#FFE0CC"/>
<path id="Vector_22" fill-rule="evenodd" clip-rule="evenodd" d="M26.2301 64.2223L30.5778 66.7318C32.0826 67.5976 32.9438 69.0885 32.9438 70.8295V75.0291H12.6914V70.8295C12.6914 69.0886 13.5526 67.5977 15.0574 66.7318L19.4052 64.2223V59.3838H26.2301V64.2223Z" fill="#335383"/>
<path id="Vector_23" fill-rule="evenodd" clip-rule="evenodd" d="M14.2611 75.0291H12.6914V70.8295C12.6914 69.0886 13.5526 67.5977 15.0574 66.7318L19.4052 64.2223V59.3838H20.9702V60.3886V61.4397V65.2272L16.6224 67.7367C15.1176 68.6025 14.2611 70.0934 14.2611 71.8345V75.0291Z" fill="#426599"/>
<path id="Vector_24" fill-rule="evenodd" clip-rule="evenodd" d="M22.66 64.0377C26.202 64.0377 29.0866 61.1532 29.0866 57.6112C29.0866 54.0738 26.202 51.1846 22.66 51.1846C19.1226 51.1846 16.2334 54.0738 16.2334 57.6112C16.2332 61.1532 19.1225 64.0377 22.66 64.0377Z" fill="#FFE0CC"/>
<path id="Vector_25" fill-rule="evenodd" clip-rule="evenodd" d="M22.6598 51.1836C23.0349 51.1836 23.4054 51.2159 23.7665 51.2808C20.3587 51.6327 17.6964 54.5126 17.6964 58.013C17.6964 60.4762 19.0115 62.6292 20.97 63.8145C18.2429 63.0689 16.2334 60.578 16.2334 57.61C16.2331 54.0635 19.1132 51.1836 22.6598 51.1836Z" fill="#FFC5A6"/>
<path id="Vector_26" fill-rule="evenodd" clip-rule="evenodd" d="M62.9281 64.2223L67.2759 66.7318C68.7807 67.5976 69.6419 69.0885 69.6419 70.8295V75.0291H49.3896V70.8295C49.3896 69.0886 50.2508 67.5977 51.7556 66.7318L56.1034 64.2223V59.3838H62.9283V64.2223H62.9281Z" fill="#0E809E"/>
<path id="Vector_27" fill-rule="evenodd" clip-rule="evenodd" d="M50.9593 75.0291H49.3896V70.8295C49.3896 69.0886 50.2508 67.5977 51.7556 66.7318L56.1034 64.2223V59.3838H57.6684V60.3886V61.4397V65.2272L53.3207 67.7367C51.8205 68.6025 50.9593 70.0934 50.9593 71.8345V75.0291Z" fill="#1B90AF"/>
<path id="Vector_28" fill-rule="evenodd" clip-rule="evenodd" d="M59.3582 64.0377C62.9002 64.0377 65.7848 61.1532 65.7848 57.6112C65.7848 54.0738 62.9002 51.1846 59.3582 51.1846C55.8209 51.1846 52.9316 54.0738 52.9316 57.6112C52.9316 61.1532 55.8209 64.0377 59.3582 64.0377Z" fill="#FFE0CC"/>
<path id="Vector_29" fill-rule="evenodd" clip-rule="evenodd" d="M59.359 51.1836C59.7388 51.1836 60.1046 51.2159 60.4657 51.2808C57.0579 51.6327 54.4003 54.5126 54.4003 58.013C54.4003 60.4762 55.7107 62.6292 57.6692 63.8145C54.9421 63.0689 52.9326 60.578 52.9326 57.61C52.9325 54.0635 55.8124 51.1836 59.359 51.1836Z" fill="#FFC5A6"/>
<path id="Vector_30" fill-rule="evenodd" clip-rule="evenodd" d="M44.5797 67.8941L48.9274 70.4036C50.4323 71.2741 51.2934 72.765 51.2934 74.5014V78.7055H31.041V74.5014C31.041 72.7651 31.9022 71.2742 33.407 70.4036L37.7548 67.8941V63.0557H44.5797V67.8941Z" fill="#9A6BFE"/>
<path id="Vector_31" fill-rule="evenodd" clip-rule="evenodd" d="M32.6107 78.7055H31.041V74.5014C31.041 72.7651 31.9022 71.2742 33.407 70.4036L37.7548 67.8941V63.0557H39.3198V64.0605V65.1162V68.8991L34.9721 71.4086C33.4719 72.2791 32.6107 73.77 32.6107 75.5064V78.7055Z" fill="#B175FF"/>
<path id="Vector_32" fill-rule="evenodd" clip-rule="evenodd" d="M41.0096 67.7135C44.5516 67.7135 47.4362 64.8243 47.4362 61.2869C47.4362 57.7449 44.5516 54.8604 41.0096 54.8604C37.4722 54.8604 34.583 57.7449 34.583 61.2869C34.583 64.8243 37.4722 67.7135 41.0096 67.7135Z" fill="#FFE0CC"/>
<path id="Vector_33" fill-rule="evenodd" clip-rule="evenodd" d="M41.0094 54.8604C41.3892 54.8604 41.755 54.8927 42.1161 54.9529C38.7083 55.3048 36.046 58.1847 36.046 61.6897C36.046 64.1483 37.3611 66.3014 39.3196 67.4868C36.5925 66.7459 34.583 64.2503 34.583 61.2869C34.5828 57.7356 37.4628 54.8604 41.0094 54.8604Z" fill="#FFC5A6"/>
</g>
</g>
</g>
<defs>
<clipPath id="clip0_1487_48187">
<rect width="82" height="82" fill="white" transform="translate(0.166992)"/>
</clipPath>
</defs>
</svg>
