<svg width="83" height="82" viewBox="0 0 83 82" fill="none" xmlns="http://www.w3.org/2000/svg">
<g id="Frame">
<g id="_x31_4_Ebook">
<g id="Group">
<path id="Vector" d="M64.5436 20.0244V67.9382H25.9972L17.5654 73.5304V25.6166C17.5654 25.5512 17.5654 25.4752 17.5763 25.4098C17.6199 23.9519 18.2291 22.6356 19.2083 21.6564C20.2093 20.6554 21.6127 20.0244 23.1576 20.0244H64.5436Z" fill="white"/>
<path id="Vector_2" d="M26.6 20.0244H23.1576C21.6127 20.0244 20.2091 20.6554 19.2083 21.6564C18.2291 22.6356 17.6199 23.9519 17.5763 25.4098C17.5654 25.4752 17.5654 25.5512 17.5654 25.6166V73.5304L25.9972 67.9382H26.6V20.0244Z" fill="#2A9799"/>
<path id="Vector_3" d="M26.5966 20.0264V67.9374H25.9956L17.5654 73.5262V71.77L23.3416 67.9374H23.9427V20.0264H26.5966Z" fill="white"/>
<path id="Vector_4" d="M75.0044 25.1859L63.9398 36.2505C60.8478 29.5377 55.46 24.1499 47.7764 20.087L58.8409 9.02246L75.0044 25.1859Z" fill="#2A9799"/>
<path id="Vector_5" d="M75.0071 25.1861L63.9387 36.2466C63.3534 34.9743 62.6898 33.7567 61.9326 32.5779L72.1658 22.3447L75.0071 25.1861Z" fill="white"/>
<path id="Vector_6" d="M80.1986 30.3793L62.068 21.9586L53.6475 3.82812L71.7781 12.2487L80.1986 30.3793Z" fill="#2A9799"/>
<path id="Vector_7" d="M80.1984 30.3771L75.7805 28.3242L69.4111 14.6174L55.6964 8.24799L53.6436 3.83008L71.7761 12.2524L80.1984 30.3771Z" fill="white"/>
<path id="Vector_8" d="M58.8685 67.9377V79.1219H22.4821C19.7668 79.1219 17.5654 76.6181 17.5654 73.5297C17.5654 70.4412 19.7666 67.9375 22.4821 67.9375H58.8685V67.9377Z" fill="#2A9799"/>
<path id="Vector_9" d="M53.9561 67.9375H58.8658V79.123H53.9561V67.9375Z" fill="white"/>
<g id="Group_2">
<path id="Vector_10" d="M2.14169 19.2784C2.68061 19.2784 3.11736 18.8416 3.11736 18.3027C3.11736 10.3359 9.59888 3.85466 17.5654 3.85466C18.1043 3.85466 18.541 3.41792 18.541 2.87899C18.541 2.34007 18.1043 1.90332 17.5654 1.90332C8.52279 1.903 1.16602 9.25978 1.16602 18.3025C1.16602 18.8414 1.60276 19.2784 2.14169 19.2784Z" fill="#2A4B57"/>
<path id="Vector_11" d="M17.5658 7.56641C11.646 7.56641 6.83008 12.3825 6.83008 18.3022C6.83008 18.8411 7.26682 19.2778 7.80575 19.2778C8.34468 19.2778 8.78142 18.8411 8.78142 18.3022C8.78142 13.4582 12.7224 9.51775 17.5658 9.51775C18.1048 9.51775 18.5415 9.081 18.5415 8.54208C18.5415 8.00315 18.1048 7.56641 17.5658 7.56641Z" fill="#2A4B57"/>
<path id="Vector_12" d="M17.5653 13.2305C14.7685 13.2305 12.4932 15.5058 12.4932 18.3026C12.4932 18.8415 12.9299 19.2783 13.4688 19.2783C14.0078 19.2783 14.4445 18.8415 14.4445 18.3026C14.4445 16.5817 15.8448 15.1818 17.5653 15.1818C18.1042 15.1818 18.541 14.7451 18.541 14.2061C18.541 13.6674 18.1042 13.2305 17.5653 13.2305Z" fill="#2A4B57"/>
<path id="Vector_13" d="M51.3839 34.3945H37.7042C37.1653 34.3945 36.7285 34.8313 36.7285 35.3702C36.7285 35.9091 37.1653 36.3459 37.7042 36.3459H51.3839C51.9229 36.3459 52.3596 35.9091 52.3596 35.3702C52.3598 34.8313 51.9229 34.3945 51.3839 34.3945Z" fill="#2A4B57"/>
<path id="Vector_14" d="M51.3839 41.9678H37.7042C37.1653 41.9678 36.7285 42.4045 36.7285 42.9434C36.7285 43.4824 37.1653 43.9191 37.7042 43.9191H51.3839C51.9229 43.9191 52.3596 43.4824 52.3596 42.9434C52.3598 42.4045 51.9229 41.9678 51.3839 41.9678Z" fill="#2A4B57"/>
<path id="Vector_15" d="M51.3839 49.541H37.7042C37.1653 49.541 36.7285 49.9778 36.7285 50.5167C36.7285 51.0556 37.1653 51.4924 37.7042 51.4924H51.3839C51.9229 51.4924 52.3596 51.0556 52.3596 50.5167C52.3598 49.9778 51.9229 49.541 51.3839 49.541Z" fill="#2A4B57"/>
<path id="Vector_16" d="M81.0832 29.9688L72.6623 11.8382C72.5656 11.629 72.3971 11.4612 72.1882 11.3641L54.0576 2.94359C53.6894 2.77287 53.2474 2.84862 52.9568 3.13866C52.6671 3.42838 52.5894 3.86817 52.7618 4.23942L55.7692 10.7144L47.4355 19.0484C41.2305 19.0484 29.3802 19.0484 23.1575 19.0484C19.6131 19.0484 16.7301 21.859 16.6028 25.3333C16.5929 25.4274 16.5898 25.5272 16.5898 25.6161V73.2142V73.5297C16.5898 77.1513 19.2334 80.0974 22.4822 80.0974H64.5435C65.0824 80.0974 65.5192 79.6607 65.5192 79.1217C65.5192 78.5828 65.0824 78.1461 64.5435 78.1461H59.844V68.9134H64.5435C65.0824 68.9134 65.5192 68.4766 65.5192 67.9377V36.0506L73.3124 28.2574L78.5216 30.6767L72.5201 36.6783C72.1389 37.0594 72.1389 37.6768 72.5201 38.058C72.9013 38.4392 73.5187 38.4392 73.8998 38.058L80.8884 31.0694C81.1772 30.7805 81.2412 30.3069 81.0832 29.9688ZM71.0425 12.9835L76.9931 25.7948L67.6124 16.4143C67.2313 16.0332 66.6139 16.0332 66.2327 16.4143C65.8515 16.7955 65.8515 17.4129 66.2327 17.7941L75.6133 27.1744L62.8024 21.2246L55.6553 5.83697L71.0425 12.9835ZM18.551 25.4387C18.6256 22.9702 20.6786 20.9999 23.1574 20.9999H25.6241V66.9622C23.5506 67.1845 20.9703 66.2159 18.5409 68.6616L18.5388 25.5674C18.5457 25.5248 18.5502 25.4817 18.551 25.4387ZM57.8925 78.1462H22.482C20.3088 78.1462 18.541 76.0756 18.541 73.5299C18.541 70.9842 20.3087 68.9136 22.482 68.9136H27.0661H57.8925V78.1462ZM58.8682 66.9622H27.5756V20.9999H47.4122C60.706 28.0671 62.3931 36.6629 63.5678 37.1493V66.9622H58.8682ZM64.2171 34.5932C61.1375 28.6181 56.1576 23.6688 49.3879 19.8555L56.6443 12.5989L61.1826 22.3702C61.2794 22.5795 61.4478 22.7472 61.6567 22.8443L71.428 27.3823L64.2171 34.5932Z" fill="#2A4B57"/>
<path id="Vector_17" d="M31.9112 74.506H49.1096C49.6485 74.506 50.0853 74.0693 50.0853 73.5304C50.0853 72.9914 49.6485 72.5547 49.1096 72.5547H31.9112C31.3723 72.5547 30.9355 72.9914 30.9355 73.5304C30.9355 74.0691 31.3723 74.506 31.9112 74.506Z" fill="#2A4B57"/>
</g>
</g>
</g>
</g>
</svg>
