<svg xmlns="http://www.w3.org/2000/svg" width="74" height="75" viewBox="0 0 74 75" fill="none">
  <path d="M27.5557 57.8301H37.612V64.0488H27.5557V57.8301Z" fill="#3A3A3A"/>
  <path d="M60.5418 53.7764C60.3847 56.0529 58.5796 57.9366 56.303 58.134C40.9978 59.508 25.2996 59.4678 9.16939 58.0938C6.9331 57.8983 5.12797 56.1315 4.89227 53.8952C3.87185 43.1813 3.87185 32.3889 4.89227 21.5562C5.12797 19.2413 7.01167 17.4362 9.32653 17.3193C24.9068 16.5336 40.5264 16.4934 56.1066 17.3193C58.4617 17.4362 60.3847 19.3199 60.5418 21.7133C61.2087 32.4674 61.2087 43.1813 60.5418 53.7764Z" fill="#51504F"/>
  <path d="M33.3878 55.2237C25.6135 55.2237 17.5766 54.8749 9.50142 54.187C9.14116 54.1554 8.83264 53.8545 8.79431 53.4875C7.8036 43.1013 7.8036 32.4708 8.79815 21.9274C8.83456 21.5681 9.14691 21.2615 9.5225 21.2424C17.4118 20.8447 25.3126 20.6426 33.0064 20.6426C40.6984 20.6426 48.3999 20.8438 55.8983 21.2414C56.2854 21.2606 56.5996 21.5825 56.6245 21.9734C57.278 32.5139 57.2799 43.1368 56.6245 53.5335C56.6015 53.8698 56.2988 54.1985 55.9634 54.2272C48.5973 54.8883 41.005 55.2237 33.3878 55.2237Z" fill="white"/>
  <path d="M41.6356 69.7731H23.5436C22.3608 69.7731 21.5251 68.5903 21.9485 67.505C22.263 66.691 22.7513 65.9634 23.3483 65.345C24.4662 64.2056 26.0507 63.5215 27.7872 63.5215H37.3922C40.0511 63.5215 42.3301 65.1606 43.231 67.505C43.6544 68.6009 42.8075 69.7731 41.6356 69.7731Z" fill="#51504F"/>
  <path d="M46.5399 14.3387V49.2743C46.5399 50.7067 45.3894 51.8572 43.9567 51.8572H17.0848C15.6633 51.8572 14.502 50.7067 14.502 49.2743V14.3387C14.502 12.9169 15.6633 11.7559 17.0848 11.7559H43.9567C45.3894 11.7559 46.5399 12.9169 46.5399 14.3387Z" fill="#8A9BEA"/>
  <path d="M50.6643 16.4572V46.0749C50.6643 48.1692 48.9603 49.8734 46.8658 49.8734H20.9597C18.8651 49.8734 17.1611 48.1692 17.1611 46.0749V11.736C17.1611 9.64122 18.8651 7.9375 20.9597 7.9375H42.1338L50.6643 16.4572Z" fill="#D1DAFE"/>
  <path d="M36.5168 19.4378H21.9286C21.2081 19.4378 20.624 18.8538 20.624 18.1333V12.703C20.624 11.9825 21.2081 11.3984 21.9286 11.3984H36.5168C37.2373 11.3984 37.8213 11.9825 37.8213 12.703V18.1333C37.8213 18.8538 37.2373 19.4378 36.5168 19.4378Z" fill="#4269C4"/>
  <path d="M50.663 16.4559H43.8908C42.9188 16.4559 42.1309 15.6679 42.1309 14.6959V7.93555L50.663 16.4559Z" fill="#8A9BEA"/>
  <path d="M34.8642 46.4104C32.4908 46.8657 30.1175 46.9677 27.7441 46.9869C25.3708 46.9705 22.9974 46.868 20.624 46.4104C22.9974 45.9529 25.3708 45.8503 27.7441 45.834C30.1175 45.8531 32.4908 45.9551 34.8642 46.4104Z" fill="#8A9BEA"/>
  <path d="M47.2015 41.7932C42.772 42.2468 38.3423 42.3511 33.9128 42.3697C29.4833 42.3539 25.0535 42.2497 20.624 41.7932C25.0535 41.3368 29.4833 41.2326 33.9128 41.2168C38.3423 41.2354 42.772 41.3396 47.2015 41.7932Z" fill="#8A9BEA"/>
  <path d="M47.2015 37.18C42.772 37.6336 38.3423 37.7378 33.9128 37.7564C29.4833 37.7406 25.0535 37.6364 20.624 37.18C25.0535 36.7235 29.4833 36.6193 33.9128 36.6035C38.3423 36.6221 42.772 36.7264 47.2015 37.18Z" fill="#8A9BEA"/>
  <path d="M47.2015 32.5628C42.772 33.0164 38.3423 33.1206 33.9128 33.1392C29.4833 33.1234 25.0535 33.0192 20.624 32.5628C25.0535 32.1063 29.4833 32.0021 33.9128 31.9863C38.3423 32.0049 42.772 32.1092 47.2015 32.5628Z" fill="#8A9BEA"/>
  <path d="M47.2015 27.9495C42.772 28.4031 38.3423 28.5073 33.9128 28.5259C29.4833 28.5101 25.0535 28.4059 20.624 27.9495C25.0535 27.4931 29.4833 27.3888 33.9128 27.373C38.3423 27.3916 42.772 27.4959 47.2015 27.9495Z" fill="#8A9BEA"/>
  <path d="M47.2015 23.3323C42.772 23.7859 38.3423 23.8901 33.9128 23.9087C29.4833 23.893 25.0535 23.7887 20.624 23.3323C25.0535 22.8759 29.4833 22.7716 33.9128 22.7559C38.3423 22.7745 42.772 22.8787 47.2015 23.3323Z" fill="#8A9BEA"/>
  <path d="M46.3193 32.8148C46.3917 32.2558 46.6477 31.8605 46.9469 31.503C47.2649 31.1626 47.6275 30.8614 48.1748 30.7246C48.1037 31.2841 47.8478 31.68 47.5473 32.0359C47.2278 32.3755 46.8656 32.6765 46.3193 32.8148Z" fill="#3A3A3A"/>
  <path d="M48.6709 25.3184L63.6534 8.39246L68.4852 12.6695L53.5027 29.5954L48.6709 25.3184Z" fill="#FBAD3E"/>
  <path d="M65.3318 9.9082L66.8054 11.2053L51.8047 28.1071L50.3311 26.8099L65.3318 9.9082Z" fill="#FA990E"/>
  <path d="M63.665 8.40234L64.9019 7.005L69.7321 11.2806L68.4952 12.6779L63.665 8.40234Z" fill="#D1DAFE"/>
  <path d="M71.4478 9.34408L69.7112 11.2979L64.8926 7.0214L66.6183 5.06808C67.1827 4.42793 68.1593 4.37334 68.7889 4.92712L71.3174 7.17349C71.9578 7.73786 72.0122 8.70392 71.4478 9.34408Z" fill="#B53016"/>
  <path d="M48.1108 32.1495L53.4864 29.5991L48.6602 25.3223L46.7694 30.9594C46.645 31.33 46.7543 31.7391 47.0469 31.9984C47.3392 32.2574 47.7579 32.3169 48.1108 32.1495Z" fill="#FFCECF"/>
  <path d="M49.4963 57.3969C51.4515 57.3969 53.0365 55.8119 53.0365 53.8566C53.0365 51.9014 51.4515 50.3164 49.4963 50.3164C47.5411 50.3164 45.9561 51.9014 45.9561 53.8566C45.9561 55.8119 47.5411 57.3969 49.4963 57.3969Z" fill="#255299"/>
  <path d="M58.8711 46.2598C61.1401 46.7918 63.2857 47.6643 65.3204 48.834C66.3508 49.4119 67.3186 50.0948 68.2585 50.9763C68.4891 51.2238 68.7128 51.4646 68.9286 51.7402L69.2348 52.2155C69.3382 52.3638 69.4332 52.5383 69.5056 52.7676C69.5811 52.9788 69.6573 53.1986 69.7015 53.4123C69.7153 53.6215 69.7239 53.8337 69.7264 54.046C69.7563 54.4991 69.6477 54.8154 69.5791 55.178C69.2087 56.5358 68.5844 57.5863 67.9163 58.5835C67.2069 59.5415 66.511 60.4869 65.6912 61.3132C64.1092 63.0119 62.3586 64.5241 60.3855 65.7637C61.5912 63.7763 62.8879 61.9252 64.1144 60.068C64.7172 59.1307 65.3274 58.2209 65.8547 57.282C66.3742 56.3582 66.8635 55.4007 67.0782 54.5685C67.1162 54.3764 67.2022 54.147 67.1677 54.0284C67.1667 53.957 67.1715 53.886 67.1821 53.8121C67.1652 53.7523 67.132 53.707 67.1245 53.6482C67.1285 53.5989 67.0956 53.523 67.0355 53.437L66.8982 53.1875L66.4876 52.6419C65.8607 51.881 65.0048 51.1976 64.1811 50.4795C62.4826 49.0805 60.6586 47.7413 58.8711 46.2598Z" fill="#255299"/>
  <path d="M68.4197 56.943C70.2329 56.943 71.7027 55.4731 71.7027 53.66C71.7027 51.8468 70.2329 50.377 68.4197 50.377C66.6066 50.377 65.1367 51.8468 65.1367 53.66C65.1367 55.4731 66.6066 56.943 68.4197 56.943Z" fill="#4269C4"/>
  <path d="M66.0286 69.8528C66.7138 69.8528 67.257 69.217 67.0903 68.5524C66.3319 65.5278 63.6016 63.2871 60.3416 63.2871C57.0816 63.2871 54.3512 65.5278 53.5928 68.5524C53.4262 69.217 53.9694 69.8528 54.6546 69.8528H66.0286Z" fill="#4269C4"/>
  <path d="M62.4299 42.9585L60.5523 44.8249C60.2052 45.1726 59.6409 45.1726 59.2826 44.8249L57.4374 42.9802C57.0795 42.622 57.0795 42.0576 57.4374 41.71L59.3044 39.833C59.6626 39.4854 60.2267 39.4854 60.5741 39.833L62.4299 41.6777C62.7772 42.0248 62.7772 42.6109 62.4299 42.9585Z" fill="#255299"/>
  <path d="M55.3118 56.9883C54.7465 57.6711 53.7629 57.8343 52.9779 57.4269C50.0039 55.9055 47.5792 53.658 45.6468 50.7313C45.1592 49.9819 45.2212 48.9799 45.8546 48.3447C48.7413 45.4156 52.1178 42.9737 55.9466 40.9988C56.4664 40.7333 57.0782 40.7188 57.6213 40.9483C59.34 41.676 60.6512 42.8828 61.5687 44.5527C61.8483 45.0715 61.9071 45.696 61.6708 46.2465C59.9907 50.3286 57.879 53.9209 55.3118 56.9883Z" fill="#4269C4"/>
  <path d="M4.54458 69.5553C3.37013 69.4763 2.38355 68.5786 2.26505 67.4047C2.13691 66.2502 2.13691 65.096 2.26505 63.9418C2.38355 62.7777 3.37013 61.8798 4.53446 61.801C10.9077 61.3964 17.4587 61.4359 24.1773 61.8501C24.858 61.8896 25.3118 62.5703 25.1244 63.2315C24.6508 64.8592 24.6508 66.4969 25.1244 68.1347C25.3118 68.7957 24.8676 69.4667 24.1869 69.5158C17.6359 69.9499 11.0951 69.96 4.54458 69.5553Z" fill="#B53016"/>
  <path d="M4.94836 68.4595C4.26768 68.4199 3.70551 67.8872 3.63614 67.246C3.57689 66.7132 3.55762 66.1903 3.55762 65.6772C3.55762 65.1543 3.57689 64.6314 3.63614 64.1085C3.70551 63.4575 4.26768 62.9444 4.94836 62.895C10.8283 62.5203 17.1423 62.54 23.7227 62.9444C23.7622 62.9444 23.7824 62.9938 23.7824 63.0333C23.6538 63.4871 23.555 63.931 23.4962 64.3848C23.4861 64.444 23.476 64.5033 23.4664 64.5724C23.4172 64.9373 23.3975 65.3123 23.3975 65.6772C23.3975 66.0523 23.4172 66.427 23.476 66.7922C23.476 66.8611 23.4861 66.9203 23.4962 66.9796C23.555 67.4235 23.6538 67.8674 23.7824 68.3014V68.3311C23.7824 68.3607 23.7723 68.4199 23.7227 68.4199C17.5175 68.8342 11.2036 68.8441 4.94836 68.4595Z" fill="white"/>
  <path d="M14.9609 64.9788C11.8533 64.959 8.73602 64.8701 5.62793 64.4855C8.73602 64.0907 11.8533 64.0021 14.9609 63.9922C17.8122 64.0021 20.6534 64.071 23.4951 64.3867C23.485 64.446 23.4749 64.5052 23.4653 64.5744C20.6337 64.8899 17.8021 64.959 14.9609 64.9788Z" fill="#D1DAFE"/>
  <path d="M14.9609 67.3751C11.8533 67.3653 8.73602 67.2764 5.62793 66.8818C8.73602 66.497 11.8533 66.4083 14.9609 66.3984C17.8021 66.4083 20.6438 66.4774 23.4749 66.7932C23.4749 66.8621 23.485 66.9213 23.4951 66.9806C20.6534 67.2961 17.8122 67.3653 14.9609 67.3751Z" fill="#D1DAFE"/>
  <path d="M24.4696 61.2233C25.644 61.1443 26.6306 60.2466 26.7491 59.0727C26.8772 57.9182 26.8772 56.764 26.7491 55.6098C26.6306 54.4457 25.644 53.5477 24.4797 53.469C18.1065 53.0643 11.5555 53.1038 4.83684 53.5181C4.15617 53.5576 3.70238 54.2383 3.88977 54.8995C4.36331 56.5272 4.36331 58.1648 3.88977 59.8027C3.70238 60.4636 4.14653 61.1347 4.82721 61.1838C11.3782 61.6178 17.9191 61.628 24.4696 61.2233Z" fill="#FBAD3E"/>
  <path d="M24.0645 60.1274C24.7452 60.0879 25.3073 59.5551 25.3767 58.914C25.436 58.3812 25.4552 57.8582 25.4552 57.3452C25.4552 56.8223 25.436 56.2994 25.3767 55.7765C25.3073 55.1254 24.7452 54.6124 24.0645 54.563C18.1846 54.1882 11.8706 54.208 5.2902 54.6124C5.2507 54.6124 5.23047 54.6618 5.23047 54.7013C5.35909 55.155 5.45784 55.599 5.51661 56.0527C5.52673 56.112 5.53685 56.1712 5.54648 56.2404C5.59562 56.6053 5.61537 56.9803 5.61537 57.3452C5.61537 57.7202 5.59562 58.095 5.53685 58.4602C5.53685 58.5291 5.52673 58.5883 5.51661 58.6476C5.45784 59.0915 5.35909 59.5354 5.23047 59.9694V59.999C5.23047 60.0287 5.24058 60.0879 5.2902 60.0879C11.4953 60.5022 17.8093 60.5121 24.0645 60.1274Z" fill="white"/>
  <path d="M14.0518 56.6467C17.1594 56.627 20.2767 56.5381 23.3848 56.1534C20.2767 55.7587 17.1594 55.67 14.0518 55.6602C11.2005 55.67 8.35928 55.7389 5.51758 56.0547C5.52769 56.1139 5.53781 56.1732 5.54745 56.2423C8.37903 56.5579 11.2106 56.627 14.0518 56.6467Z" fill="#D1DAFE"/>
  <path d="M14.0518 59.0431C17.1594 59.0332 20.2767 58.9444 23.3848 58.5498C20.2767 58.1649 17.1594 58.0763 14.0518 58.0664C11.2106 58.0763 8.36891 58.1454 5.53781 58.4612C5.53781 58.5301 5.52769 58.5893 5.51758 58.6486C8.35928 58.9641 11.2005 59.0332 14.0518 59.0431Z" fill="#D1DAFE"/>
</svg>