<svg xmlns="http://www.w3.org/2000/svg" width="74" height="75" viewBox="0 0 74 75" fill="none">
  <g clip-path="url(#clip0_1879_12463)">
    <path d="M34.8838 20.8203H39.1188V26.9372H34.8838V20.8203Z" fill="#495586"/>
    <path fill-rule="evenodd" clip-rule="evenodd" d="M24.6875 9.36328H49.3149V18.9156C45.8476 20.9969 41.5961 22.2231 37.0013 22.2231C32.4065 22.2231 28.1548 20.9969 24.6876 18.9156L24.6875 9.36328Z" fill="#FFC0B1"/>
    <path fill-rule="evenodd" clip-rule="evenodd" d="M46.0801 9.36328H49.3149V18.9156C48.3001 19.5248 47.2181 20.0605 46.0801 20.5139V9.36328Z" fill="#F29988"/>
    <path fill-rule="evenodd" clip-rule="evenodd" d="M17.5533 6.45832L35.9761 1.52194C36.6783 1.33383 37.3235 1.33383 38.0256 1.52194L56.4484 6.45832C56.818 6.55735 57.0663 6.88094 57.0663 7.26363C57.0663 7.64633 56.818 7.96978 56.4484 8.0688L38.0256 13.005C37.3235 13.1931 36.6782 13.1931 35.9761 13.005L17.5533 8.0688C17.1838 7.96978 16.9355 7.64618 16.9355 7.26363C16.9355 6.88109 17.1838 6.55749 17.5533 6.45832Z" fill="#495586"/>
    <path fill-rule="evenodd" clip-rule="evenodd" d="M18.6826 6.15562L35.9756 1.52194C36.6779 1.33383 37.323 1.33383 38.0251 1.52194L55.3183 6.15562L38.0251 10.7893C37.323 10.9774 36.6777 10.9774 35.9756 10.7893L18.6826 6.15562Z" fill="#5D689E"/>
    <path fill-rule="evenodd" clip-rule="evenodd" d="M37.4966 7.72111C36.9437 7.67109 36.5362 7.18217 36.5862 6.62939C36.6362 6.07647 37.1251 5.66898 37.6779 5.719L55.5437 7.33409C56.0661 7.38137 56.4587 7.82042 56.4581 8.33515H56.4619V16.645C56.4619 17.2022 56.0101 17.654 55.4529 17.654C54.8956 17.654 54.4439 17.2022 54.4439 16.645V9.25318L37.4964 7.72111H37.4966Z" fill="#495586"/>
    <path fill-rule="evenodd" clip-rule="evenodd" d="M55.5268 16.8164H55.8396L57.1502 19.6328C57.4322 20.2387 57.5589 20.8108 57.5589 21.4792V24.7831C57.5589 25.4134 57.0431 25.9291 56.4128 25.9291H54.6412C54.0109 25.9291 53.4951 25.4134 53.4951 24.7831V21.4792C53.4951 20.8108 53.6217 20.2387 53.9038 19.6328L55.2144 16.8164H55.5272H55.5268Z" fill="#F2671F"/>
    <path fill-rule="evenodd" clip-rule="evenodd" d="M55.2227 25.9291H54.6402C54.0099 25.9291 53.4941 25.4133 53.4941 24.783V21.4791C53.4941 20.8108 53.6207 20.2387 53.9028 19.6327L54.9315 17.4219L55.9602 19.6327C56.2422 20.2387 56.3689 20.8108 56.3689 21.4791V24.783C56.3689 25.4133 55.8531 25.9291 55.2228 25.9291H55.2227Z" fill="#FF8748"/>
    <path d="M57.1979 18.4012C58.1659 17.4332 58.1659 15.8637 57.1979 14.8956C56.2298 13.9276 54.6603 13.9276 53.6923 14.8956C52.7242 15.8637 52.7242 17.4332 53.6923 18.4012C54.6603 19.3693 56.2298 19.3693 57.1979 18.4012Z" fill="#F2671F"/>
    <path fill-rule="evenodd" clip-rule="evenodd" d="M54.6529 18.9932C53.6762 18.6604 52.9736 17.7353 52.9736 16.646C52.9736 15.5567 53.6762 14.6315 54.6529 14.2988C55.6296 14.6316 56.3321 15.5567 56.3321 16.646C56.3321 17.7353 55.6296 18.6605 54.6529 18.9932Z" fill="#FF8748"/>
    <path fill-rule="evenodd" clip-rule="evenodd" d="M22.8438 72.0097H4.79785V46.3868L22.8438 38.7344V72.0097Z" fill="#FFC0B1"/>
    <path d="M25.9092 26.9375H48.0931V31.2797H25.9092V26.9375Z" fill="#5D689E"/>
    <path fill-rule="evenodd" clip-rule="evenodd" d="M22.8447 31.2794V72.01H37.0015H51.1581V31.2793L22.8447 31.2794Z" fill="#7986BF"/>
    <path fill-rule="evenodd" clip-rule="evenodd" d="M51.1572 72.0097H69.2032V46.3868L51.1572 38.7344V72.0097Z" fill="#FFC0B1"/>
    <path fill-rule="evenodd" clip-rule="evenodd" d="M66.9668 72.0111H69.204V46.3882L66.9668 45.4395V72.0111Z" fill="#F29988"/>
    <path fill-rule="evenodd" clip-rule="evenodd" d="M57.1572 65.0802H63.2049V50.3888L57.1572 47.8242V65.0802Z" fill="white"/>
    <path fill-rule="evenodd" clip-rule="evenodd" d="M57.1572 55.4316L63.2049 56.4372V58.4773L57.1572 57.4718V55.4316Z" fill="#FFC0B1"/>
    <path fill-rule="evenodd" clip-rule="evenodd" d="M16.8446 65.0802H10.7969V50.3888L16.8446 47.8242V65.0802Z" fill="white"/>
    <path fill-rule="evenodd" clip-rule="evenodd" d="M16.8446 57.4718L10.7969 58.4773V56.4372L16.8446 55.4316V57.4718Z" fill="#FFC0B1"/>
    <path d="M30.0703 37.6484H43.9307V42.3167H30.0703V37.6484Z" fill="white"/>
    <path fill-rule="evenodd" clip-rule="evenodd" d="M48.6963 31.2794V72.01H49.9267H51.1571V31.2793L48.6963 31.2794Z" fill="#5D689E"/>
    <path fill-rule="evenodd" clip-rule="evenodd" d="M27.3986 72.0103H43.0589V58.2777C43.0589 55.7854 41.0197 53.7461 38.5272 53.7461H31.9301C29.4377 53.7461 27.3984 55.7853 27.3984 58.2777L27.3986 72.0103Z" fill="#5D689E"/>
    <path fill-rule="evenodd" clip-rule="evenodd" d="M29.1709 72.0103H44.8312V58.2777C44.8312 55.7854 42.792 53.7461 40.2997 53.7461H33.7025C31.2102 53.7461 29.1709 55.7853 29.1709 58.2777V72.0103Z" fill="white"/>
    <path d="M35.9922 52.7598H38.0102V72.0102H35.9922V52.7598Z" fill="#7986BF"/>
    <path fill-rule="evenodd" clip-rule="evenodd" d="M38.7046 62.5012C38.7046 61.9439 39.1564 61.4922 39.7136 61.4922C40.2709 61.4922 40.7226 61.9439 40.7226 62.5012V63.2579C40.7226 63.8152 40.2709 64.2669 39.7136 64.2669C39.1564 64.2669 38.7046 63.8152 38.7046 63.2579V62.5012ZM33.2783 62.5012C33.2783 61.9439 33.7301 61.4922 34.2873 61.4922C34.8446 61.4922 35.2963 61.9439 35.2963 62.5012V63.2579C35.2963 63.8152 34.8446 64.2669 34.2873 64.2669C33.7301 64.2669 33.2783 63.8152 33.2783 63.2579V62.5012Z" fill="#7986BF"/>
    <path d="M45.6045 26.9375H48.0928V31.2797H45.6045V26.9375Z" fill="#495586"/>
    <path fill-rule="evenodd" clip-rule="evenodd" d="M1.71211 73.018C1.15486 73.018 0.703125 72.5662 0.703125 72.009C0.703125 71.4517 1.15486 71 1.71211 71H72.2894C72.8467 71 73.2984 71.4517 73.2984 72.009C73.2984 72.5662 72.8467 73.018 72.2894 73.018H1.71211Z" fill="#5D689E"/>
    <path fill-rule="evenodd" clip-rule="evenodd" d="M57.1575 47.8242L56.208 47.9544V65.01L57.1575 65.0802V47.8242Z" fill="#F29988"/>
    <path fill-rule="evenodd" clip-rule="evenodd" d="M9.84766 50.7914L10.7971 50.3887V65.0801H9.84766V50.7914Z" fill="#F29988"/>
  </g>
  <defs>
    <clipPath id="clip0_1879_12463">
      <rect width="73.8" height="73.8" fill="white" transform="translate(0.100586 0.300781)"/>
    </clipPath>
  </defs>
</svg>