<svg xmlns="http://www.w3.org/2000/svg" width="74" height="75" viewBox="0 0 74 75" fill="none">
  <path fill-rule="evenodd" clip-rule="evenodd" d="M53.3764 6.47446L53.3766 57.766C52.6119 58.8116 52.1029 60.67 52.1029 62.7889C52.1029 64.9076 52.6118 66.766 53.3766 67.8116H8.9174C6.15509 67.8116 3.89453 65.5515 3.89453 62.7889C3.89453 43.7165 3.89468 29.264 3.89468 10.0559C3.89468 7.29333 6.15494 5.0332 8.9174 5.0332H51.935C52.7289 5.03306 53.3764 5.68054 53.3764 6.47446Z" fill="#8A99FE"/>
  <path fill-rule="evenodd" clip-rule="evenodd" d="M53.3761 6.47461L53.3763 57.7662C52.6116 58.8118 52.1026 60.6702 52.1026 62.789C52.1026 64.9078 52.6115 66.7662 53.3763 67.8118H50.4933C49.7286 66.7662 49.2197 64.9078 49.2197 62.789C49.2197 60.6702 49.7285 58.8118 50.4933 57.7662L50.4932 6.47461C50.4932 5.68068 49.8457 5.0332 49.0518 5.0332H51.9347C52.7286 5.0332 53.3761 5.68068 53.3761 6.47461Z" fill="#6068FF"/>
  <path fill-rule="evenodd" clip-rule="evenodd" d="M8.91726 5.0332V62.2168L3.89453 62.7596V10.0561C3.89453 7.29362 6.1548 5.0332 8.91726 5.0332Z" fill="#6068FF"/>
  <path fill-rule="evenodd" clip-rule="evenodd" d="M53.3766 57.7656H8.9174C6.15494 57.7656 3.89453 60.0257 3.89453 62.7885C3.89453 65.5511 6.1548 67.8112 8.9174 67.8112H53.3766C52.6119 66.7656 52.1029 64.9072 52.1029 62.7885C52.1029 60.6696 52.6119 58.8111 53.3766 57.7656Z" fill="#ECEFF1"/>
  <path fill-rule="evenodd" clip-rule="evenodd" d="M53.3763 57.7656H50.4934C49.7287 58.8112 49.2197 60.6696 49.2197 62.7885C49.2197 64.9072 49.7285 66.7656 50.4934 67.8112H53.3763C52.6116 66.7656 52.1027 64.9072 52.1027 62.7885C52.1027 60.6696 52.6116 58.8111 53.3763 57.7656Z" fill="#D1D1D6"/>
  <path fill-rule="evenodd" clip-rule="evenodd" d="M46.4144 13.4043C47.0513 13.4043 47.5676 13.9206 47.5676 14.5574C47.5676 15.1942 47.0513 15.7105 46.4144 15.7105H15.8797C15.2429 15.7105 14.7266 15.1942 14.7266 14.5574C14.7266 13.9206 15.2429 13.4043 15.8797 13.4043H46.4144ZM46.4144 47.0908C47.0513 47.0908 47.5676 47.6071 47.5676 48.2439C47.5676 48.8808 47.0513 49.3971 46.4144 49.3971H15.8797C15.2429 49.3971 14.7266 48.8808 14.7266 48.2439C14.7266 47.6071 15.2429 47.0908 15.8797 47.0908H46.4144ZM46.4144 40.3535C47.0513 40.3535 47.5676 40.8699 47.5676 41.5067C47.5676 42.1435 47.0513 42.6598 46.4144 42.6598H15.8797C15.2429 42.6598 14.7266 42.1435 14.7266 41.5067C14.7266 40.8699 15.2429 40.3535 15.8797 40.3535H46.4144ZM32.966 33.6163C33.6028 33.6163 34.1191 34.1326 34.1191 34.7694C34.1191 35.4062 33.6028 35.9225 32.966 35.9225H15.8797C15.2429 35.9225 14.7266 35.4062 14.7266 34.7694C14.7266 34.1326 15.2429 33.6163 15.8797 33.6163H32.966ZM46.4144 26.8788C47.0513 26.8788 47.5676 27.3952 47.5676 28.032C47.5676 28.6688 47.0513 29.1851 46.4144 29.1851H15.8797C15.2429 29.1851 14.7266 28.6688 14.7266 28.032C14.7266 27.3952 15.2429 26.8788 15.8797 26.8788H46.4144ZM46.4144 20.1416C47.0513 20.1416 47.5676 20.6579 47.5676 21.2947C47.5676 21.9315 47.0513 22.4478 46.4144 22.4478H15.8797C15.2429 22.4478 14.7266 21.9315 14.7266 21.2947C14.7266 20.6579 15.2429 20.1416 15.8797 20.1416H46.4144Z" fill="#ECEFF1"/>
  <path d="M50.8534 71.7948C61.4865 71.7948 70.1063 63.175 70.1063 52.5419C70.1063 41.9089 61.4865 33.2891 50.8534 33.2891C40.2204 33.2891 31.6006 41.9089 31.6006 52.5419C31.6006 63.175 40.2204 71.7948 50.8534 71.7948Z" fill="#D8ECFE"/>
  <path fill-rule="evenodd" clip-rule="evenodd" d="M50.8531 33.2891C61.4862 33.2891 70.1059 41.9088 70.1059 52.5419C70.1059 63.175 61.4862 71.7948 50.8531 71.7948C50.2605 71.7948 49.6746 71.7665 49.0957 71.7141C58.905 70.8263 66.5912 62.5825 66.5912 52.5419C66.5912 42.5014 58.9049 34.2575 49.0957 33.3696C49.6746 33.3173 50.2605 33.2891 50.8531 33.2891Z" fill="#C4E2FF"/>
  <path fill-rule="evenodd" clip-rule="evenodd" d="M62.4849 55.1582L64.4122 56.1092V61.1331L62.4849 59.8945L60.5576 61.1331V56.1092L62.4849 55.1582Z" fill="#FFD064"/>
  <path fill-rule="evenodd" clip-rule="evenodd" d="M61.332 47.7578H63.6383V57.2656H61.332V47.7578Z" fill="#FFD064"/>
  <path fill-rule="evenodd" clip-rule="evenodd" d="M64.4122 60.5497V61.1302L62.4849 59.8916L62.9367 59.6013L64.4122 60.5497ZM61.4609 60.5497L60.5576 61.1302V56.1063L61.3318 55.7243V47.7578H62.2351V55.7243L61.4609 56.1063V60.5497Z" fill="#FFC338"/>
  <path fill-rule="evenodd" clip-rule="evenodd" d="M50.4643 47.125L60.2625 47.366V56.0816C60.2625 56.4969 59.9726 56.8451 59.5643 56.9204C48.9421 58.8876 51.9864 58.8876 41.3642 56.9204C40.9559 56.8451 40.666 56.4969 40.666 56.0816V47.366L50.4643 47.125Z" fill="#837683"/>
  <path fill-rule="evenodd" clip-rule="evenodd" d="M60.2625 54.5558V56.0801C60.2625 56.4952 59.9726 56.8434 59.5643 56.9188C48.9421 58.8861 51.9864 58.8861 41.3642 56.9188C40.9559 56.8436 40.666 56.4953 40.666 56.0801V47.3643L41.9817 47.332V55.5096C51.8685 57.3608 49.1539 57.3226 59.5643 55.3945C59.9726 55.3193 60.2625 54.9711 60.2625 54.5558Z" fill="#685E68"/>
  <path fill-rule="evenodd" clip-rule="evenodd" d="M50.4638 43.9531L64.1713 47.5943C64.3399 47.6391 64.3399 47.8798 64.1713 47.9246L50.4638 51.5658L36.7565 47.9246C36.5877 47.8798 36.5877 47.6391 36.7565 47.5943L50.4638 43.9531Z" fill="#837683"/>
  <path fill-rule="evenodd" clip-rule="evenodd" d="M61.5836 46.9062L64.1712 47.5935C64.3399 47.6383 64.3399 47.8792 64.1712 47.924L50.4638 51.5652L36.7564 47.924C36.5876 47.8792 36.5878 47.6383 36.7564 47.5935L39.344 46.9062L50.4639 49.86L61.5836 46.9062Z" fill="#685E68"/>
  <path fill-rule="evenodd" clip-rule="evenodd" d="M40.1213 25.9823C40.5716 25.532 41.3018 25.532 41.7521 25.9823C42.2024 26.4325 42.2024 27.1628 41.7521 27.6131L33.7819 35.5833C33.3316 36.0336 32.6013 36.0336 32.1512 35.5833C31.7009 35.133 31.7009 34.4028 32.1512 33.9525L40.1213 25.9823Z" fill="#837683"/>
  <path fill-rule="evenodd" clip-rule="evenodd" d="M63.7647 2.98406L64.6277 3.84703C65.1297 4.34922 65.1297 5.17067 64.6277 5.67286L56.5214 13.7792C56.0193 14.2814 55.1977 14.2814 54.6956 13.7792L53.8326 12.9162C53.3305 12.4142 53.3305 11.5926 53.8326 11.0904L61.9389 2.98406C62.4411 2.48188 63.2627 2.48188 63.7647 2.98406Z" fill="#8192A5"/>
  <path fill-rule="evenodd" clip-rule="evenodd" d="M63.764 2.98438L64.627 3.84734C65.1291 4.34953 65.1291 5.17099 64.627 5.67317L56.5207 13.7795C56.0186 14.2817 55.197 14.2815 54.695 13.7795L53.832 12.9165C54.3341 13.4186 55.1557 13.4186 55.6577 12.9165L63.764 4.8102C64.2661 4.30802 64.2662 3.48656 63.764 2.98438Z" fill="#65788E"/>
  <path fill-rule="evenodd" clip-rule="evenodd" d="M34.1338 29.4892L54.5019 9.12109L58.6441 13.2631L38.2759 33.6313L35.0645 34.3013L33.4639 32.7005L34.1338 29.4892Z" fill="#8192A5"/>
  <path fill-rule="evenodd" clip-rule="evenodd" d="M57.2475 11.8672L58.6441 13.2636L38.2759 33.6318L35.0645 34.3018L33.4639 32.701L33.593 32.0819L34.0422 32.531L37.2536 31.8611L57.2475 11.8672Z" fill="#65788E"/>
  <path fill-rule="evenodd" clip-rule="evenodd" d="M59.5956 7.80642C59.1454 7.35612 59.1454 6.62591 59.5956 6.17561C60.0459 5.72532 60.7762 5.72532 61.2265 6.17561L64.8646 9.81387C65.5223 10.4716 65.8511 11.3373 65.8511 12.2024C65.8511 13.0674 65.5221 13.9333 64.8646 14.5908L56.8943 22.5611C56.444 23.0114 55.7138 23.0114 55.2635 22.5611C54.8132 22.1108 54.8132 21.3806 55.2635 20.9303L63.2338 12.96C63.4412 12.7526 63.545 12.4777 63.545 12.2023C63.545 11.927 63.4412 11.6521 63.2336 11.4445L59.5956 7.80642Z" fill="#FFC338"/>
  <path fill-rule="evenodd" clip-rule="evenodd" d="M59.5373 4.48585L63.279 8.2276C63.7289 8.67746 63.7289 9.41344 63.279 9.86316L54.1408 19.0014C53.9159 19.2262 53.5479 19.2262 53.3229 19.0014L48.7635 14.4418C48.5385 14.2169 48.5385 13.8489 48.7635 13.6239L57.9017 4.48571C58.3516 4.03599 59.0874 4.03599 59.5373 4.48585Z" fill="#FFD064"/>
  <path fill-rule="evenodd" clip-rule="evenodd" d="M61.6736 6.625L63.278 8.22943C63.7279 8.67915 63.7279 9.41513 63.278 9.86499L54.1398 19.0032C53.9149 19.2282 53.5469 19.2281 53.3219 19.0032L51.7168 17.3979C51.9417 17.6229 52.3096 17.6229 52.5345 17.3979L61.6727 8.2597C62.1223 7.81012 62.1226 7.07486 61.6736 6.625Z" fill="#FFC338"/>
</svg>