<svg xmlns="http://www.w3.org/2000/svg" width="74" height="75" viewBox="0 0 74 75" fill="none">
  <g clip-path="url(#clip0_1838_18639)">
    <path d="M53.2993 11.1292V72.0296C53.3003 72.3593 53.2362 72.686 53.1107 72.991C52.9852 73.2959 52.8008 73.5731 52.568 73.8066C52.3351 74.0402 52.0585 74.2254 51.754 74.3519C51.4494 74.4783 51.1229 74.5434 50.7931 74.5434H5.71363C5.38158 74.5464 5.05221 74.4837 4.74455 74.3587C4.4369 74.2337 4.15705 74.049 3.92117 73.8153C3.68529 73.5816 3.49806 73.3034 3.37029 72.9969C3.24252 72.6904 3.17674 72.3616 3.17676 72.0296V11.1369C3.17676 10.8061 3.24203 10.4786 3.36884 10.1731C3.49565 9.86761 3.68151 9.59014 3.91575 9.35661C4.15 9.12308 4.42802 8.93808 4.7339 8.8122C5.03978 8.68632 5.36749 8.62205 5.69826 8.62306H50.7931C51.4578 8.62306 52.0952 8.8871 52.5652 9.35709C53.0352 9.82708 53.2993 10.4645 53.2993 11.1292Z" fill="#BCBEC0"/>
    <path d="M53.2994 11.1309V69.5559H10.6953C10.3642 69.5559 10.0363 69.4907 9.73039 69.3639C9.42447 69.2372 9.1465 69.0515 8.91236 68.8173C8.67822 68.5832 8.49248 68.3052 8.36577 67.9993C8.23905 67.6934 8.17383 67.3655 8.17383 67.0344V8.60938H50.7933C51.1237 8.60937 51.4509 8.6747 51.7559 8.8016C52.061 8.92851 52.338 9.11448 52.5709 9.34883C52.8038 9.58318 52.9881 9.86127 53.1131 10.1671C53.2382 10.4729 53.3015 10.8005 53.2994 11.1309Z" fill="#939598"/>
    <path d="M14.346 0.298828H59.5639C60.2102 0.298828 60.83 0.555576 61.287 1.01259C61.7441 1.46961 62.0008 2.08945 62.0008 2.73577V63.7822C62.0008 64.4285 61.7441 65.0484 61.287 65.5054C60.83 65.9624 60.2102 66.2191 59.5639 66.2191H14.3383C13.692 66.2191 13.0721 65.9624 12.6151 65.5054C12.1581 65.0484 11.9014 64.4285 11.9014 63.7822V2.74345C11.9014 2.0951 12.1589 1.4733 12.6174 1.01484C13.0758 0.556386 13.6976 0.298828 14.346 0.298828Z" fill="#E6E7E8"/>
    <path d="M58.0428 11.0611C58.0428 10.5922 57.8565 10.1424 57.5249 9.81084C57.1933 9.47925 56.7436 9.29297 56.2747 9.29297H50.4937C50.0894 9.29324 49.6944 9.41332 49.3583 9.63803C49.0223 9.86275 48.7604 10.182 48.6058 10.5555C48.4511 10.929 48.4106 11.3399 48.4894 11.7364C48.5682 12.1329 48.7627 12.4971 49.0484 12.7831L54.5604 18.2873C54.8448 18.5737 55.208 18.7691 55.6037 18.8487C55.9994 18.9284 56.4098 18.8887 56.783 18.7346C57.1561 18.5806 57.475 18.3192 57.6993 17.9837C57.9236 17.6481 58.0432 17.2534 58.0428 16.8498V11.0611Z" fill="white"/>
    <path d="M15.8613 55.2862V60.4906C15.8603 60.7234 15.9053 60.9542 15.9937 61.1696C16.0821 61.385 16.2122 61.5808 16.3765 61.7458C16.5408 61.9108 16.736 62.0417 16.9511 62.1311C17.1661 62.2204 17.3966 62.2664 17.6295 62.2664H22.8339C23.1307 62.261 23.4196 62.1699 23.6657 62.004C23.9118 61.838 24.1046 61.6044 24.2208 61.3312C24.3371 61.0581 24.3718 60.7572 24.3207 60.4648C24.2697 60.1724 24.1351 59.901 23.9332 59.6834L18.4674 54.2176C18.2526 54.0098 17.982 53.8692 17.6885 53.8128C17.3951 53.7564 17.0916 53.7867 16.8151 53.9001C16.5386 54.0135 16.3012 54.2049 16.1318 54.4511C15.9624 54.6972 15.8684 54.9874 15.8613 55.2862Z" fill="white"/>
    <path d="M33.3351 9.27734H17.6295C17.396 9.27733 17.1648 9.32357 16.9493 9.41339C16.7338 9.50321 16.5382 9.63482 16.3738 9.80064C16.2094 9.96646 16.0795 10.1632 15.9915 10.3795C15.9036 10.5958 15.8594 10.8274 15.8614 11.0608V34.4616C15.8602 35.7327 16.1102 36.9914 16.597 38.1656C17.0838 39.3397 17.7979 40.4061 18.6981 41.3035L36.8175 59.4306C38.6347 61.2464 41.0982 62.2666 43.6671 62.2673H56.2746C56.5074 62.2673 56.738 62.2213 56.953 62.132C57.168 62.0426 57.3633 61.9117 57.5276 61.7467C57.6919 61.5817 57.8219 61.3859 57.9103 61.1705C57.9987 60.9551 58.0437 60.7243 58.0427 60.4915V33.985C58.0417 31.4184 57.0213 28.9574 55.206 27.1431L40.1846 12.114C38.3675 10.2983 35.9039 9.278 33.3351 9.27734Z" fill="white"/>
    <path d="M62.0008 6.37965V2.81265C62.0018 2.48225 61.9375 2.15491 61.8115 1.84946C61.6856 1.54401 61.5004 1.26649 61.2668 1.03286C61.0332 0.799224 60.7556 0.614096 60.4502 0.488125C60.1448 0.362154 59.8174 0.297825 59.487 0.29884H14.4152C14.0844 0.298838 13.7569 0.364114 13.4514 0.490925C13.1459 0.617737 12.8685 0.80359 12.6349 1.03783C12.4014 1.27208 12.2164 1.55011 12.0905 1.85598C11.9646 2.16186 11.9004 2.48958 11.9014 2.82034V6.37965H62.0008Z" fill="#FEAA7C"/>
    <path d="M52.4306 6.37964V2.81264C52.4306 1.4212 51.731 0.298828 50.8931 0.298828H23.0336C22.1726 0.298828 21.4961 1.42889 21.4961 2.82033V6.37964H52.4306Z" fill="#FEC89A"/>
    <path d="M43.5898 24.7155L37.04 11.6467C36.9421 11.449 36.7909 11.2826 36.6034 11.1663C36.416 11.0499 36.1997 10.9883 35.9791 10.9883C35.7585 10.9883 35.5423 11.0499 35.3548 11.1663C35.1674 11.2826 35.0162 11.449 34.9183 11.6467L28.3762 24.7155C28.3065 24.8548 28.265 25.0064 28.254 25.1618C28.2429 25.3172 28.2626 25.4732 28.3118 25.621C28.3611 25.7687 28.439 25.9053 28.541 26.023C28.6431 26.1407 28.7673 26.2371 28.9066 26.3068C29.046 26.3764 29.1976 26.418 29.353 26.429C29.5084 26.44 29.6644 26.4204 29.8121 26.3711C29.9599 26.3219 30.0965 26.244 30.2142 26.1419C30.3319 26.0399 30.4283 25.9156 30.4979 25.7763L31.9278 22.9243H40.0766L41.4988 25.7763C41.5625 25.9256 41.6562 26.0603 41.7739 26.1721C41.8916 26.2839 42.0309 26.3704 42.1832 26.4264C42.3356 26.4825 42.4978 26.5068 42.6599 26.4979C42.822 26.489 42.9805 26.447 43.1258 26.3746C43.2711 26.3022 43.4001 26.2009 43.5048 26.0769C43.6096 25.9529 43.6879 25.8088 43.7349 25.6534C43.7819 25.498 43.7967 25.3347 43.7784 25.1734C43.76 25.0121 43.7089 24.8563 43.6282 24.7155H43.5898ZM33.1117 20.5488L35.9791 14.8139L38.8466 20.5488H33.1117Z" fill="#FF4B6E"/>
    <path d="M45.6504 13.2143H44.5204V12.0842C44.4963 11.7857 44.3608 11.5072 44.1407 11.3041C43.9206 11.101 43.6321 10.9883 43.3327 10.9883C43.0332 10.9883 42.7447 11.101 42.5246 11.3041C42.3045 11.5072 42.169 11.7857 42.1449 12.0842V13.2143H41.0149C40.7164 13.2383 40.4379 13.3739 40.2348 13.5939C40.0317 13.814 39.9189 14.1025 39.9189 14.402C39.9189 14.7015 40.0317 14.9899 40.2348 15.21C40.4379 15.4301 40.7164 15.5657 41.0149 15.5897H42.1449V16.7198C42.169 17.0183 42.3045 17.2968 42.5246 17.4999C42.7447 17.7029 43.0332 17.8157 43.3327 17.8157C43.6321 17.8157 43.9206 17.7029 44.1407 17.4999C44.3608 17.2968 44.4963 17.0183 44.5204 16.7198V15.5897H45.6504C45.9489 15.5657 46.2274 15.4301 46.4305 15.21C46.6336 14.9899 46.7464 14.7015 46.7464 14.402C46.7464 14.1025 46.6336 13.814 46.4305 13.5939C46.2274 13.3739 45.9489 13.2383 45.6504 13.2143Z" fill="#FF4B6E"/>
    <path d="M34.0664 68.5293L34.0231 62.3485L68.7322 62.1056L68.7755 68.2863L34.0664 68.5293Z" fill="#F4A261"/>
    <path d="M34.0371 64.7383L34.0204 62.3475L68.7294 62.1045L68.7462 64.4953L34.0371 64.7383Z" fill="#F4CF84"/>
    <path d="M34.042 68.5664L34.0309 66.9828L68.74 66.7398L68.7511 68.3234L34.042 68.5664Z" fill="#F45C48"/>
    <path d="M73.817 64.6275L68.751 62.1367V68.2867L73.7863 65.7268C73.8855 65.6748 73.969 65.5973 74.0283 65.5022C74.0876 65.4072 74.1205 65.2981 74.1237 65.1861C74.1268 65.0742 74.1 64.9634 74.0462 64.8652C73.9923 64.767 73.9132 64.6849 73.817 64.6275Z" fill="#F4D493"/>
    <path d="M73.8177 64.627L71.8574 63.666V66.741L73.8254 65.7416C73.9264 65.6874 74.0107 65.6066 74.0692 65.508C74.1277 65.4094 74.1582 65.2966 74.1575 65.182C74.1567 65.0673 74.1246 64.955 74.0648 64.8572C74.0049 64.7594 73.9195 64.6798 73.8177 64.627Z" fill="#353C60"/>
    <path d="M31.4746 68.5391L31.4313 62.3583L34.022 62.3402L34.0653 68.5209L31.4746 68.5391Z" fill="#BCBEC0"/>
    <path d="M31.4576 64.4225L31.4431 62.3546L34.0338 62.3365L34.0483 64.4044C34.0499 64.6429 33.9568 64.8724 33.7893 65.0422C33.6218 65.2121 33.3937 65.3085 33.1551 65.3101L32.3864 65.3155C32.2663 65.3194 32.1468 65.2993 32.0346 65.2562C31.9225 65.2132 31.8202 65.1481 31.7336 65.0649C31.6471 64.9817 31.578 64.882 31.5306 64.7716C31.4832 64.6613 31.4584 64.5426 31.4576 64.4225Z" fill="#DEE0E3"/>
    <path d="M31.4973 68.5638H29.883C29.6027 68.5669 29.3246 68.5145 29.0645 68.4098C28.8045 68.3051 28.5677 68.1502 28.3677 67.9537C28.1678 67.7573 28.0085 67.5234 27.8992 67.2653C27.7898 67.0072 27.7325 66.7301 27.7305 66.4498C27.7305 64.3126 27.7305 64.4971 27.7305 64.2511C27.8004 63.7421 28.0507 63.2752 28.4359 62.9352C28.821 62.5952 29.3154 62.4047 29.8292 62.3984H31.4512C31.482 67.0494 31.4743 65.7963 31.4973 68.5638Z" fill="#D73755"/>
    <path d="M31.4828 66.3653H29.8838C29.6129 66.3855 29.3407 66.35 29.0841 66.261C28.8274 66.172 28.5917 66.0315 28.3914 65.848C28.1911 65.6645 28.0304 65.442 27.9193 65.1942C27.8082 64.9463 27.749 64.6783 27.7453 64.4067C27.7416 64.1351 27.7936 63.8656 27.8979 63.6148C28.0023 63.364 28.1568 63.1372 28.3521 62.9484C28.5474 62.7596 28.7792 62.6127 29.0334 62.5168C29.2875 62.4209 29.5586 62.3781 29.83 62.3909H31.452L31.4828 66.3653Z" fill="#FF4B6E"/>
    <path d="M23.0873 35.9688H18.5747C18.2266 35.9688 17.9443 36.251 17.9443 36.5991V41.1117C17.9443 41.4598 18.2266 41.7421 18.5747 41.7421H23.0873C23.4354 41.7421 23.7176 41.4598 23.7176 41.1117V36.5991C23.7176 36.251 23.4354 35.9688 23.0873 35.9688Z" fill="#17181D"/>
    <path d="M23.0873 44.7168H18.5747C18.2266 44.7168 17.9443 44.999 17.9443 45.3472V49.8597C17.9443 50.2079 18.2266 50.4901 18.5747 50.4901H23.0873C23.4354 50.4901 23.7176 50.2079 23.7176 49.8597V45.3472C23.7176 44.999 23.4354 44.7168 23.0873 44.7168Z" fill="#17181D"/>
    <path d="M23.0873 53.4648H18.5747C18.2266 53.4648 17.9443 53.7471 17.9443 54.0952V58.6078C17.9443 58.9559 18.2266 59.2382 18.5747 59.2382H23.0873C23.4354 59.2382 23.7176 58.9559 23.7176 58.6078V54.0952C23.7176 53.7471 23.4354 53.4648 23.0873 53.4648Z" fill="#17181D"/>
    <path d="M55.9592 39.65H29.4373C29.2273 39.65 29.0259 39.5666 28.8774 39.4181C28.7289 39.2696 28.6455 39.0682 28.6455 38.8582C28.6455 38.6482 28.7289 38.4468 28.8774 38.2983C29.0259 38.1498 29.2273 38.0664 29.4373 38.0664H55.9592C56.1692 38.0664 56.3706 38.1498 56.5191 38.2983C56.6676 38.4468 56.751 38.6482 56.751 38.8582C56.751 39.0682 56.6676 39.2696 56.5191 39.4181C56.3706 39.5666 56.1692 39.65 55.9592 39.65Z" fill="#353C60"/>
    <path d="M55.6363 48.4H29.4373C29.2273 48.4 29.0259 48.3166 28.8774 48.1681C28.7289 48.0196 28.6455 47.8182 28.6455 47.6082C28.6455 47.3982 28.7289 47.1968 28.8774 47.0483C29.0259 46.8998 29.2273 46.8164 29.4373 46.8164H55.6363C55.8463 46.8164 56.0477 46.8998 56.1962 47.0483C56.3447 47.1968 56.4281 47.3982 56.4281 47.6082C56.4281 47.8182 56.3447 48.0196 56.1962 48.1681C56.0477 48.3166 55.8463 48.4 55.6363 48.4Z" fill="#353C60"/>
    <path d="M55.6363 57.1403H29.4373C29.2273 57.1403 29.0259 57.0568 28.8774 56.9084C28.7289 56.7599 28.6455 56.5585 28.6455 56.3485C28.6455 56.1385 28.7289 55.9371 28.8774 55.7886C29.0259 55.6401 29.2273 55.5566 29.4373 55.5566H55.6363C55.8463 55.5566 56.0477 55.6401 56.1962 55.7886C56.3447 55.9371 56.4281 56.1385 56.4281 56.3485C56.4281 56.5585 56.3447 56.7599 56.1962 56.9084C56.0477 57.0568 55.8463 57.1403 55.6363 57.1403Z" fill="#353C60"/>
    <path d="M20.6585 48.8216L19.6515 47.3763C19.5919 47.291 19.5497 47.1948 19.5273 47.0932C19.505 46.9916 19.5028 46.8866 19.521 46.7841C19.5392 46.6817 19.5774 46.5839 19.6334 46.4962C19.6895 46.4085 19.7622 46.3327 19.8475 46.2732C19.9328 46.2136 20.029 46.1714 20.1306 46.149C20.2322 46.1267 20.3372 46.1245 20.4397 46.1427C20.5421 46.1609 20.64 46.1991 20.7276 46.2551C20.8153 46.3111 20.8911 46.3839 20.9507 46.4692L21.3735 47.0765L26.3857 41.2263C26.4516 41.1438 26.5339 41.0758 26.6273 41.0265C26.7206 40.9772 26.8232 40.9476 26.9285 40.9397C27.0338 40.9317 27.1396 40.9456 27.2393 40.9804C27.3391 41.0151 27.4305 41.0701 27.5081 41.1418C27.5894 41.2076 27.6564 41.2895 27.705 41.3822C27.7536 41.4749 27.7827 41.5765 27.7906 41.6809C27.7986 41.7852 27.7851 41.8901 27.751 41.9891C27.717 42.0881 27.6631 42.179 27.5927 42.2564L21.9116 48.8908C21.8351 48.987 21.7367 49.0636 21.6246 49.1139C21.5125 49.1643 21.3899 49.1871 21.2672 49.1803C21.1444 49.1735 21.0251 49.1374 20.9192 49.075C20.8133 49.0126 20.7239 48.9257 20.6585 48.8216Z" fill="#4BB543"/>
    <path d="M20.6583 40.1353L19.6512 38.6824C19.5922 38.5971 19.5505 38.5009 19.5286 38.3995C19.5067 38.2981 19.5049 38.1934 19.5235 38.0913C19.542 37.9892 19.5805 37.8918 19.6367 37.8046C19.693 37.7174 19.7658 37.6421 19.8511 37.583C19.9364 37.524 20.0325 37.4823 20.1339 37.4604C20.2353 37.4385 20.3401 37.4367 20.4421 37.4553C20.5442 37.4739 20.6417 37.5124 20.7289 37.5686C20.8161 37.6248 20.8914 37.6976 20.9504 37.7829L21.3732 38.3902L26.3855 32.54C26.5221 32.38 26.7167 32.2808 26.9264 32.2642C27.1362 32.2476 27.344 32.315 27.504 32.4516C27.6641 32.5882 27.7633 32.7828 27.7799 32.9926C27.7964 33.2024 27.729 33.4101 27.5924 33.5702L21.9113 40.1968C21.8355 40.2935 21.7376 40.3705 21.6258 40.4215C21.514 40.4725 21.3916 40.496 21.2689 40.49C21.1462 40.484 21.0267 40.4486 20.9205 40.3869C20.8142 40.3252 20.7243 40.2389 20.6583 40.1353Z" fill="#4BB543"/>
    <path d="M46.9189 4.14222H27.6463C27.4363 4.14222 27.2349 4.0588 27.0864 3.9103C26.9379 3.76181 26.8545 3.56041 26.8545 3.35041C26.8545 3.1404 26.9379 2.939 27.0864 2.79051C27.2349 2.64202 27.4363 2.55859 27.6463 2.55859H46.9189C47.0229 2.55859 47.1258 2.57907 47.2219 2.61887C47.3179 2.65866 47.4052 2.71698 47.4788 2.79051C47.5523 2.86404 47.6106 2.95133 47.6504 3.04739C47.6902 3.14346 47.7107 3.24642 47.7107 3.35041C47.7107 3.45439 47.6902 3.55735 47.6504 3.65342C47.6106 3.74949 47.5523 3.83678 47.4788 3.9103C47.4052 3.98383 47.3179 4.04215 47.2219 4.08195C47.1258 4.12174 47.0229 4.14222 46.9189 4.14222Z" fill="white"/>
  </g>
  <defs>
    <clipPath id="clip0_1838_18639">
      <rect width="73.8" height="73.8" fill="white" transform="translate(0.100586 0.300781)"/>
    </clipPath>
  </defs>
</svg>