<svg width="182" height="109" viewBox="0 0 182 109" fill="none" xmlns="http://www.w3.org/2000/svg">
<g id="Frame 1261155379">
<g id="Group">
<g id="Group_2">
<g id="Group_3">
<path id="Vector" d="M52.7136 49.6912C52.0583 50.161 51.7148 50.0917 51.5315 49.8336C51.3482 49.5757 51.3945 49.2268 52.0497 48.7571C53.2434 47.9013 54.1522 47.9548 54.1522 47.9548C54.1522 47.9548 53.9247 48.823 52.7136 49.6912Z" fill="#B2C9C6"/>
</g>
<g id="Group_4">
<g id="Group_5">
<g id="Group_6">
<path id="Vector_2" d="M54.0302 68.5252L53.8778 68.5255C53.8778 68.502 53.8589 66.1268 52.763 62.7436C51.7517 59.6219 49.5905 54.9789 45.0361 50.587L45.1415 50.4766C49.721 54.8927 51.8936 59.5628 52.9099 62.7028C54.0119 66.1073 54.0301 68.5014 54.0302 68.5252Z" fill="#B2C9C6"/>
</g>
</g>
<g id="Group_7">
<g id="Group_8">
<path id="Vector_3" d="M49.7434 56.1242L49.6084 56.0534C52.1663 51.1249 49.872 45.6251 49.8487 45.5701L49.9886 45.5098C50.0123 45.5654 52.3354 51.1301 49.7434 56.1242Z" fill="#B2C9C6"/>
</g>
</g>
<g id="Group_9">
<g id="Group_10">
<path id="Vector_4" d="M47.2387 53.856C45.6972 53.9943 44.4633 53.3235 44.4492 53.3156L44.5228 53.1816C44.5384 53.1903 46.1196 54.0475 47.9153 53.5852L47.9532 53.7334C47.7103 53.7959 47.4709 53.8352 47.2387 53.856Z" fill="#B2C9C6"/>
</g>
</g>
<g id="Group_11">
<g id="Group_12">
<path id="Vector_5" d="M44.8597 49.7461C45.7273 50.4016 45.8316 50.8019 45.642 51.0552C45.4523 51.3085 45.0405 51.3189 44.1729 50.6634C42.5923 49.4693 42.1719 48.4336 42.1719 48.4336C42.1719 48.4336 43.2561 48.5346 44.8597 49.7461Z" fill="#B2C9C6"/>
</g>
</g>
<g id="Group_13">
<g id="Group_14">
<path id="Vector_6" d="M44.8122 52.7869C45.8362 53.1492 46.0558 53.4992 45.9511 53.7983C45.8462 54.0971 45.4566 54.2317 44.4326 53.8694C42.5672 53.2096 41.8555 52.3494 41.8555 52.3494C41.8555 52.3494 42.9196 52.1174 44.8122 52.7869Z" fill="#B2C9C6"/>
</g>
</g>
<g id="Group_15">
<g id="Group_16">
<path id="Vector_7" d="M48.5745 51.2892C48.8271 52.057 48.6594 52.3659 48.3598 52.4654C48.0601 52.5648 47.7422 52.4171 47.4896 51.6492C47.0295 50.2505 47.3496 49.3945 47.3496 49.3945C47.3496 49.3945 48.1077 49.8701 48.5745 51.2892Z" fill="#B2C9C6"/>
</g>
</g>
<g id="Group_17">
<g id="Group_18">
<path id="Vector_8" d="M50.2542 44.8641C50.6001 45.8977 50.4606 46.2871 50.1614 46.3881C49.8623 46.489 49.5169 46.2633 49.171 45.2298C48.541 43.3468 48.7781 42.2539 48.7781 42.2539C48.7781 42.2539 49.6149 42.9537 50.2542 44.8641Z" fill="#B2C9C6"/>
</g>
</g>
</g>
</g>
</g>
<g id="Group_19">
<path id="Vector_9" d="M88.2051 109C135.712 109 174.225 103.15 174.225 95.9336C174.225 88.7172 135.712 82.8672 88.2051 82.8672C40.6978 82.8672 2.18555 88.7172 2.18555 95.9336C2.18555 103.15 40.6978 109 88.2051 109Z" fill="#E6F2EC"/>
</g>
<g id="Group_20">
<path id="Vector_10" d="M38.7567 104.649L38.708 104.574C38.713 104.571 39.2141 104.235 39.2832 103.843C39.3072 103.707 39.2754 103.578 39.1886 103.46C39.1273 103.377 39.0523 103.339 38.9612 103.338C38.5264 103.345 37.8966 104.246 37.8904 104.255L37.7758 104.42L37.8105 104.222C37.8119 104.214 37.9479 103.417 37.6712 103.179C37.5851 103.105 37.4624 103.095 37.3063 103.148C37.1422 103.204 37.0281 103.307 36.9673 103.454C36.7857 103.893 37.1176 104.585 37.121 104.592L37.0415 104.631C37.027 104.601 36.6888 103.895 36.8856 103.42C36.9566 103.249 37.0886 103.129 37.2778 103.064C37.4655 103 37.6173 103.016 37.7289 103.112C37.9592 103.31 37.9461 103.802 37.9201 104.066C38.1236 103.802 38.5886 103.255 38.9601 103.25C39.0811 103.251 39.1813 103.301 39.2598 103.408C39.3617 103.546 39.3988 103.698 39.3704 103.859C39.2944 104.288 38.7785 104.634 38.7567 104.649Z" fill="#42428E"/>
</g>
<g id="Group_21">
<path id="Vector_11" d="M152.681 94.87L152.624 94.7832C152.63 94.7793 153.216 94.3858 153.297 93.9275C153.325 93.7684 153.288 93.6177 153.187 93.4797C153.116 93.3836 153.03 93.3368 152.926 93.3368C152.924 93.3368 152.922 93.3368 152.92 93.3369C152.412 93.3441 151.675 94.3989 151.667 94.4095L151.533 94.6029L151.574 94.3707C151.576 94.3614 151.735 93.4291 151.411 93.1506C151.31 93.0638 151.167 93.0516 150.984 93.1142C150.792 93.18 150.658 93.3005 150.587 93.4726C150.375 93.9857 150.763 94.7957 150.767 94.8039L150.674 94.8495C150.657 94.8146 150.262 93.9886 150.492 93.4327C150.575 93.2319 150.729 93.0917 150.951 93.0159C151.17 92.9405 151.348 92.9596 151.478 93.0718C151.748 93.3038 151.733 93.8797 151.702 94.188C151.94 93.8788 152.484 93.2393 152.919 93.2331C153.059 93.2334 153.178 93.2933 153.27 93.4182C153.389 93.58 153.433 93.7577 153.399 93.9461C153.31 94.4483 152.707 94.853 152.681 94.87Z" fill="#42428E"/>
</g>
<g id="Group_22">
<path id="Vector_12" d="M60.0409 101.085C60.0118 101.065 59.3286 100.607 59.2281 100.039C59.1904 99.826 59.2396 99.6254 59.3742 99.4425C59.4776 99.3019 59.6125 99.2343 59.7692 99.2341C60.2652 99.2411 60.8881 99.9785 61.1538 100.325C61.1186 99.9792 61.0973 99.3155 61.4054 99.0504C61.5525 98.9238 61.7528 98.9026 62.0007 98.9875C62.2509 99.0733 62.4253 99.2316 62.5193 99.4584C62.7797 100.088 62.3316 101.023 62.3123 101.063L62.2128 101.014C62.2174 101.005 62.6583 100.084 62.4168 99.5009C62.3358 99.305 62.1837 99.1677 61.9649 99.0928C61.7566 99.0216 61.5925 99.0358 61.4774 99.1349C61.1085 99.4523 61.2894 100.511 61.2913 100.522L61.3349 100.77L61.1914 100.563C61.183 100.551 60.3459 99.3535 59.7675 99.3452C59.644 99.3457 59.5453 99.3969 59.4631 99.5087C59.3475 99.6659 59.3049 99.8377 59.3369 100.019C59.4289 100.541 60.0952 100.988 60.1018 100.992L60.0409 101.085Z" fill="#42428E"/>
</g>
<g id="Group_23">
<path id="Vector_13" d="M73.8564 90.9296C73.8384 90.7187 73.7616 90.5685 73.6278 90.4829C73.3346 90.2951 72.8572 90.4673 72.8524 90.4692L72.6869 90.53L72.8051 90.3988C72.8085 90.3949 73.1472 90.0153 73.0776 89.74C73.0512 89.6355 72.9655 89.5571 72.8228 89.5068C72.2229 89.2956 71.7306 90.5243 71.7066 90.5854C71.706 90.5868 71.7056 90.5877 71.7056 90.5882L71.6246 90.5562C71.6247 90.5556 71.6251 90.555 71.6254 90.5541C71.6336 90.5321 71.7232 90.2835 71.6136 90.1125C71.5465 90.0077 71.4152 89.9498 71.2235 89.9408C71.0439 89.9318 70.9201 89.9745 70.855 90.0662C70.7292 90.2434 70.8496 90.5527 70.8509 90.5558L70.7701 90.5882C70.7644 90.5736 70.6313 90.2311 70.7841 90.0155C70.8677 89.898 71.0173 89.8434 71.2277 89.8535C71.4493 89.864 71.6039 89.9355 71.6872 90.0656C71.7286 90.1305 71.7473 90.2023 71.7531 90.2714C71.9499 89.8811 72.3552 89.2495 72.8518 89.4245C73.0236 89.485 73.1279 89.584 73.1619 89.7187C73.2182 89.9414 73.0626 90.203 72.9573 90.3476C73.1332 90.3052 73.4451 90.2626 73.6743 90.409C73.8323 90.51 73.9227 90.6826 73.9431 90.9221L73.8564 90.9296Z" fill="#42428E"/>
</g>
<g id="Group_24">
<path id="Vector_14" d="M103.163 101.302C103.116 101.254 102.021 100.121 102.419 99.4475C102.482 99.3412 102.556 99.2912 102.643 99.302C102.934 99.3354 103.253 100.096 103.418 100.549C103.363 99.983 103.301 98.8641 103.609 98.4858C103.676 98.4034 103.758 98.3588 103.853 98.3531C103.945 98.3479 104.02 98.3807 104.077 98.4514C104.355 98.7972 104.104 100.019 103.966 100.591C104.069 100.423 104.215 100.236 104.364 100.215C104.436 100.205 104.491 100.231 104.523 100.289C104.613 100.455 104.489 100.879 104.125 101.3L104.07 101.253C104.428 100.838 104.526 100.447 104.459 100.324C104.442 100.293 104.416 100.281 104.375 100.287C104.182 100.315 103.958 100.733 103.888 100.892L103.82 100.868C103.825 100.848 104.357 98.9147 104.021 98.4973C103.979 98.4451 103.925 98.4221 103.857 98.4258C103.783 98.4305 103.72 98.4651 103.665 98.532C103.275 99.0111 103.525 100.854 103.528 100.872L103.457 100.888C103.327 100.479 102.927 99.408 102.635 99.3745C102.579 99.3686 102.529 99.4041 102.481 99.4848C102.112 100.11 103.204 101.24 103.215 101.251L103.163 101.302Z" fill="#42428E"/>
</g>
<g id="Group_25">
<g id="Group_26">
<path id="Vector_15" d="M116.215 105.379C116.215 105.379 113.977 103.087 114.747 101.782C115.517 100.477 116.817 104.586 116.817 104.586C116.817 104.586 116.143 99.7271 117.538 99.6427C118.934 99.5582 117.538 104.586 117.538 104.586C117.538 104.586 118.056 103.413 118.561 103.341C119.066 103.268 118.922 104.335 118.02 105.379H116.215Z" fill="#BEDCCC"/>
</g>
<g id="Group_27">
<path id="Vector_16" d="M116.375 105.436C116.369 105.43 115.729 104.771 115.205 103.938C114.49 102.802 114.319 101.9 114.698 101.257C114.84 101.017 115.01 100.907 115.204 100.929C115.86 101.004 116.58 102.724 116.951 103.744C116.912 103.336 116.871 102.798 116.856 102.233C116.813 100.627 116.99 99.5701 117.381 99.0897C117.533 98.9042 117.717 98.8034 117.93 98.7906C118.137 98.7771 118.308 98.8526 118.436 99.0124C119.063 99.7917 118.496 102.545 118.185 103.833C118.417 103.455 118.747 103.034 119.083 102.986C119.242 102.963 119.369 103.023 119.44 103.154C119.644 103.528 119.363 104.483 118.543 105.433L118.419 105.325C119.226 104.391 119.447 103.51 119.297 103.233C119.258 103.162 119.198 103.136 119.106 103.149C118.673 103.211 118.168 104.154 118.01 104.512L117.856 104.457C117.859 104.446 118.165 103.338 118.37 102.126C118.639 100.54 118.617 99.4994 118.309 99.1157C118.214 98.998 118.093 98.9462 117.94 98.9547C117.772 98.9649 117.631 99.0431 117.508 99.194C116.628 100.274 117.191 104.426 117.197 104.468L117.038 104.504C116.746 103.581 115.844 101.168 115.185 101.092C115.06 101.077 114.947 101.159 114.839 101.341C114.008 102.75 116.467 105.295 116.492 105.321L116.375 105.436Z" fill="#42428E"/>
</g>
</g>
<g id="Group_28">
<g id="Group_29">
<path id="Vector_17" d="M168.408 93.6239C168.408 93.6239 165.532 90.6613 166.522 88.974C167.511 87.2866 169.18 92.5986 169.18 92.5986C169.18 92.5986 168.315 86.3175 170.108 86.2084C171.901 86.0994 170.108 92.5986 170.108 92.5986C170.108 92.5986 170.773 91.0832 171.422 90.9894C172.071 90.8957 171.886 92.2745 170.726 93.6239H168.408Z" fill="#BEDCCC"/>
</g>
<g id="Group_30">
<path id="Vector_18" d="M168.613 93.698C168.605 93.6895 167.782 92.8374 167.109 91.761C166.19 90.2925 165.971 89.1268 166.458 88.2962C166.64 87.9862 166.858 87.8434 167.107 87.8719C167.604 87.9286 168.186 88.7199 168.839 90.2239C169.038 90.681 169.214 91.138 169.352 91.5164C169.193 89.8698 169.01 86.5921 169.908 85.4906C170.102 85.2528 170.338 85.1238 170.611 85.1072C170.877 85.091 171.094 85.1867 171.259 85.3912C172.068 86.3945 171.339 89.9573 170.939 91.6247C171.237 91.1366 171.66 90.5933 172.092 90.5309C172.296 90.5016 172.459 90.5779 172.551 90.7463C172.814 91.2292 172.455 92.4634 171.398 93.6932L171.238 93.5548C172.277 92.3454 172.56 91.2058 172.365 90.848C172.316 90.7579 172.239 90.7241 172.122 90.7408C171.566 90.821 170.917 92.0406 170.713 92.5038L170.515 92.4328C170.519 92.4185 170.913 90.9848 171.176 89.416C171.521 87.3643 171.493 86.0188 171.095 85.5247C170.974 85.3742 170.819 85.3073 170.623 85.3189C170.409 85.332 170.229 85.4321 170.071 85.6251C168.937 87.0161 169.662 92.3924 169.669 92.4467L169.464 92.4932C169.089 91.2992 167.93 88.1794 167.083 88.0827C166.923 88.0647 166.778 88.1692 166.64 88.404C165.572 90.2261 168.732 93.5173 168.764 93.5502L168.613 93.698Z" fill="#42428E"/>
</g>
</g>
<g id="Group_31">
<g id="Group_32">
<path id="Vector_19" d="M5.6155 94.8375C5.6155 94.8375 2.73631 91.889 3.72698 90.2099C4.71766 88.5305 6.38944 93.8172 6.38944 93.8172C6.38944 93.8172 5.52259 87.566 7.31828 87.4574C9.11388 87.3489 7.31828 93.8172 7.31828 93.8172C7.31828 93.8172 7.98393 92.3089 8.63405 92.2156C9.28408 92.1223 9.09834 93.4944 7.9374 94.8375H5.6155Z" fill="#BEDCCC"/>
</g>
<g id="Group_33">
<path id="Vector_20" d="M5.82122 94.9114C5.813 94.903 4.98915 94.055 4.31503 92.9837C3.39515 91.5218 3.17603 90.3613 3.66385 89.5344C3.84588 89.2258 4.06417 89.0838 4.31371 89.1124C4.8104 89.1693 5.39376 89.9571 6.04749 91.4537C6.24671 91.9095 6.42307 92.3651 6.56128 92.7421C6.4026 91.1057 6.21859 87.8461 7.11536 86.7459C7.31014 86.507 7.54768 86.3776 7.82147 86.361C8.08803 86.3455 8.30739 86.4409 8.47265 86.6464C9.27907 87.6491 8.55011 91.1914 8.14961 92.849C8.4484 92.3628 8.87224 91.8211 9.3053 91.7589C9.50994 91.7294 9.67332 91.8063 9.76491 91.9751C10.0263 92.457 9.66559 93.6853 8.60963 94.9069L8.45046 94.768C9.48865 93.5671 9.77346 92.4332 9.57983 92.0764C9.53066 91.9857 9.45297 91.9509 9.33498 91.9683C8.77744 92.0484 8.12749 93.262 7.92408 93.7229L7.72626 93.6516C7.73021 93.6373 8.12379 92.2124 8.38788 90.6525C8.73321 88.6125 8.70583 87.2732 8.30871 86.7794C8.18702 86.628 8.03179 86.5595 7.83405 86.5723C7.61839 86.5853 7.4366 86.686 7.27832 86.8801C6.14591 88.2692 6.87117 93.6117 6.87865 93.6655L6.67393 93.7122C6.29826 92.5242 5.13739 89.42 4.28979 89.3228C4.12839 89.304 3.98294 89.4089 3.84506 89.6424C2.77546 91.4554 5.93953 94.7305 5.9716 94.7633L5.82122 94.9114Z" fill="#42428E"/>
</g>
</g>
<g id="Group_34">
<g id="Group_35">
<path id="Vector_21" d="M77.2527 99.6995C77.2527 99.6995 75.7853 98.1969 76.2903 97.341C76.7952 96.4851 77.6472 99.1795 77.6472 99.1795C77.6472 99.1795 77.2054 95.9936 78.1206 95.9382C79.0357 95.8829 78.1206 99.1795 78.1206 99.1795C78.1206 99.1795 78.4599 98.4108 78.7911 98.3633C79.1225 98.3157 79.0279 99.0151 78.4362 99.6995H77.2527Z" fill="#BEDCCC"/>
</g>
<g id="Group_36">
<path id="Vector_22" d="M77.3583 99.7374C77.354 99.7331 76.9342 99.3009 76.5907 98.755C76.1218 98.0099 76.01 97.4184 76.2587 96.9971C76.3515 96.8398 76.4625 96.7674 76.5899 96.782C76.843 96.8111 77.1403 97.2125 77.4736 97.9752C77.575 98.2076 77.665 98.4397 77.7354 98.6319C77.6546 97.7978 77.5607 96.1365 78.0179 95.5758C78.1172 95.454 78.2382 95.3881 78.3777 95.3796C78.5135 95.3724 78.6254 95.4203 78.7096 95.5251C79.1206 96.0361 78.7491 97.8415 78.545 98.6862C78.6972 98.4385 78.9132 98.1623 79.1339 98.1306C79.2386 98.1158 79.3215 98.1549 79.3683 98.2409C79.5015 98.4865 79.3177 99.1126 78.7795 99.7351L78.6984 99.6643C79.2275 99.0524 79.3727 98.4745 79.274 98.2926C79.2489 98.2463 79.2093 98.2289 79.1491 98.2375C78.8653 98.2782 78.5339 98.8968 78.4301 99.1318L78.3293 99.0955C78.3373 99.0666 79.1224 96.21 78.6261 95.5929C78.564 95.5158 78.4852 95.4806 78.3841 95.4874C78.2743 95.494 78.1816 95.5454 78.101 95.6442C77.5237 96.3523 77.8935 99.0751 77.8972 99.1026L77.7928 99.1263C77.6013 98.5209 77.0098 96.9388 76.5778 96.8892C76.4951 96.8793 76.4214 96.9331 76.3511 97.0522C75.8057 97.9765 77.4185 99.6452 77.435 99.6621L77.3583 99.7374Z" fill="#42428E"/>
</g>
</g>
<g id="Group_37">
<g id="Group_38" opacity="0.6">
<path id="Vector_23" d="M130.07 73.5604C130.07 73.5604 147.408 12.0707 163.842 17.423C180.276 22.7754 143.135 56.041 138.653 74.1016L130.07 73.5604Z" fill="#CFEED1"/>
</g>
<g id="Group_39">
<g id="Group_40" opacity="0.6">
<path id="Vector_24" d="M142.341 70.3355C142.341 70.3355 163.556 33.4692 175.285 39.7506C187.013 46.0321 154.533 61.223 148.763 72.1557L142.341 70.3355Z" fill="#AEE2B2"/>
</g>
<g id="Group_41">
<g id="Group_42">
<path id="Vector_25" d="M145.924 71.3852C149.772 63.7621 156.53 56.8728 161.521 52.4359C166.933 47.6257 171.489 44.5834 171.534 44.5533L171.346 44.2686C171.301 44.2988 166.725 47.3543 161.296 52.1802C156.282 56.6369 149.493 63.5597 145.621 71.2309L145.924 71.3852Z" fill="#B2C9C6"/>
</g>
</g>
</g>
<g id="Group_43">
<g id="Group_44">
<g id="Group_45">
<path id="Vector_26" d="M173.787 76.7708C168.694 78.2351 170.067 86.0336 164.084 84.9652C159.024 84.0587 158.575 83.6251 156.945 85.1799C156.387 85.7129 155.916 86.33 155.528 86.9983C155.062 87.7994 154.141 88.9951 152.646 89.3614C143.515 91.5999 129.985 78.7112 139.128 70.512C139.788 69.92 140.787 69.6429 141.897 69.3922C147.919 68.0368 149.998 70.7168 154.32 63.1982C158.642 55.6778 165.824 65.5761 169.88 64.9431C173.937 64.3101 177.452 62.8436 180.916 66.9763C184.38 71.1126 178.88 75.3101 173.787 76.7708Z" fill="#AEE2B2"/>
</g>
</g>
<g id="Group_46" opacity="0.5">
<g id="Group_47">
<g id="Group_48">
<path id="Vector_27" d="M142.725 80.3017L142.512 80.0248C142.633 79.9304 154.978 70.5576 181.729 68.1611L181.76 68.5099C155.109 70.8975 142.846 80.2079 142.725 80.3017Z" fill="#74A1BD"/>
</g>
</g>
<g id="Group_49">
<g id="Group_50">
<path id="Vector_28" d="M158.714 68.8097C154.972 65.8482 154.184 63.3531 154.152 63.2485L154.486 63.1465C154.493 63.1711 155.283 65.649 158.93 68.5348L158.714 68.8097Z" fill="#74A1BD"/>
</g>
</g>
<g id="Group_51">
<g id="Group_52">
<path id="Vector_29" d="M159.573 72.5372C158.465 70.8452 158.393 68.3061 159.365 65.1947C160.093 62.8647 161.161 61.0048 161.172 60.9863L161.473 61.1618C161.431 61.2343 157.317 68.4544 159.864 72.3452L159.573 72.5372Z" fill="#74A1BD"/>
</g>
</g>
<g id="Group_53">
<g id="Group_54">
<path id="Vector_30" d="M166.584 71.4652C166.14 71.1394 165.898 70.9246 165.887 70.9147L166.119 70.6543C166.17 70.7001 171.278 75.2178 178.338 74.5372L178.371 74.8854C172.683 75.4339 168.237 72.6791 166.584 71.4652Z" fill="#74A1BD"/>
</g>
</g>
<g id="Group_55">
<g id="Group_56">
<path id="Vector_31" d="M170.587 79.3111C168.854 77.6087 168.276 75.8313 168.095 74.6402C167.899 73.3437 168.113 72.459 168.123 72.4219L168.461 72.5068C168.452 72.5407 167.659 75.944 170.831 79.061L170.587 79.3111Z" fill="#74A1BD"/>
</g>
</g>
</g>
</g>
<g id="Group_57">
<path id="Vector_32" d="M141.213 26.7147C141.367 25.1046 141.922 24.6745 142.55 24.7349C143.178 24.7953 143.642 25.3232 143.489 26.9333C143.209 29.8664 141.937 31.1747 141.937 31.1747C141.937 31.1747 140.93 29.6905 141.213 26.7147Z" fill="#B2C9C6"/>
</g>
<g id="Group_58">
<path id="Vector_33" d="M173.346 59.5059C175.033 59.2151 175.627 59.6671 175.741 60.3313C175.854 60.9957 175.444 61.6207 173.757 61.9115C170.683 62.4413 168.992 61.4945 168.992 61.4945C168.992 61.4945 170.227 60.0434 173.346 59.5059Z" fill="#B2C9C6"/>
</g>
<g id="Group_59">
<path id="Vector_34" d="M168.301 56.8539C169.21 55.519 169.903 55.4119 170.424 55.7699C170.945 56.1278 171.097 56.815 170.188 58.1501C168.531 60.5821 166.788 61.1094 166.788 61.1094C166.788 61.1094 166.621 59.3214 168.301 56.8539Z" fill="#B2C9C6"/>
</g>
</g>
<g id="Group_60">
<g id="Group_61">
<path id="Vector_35" d="M39.966 79.1555C39.966 79.1555 25.3205 38.0116 14.3553 42.4227C3.38981 46.8339 30.2505 67.8087 34.136 79.9217L39.966 79.1555Z" fill="#AEE2B2"/>
</g>
<g id="Group_62">
<g id="Group_63">
<path id="Vector_36" d="M33.1452 73.8696C33.1452 73.8696 16.0855 46.1654 7.2593 51.2374C-1.56678 56.3094 23.6154 67.1809 28.2757 75.4086L33.1452 73.8696Z" fill="#91CA97"/>
</g>
<g id="Group_64">
<g id="Group_65">
<path id="Vector_37" d="M30.4288 74.7541C27.3131 69.0132 21.9892 63.9001 18.0717 60.6218C13.8247 57.0676 10.2717 54.8455 10.2363 54.8236L10.3733 54.6016C10.4088 54.6237 13.9773 56.8553 18.2382 60.4211C22.1731 63.7141 27.5218 68.8521 30.657 74.6291L30.4288 74.7541Z" fill="#74A1BD"/>
</g>
</g>
</g>
<g id="Group_66">
<g id="Group_67">
<g id="Group_68">
<path id="Vector_38" d="M33.5736 88.5765C30.3341 88.1392 26.5361 87.7596 22.6398 87.4173C22.2614 86.7396 22.123 86.1662 22.123 86.1662C19.9791 83.3655 20.3593 83.7899 14.78 84.1338C10.7781 84.3784 10.7151 80.8557 9.33781 78.1516C9.31315 78.1021 9.28733 78.0532 9.26143 78.0042C8.72544 77.0002 7.99014 76.1235 6.77781 75.617C5.49164 75.0806 4.1993 74.3375 3.09295 73.4682C3.00094 73.3966 2.91026 73.3235 2.8208 73.249C0.637033 71.4433 -0.711541 69.149 0.39506 67.0646C0.420959 67.0151 0.448502 66.9659 0.477443 66.9173C0.679705 66.5748 0.949881 66.2378 1.29521 65.9107C4.89489 62.5027 7.95208 64.2157 11.5916 65.2249C13.6041 65.7826 16.8271 63.5012 19.8414 62.5877C19.8844 62.5745 19.9279 62.5618 19.9709 62.5491C22.3603 61.8556 24.605 62.0634 25.9921 65.2822C25.9921 65.2827 25.9926 65.2828 25.9926 65.2833C26.0208 65.3487 26.0491 65.4135 26.0769 65.4772C29.1882 72.5722 31.3787 70.4004 36.6901 72.2614C37.678 72.6082 38.562 72.9676 39.103 73.5789C44.1474 79.2771 39.574 85.8265 33.5736 88.5765Z" fill="#686A50"/>
</g>
</g>
<g id="Group_69">
<g id="Group_70">
<g id="Group_71">
<path id="Vector_39" d="M34.786 82.1415L35.0097 81.9112C34.9087 81.8121 24.616 71.9374 0.427342 66.9072L0.362305 67.2225C24.4601 72.2339 34.6853 82.0431 34.786 82.1415Z" fill="#C4C695"/>
</g>
</g>
<g id="Group_72">
<g id="Group_73">
<path id="Vector_40" d="M21.3861 69.944C25.1174 67.6356 26.0997 65.4395 26.1396 65.3473L25.8459 65.2188C25.8365 65.2405 24.854 67.4205 21.2178 69.6699L21.3861 69.944Z" fill="#C4C695"/>
</g>
</g>
<g id="Group_74">
<g id="Group_75">
<path id="Vector_41" d="M20.21 73.2577C21.4002 71.8294 21.7328 69.5171 21.1722 66.5711C20.7523 64.3651 19.9725 62.5522 19.9645 62.5342L19.6709 62.6626C19.7015 62.7333 22.7007 69.7668 19.9641 73.0513L20.21 73.2577Z" fill="#C4C695"/>
</g>
</g>
<g id="Group_76">
<g id="Group_77">
<path id="Vector_42" d="M13.9167 71.5335C14.3563 71.2829 14.6003 71.1124 14.6114 71.1045L14.4264 70.8418C14.3752 70.8782 9.23218 74.4636 2.85404 73.092L2.78711 73.4065C7.92644 74.5117 12.2787 72.4669 13.9167 71.5335Z" fill="#C4C695"/>
</g>
</g>
<g id="Group_78">
<g id="Group_79">
<path id="Vector_43" d="M9.43373 78.2769C11.1958 76.9054 11.9117 75.343 12.2019 74.2739C12.5178 73.1102 12.4149 72.2791 12.4103 72.2441L12.0925 72.2858C12.0967 72.3178 12.4635 75.5115 9.2373 78.0225L9.43373 78.2769Z" fill="#C4C695"/>
</g>
</g>
</g>
</g>
<g id="Group_80">
<path id="Vector_44" d="M3.64461 60.3037C2.6814 59.7609 2.56654 59.2921 2.77834 58.9128C2.99013 58.5336 3.44827 58.3877 4.41147 58.9304C6.16605 59.9191 6.63068 61.0836 6.63068 61.0836C6.63068 61.0836 5.42484 61.3068 3.64461 60.3037Z" fill="#B2C9C6"/>
</g>
</g>
<g id="Group_81">
<g id="Group_82">
<path id="Vector_45" d="M41.875 26.6963C41.875 26.6963 44.4695 26.5761 44.8826 22.5776C45.3073 18.4677 40.6143 22.5776 40.6143 22.5776L41.875 26.6963Z" fill="#F7B686"/>
</g>
<g id="Group_83">
<path id="Vector_46" d="M39.2285 13.5869C39.3865 13.6494 42.0126 14.3643 43.1755 18.3425C44.3383 22.3208 40.4346 19.1843 40.4346 19.1843L39.2285 13.5869Z" fill="#F7B686"/>
</g>
<g id="Group_84">
<path id="Vector_47" d="M35.7691 68.3975C35.7691 68.3975 35.8049 69.8274 36.7679 70.2306C37.7311 70.6341 40.5219 70.998 39.4791 71.9172C38.8808 72.4447 36.0607 72.104 35.2646 72.1039C34.4683 72.1039 33.7208 72.4524 33.1291 71.9171C32.4782 71.3282 33.1292 68.3975 33.1292 68.3975C33.1292 68.3975 33.8163 68.7571 34.4342 68.7409C35.3247 68.7177 35.7691 68.3975 35.7691 68.3975Z" fill="#17181D"/>
</g>
<g id="Group_85">
<path id="Vector_48" d="M24.7085 68.3976C24.7085 68.3976 24.7442 69.8275 25.7073 70.2307C26.6706 70.6341 29.4614 70.9981 28.4185 71.9172C27.8202 72.4448 25.0001 72.104 24.204 72.1039C23.4077 72.1039 22.6602 72.4525 22.0685 71.9172C21.4177 71.3283 22.0686 68.3975 22.0686 68.3975C22.0686 68.3975 22.7557 68.7571 23.3736 68.7409C24.2639 68.7177 24.7085 68.3976 24.7085 68.3976Z" fill="#17181D"/>
</g>
<g id="Group_86">
<path id="Vector_49" d="M42.9288 29.2012C42.9288 29.2012 43.1069 35.1862 41.2051 46.6675C39.8321 54.9561 38.2114 63.3085 37.4161 67.3128C37.1317 68.7451 35.9323 69.7924 34.511 69.8497L33.7472 69.8805C32.2104 69.9425 30.9631 68.6163 31.0754 67.0399L33.0048 39.9494L33.4804 31.033L42.9288 29.2012Z" fill="#1B3A5F"/>
</g>
<g id="Group_87">
<path id="Vector_50" d="M25.5317 34.4686C25.6193 35.1971 29.72 35.1086 34.7408 34.4703C39.7615 33.832 43.6695 32.7394 43.5817 32.0111C43.4941 31.2826 39.4439 31.1941 34.4231 31.8324C29.4025 32.4706 25.4441 33.7401 25.5317 34.4686Z" fill="#17181D"/>
</g>
<g id="Group_88">
<path id="Vector_51" d="M37.1643 33.4761L26.4454 68.0625C25.9967 69.5102 24.6992 70.5022 23.2209 70.5276L22.5767 70.5387C21.0555 70.5649 19.8926 69.152 20.17 67.6147L26.0335 35.1161C26.1186 34.7299 26.4025 34.4227 26.7734 34.3153C28.784 33.7328 37.3616 32.0457 37.1643 33.4761Z" fill="#1B3A5F"/>
</g>
<g id="Group_89">
<path id="Vector_52" d="M27.2086 14.5554C27.2086 14.5554 28.6348 10.5249 33.7153 10.7082C38.7958 10.8916 42.632 17.5976 43.5824 32.0106C43.5824 32.0106 35.263 30.1781 25.5175 34.4529C25.5175 34.4529 24.9772 20.43 27.2086 14.5554Z" fill="#CFD3A3"/>
</g>
<g id="Group_90">
<path id="Vector_53" d="M23.6406 14.313L27.2399 16.6271C27.2399 16.6271 36.4916 17.5568 38.9476 17.1092C41.4036 16.6617 41.7858 14.8478 41.7858 14.8478C41.7858 14.8478 39.4493 11.6288 35.0034 10.8293C34.5856 10.7536 34.1648 10.7412 33.7156 10.7088C32.9614 10.655 32.2073 10.6782 31.4681 10.7582C27.0755 11.2344 23.6406 14.313 23.6406 14.313Z" fill="#CFD3A3"/>
</g>
<g id="Group_91">
<path id="Vector_54" d="M32.3734 48.9344L32.2021 48.8778L34.5073 41.8388C35.0396 40.2133 36.1348 38.8567 37.591 38.0186L37.6807 38.1756C36.2632 38.9915 35.1969 40.3124 34.6786 41.8954L32.3734 48.9344Z" fill="#020202"/>
</g>
<g id="Group_92">
<g id="Group_93">
<path id="Vector_55" d="M37.1994 9.81054L37.1858 9.75273C37.1923 9.75116 37.8397 9.59234 38.0228 9.14893C38.1179 8.91885 38.0726 8.64969 37.8883 8.34883C37.8016 8.20736 37.7217 8.07935 37.6485 7.96224C37.1443 7.15462 36.9555 6.85243 37.0937 6.19141L37.1515 6.20355C37.0183 6.8412 37.1898 7.11572 37.6985 7.93077C37.7718 8.04805 37.8518 8.17622 37.9385 8.31786C38.1334 8.6359 38.1801 8.92331 38.0772 9.17198C37.8824 9.64338 37.2273 9.80401 37.1994 9.81054Z" fill="#D28B58"/>
</g>
<g id="Group_94">
<path id="Vector_56" d="M37.1221 6.19727C37.1221 6.19727 36.8971 7.22077 37.5721 8.292C38.2472 9.36324 37.5124 10.1461 36.5979 9.73406C35.6834 9.32203 35.3348 10.4931 34.1657 9.8458C32.9966 9.19848 37.1221 6.19727 37.1221 6.19727Z" fill="#D28B58"/>
</g>
<g id="Group_95">
<path id="Vector_57" d="M31.7192 10.7235C32.2243 10.6692 32.6631 10.3507 32.8641 9.88203L33.4937 8.4133L33.6764 7.98699L34.7507 5.48047L34.5645 8.078L34.4525 9.63708L34.4205 10.0816C34.3945 10.4442 34.6468 10.7651 35.0031 10.8294L35.0094 10.8305C35.2005 11.1428 35.4645 11.7777 34.6755 12.0297C33.7485 12.3261 32.2491 11.5931 31.7109 10.7243C31.7138 10.7241 31.7164 10.7238 31.7192 10.7235Z" fill="#F7B686"/>
</g>
<g id="Group_96">
<path id="Vector_58" d="M33.4908 8.36963C33.4912 8.38392 33.4922 8.39829 33.4935 8.41266C33.5551 9.25001 34.4469 9.64114 34.4469 9.64114L34.4522 9.63651L34.5642 8.07744C34.2916 7.97717 33.9033 7.87402 33.6761 7.98634C33.5574 8.04506 33.4827 8.16258 33.4908 8.36963Z" fill="#17181D"/>
</g>
<g id="Group_97">
<path id="Vector_59" d="M37.2979 5.89565C37.2979 4.23275 36.2101 2.88477 34.8682 2.88477C33.5263 2.88477 32.4385 4.23284 32.4385 5.89565C32.4385 7.55854 33.5262 8.90652 34.8682 8.90652C36.2101 8.90652 37.2979 7.55854 37.2979 5.89565Z" fill="#F7B686"/>
</g>
<g id="Group_98">
<path id="Vector_60" d="M32.7631 6.34997C33.0383 6.61392 33.423 6.64092 33.6225 6.41042C33.8221 6.17984 33.7607 5.77896 33.4855 5.51493C33.2103 5.25098 32.8254 5.22398 32.6259 5.45456C32.4265 5.68506 32.4879 6.08602 32.7631 6.34997Z" fill="#F7B686"/>
</g>
<g id="Group_99">
<path id="Vector_61" d="M36.1769 7.84393C36.1769 7.84393 35.3469 7.86317 34.5168 7.57031C34.5168 7.57031 34.4479 8.39197 35.3469 8.44706C35.8696 8.4791 36.1769 7.84393 36.1769 7.84393Z" fill="#DB6B49"/>
</g>
<g id="Group_100">
<path id="Vector_62" d="M36.1766 7.84393C36.1766 7.84393 35.9758 8.01133 35.5072 8.00926C35.0386 8.0072 34.5166 7.57031 34.5166 7.57031C34.5166 7.57031 35.5167 7.84632 36.1766 7.84393Z" fill="white"/>
</g>
<g id="Group_101">
<g id="Group_102">
<path id="Vector_63" d="M35.1032 5.92412C35.1194 5.91974 35.1333 5.90802 35.14 5.89117C35.1514 5.86276 35.1377 5.83047 35.1094 5.81907C35.0927 5.8123 34.7207 5.6202 34.3939 5.97921C34.3734 6.00184 34.3738 6.03661 34.3959 6.05775C34.4179 6.07881 34.4487 6.07295 34.474 6.05577C34.7279 5.8844 35.0543 5.91661 35.0682 5.92206C35.0798 5.92677 35.0921 5.92718 35.1032 5.92412Z" fill="#060633"/>
</g>
</g>
<g id="Group_103">
<path id="Vector_64" d="M34.6662 6.53507C34.6619 6.66745 34.7361 6.7773 34.8318 6.78035C34.9274 6.78341 35.0084 6.67852 35.0126 6.54613C35.0168 6.41366 34.9425 6.30391 34.8469 6.30085C34.7512 6.29771 34.6703 6.4026 34.6662 6.53507Z" fill="#060633"/>
</g>
<g id="Group_104">
<g id="Group_105">
<path id="Vector_65" d="M37.0757 6.21367C37.0923 6.21581 37.1097 6.21028 37.1222 6.19731C37.1435 6.17535 37.1431 6.14033 37.1213 6.11894C37.1084 6.10639 36.8374 5.78636 36.399 5.99332C36.3713 6.00637 36.3585 6.03866 36.371 6.06666C36.3834 6.09466 36.414 6.10085 36.4441 6.09474C36.7436 6.03338 37.0334 6.18806 37.0441 6.19847C37.053 6.20722 37.0641 6.21226 37.0757 6.21367Z" fill="#060633"/>
</g>
</g>
<g id="Group_106">
<path id="Vector_66" d="M36.44 6.611C36.3859 6.73182 36.4129 6.86173 36.5001 6.90113C36.5875 6.94052 36.702 6.87453 36.7561 6.75371C36.8101 6.63288 36.7832 6.50297 36.6959 6.46358C36.6087 6.4241 36.4941 6.49017 36.44 6.611Z" fill="#060633"/>
</g>
<g id="Group_107">
<path id="Vector_67" d="M35.8997 3.43035C35.8997 3.43035 35.8474 4.475 34.5486 4.65314C33.2497 4.83128 32.354 5.38321 32.5284 6.32305C32.7029 7.26289 34.7964 9.21269 33.2578 9.96787C31.7191 10.7231 32.0465 9.31485 30.3783 9.6414C28.7102 9.96787 28.4094 7.73042 29.5579 6.4319C30.7065 5.13338 30.2413 1.69726 34.5485 1.84964C38.8558 2.00201 37.2776 5.45382 37.2776 5.45382C37.2776 5.45382 35.8973 4.58401 35.8997 3.43035Z" fill="#D28B58"/>
</g>
<g id="Group_108">
<path id="Vector_68" d="M32.8144 10.1608L32.8014 10.1281C33.1191 9.9993 33.306 9.81662 33.3728 9.56976C33.5575 8.88594 32.7502 7.83494 32.038 6.90765C31.8492 6.66171 31.6707 6.42931 31.5124 6.20731C31.0717 5.58931 31.0328 4.85189 31.4109 4.28295C31.8308 3.65099 32.6289 3.38349 33.4941 3.585C34.3298 3.77958 34.9038 3.60499 35.2382 3.42413C35.6005 3.22815 35.7675 2.98295 35.7692 2.98047L35.7983 3.00012C35.7916 3.01012 35.1092 3.99745 33.4862 3.61928C32.6356 3.42132 31.8517 3.68304 31.44 4.30244C31.0646 4.86734 31.1024 5.57172 31.5409 6.18675C31.6988 6.40817 31.877 6.64032 32.0658 6.88601C32.783 7.81983 33.5959 8.87818 33.4067 9.57885C33.3379 9.83363 33.1386 10.0294 32.8144 10.1608Z" fill="white"/>
</g>
<g id="Group_109">
<g id="Group_110">
<path id="Vector_69" d="M36.9065 8.18723C36.7776 8.18723 36.6518 8.15106 36.5346 8.07731C36.0119 7.75084 35.815 6.76516 36.0955 5.88156C36.2674 5.34004 36.5884 4.93512 36.9533 4.80017C37.1713 4.72006 37.3902 4.73897 37.5846 4.86293C38.1073 5.18783 38.3043 6.17194 38.0238 7.05719C37.8519 7.60029 37.5308 8.00521 37.1659 8.14016C37.0792 8.17154 36.9925 8.18723 36.9065 8.18723ZM36.1986 5.91608C35.9323 6.75418 36.1088 7.68337 36.5924 7.9863C36.7556 8.08829 36.9417 8.10398 37.1284 8.03816C37.4627 7.9142 37.7589 7.5343 37.9207 7.02424C38.1871 6.18449 38.0113 5.25531 37.5277 4.95403C37.3636 4.85203 37.1793 4.83469 36.9909 4.90225C36.6564 5.02613 36.3603 5.40446 36.1986 5.91608Z" fill="#1B3A5F"/>
</g>
</g>
<g id="Group_111" opacity="0.3">
<path id="Vector_70" d="M33.2846 5.3067C33.0898 6.16643 33.4014 7.08943 33.9806 7.36841C34.5599 7.6473 35.1874 7.17656 35.3824 6.31683C35.5773 5.45709 35.2659 4.5341 34.6866 4.25512C34.1072 3.97622 33.4796 4.44697 33.2846 5.3067Z" fill="white"/>
</g>
<g id="Group_112" opacity="0.3">
<path id="Vector_71" d="M36.0728 5.95401C35.8774 6.81762 36.1376 7.75416 36.654 8.04578C37.1704 8.33739 37.7475 7.87366 37.9431 7.00997C38.1385 6.14635 37.8783 5.20982 37.3619 4.9182C36.8453 4.62667 36.2682 5.09039 36.0728 5.95401Z" fill="white"/>
</g>
<g id="Group_113">
<g id="Group_114">
<path id="Vector_72" d="M34.3904 7.47623C34.2598 7.47623 34.1294 7.44642 34.0029 7.38522C33.3638 7.08543 33.0177 6.09348 33.2309 5.1737C33.3536 4.64002 33.638 4.22882 34.0105 4.04672C34.2707 3.92119 34.5426 3.91962 34.7997 4.04044C35.438 4.34172 35.7843 5.33376 35.5716 6.25188C35.4482 6.78704 35.163 7.19833 34.7896 7.38043C34.6582 7.4432 34.524 7.47623 34.3904 7.47623ZM34.4131 4.05927C34.2934 4.05927 34.174 4.08752 34.0583 4.14409C33.7199 4.31042 33.4496 4.70436 33.3355 5.19881C33.1341 6.06994 33.4536 7.00689 34.0481 7.28785C34.2739 7.39141 34.5145 7.38984 34.7419 7.28314C35.0809 7.1183 35.3521 6.72279 35.4669 6.22685C35.6677 5.35581 35.3482 4.41877 34.7544 4.13781C34.6427 4.08595 34.5278 4.05927 34.4131 4.05927Z" fill="#1B3A5F"/>
</g>
</g>
<g id="Group_115">
<g id="Group_116">
<path id="Vector_73" d="M36.1873 6.27548C36.1647 6.27548 36.142 6.26763 36.1233 6.25194C36.1124 6.24253 35.8506 6.03697 35.399 6.12327C35.3459 6.13112 35.2912 6.09816 35.2803 6.04316C35.2693 5.98824 35.3053 5.93489 35.36 5.92548C35.9054 5.81093 36.2374 6.08396 36.2522 6.09502C36.2945 6.13112 36.3006 6.19545 36.2647 6.23782C36.2451 6.26292 36.2163 6.27548 36.1873 6.27548Z" fill="#1B3A5F"/>
</g>
</g>
</g>
<g id="Group_117">
<path id="Vector_74" d="M23.5892 14.3929C23.4644 14.757 24.4057 15.4382 25.6917 15.9148C26.9778 16.3913 28.1215 16.4825 28.2463 16.1186C28.3712 15.7545 27.4297 15.0733 26.1438 14.5967C24.8579 14.1201 23.714 14.0289 23.5892 14.3929Z" fill="#17181D"/>
</g>
<g id="Group_118">
<g id="Group_119">
<path id="Vector_75" d="M32.4173 26.9848L32.4603 24.3429C32.4662 23.982 32.1897 23.6793 31.8312 23.6534C30.0079 23.5225 28.7317 22.9544 28.0324 21.9612C27.0614 20.582 27.1639 18.4399 27.4344 16.9543C27.5729 16.1941 27.3231 15.6857 26.4088 15.1983C26.4088 15.1983 25.6223 14.7637 24.6525 14.5978C24.2639 14.5314 23.8784 14.6882 23.778 15.071C23.6212 15.6702 23.4181 16.6023 23.3212 17.6992C23.0911 20.3044 23.5913 22.5703 24.7679 24.2525C26.2119 26.317 28.5396 27.4593 31.6934 27.6534C32.0807 27.6772 32.411 27.3744 32.4173 26.9848Z" fill="#F7B686"/>
</g>
</g>
<g id="Group_120" opacity="0.5">
<path id="Vector_76" d="M25.7121 23.5642C25.642 23.5642 25.5682 23.5527 25.492 23.5294C25.2892 23.4676 25.093 23.328 24.9394 23.1363C24.6145 22.7311 24.5833 22.2127 24.8701 21.9808C25.1568 21.7489 25.6543 21.8899 25.9792 22.2952C26.3041 22.7003 26.3351 23.2188 26.0484 23.4506C25.9555 23.526 25.8401 23.5642 25.7121 23.5642ZM25.2054 22.0458C25.1198 22.0458 25.0421 22.0693 24.9806 22.1188C24.7734 22.2867 24.8173 22.7018 25.0767 23.0253C25.2084 23.1894 25.374 23.3084 25.5434 23.3601C25.7006 23.4081 25.8407 23.3914 25.9378 23.3128C26.1452 23.1452 26.1012 22.7301 25.8419 22.4064C25.6591 22.1785 25.4097 22.0458 25.2054 22.0458Z" fill="#E08B65"/>
</g>
<g id="Group_121">
<path id="Vector_77" d="M29.5693 33.6788C29.5693 33.6788 39.5896 31.7561 42.8385 32.663L41.2806 34.9822L35.4889 35.3113L29.5693 33.6788Z" fill="#1B3A5F"/>
</g>
<g id="Group_122">
<g id="Group_123">
<path id="Vector_78" d="M33.6153 23.9078L42.2527 23.9111C42.4335 23.9111 42.5941 23.7957 42.6513 23.6245L44.4483 18.2409C44.5389 17.9698 44.3366 17.6898 44.0501 17.6897L35.7438 17.6865C35.3652 17.6864 35.0292 17.928 34.9096 18.2864L33.2172 23.3567C33.1266 23.6278 33.3288 23.9077 33.6153 23.9078Z" fill="#17181D"/>
</g>
<g id="Group_124">
<path id="Vector_79" d="M34.1573 23.9079L42.7947 23.9111C42.9756 23.9112 43.1362 23.7958 43.1933 23.6246L44.9903 18.2409C45.0808 17.9698 44.8785 17.6898 44.592 17.6897L36.2858 17.6865C35.9073 17.6864 35.5712 17.9281 35.4515 18.2864L33.7592 23.3567C33.6685 23.6278 33.8708 23.9077 34.1573 23.9079Z" fill="#17181D"/>
</g>
<g id="Group_125">
<path id="Vector_80" d="M40.2108 20.6228C40.2108 20.4184 39.9761 20.335 39.7711 20.335C39.5661 20.3348 39.2315 20.5591 39.2334 20.8455C39.2356 21.1546 39.4762 21.1949 39.6811 21.195C39.8861 21.195 40.2106 20.8831 40.2108 20.6228Z" fill="#DEEBE9"/>
</g>
<g id="Group_126">
<path id="Vector_81" d="M34.7729 20.408L34.7188 20.3935C34.7362 20.3276 35.1492 18.7746 35.4272 18.2724C35.7092 17.7632 36.054 17.6631 36.0686 17.6592L36.0836 17.7134C36.0801 17.7143 35.7459 17.8129 35.4762 18.2998C35.2015 18.7957 34.7772 20.3918 34.7729 20.408Z" fill="#436E8E"/>
</g>
<g id="Group_127">
<path id="Vector_82" d="M33.9009 23.0223L33.8477 23.0044L34.5216 20.9854L34.5747 21.0032L33.9009 23.0223Z" fill="#436E8E"/>
</g>
</g>
<g id="Group_128">
<g id="Group_129">
<path id="Vector_83" d="M44.9348 21.9846C44.9348 21.9846 45.0779 23.1147 44.1259 23.222C42.913 23.3586 41.2504 22.2678 42.0176 22.1698C42.6977 22.0828 43.6973 22.2103 43.6973 22.2103C43.6973 22.2103 41.1593 21.8479 41.3954 21.3056C41.6316 20.7633 43.8108 21.1071 43.8108 21.1071C43.8108 21.1071 41.3646 20.5029 41.7431 20.0731C42.1216 19.6432 44.1018 19.9419 44.1018 19.9419C44.1018 19.9419 41.6851 19.49 42.1357 19.0021C42.5864 18.5143 43.7989 19.0207 44.3548 19.1097C44.8802 19.1937 45.009 19.5857 44.9108 20.126C44.9108 20.126 45.1039 20.7334 44.9568 21.0664C44.9005 21.1942 45.0038 21.3465 45.0035 21.4472C45.0031 21.6398 44.9348 21.9846 44.9348 21.9846Z" fill="#F7B686"/>
</g>
</g>
<g id="Group_130">
<g id="Group_131">
<g id="Group_132">
<path id="Vector_84" d="M31.1611 23.4858C31.1611 23.4858 31.8014 21.5393 32.8979 21.0627C33.9943 20.586 35.7535 20.8098 35.1364 21.2503C34.5192 21.6906 33.5759 22.0345 33.5759 22.0345C33.5759 22.0345 35.6258 21.3951 35.567 21.9413C35.5083 22.4876 33.7201 23.0267 33.7201 23.0267C33.7201 23.0267 36.2197 22.4608 35.998 22.9589C35.7761 23.4569 33.8743 23.8732 33.8743 23.8732C33.8743 23.8732 36.2208 23.4402 35.9496 24.0126C35.6785 24.5851 34.0082 24.3579 33.9495 24.9041C33.8908 25.4504 33.4737 27.6005 31.9419 27.622L31.1611 23.4858Z" fill="#F7B686"/>
</g>
</g>
<g id="Group_133">
<path id="Vector_85" d="M32.8453 22.4874L32.7656 22.4494C32.9343 22.093 33.5435 21.9952 33.5693 21.9912L33.5827 22.0788C33.577 22.0798 32.9939 22.1735 32.8453 22.4874Z" fill="#DD8964"/>
</g>
<g id="Group_134">
<path id="Vector_86" d="M32.8353 23.5702L32.7646 23.5172C33.0974 23.0702 33.6892 22.9857 33.7143 22.9824L33.726 23.07C33.7202 23.0709 33.1454 23.1536 32.8353 23.5702Z" fill="#DD8964"/>
</g>
<g id="Group_135">
<path id="Vector_87" d="M33.0514 24.3745L32.9688 24.3434C33.1166 23.9481 33.8371 23.8339 33.8677 23.8291L33.8809 23.9167C33.874 23.9178 33.181 24.0278 33.0514 24.3745Z" fill="#DD8964"/>
</g>
</g>
<g id="Group_136">
<path id="Vector_88" d="M43.9871 23.2845C43.6212 23.2845 43.2117 23.1832 43.1855 23.1767L43.207 23.0908C43.4675 23.1561 44.1922 23.285 44.4144 23.0997L44.4707 23.1678C44.3657 23.2555 44.1826 23.2845 43.9871 23.2845Z" fill="#DD8964"/>
</g>
</g>
<g id="Group_137">
<g id="Group_138">
<g id="Group_139">
<path id="Vector_89" d="M147.635 66.5537L121.793 66.6132L92.3734 67.3493L92.297 69.5745L120.754 68.3324C123.613 68.4314 125.844 71.0627 125.736 74.2095C125.628 77.3564 123.222 79.827 120.362 79.7278L91.9823 78.7447L91.9258 80.3883L147.242 82.8382C150.954 82.9667 154.077 79.226 154.218 75.1413C154.358 71.0566 151.348 66.6823 147.635 66.5537Z" fill="#686A50"/>
</g>
<g id="Group_140">
<path id="Vector_90" d="M128.26 74.2423C128.401 70.1575 125.505 66.742 121.793 66.6133L92.3734 67.3495L92.297 69.5746L120.754 68.3325C123.613 68.4315 125.844 71.0628 125.736 74.2096C125.628 77.3565 123.222 79.8271 120.362 79.7279L91.9823 78.7448L91.9258 81.4092L121.285 81.4055C124.997 81.5341 128.12 78.327 128.26 74.2423Z" fill="#686A50"/>
</g>
<g id="Group_141">
<path id="Vector_91" d="M120.754 68.3389L92.2975 69.575C94.8645 69.9904 95.637 72.6111 95.9917 74.0094C96.7109 76.8448 94.5731 78.4754 91.9838 78.7123L91.9824 78.7513L120.363 79.7343C123.222 79.8333 125.628 77.3627 125.736 74.216C125.844 71.0691 123.614 68.438 120.754 68.3389Z" fill="#E6EDFF"/>
</g>
<g id="Group_142">
<path id="Vector_92" d="M103.116 75.3143L103.112 75.4697L120.137 75.8659L120.14 75.7104L103.116 75.3143Z" fill="#17181D"/>
</g>
<g id="Group_143">
<g id="Group_144">
<path id="Vector_93" d="M126.458 78.8273C126.376 78.8272 126.296 78.7924 126.247 78.7285C126.169 78.6269 126.201 78.4896 126.317 78.4216C126.336 78.4108 128.172 77.3036 128.471 74.2039C128.767 71.1242 126.29 69.9399 126.265 69.9284C126.141 69.871 126.094 69.7371 126.16 69.629C126.226 69.5207 126.379 69.4808 126.503 69.5374C126.618 69.5904 129.301 70.8734 128.977 74.2409C128.657 77.5704 126.682 78.7424 126.598 78.7908C126.555 78.8154 126.506 78.8273 126.458 78.8273Z" fill="#47472D"/>
</g>
</g>
<g id="Group_145">
<path id="Vector_94" d="M113.595 73.6506L100.907 73.8506L100.91 74.0062L113.598 73.8062L113.595 73.6506Z" fill="#17181D"/>
</g>
<g id="Group_146">
<g id="Group_147">
<path id="Vector_95" d="M133.974 78.2831C133.971 78.2831 133.969 78.2829 133.966 78.2829L129.412 78.1253C129.323 78.1222 129.242 78.0719 129.199 77.9934C129.155 77.9146 129.157 77.8189 129.202 77.7414C129.21 77.7277 129.997 76.3618 130.456 74.5247C130.898 72.756 129.7 70.9136 129.688 70.8951C129.635 70.8155 129.631 70.7129 129.677 70.6297C129.724 70.5461 129.804 70.5038 129.908 70.499L134.228 70.6485C134.308 70.6513 134.382 70.6915 134.427 70.7574C137.126 74.6405 134.197 78.1586 134.168 78.1936C134.119 78.2505 134.048 78.2832 133.974 78.2831ZM129.838 77.6293L133.856 77.7683C134.284 77.2128 136.233 74.3696 134.082 71.1542L130.348 71.025C130.709 71.7175 131.317 73.1787 130.949 74.6487C130.611 76.0018 130.113 77.089 129.838 77.6293Z" fill="#47472D"/>
</g>
</g>
</g>
<g id="Group_148">
<g id="Group_149">
<path id="Vector_96" d="M92.2324 81.0772L118.205 81.105L147.58 82.8906L147.578 85.1171L119.183 82.8601C116.321 82.8572 113.999 85.4071 113.996 88.5558C113.992 91.7045 116.309 94.2594 119.171 94.2625L147.568 94.2928L147.566 95.9374L92.2167 95.8781C88.5022 95.8741 85.4947 92.5577 85.499 88.4705C85.5033 84.3832 88.518 81.0732 92.2324 81.0772Z" fill="#436E8E"/>
</g>
<g id="Group_150">
<path id="Vector_97" d="M111.472 88.4978C111.476 84.4106 114.491 81.1005 118.205 81.1045L147.58 82.8901L147.578 85.1166L119.183 82.8596C116.322 82.8567 113.999 85.4066 113.996 88.5553C113.992 91.704 116.31 94.2589 119.171 94.262L147.568 94.2923L147.566 95.9369L118.189 95.9054C114.475 95.9016 111.467 92.585 111.472 88.4978Z" fill="#436E8E"/>
</g>
<g id="Group_151">
<path id="Vector_98" d="M119.182 82.8662L147.577 85.117C144.997 85.4406 144.132 88.0321 143.728 89.4168C142.909 92.2248 144.988 93.9308 147.567 94.2599L147.567 94.299L119.17 94.2686C116.309 94.2655 113.992 91.7105 113.995 88.5619C113.998 85.4132 116.321 82.8632 119.182 82.8662Z" fill="#E6EDFF"/>
</g>
<g id="Group_152">
<path id="Vector_99" d="M120.656 90.6912L120.656 90.8467L143.577 90.872L143.577 90.7164L120.656 90.6912Z" fill="#17181D"/>
</g>
<g id="Group_153">
<path id="Vector_100" d="M126.16 88.4384L126.152 88.5938L143.729 89.4971L143.737 89.3417L126.16 88.4384Z" fill="#17181D"/>
</g>
</g>
<g id="Group_154">
<g id="Group_155">
<path id="Vector_101" d="M91.5492 52.5964L118.005 52.0625L147.965 53.2454L148.011 55.5133L119.039 53.8291C116.125 53.888 113.814 56.5358 113.878 59.743C113.942 62.9503 116.357 65.5026 119.272 65.4438L148.198 64.86L148.231 66.5352L91.851 67.6731C88.0672 67.7495 84.9325 64.4364 84.8494 60.2731C84.7659 56.1098 87.7656 52.6728 91.5492 52.5964Z" fill="#D28B58"/>
</g>
<g id="Group_156">
<path id="Vector_102" d="M111.305 59.7391C111.222 55.5758 114.222 52.1389 118.005 52.0625L147.965 53.2454L148.011 55.5133L119.039 53.8291C116.124 53.888 113.813 56.5358 113.878 59.743C113.942 62.9503 116.357 65.5026 119.272 65.4438L148.198 64.86L148.231 66.5352L118.307 67.1392C114.523 67.2155 111.389 63.9024 111.305 59.7391Z" fill="#D28B58"/>
</g>
<g id="Group_157">
<path id="Vector_103" d="M119.04 53.8359L148.011 55.5138C145.39 55.8993 144.565 58.5577 144.183 59.9769C143.409 62.8549 145.563 64.5477 148.197 64.827L148.198 64.8667L119.272 65.4505C116.357 65.5094 113.942 62.9569 113.878 59.7498C113.814 56.5424 116.125 53.8947 119.04 53.8359Z" fill="#E6EDFF"/>
</g>
<g id="Group_158">
<path id="Vector_104" d="M144.047 61.3103L120.699 61.7656L120.702 61.9242L144.05 61.4688L144.047 61.3103Z" fill="#17181D"/>
</g>
<g id="Group_159">
<g id="Group_160">
<path id="Vector_105" d="M111.987 64.6111C111.942 64.6111 111.897 64.5981 111.857 64.5708C111.782 64.5192 110.006 63.2656 109.764 59.7753C109.52 56.245 111.976 54.937 112.081 54.8831C112.194 54.8245 112.333 54.8697 112.392 54.9836C112.45 55.0975 112.405 55.237 112.292 55.2956C112.198 55.3446 110.002 56.5281 110.225 59.7431C110.451 63.0113 112.101 64.1762 112.117 64.1876C112.223 64.2596 112.25 64.4039 112.178 64.5098C112.133 64.5756 112.061 64.6111 111.987 64.6111Z" fill="#D3715B"/>
</g>
</g>
<g id="Group_161">
<path id="Vector_106" d="M126.26 59.3474L126.255 59.5059L144.179 60.0434L144.184 59.8849L126.26 59.3474Z" fill="#17181D"/>
</g>
<g id="Group_162">
<g id="Group_163">
<path id="Vector_107" d="M105.955 63.3551C105.33 63.3551 104.764 63.0149 104.472 62.4608C103.95 61.4712 103.245 59.4839 104.388 57.2957C104.664 56.7671 105.216 56.431 105.829 56.4186L106.763 56.3997C107.283 56.3898 107.771 56.6156 108.101 57.0208C108.428 57.4224 108.551 57.9422 108.438 58.4468C108.314 59.0064 108.307 59.5303 108.418 60.0038C108.503 60.3679 108.61 60.7401 108.734 61.1103C108.906 61.6216 108.828 62.1688 108.518 62.6116C108.206 63.0577 107.715 63.32 107.173 63.3309L105.99 63.3547C105.979 63.3551 105.967 63.3551 105.955 63.3551ZM105.839 56.8824C105.394 56.8913 104.995 57.1323 104.797 57.5112C103.753 59.5111 104.401 61.3347 104.88 62.2437C105.095 62.6522 105.52 62.9023 105.981 62.891L107.163 62.8671C107.558 62.8591 107.913 62.6688 108.14 62.3448C108.364 62.0245 108.421 61.6287 108.297 61.259C108.168 60.875 108.057 60.4885 107.968 60.1104C107.841 59.5681 107.848 58.9743 107.988 58.3456C108.069 57.9809 107.98 57.605 107.744 57.3145C107.504 57.0204 107.147 56.855 106.772 56.8637L105.839 56.8824Z" fill="#D3715B"/>
</g>
</g>
</g>
</g>
<g id="Group_164">
<g id="Group_165">
<path id="Vector_108" d="M70.1003 72.3518L45.7816 71.6182L18.2209 72.2643L18.1515 74.1377L44.8096 73.0664C47.4889 73.1473 49.5814 75.3604 49.4834 78.0097C49.3853 80.6591 47.1337 82.7412 44.4545 82.6604L17.8656 81.8583L17.8145 83.2421L69.6392 84.8054C73.1172 84.9104 76.0399 82.2076 76.1672 78.7686C76.2944 75.3295 73.5782 72.4567 70.1003 72.3518Z" fill="#D28B58"/>
</g>
<g id="Group_166">
<path id="Vector_109" d="M51.8485 78.0349C51.9757 74.5959 49.2595 71.723 45.7816 71.6182L18.2209 72.2643L18.1515 74.1377L44.8096 73.0664C47.4889 73.1473 49.5814 75.3604 49.4834 78.0097C49.3853 80.6591 47.1337 82.7412 44.4545 82.6604L17.8656 81.8583L17.8145 83.2421L45.3205 84.0719C48.7984 84.1767 51.721 81.474 51.8485 78.0349Z" fill="#D28B58"/>
</g>
<g id="Group_167">
<path id="Vector_110" d="M44.8093 73.0713L18.1514 74.1374C20.5566 74.4849 21.283 76.6906 21.6166 77.8674C22.2933 80.2538 20.2921 81.6286 17.8665 81.8303L17.8652 81.8631L44.4541 82.6652C47.1334 82.746 49.3849 80.6639 49.4829 78.0145C49.5811 75.3652 47.4886 73.1521 44.8093 73.0713Z" fill="#E6EDFF"/>
</g>
<g id="Group_168">
<path id="Vector_111" d="M21.7161 78.9605L21.7119 79.0986L43.1721 79.7445L43.1762 79.6063L21.7161 78.9605Z" fill="#17181D"/>
</g>
<g id="Group_169">
<path id="Vector_112" d="M38.1034 77.5486L21.6172 77.8018L21.6193 77.9399L38.1055 77.6867L38.1034 77.5486Z" fill="#17181D"/>
</g>
</g>
<g id="Group_170">
<g id="Group_171">
<path id="Vector_113" d="M17.8858 83.3672H39.7514L64.4831 84.844V86.7185L40.5762 84.844C38.1672 84.844 36.2142 86.9929 36.2142 89.6436C36.2142 92.2945 38.1672 94.4434 40.5762 94.4434H64.4831V95.8279H17.8858C14.7586 95.8279 12.2236 93.0385 12.2236 89.5976C12.2236 86.1566 14.7586 83.3672 17.8858 83.3672Z" fill="#1B3A5F"/>
</g>
<g id="Group_172">
<path id="Vector_114" d="M34.0889 89.5975C34.0889 86.1566 36.6239 83.3672 39.751 83.3672L65.1199 84.6693L64.4827 86.7186L40.5758 84.8441C38.1668 84.8441 36.2138 86.993 36.2138 89.6437C36.2138 92.2946 38.1668 94.4434 40.5758 94.4434H64.4827V95.828H39.751C36.6239 95.8279 34.0889 93.0384 34.0889 89.5975Z" fill="#1B3A5F"/>
</g>
<g id="Group_173">
<path id="Vector_115" d="M40.5758 84.8496L64.4827 86.719C62.3109 86.9937 61.5853 89.1763 61.2464 90.3423C60.5594 92.707 62.3109 94.1414 64.4827 94.4161V94.4489H40.5758C38.1668 94.4489 36.2139 92.3 36.2139 89.6493C36.2139 86.9985 38.1668 84.8496 40.5758 84.8496Z" fill="#E6EDFF"/>
</g>
<g id="Group_174">
<path id="Vector_116" d="M61.1166 91.4336H41.8203V91.5647H61.1166V91.4336Z" fill="#17181D"/>
</g>
<g id="Group_175">
<g id="Group_176">
<path id="Vector_117" d="M23.3949 93.4381C23.3327 93.3937 21.8706 92.3169 21.727 89.3976C21.5818 86.4448 23.6552 85.3939 23.7435 85.3506L23.9127 85.6988L23.8282 85.5247L23.9132 85.6986C23.8341 85.7378 21.98 86.6892 22.1123 89.3784C22.2467 92.1121 23.6048 93.1126 23.6185 93.1224L23.3949 93.4381Z" fill="#D4C3D8"/>
</g>
</g>
<g id="Group_177">
<path id="Vector_118" d="M46.446 89.5353L46.4395 89.666L61.2372 90.4102L61.2438 90.2794L46.446 89.5353Z" fill="#17181D"/>
</g>
<g id="Group_178">
<g id="Group_179">
<path id="Vector_119" d="M17.48 85.7812H18.6562C19.6861 85.7812 20.4316 86.7572 20.1776 87.7596C20.0287 88.3471 19.9628 89.013 20.1058 89.6819C20.2103 90.1712 20.3372 90.6287 20.4688 91.0396C20.7941 92.0555 20.0313 93.0937 18.9689 93.0937H17.5021C16.914 93.0937 16.3737 92.7651 16.105 92.2395C15.5215 91.0979 14.8185 88.9452 16.097 86.6079C16.3747 86.1002 16.9032 85.7812 17.48 85.7812Z" fill="#D4C3D8"/>
</g>
</g>
</g>
<g id="Group_180">
<g id="Group_181">
<path id="Vector_120" d="M146.787 53.3557L76.4348 52.6315C74.9287 52.6159 73.7168 51.5162 73.7168 50.1648V11.6387C73.7168 10.2911 74.9223 9.19285 76.4242 9.1722L145.869 8.21807C147.382 8.19726 148.63 9.27733 148.66 10.6347L149.568 50.839C149.599 52.2319 148.34 53.3717 146.787 53.3557Z" fill="#1B3A5F"/>
</g>
<g id="Group_182">
<path id="Vector_121" d="M146.814 12.5656V48.8004C146.814 49.5717 146.191 50.197 145.423 50.197H77.8339C77.0659 50.197 76.4434 49.5717 76.4434 48.8004V12.5656C76.4434 11.7943 77.0659 11.1689 77.8339 11.1689H145.423C146.191 11.1689 146.814 11.7943 146.814 12.5656Z" fill="#E7F2F0"/>
</g>
<g id="Group_183">
<g id="Group_184">
<path id="Vector_122" d="M146.814 45.7377V46.8838C146.814 47.5907 146.243 48.1638 145.54 48.1638H105.064C104.974 48.1414 104.886 48.1134 104.8 48.082C107.68 45.2711 113.225 40.8605 120.803 39.3717C121.36 39.2611 121.927 39.1661 122.506 39.0901C123.016 39.0231 123.535 38.9695 124.063 38.9316C124.091 38.9291 124.119 38.9265 124.147 38.925C125.759 38.8126 127.369 38.8713 128.957 39.0389C129.278 39.0728 129.599 39.1108 129.918 39.1529C130.39 39.2157 130.852 39.2825 131.303 39.3551C138.884 40.5683 143.732 43.1306 146.814 45.7377Z" fill="#17181D"/>
</g>
<g id="Group_185">
<path id="Vector_123" d="M129.273 40.9456C130.131 39.6195 128.898 39.5047 128.508 38.1643L127.3 34.0168L126.949 32.8094L124.883 25.71L124.484 32.7323L124.245 36.9475L124.17 38.2817C124.118 39.1874 123.871 39.3119 123.189 40.0888C122.912 40.4035 121.881 41.6765 123.2 42.3161C124.383 42.89 128.178 42.6361 129.273 40.9456Z" fill="#F7B686"/>
</g>
<g id="Group_186">
<path id="Vector_124" d="M128.875 32.4204C128.875 32.4204 135.758 30.0072 134.732 24.8632C133.705 19.7192 128.456 29.5176 128.456 29.5176L128.179 32.2081L128.875 32.4204Z" fill="#17181D"/>
</g>
<g id="Group_187">
<path id="Vector_125" d="M127.323 33.9032C127.317 33.9414 127.31 33.9795 127.301 34.0174C126.839 36.2372 124.259 36.9624 124.259 36.9624L124.246 36.9481L124.485 32.7329C125.267 32.5629 126.367 32.427 126.95 32.81C127.255 33.0101 127.418 33.3515 127.323 33.9032Z" fill="#17181D"/>
</g>
<g id="Group_188">
<path id="Vector_126" d="M118.263 26.7751C118.797 22.6871 121.966 19.734 125.341 20.1792C128.716 20.6243 131.019 24.299 130.485 28.3868C129.951 32.4748 126.781 35.4279 123.406 34.9827C120.031 34.5376 117.728 30.863 118.263 26.7751Z" fill="#F7B686"/>
</g>
<g id="Group_189">
<path id="Vector_127" d="M129.703 27.4053C129.703 27.4053 127.672 27.8175 126.809 26.2971C125.947 24.7769 125.439 23.4756 121.915 23.6085C118.391 23.7414 115.534 21.6642 115.683 19.7788C115.832 17.8935 117.761 17.2746 119.531 18.1759C121.301 19.0774 119.557 17.0976 121.581 15.9646C123.605 14.8317 126.001 18.0356 127.961 17.909C129.922 17.7824 135.88 19.6064 134.732 24.8635L129.703 27.4053Z" fill="#17181D"/>
</g>
<g id="Group_190">
<path id="Vector_128" d="M130.472 28.9127C129.847 29.3121 129.053 29.1812 128.698 28.6203C128.342 28.0593 128.561 27.281 129.186 26.8816C129.811 26.4823 130.605 26.6132 130.961 27.1741C131.316 27.7351 131.097 28.5134 130.472 28.9127Z" fill="#F7B686"/>
</g>
<g id="Group_191">
<path id="Vector_129" d="M120.269 20.7939C119.642 20.7939 119.171 20.6713 118.865 20.4272C118.331 20.0014 118.296 19.6217 118.44 19.4086C118.612 19.1558 119.083 19.066 119.576 19.3532C120.42 19.8449 121.039 19.7653 121.045 19.7646L121.057 19.8482C121.031 19.8519 120.405 19.9337 119.534 19.4262C119.084 19.1638 118.66 19.2354 118.51 19.4561C118.386 19.638 118.429 19.9712 118.918 20.361C119.929 21.1678 122.65 20.3136 122.678 20.3048L122.703 20.3852C122.696 20.3874 122.001 20.6073 121.187 20.7226C120.851 20.7701 120.545 20.7939 120.269 20.7939Z" fill="white"/>
</g>
<g id="Group_192">
<path id="Vector_130" d="M131.456 19.5388C130.735 19.0268 129.852 19.0778 128.829 19.1368C128.311 19.1667 127.776 19.1976 127.192 19.1654C125.435 19.0687 123.977 17.3964 123.926 17.2268L124.006 17.2021C124.042 17.3067 125.433 18.984 127.196 19.0811C127.776 19.1131 128.309 19.0822 128.825 19.0524C129.863 18.9924 130.76 18.9406 131.505 19.4697L131.456 19.5388Z" fill="white"/>
</g>
<g id="Group_193">
<path id="Vector_131" d="M133.491 23.9037C133.488 23.9037 133.484 23.9036 133.481 23.9034C133.217 23.8864 132.799 23.0997 132.785 22.6999C132.779 22.4954 132.88 22.4511 132.94 22.4431C133.433 22.3764 133.669 23.5829 133.679 23.6342L133.68 23.6416L133.679 23.649C133.645 23.8571 133.56 23.9037 133.491 23.9037ZM132.979 22.525C132.97 22.525 132.961 22.5256 132.951 22.5268C132.93 22.5296 132.864 22.5384 132.87 22.6971C132.882 23.0722 133.286 23.8062 133.486 23.8192C133.546 23.823 133.581 23.7272 133.595 23.6426C133.532 23.3184 133.305 22.525 132.979 22.525Z" fill="white"/>
</g>
<g id="Group_194">
<g id="Group_195">
<path id="Vector_132" d="M123.216 27.2682C123.184 27.2479 123.162 27.2132 123.159 27.1724C123.153 27.1034 123.204 27.0428 123.272 27.037C123.313 27.0336 124.244 26.8664 124.713 27.8603C124.742 27.923 124.718 27.9979 124.656 28.0287C124.595 28.0596 124.532 28.0263 124.489 27.9723C124.054 27.4328 123.327 27.2846 123.293 27.2872C123.265 27.2895 123.239 27.2822 123.216 27.2682Z" fill="#060633"/>
</g>
</g>
<g id="Group_196">
<path id="Vector_133" d="M123.758 28.8782C123.68 29.1671 123.447 29.355 123.238 29.2977C123.03 29.2407 122.924 28.96 123.002 28.6711C123.081 28.3821 123.314 28.1943 123.523 28.2515C123.731 28.3087 123.837 28.5893 123.758 28.8782Z" fill="#060633"/>
</g>
<g id="Group_197">
<g id="Group_198">
<path id="Vector_134" d="M118.594 26.895C118.565 26.89 118.539 26.868 118.526 26.8324C118.504 26.7725 118.526 26.6966 118.575 26.6627C118.604 26.6429 119.245 26.1047 119.849 26.8081C119.887 26.8524 119.889 26.9299 119.851 26.9835C119.814 27.0371 119.759 27.033 119.713 27.0023C119.252 26.6956 118.679 26.8639 118.655 26.8803C118.635 26.894 118.614 26.8986 118.594 26.895Z" fill="#060633"/>
</g>
</g>
<g id="Group_199">
<path id="Vector_135" d="M119.733 28.1819C119.77 28.4791 119.626 28.7418 119.412 28.7687C119.197 28.7957 118.993 28.5768 118.956 28.2796C118.919 27.9823 119.063 27.7197 119.278 27.6927C119.492 27.6657 119.696 27.8848 119.733 28.1819Z" fill="#060633"/>
</g>
<g id="Group_200">
<g id="Group_201">
<path id="Vector_136" d="M123.031 32.8328C121.922 32.8328 121.055 32.1523 121.042 32.1423C121.005 32.1121 120.999 32.0571 121.029 32.0193C121.059 31.9815 121.114 31.9753 121.151 32.0054C121.221 32.061 122.871 33.3529 124.504 32.1646C124.543 32.1361 124.598 32.1451 124.626 32.1842C124.655 32.2234 124.646 32.2782 124.607 32.3065C124.069 32.6973 123.526 32.8328 123.031 32.8328Z" fill="#020202"/>
</g>
<g id="Group_202">
<path id="Vector_137" d="M124.68 32.6681C124.677 32.6681 124.674 32.668 124.671 32.6676C124.623 32.6627 124.588 32.6197 124.593 32.5715C124.606 32.445 124.574 32.2279 124.346 31.9121C124.337 31.9003 124.331 31.8921 124.329 31.8879C124.303 31.8469 124.316 31.7929 124.356 31.7672C124.397 31.7418 124.451 31.7539 124.476 31.7946C124.478 31.7975 124.482 31.8025 124.487 31.8091C124.696 32.0989 124.79 32.3614 124.767 32.5895C124.762 32.6346 124.724 32.6681 124.68 32.6681Z" fill="#020202"/>
</g>
</g>
<g id="Group_203">
<path id="Vector_138" d="M118.045 31.8966C117.731 31.8966 117.422 31.8048 117.131 31.6224C116.34 31.1258 115.784 30.0181 115.643 28.6591C115.415 26.4477 116.358 24.2336 117.745 23.7235C118.259 23.5345 118.781 23.5915 119.254 23.8886C120.046 24.3852 120.602 25.4929 120.742 26.8519C120.97 29.0632 120.027 31.2774 118.64 31.7875C118.442 31.8605 118.243 31.8966 118.045 31.8966ZM118.338 23.8756C118.171 23.8756 118.002 23.9063 117.834 23.9681C116.552 24.4397 115.685 26.532 115.901 28.6324C116.033 29.912 116.544 30.9472 117.269 31.4015C117.672 31.6544 118.115 31.7033 118.551 31.5429C119.833 31.0713 120.701 28.9789 120.484 26.8787C120.352 25.599 119.841 24.5638 119.117 24.1094C118.869 23.954 118.606 23.8756 118.338 23.8756Z" fill="white"/>
</g>
<g id="Group_204" opacity="0.3">
<path id="Vector_139" d="M127.619 26.881C127.658 28.9947 126.477 31.0081 124.981 31.3782C123.486 31.7481 122.242 30.3347 122.203 28.221C122.164 26.1073 123.345 24.0939 124.841 23.7239C126.336 23.3539 127.58 24.7674 127.619 26.881Z" fill="white"/>
</g>
<g id="Group_205" opacity="0.3">
<path id="Vector_140" d="M120.76 27.0294C120.799 29.1526 119.732 31.2228 118.377 31.6535C117.023 32.0841 115.895 30.7121 115.856 28.5888C115.818 26.4656 116.885 24.3955 118.24 23.9648C119.594 23.5342 120.722 24.9063 120.76 27.0294Z" fill="white"/>
</g>
<g id="Group_206">
<path id="Vector_141" d="M124.395 31.4711C123.923 31.4711 123.474 31.3142 123.077 31.006C122.289 30.3955 121.821 29.2912 121.791 27.9761C121.739 25.715 123.035 23.5559 124.68 23.1633C125.344 23.0047 125.982 23.1437 126.526 23.5649C127.313 24.1752 127.782 25.2794 127.812 26.5946C127.863 28.8557 126.567 31.0147 124.922 31.4074C124.744 31.45 124.568 31.4711 124.395 31.4711ZM125.205 23.3606C125.052 23.3606 124.897 23.3792 124.74 23.4167C123.208 23.7826 122.001 25.8252 122.05 27.9702C122.078 29.1881 122.521 30.2459 123.235 30.7997C123.714 31.1713 124.277 31.2938 124.862 31.1541C126.395 30.7883 127.601 28.7455 127.553 26.6005C127.525 25.3826 127.082 24.3248 126.367 23.771C126.017 23.4991 125.621 23.3606 125.205 23.3606Z" fill="white"/>
</g>
<g id="Group_207">
<path id="Vector_142" d="M122.352 27.7793C122.321 27.7793 122.289 27.7731 122.258 27.7601C121.232 27.3236 120.505 27.7004 120.497 27.7042C120.379 27.7672 120.233 27.7222 120.17 27.6036C120.107 27.4849 120.152 27.3376 120.27 27.2746C120.308 27.2546 121.21 26.7865 122.447 27.312C122.57 27.3643 122.628 27.507 122.576 27.6307C122.537 27.7235 122.447 27.7793 122.352 27.7793Z" fill="white"/>
</g>
<g id="Group_208">
<path id="Vector_143" d="M134.763 24.925L134.701 24.8026C135.695 24.3001 135.441 23.1998 135.438 23.1888L135.571 23.1562C135.574 23.1684 135.852 24.374 134.763 24.925Z" fill="#17181D"/>
</g>
<g id="Group_209">
<path id="Vector_144" d="M135.482 26.39C135.476 26.3816 134.943 25.562 134.364 25.4326L134.394 25.2988C135.028 25.4404 135.573 26.28 135.596 26.3156L135.482 26.39Z" fill="#17181D"/>
</g>
</g>
<g id="Group_210" opacity="0.5">
<path id="Vector_145" d="M106.785 31.9417H87.8613C87.3183 31.9417 86.874 31.4955 86.874 30.95V19.9751C86.874 19.4296 87.3183 18.9834 87.8613 18.9834H106.785C107.328 18.9834 107.773 19.4295 107.773 19.9751V30.95C107.773 31.4954 107.328 31.9417 106.785 31.9417Z" fill="#96A7E2"/>
</g>
<g id="Group_211">
<path id="Vector_146" d="M102.589 28.3753H83.6651C83.1221 28.3753 82.6777 27.929 82.6777 27.3836V16.4088C82.6777 15.8633 83.122 15.417 83.6651 15.417H102.589C103.132 15.417 103.576 15.8632 103.576 16.4088V27.3836C103.576 27.929 103.132 28.3753 102.589 28.3753Z" fill="#96A7E2"/>
</g>
<g id="Group_212">
<g id="Group_213">
<g id="Group_214">
<g id="Group_215">
<path id="Vector_147" d="M102.406 43.8471C102.405 43.8507 102.405 43.8542 102.405 43.8579C102.358 44.186 102.313 44.5661 102.273 44.9923C102.272 44.9932 102.272 44.9932 102.272 44.9932C102.19 45.8519 102.126 46.8944 102.108 48.056H91.5645C91.6255 44.8662 91.9385 42.6856 91.9592 42.5478V42.5469L92.8249 42.6559L97.0178 43.1821L97.1819 43.2028L97.3864 43.2281L102.091 43.8083L102.406 43.8471H102.406Z" fill="#EAA97D"/>
</g>
</g>
<g id="Group_216">
<path id="Vector_148" d="M91.9365 42.5456C91.9365 42.5456 92.0801 35.7908 93.117 34.6483C94.1538 33.5057 102.012 34.3902 102.598 36.0189C103.184 37.6477 102.405 43.8479 102.405 43.8479L91.9365 42.5456Z" fill="#EAA97D"/>
</g>
<g id="Group_217">
<path id="Vector_149" d="M96.5514 45.8512C96.4983 45.8512 96.4542 45.8095 96.4517 45.7557C96.4501 45.7265 96.4184 45.0345 96.5512 44.2811C96.7342 43.2439 97.127 42.6282 97.719 42.4511C99.9102 41.7953 101.127 40.4992 101.139 40.4862C101.176 40.4455 101.239 40.4432 101.28 40.481C101.32 40.5188 101.323 40.5824 101.285 40.623C101.235 40.6777 100.019 41.9725 97.7761 42.6436C96.5328 43.0159 96.6501 45.7186 96.6513 45.7459C96.654 45.8013 96.6115 45.8484 96.5563 45.8512C96.5548 45.8512 96.553 45.8512 96.5514 45.8512Z" fill="#E08B65"/>
</g>
</g>
<g id="Group_218">
<path id="Vector_150" d="M102.807 37.55C102.807 37.55 103.129 27.0902 102.054 26.9108C100.481 26.6483 99.8563 30.9827 99.5871 34.1318C99.318 37.2809 102.807 37.55 102.807 37.55Z" fill="#EAA97D"/>
</g>
<g id="Group_219">
<g id="Group_220">
<path id="Vector_151" d="M99.0039 31.6715C99.5722 31.7691 100.143 31.594 100.409 34.7877C100.543 36.385 100.653 41.4131 99.1521 41.1598C97.6514 40.9063 97.1389 35.2077 97.1389 35.2077C97.1389 35.2077 97.1697 41.7416 95.86 41.0596C94.5502 40.3776 94.0508 35.2078 94.0508 35.2078C94.0508 35.2078 94.4428 41.5722 92.9429 40.7451C91.4431 39.9178 90.9847 36.5282 91.1106 35.0735C91.2681 33.2553 92.5923 33.1492 94.0011 33.0568C94.0011 33.0568 95.3943 32.1894 96.3172 32.3497C96.6712 32.4113 97.8901 31.4802 99.0039 31.6715Z" fill="#F7B686"/>
</g>
</g>
<g id="Group_221">
<path id="Vector_152" d="M102.272 44.9932C102.272 44.9932 103.758 43.7668 104.745 41.3799C105.732 38.993 107.93 36.6502 107.302 35.7041C106.674 34.758 103.534 36.869 102.502 38.9899C101.471 41.1105 102.272 44.9932 102.272 44.9932Z" fill="#EAA97D"/>
</g>
</g>
<g id="Group_222">
<path id="Vector_153" d="M146.814 46.7246V48.8008C146.814 49.5721 146.191 50.1974 145.423 50.1974H77.8339C77.0659 50.1974 76.4434 49.5721 76.4434 48.8008V47.4158C84.6345 47.2913 130.832 46.8698 146.814 46.7246Z" fill="#96A7E2"/>
</g>
<g id="Group_223">
<g id="Group_224">
<path id="Vector_154" d="M141.693 48.1942L80.8652 48.5322L80.8682 49.0728L141.696 48.7349L141.693 48.1942Z" fill="#E7F2F0"/>
</g>
</g>
<g id="Group_225">
<g id="Group_226">
<path id="Vector_155" d="M111.418 48.3604L111.345 48.9009L80.867 49.0722L80.8643 48.5316L111.418 48.3604Z" fill="#D28B58"/>
</g>
</g>
<g id="Group_227">
<path id="Vector_156" d="M110.373 48.632C110.373 48.1292 110.779 47.7217 111.279 47.7217C111.78 47.7217 112.186 48.1293 112.186 48.632C112.186 49.1347 111.78 49.5423 111.279 49.5423C110.779 49.5423 110.373 49.1347 110.373 48.632Z" fill="#D28B58"/>
</g>
<g id="Group_228">
<g id="Group_229">
<path id="Vector_157" d="M137.585 13.6433C137.585 13.2713 137.885 12.9697 138.255 12.9697C138.626 12.9697 138.926 13.2713 138.926 13.6433C138.926 14.0153 138.626 14.3168 138.255 14.3168C137.885 14.3168 137.585 14.0153 137.585 13.6433Z" fill="#CED891"/>
</g>
<g id="Group_230">
<path id="Vector_158" d="M140.009 13.6433C140.009 13.2713 140.309 12.9697 140.679 12.9697C141.05 12.9697 141.35 13.2713 141.35 13.6433C141.35 14.0153 141.05 14.3168 140.679 14.3168C140.309 14.3168 140.009 14.0153 140.009 13.6433Z" fill="#1B3A5F"/>
</g>
<g id="Group_231">
<path id="Vector_159" d="M142.493 13.6433C142.493 13.2713 142.793 12.9697 143.164 12.9697C143.534 12.9697 143.834 13.2713 143.834 13.6433C143.834 14.0153 143.534 14.3168 143.164 14.3168C142.793 14.3169 142.493 14.0153 142.493 13.6433Z" fill="#D28B58"/>
</g>
</g>
<g id="Group_232">
<g id="Group_233">
<path id="Vector_160" d="M94.0385 24.0473L94.7295 22.4135C94.825 22.1878 95.1047 22.1099 95.3024 22.2538L96.2256 22.9262C96.4362 23.0797 96.7344 22.9799 96.8115 22.7304L97.3432 21.0105C97.407 20.8042 97.6285 20.6922 97.8315 20.7634L98.3404 20.9421C98.4975 20.9972 98.6721 20.9433 98.7712 20.809L98.852 20.6992C99.0699 20.4035 99.5373 20.5584 99.5373 20.9263V24.1966C99.5373 24.4073 99.3672 24.5781 99.1574 24.5781H94.3881C94.1158 24.5781 93.932 24.2989 94.0385 24.0473Z" fill="#D28B58"/>
</g>
<g id="Group_234">
<path id="Vector_161" d="M99.8377 25.6562C99.8338 25.6562 99.8296 25.6562 99.8257 25.6562L85.6066 25.4219C85.2335 25.4158 84.9327 25.1292 84.9066 24.7553L84.618 20.6068C84.6042 20.409 84.6701 20.2195 84.8033 20.0731C84.9366 19.9268 85.1188 19.8442 85.3162 19.8404L99.8237 19.5646C100.015 19.5604 100.199 19.6338 100.337 19.7697C100.475 19.9055 100.551 20.0872 100.551 20.281V24.9396C100.551 25.1333 100.475 25.3147 100.338 25.4504C100.203 25.5834 100.026 25.6562 99.8377 25.6562ZM99.8376 19.7035C99.8339 19.7035 99.8302 19.7035 99.8265 19.7035L85.3189 19.9794C85.1597 19.9823 85.0129 20.049 84.9055 20.1669C84.7981 20.2849 84.745 20.4377 84.7561 20.5971L85.0447 24.7456C85.0657 25.047 85.3082 25.2779 85.6089 25.2829L99.8279 25.5172C99.9844 25.5211 100.13 25.4609 100.241 25.3515C100.351 25.2421 100.413 25.0957 100.413 24.9397V20.281C100.413 20.1246 100.351 19.9783 100.24 19.8688C100.132 19.7619 99.989 19.7035 99.8376 19.7035Z" fill="#DEEBE9"/>
</g>
<g id="Group_235">
<path id="Vector_162" d="M91.6742 23.0193H86.5356C86.4224 23.0193 86.2485 22.9008 86.2334 22.7882C86.2026 22.5573 86.4221 22.4912 86.5352 22.4912L91.6742 22.6062C91.7874 22.6062 91.8799 22.6991 91.8799 22.8127C91.8799 22.9263 91.7874 23.0193 91.6742 23.0193Z" fill="#DEEBE9"/>
</g>
<g id="Group_236">
<path id="Vector_163" d="M90.3394 22.0492H86.4607C86.3753 22.0492 86.2439 21.9542 86.2327 21.8637C86.2094 21.6781 86.3751 21.625 86.4605 21.625L90.3395 21.7173C90.4248 21.7173 90.4947 21.7919 90.4947 21.8833C90.4947 21.9746 90.4248 22.0492 90.3394 22.0492Z" fill="#DEEBE9"/>
</g>
<g id="Group_237">
<path id="Vector_164" d="M90.3394 23.9965H86.4607C86.3753 23.9965 86.2439 23.9014 86.2327 23.8109C86.2094 23.6254 86.3751 23.5723 86.4605 23.5723L90.3395 23.6645C90.4248 23.6645 90.4947 23.7392 90.4947 23.8305C90.4947 23.9217 90.4248 23.9965 90.3394 23.9965Z" fill="#DEEBE9"/>
</g>
<g id="Group_238">
<path id="Vector_165" d="M90.2905 17.4167H85.1519C85.0386 17.4167 84.8647 17.2983 84.8496 17.1857C84.8188 16.9547 85.0383 16.8887 85.1514 16.8887L90.2905 17.0035C90.4036 17.0035 90.4962 17.0965 90.4962 17.2101C90.4962 17.3237 90.4036 17.4167 90.2905 17.4167Z" fill="#DEEBE9"/>
</g>
<g id="Group_239">
<path id="Vector_166" d="M88.9555 18.3939H85.0769C84.9915 18.3939 84.8601 18.2988 84.8489 18.2084C84.8256 18.0227 84.9912 17.9697 85.0767 17.9697L88.9556 18.062C89.0411 18.062 89.1109 18.1366 89.1109 18.2279C89.1109 18.3192 89.041 18.3939 88.9555 18.3939Z" fill="#DEEBE9"/>
</g>
</g>
</g>
<g id="Group_240">
<g id="Group_241">
<path id="Vector_167" d="M99.8011 78.5146C100.167 79.169 103.838 84.8806 103.069 90.4669L99.0738 89.0159L97.248 81.4857L99.8011 78.5146Z" fill="#F7B686"/>
</g>
<g id="Group_242">
<path id="Vector_168" d="M83.8471 76.1732C83.8471 76.1732 86.302 71.7508 92.2774 72.9735C98.2529 74.1962 101.514 82.7871 99.8932 99.8028C99.8932 99.8028 90.4002 96.0119 78.0566 99.068C78.0566 99.068 80.0884 82.5889 83.8471 76.1732Z" fill="#D28B58"/>
</g>
<g id="Group_243">
<path id="Vector_169" d="M79.2891 74.3868L83.4894 78.5984C83.4894 78.5984 94.2572 81.5207 97.2481 81.4856C100.239 81.4506 101.416 79.255 101.416 79.255C101.416 79.255 98.8918 75.2398 93.7843 73.4236C93.3046 73.2524 92.8027 73.1015 92.2774 72.9744C91.3954 72.762 90.4989 72.6393 89.6092 72.5859C84.3219 72.2698 79.2891 74.3868 79.2891 74.3868Z" fill="#D28B58"/>
</g>
<g id="Group_244">
<path id="Vector_170" d="M79.2893 74.3862C78.6179 75.1192 79.6534 75.92 80.8132 77.083C81.9729 78.246 83.1711 78.9243 83.4892 78.5979C83.8074 78.2715 83.1251 77.064 81.9654 75.901C80.8056 74.738 79.5972 74.0498 79.2893 74.3862Z" fill="#17181D"/>
</g>
<g id="Group_245">
<path id="Vector_171" d="M82.9303 78.6152C82.9303 78.6152 82.9931 77.7741 81.9404 76.7001C81.3065 76.0532 80.5039 75.6306 79.9657 75.3966C79.6457 75.2574 79.2761 75.4138 79.1492 75.7425L78.8125 76.6147L80.3804 77.6287L82.9303 78.6152Z" fill="#F7B686"/>
</g>
<g id="Group_246">
<path id="Vector_172" d="M90.3526 94.2159C90.3526 94.2159 77.3949 87.1626 72.7505 94.8568C69.3124 100.552 74.4804 105.857 93.6501 105.318C93.6501 105.318 95.5446 104.427 95.0832 99.8034C94.9004 97.9715 90.3526 94.2159 90.3526 94.2159Z" fill="#1B3A5F"/>
</g>
<g id="Group_247">
<path id="Vector_173" d="M90.3525 94.2153C90.3525 94.2153 107.61 87.1145 111.025 91.5535C114.949 96.6552 111.186 105.317 92.9948 102.221L90.7779 99.8028L90.3525 94.2153Z" fill="#1B3A5F"/>
</g>
<g id="Group_248">
<path id="Vector_174" d="M93.6716 105.347L93.6293 105.288C95.6419 103.845 95.1008 100.141 95.0512 99.8299L81.9707 95.048L81.9956 94.9795L95.1157 99.7758L95.1193 99.7966C95.1264 99.8367 95.7998 103.822 93.6716 105.347Z" fill="#020202"/>
</g>
<g id="Group_249">
<path id="Vector_175" d="M95.1936 101.075C95.1936 101.075 98.3741 101.205 99.8681 101.941C101.362 102.677 100.564 104.474 97.5308 104.426C94.4973 104.378 94.7276 103.924 94.7276 103.924C94.7276 103.924 95.3038 102.347 95.1936 101.075Z" fill="#17181D"/>
</g>
<g id="Group_250">
<g id="Group_251">
<path id="Vector_176" d="M91.1227 94.5538C92.176 94.5539 93.0413 94.2863 93.7429 93.7546C95.068 92.7507 95.3138 91.1503 95.1217 90.0848L93.854 89.3444C93.7909 88.9951 91.3447 90.2933 91.3488 90.292C91.3376 90.2958 90.1813 90.6317 86.1719 88.5737C83.3808 87.1409 81.9741 85.1076 81.8714 82.3575C81.7939 80.2842 82.714 79.1198 82.9311 78.6152C82.9602 78.5481 81.5823 77.1606 81.6218 77.0195L80.5889 76.4922C80.6222 76.3733 79.5959 75.9666 79.6104 75.9326L78.8134 76.6146C78.4201 77.5286 77.5831 79.627 77.6912 82.5182C77.8034 85.5216 79.0382 89.6669 84.2829 92.3592C87.1429 93.8274 89.3876 94.5537 91.1227 94.5538Z" fill="#F7B686"/>
</g>
</g>
<g id="Group_252">
<g id="Group_253">
<path id="Vector_177" d="M91.9727 94.7227H103.155C103.39 94.7227 103.597 94.5731 103.671 94.3516L105.995 87.3804C106.112 87.0293 105.85 86.667 105.479 86.667H94.7253C94.2353 86.667 93.8002 86.9801 93.6455 87.444L91.4569 94.0093C91.3399 94.3603 91.6019 94.7227 91.9727 94.7227Z" fill="#17181D"/>
</g>
<g id="Group_254">
<path id="Vector_178" d="M92.6749 94.7227H103.858C104.092 94.7227 104.3 94.5731 104.373 94.3516L106.697 87.3804C106.814 87.0293 106.552 86.667 106.182 86.667H95.4275C94.9374 86.667 94.5023 86.9801 94.3477 87.444L92.1591 94.0093C92.042 94.3603 92.304 94.7227 92.6749 94.7227Z" fill="#17181D"/>
</g>
<g id="Group_255">
<path id="Vector_179" d="M100.51 90.4663C100.51 90.2017 100.206 90.0938 99.9409 90.0938C99.6756 90.0938 99.2423 90.3843 99.2451 90.7551C99.2481 91.1553 99.5594 91.2074 99.8248 91.2074C100.09 91.2074 100.51 90.8033 100.51 90.4663Z" fill="#DEEBE9"/>
</g>
<g id="Group_256">
<path id="Vector_180" d="M88.5602 93.7373H103.863V94.7225H88.242C88.0603 94.7225 87.9131 94.5746 87.9131 94.3921V94.3873C87.9131 94.0283 88.2027 93.7373 88.5602 93.7373Z" fill="#17181D"/>
</g>
<g id="Group_257">
<path id="Vector_181" d="M93.4696 90.1913L93.3994 90.1726C93.4219 90.0873 93.9559 88.0764 94.3155 87.4262C94.6804 86.7668 95.1269 86.637 95.1457 86.6318L95.1649 86.7022C95.1606 86.7034 94.7279 86.8311 94.3791 87.4617C94.0238 88.1039 93.4753 90.1706 93.4696 90.1913Z" fill="#436E8E"/>
</g>
<g id="Group_258">
<path id="Vector_182" d="M91.8174 93.7737V93.7007C92.1838 93.7007 92.2748 93.5483 92.2756 93.5467L93.1444 90.9385L93.2133 90.9615L92.3418 93.576C92.3353 93.5895 92.232 93.7737 91.8174 93.7737Z" fill="#436E8E"/>
</g>
</g>
<g id="Group_259">
<path id="Vector_183" d="M81.0685 88.5101C81.0287 88.5101 80.987 88.5044 80.9441 88.4928C80.7033 88.428 80.4388 88.1859 80.2538 87.8609C79.9705 87.3631 79.9628 86.8476 80.2364 86.6875C80.3217 86.6376 80.4271 86.6272 80.541 86.6579C80.7817 86.7227 81.0463 86.9649 81.2312 87.2899C81.5147 87.7875 81.5222 88.3031 81.2488 88.4632C81.1954 88.4944 81.1345 88.5101 81.0685 88.5101ZM80.3799 87.7885C80.5439 88.0764 80.7801 88.2976 80.9817 88.3519C81.0584 88.3725 81.1236 88.3675 81.1755 88.3371C81.3725 88.2218 81.3403 87.7753 81.1052 87.3622C80.9413 87.0743 80.705 86.853 80.5035 86.7988C80.4267 86.7782 80.3614 86.7831 80.3097 86.8135C80.1126 86.9288 80.1449 87.3754 80.3799 87.7885Z" fill="#E08B65"/>
</g>
<g id="Group_260">
<path id="Vector_184" d="M89.5163 72.5754C90.251 72.5537 90.8083 72.4778 91.2309 71.9784L92.5388 70.433L92.9195 69.9832L95.1582 67.3379L93.9825 70.4311L93.2766 72.2877L93.0531 72.8754C92.9014 73.2743 93.1019 73.4602 93.243 73.9269C93.3002 74.1159 93.6861 75.2795 92.681 75.2867C91.4288 75.2958 89.8449 73.8339 89.4971 72.5716C89.5035 72.5728 89.5098 72.5756 89.5163 72.5754Z" fill="#F7B686"/>
</g>
<g id="Group_261">
<path id="Vector_185" d="M92.1752 69.44C92.1752 69.44 89.7103 67.0604 91.1323 65.0519C92.5543 63.0434 92.9095 68.2753 92.9095 68.2753L92.5121 69.4847L92.1752 69.44Z" fill="#17181D"/>
</g>
<g id="Group_262">
<path id="Vector_186" d="M92.5515 70.3792C92.5469 70.3968 92.5428 70.4146 92.5392 70.4325C92.3104 71.476 93.2686 72.2908 93.2686 72.2908L93.277 72.2873L93.9829 70.4306C93.683 70.2051 93.2412 69.9321 92.9199 69.9827C92.7519 70.009 92.6169 70.1238 92.5515 70.3792Z" fill="#17181D"/>
</g>
<g id="Group_263">
<path id="Vector_187" d="M97.7696 69.087C98.3254 67.2273 97.5434 65.3408 96.0228 64.8732C94.5022 64.4057 92.8189 65.5341 92.263 67.3938C91.7071 69.2535 92.4892 71.1401 94.0097 71.6076C95.5305 72.0752 97.2137 70.9467 97.7696 69.087Z" fill="#F7B686"/>
</g>
<g id="Group_264">
<path id="Vector_188" d="M92.7844 67.1249C92.7844 67.1249 93.5694 67.6984 94.2272 67.2138C94.8853 66.7293 95.3506 66.2696 96.8238 67.0145C98.2971 67.7593 99.9097 67.4249 100.208 66.5862C100.505 65.7475 99.8037 65.1052 98.8783 65.1469C97.9528 65.1885 99.074 64.6788 98.4303 63.7974C97.7866 62.9158 96.1538 63.824 95.3445 63.3869C94.5349 62.95 91.6515 62.5703 91.1328 65.0519L92.7844 67.1249Z" fill="#17181D"/>
</g>
<g id="Group_265">
<path id="Vector_189" d="M92.1687 67.6223C92.3579 67.9158 92.7209 68.0145 92.9794 67.8431C93.238 67.6716 93.2942 67.2945 93.1049 67.0013C92.9156 66.7078 92.5526 66.609 92.2941 66.7805C92.0356 66.952 91.9794 67.3289 92.1687 67.6223Z" fill="#F7B686"/>
</g>
<g id="Group_266">
<path id="Vector_190" d="M98.5804 66.2958C97.9615 66.2958 97.1216 65.5372 97.083 65.5022L97.1555 65.4219C97.1655 65.4309 98.1451 66.317 98.7123 66.1719C98.9301 66.1164 99.0532 66.0129 99.0336 65.9016C99.015 65.7957 98.8592 65.6951 98.6412 65.7175C98.1617 65.7664 97.9014 65.6032 97.8906 65.5963L97.9488 65.5051C97.951 65.5066 98.1911 65.6549 98.6302 65.6098C98.9249 65.5795 99.1125 65.7279 99.1398 65.8828C99.1637 66.018 99.0708 66.1925 98.7388 66.2771C98.6882 66.2899 98.6352 66.2958 98.5804 66.2958Z" fill="white"/>
</g>
<g id="Group_267">
<path id="Vector_191" d="M96.0357 64.2181C95.8315 64.2181 95.62 64.1878 95.4187 64.1085C95.1622 64.0076 94.9396 63.8893 94.7243 63.775C94.3064 63.5531 93.9451 63.3615 93.5529 63.4383L93.5322 63.3321C93.9626 63.2481 94.3387 63.4478 94.7747 63.6793C94.9874 63.7922 95.2073 63.909 95.458 64.0077C96.2073 64.3025 97.0838 63.8766 97.1386 63.8303L97.2175 63.9041C97.1706 63.9582 96.6337 64.2181 96.0357 64.2181Z" fill="white"/>
</g>
<g id="Group_268">
<path id="Vector_192" d="M91.8801 64.9235C91.8644 64.9235 91.8497 64.9211 91.8365 64.9161C91.8003 64.9023 91.7446 64.8595 91.7797 64.7272L91.7877 64.7102C91.848 64.6233 92.1602 64.1969 92.3764 64.3333C92.4039 64.3508 92.4619 64.4039 92.4047 64.5197C92.3334 64.6637 92.0459 64.9235 91.8801 64.9235ZM91.8817 64.7642C91.8719 64.8054 91.878 64.8177 91.878 64.8177C91.9071 64.8272 92.0625 64.753 92.2106 64.5996C92.3152 64.4913 92.324 64.4344 92.3206 64.4262C92.2249 64.3657 92.005 64.5896 91.8817 64.7642Z" fill="white"/>
</g>
<g id="Group_269">
<g id="Group_270">
<path id="Vector_193" d="M95.5689 68.332C95.5864 68.3294 95.6027 68.319 95.6118 68.3021C95.6275 68.2736 95.6174 68.2377 95.5894 68.2217C95.5729 68.2123 95.209 67.9589 94.8192 68.2942C94.7947 68.3154 94.7905 68.3522 94.8109 68.3775C94.8312 68.4029 94.864 68.4007 94.8929 68.386C95.1814 68.2393 95.5188 68.3175 95.5325 68.3252C95.5441 68.3316 95.5568 68.3336 95.5689 68.332Z" fill="#060633"/>
</g>
</g>
<g id="Group_271">
<path id="Vector_194" d="M95.0308 68.9171C95.0087 69.0565 95.0718 69.1826 95.1715 69.1987C95.2712 69.2149 95.3698 69.1151 95.3919 68.9757C95.4139 68.8363 95.3508 68.7102 95.2511 68.6941C95.1515 68.6779 95.0527 68.7777 95.0308 68.9171Z" fill="#060633"/>
</g>
<g id="Group_272">
<g id="Group_273">
<path id="Vector_195" d="M97.6066 69.0742C97.6199 69.0777 97.6349 69.0732 97.6473 69.0605C97.6681 69.0391 97.6734 69.0023 97.6592 68.9782C97.6506 68.964 97.4811 68.6078 97.0896 68.792C97.0649 68.8036 97.0492 68.8366 97.0549 68.8669C97.0605 68.8971 97.0845 68.9061 97.11 68.9018C97.3647 68.86 97.5762 69.0442 97.5833 69.0558C97.5891 69.0657 97.5974 69.0718 97.6066 69.0742Z" fill="#060633"/>
</g>
</g>
<g id="Group_274">
<path id="Vector_196" d="M96.8752 69.4044C96.8026 69.5247 96.8135 69.6657 96.8996 69.7192C96.9858 69.7728 97.1145 69.7185 97.1871 69.5981C97.2598 69.4778 97.249 69.3369 97.1628 69.2833C97.0766 69.2298 96.948 69.2841 96.8752 69.4044Z" fill="#060633"/>
</g>
<g id="Group_275">
<g id="Group_276">
<path id="Vector_197" d="M95.2076 70.8852C94.8568 70.8852 94.3275 70.7813 94.0132 70.2235C94.002 70.2038 94.0089 70.1787 94.0286 70.1675C94.0485 70.1562 94.0734 70.1633 94.0844 70.183C94.5521 71.013 95.5307 70.7715 95.5404 70.769C95.5624 70.7633 95.5845 70.7767 95.5901 70.7985C95.5957 70.8206 95.5826 70.8429 95.5608 70.8486C95.5568 70.8496 95.4128 70.8852 95.2076 70.8852Z" fill="#020202"/>
</g>
<g id="Group_277">
<path id="Vector_198" d="M93.9295 70.3685C93.9254 70.3685 93.921 70.3678 93.9167 70.3665C93.8953 70.3593 93.8837 70.3361 93.8907 70.3146C93.9245 70.212 94.0149 70.1177 94.1595 70.0342L94.1667 70.0299C94.1857 70.0178 94.2109 70.0231 94.2232 70.042C94.2354 70.0609 94.2306 70.0858 94.2121 70.0984C94.2102 70.0997 94.2062 70.1021 94.2003 70.1055C94.0426 70.1966 93.9872 70.2834 93.9685 70.3404C93.9628 70.3575 93.9467 70.3685 93.9295 70.3685Z" fill="#020202"/>
</g>
</g>
<g id="Group_278">
<path id="Vector_199" d="M98.5503 79.0882L98.3799 79.1445L99.04 81.16L99.2104 81.1037L98.5503 79.0882Z" fill="#17181D"/>
</g>
<g id="Group_279">
<path id="Vector_200" d="M97.2032 71.3969C96.9926 71.3969 96.8029 71.3179 96.6492 71.1648C96.1573 70.6753 96.1805 69.5409 96.7009 68.636C97.0212 68.0791 97.4707 67.7119 97.903 67.6536C98.1609 67.6188 98.3934 67.6963 98.5754 67.8775C99.0673 68.3671 99.0441 69.5014 98.5237 70.4064C98.2034 70.9633 97.754 71.3305 97.3216 71.3887C97.2814 71.3943 97.2418 71.3969 97.2032 71.3969ZM98.0199 67.7679C97.987 67.7679 97.9533 67.7702 97.9191 67.7748C97.5237 67.828 97.1078 68.1728 96.8061 68.6973C96.3116 69.557 96.2796 70.6252 96.7347 71.0781C96.8889 71.2316 97.0862 71.2971 97.3053 71.2677C97.7007 71.2146 98.1166 70.8697 98.4182 70.3453C98.9128 69.4855 98.9448 68.4174 98.4897 67.9645C98.3596 67.8348 98.1987 67.7679 98.0199 67.7679Z" fill="white"/>
</g>
<g id="Group_280" opacity="0.3">
<path id="Vector_201" d="M93.7708 67.3067C93.3494 68.2067 93.4659 69.3018 94.031 69.7525C94.5961 70.2033 95.3959 69.8391 95.8173 68.939C96.2386 68.0389 96.1221 66.9439 95.557 66.4932C94.9919 66.0424 94.1922 66.4066 93.7708 67.3067Z" fill="white"/>
</g>
<g id="Group_281" opacity="0.3">
<path id="Vector_202" d="M96.6593 68.7087C96.2363 69.6129 96.2935 70.7101 96.7869 71.1594C97.2804 71.6086 98.0232 71.2397 98.4462 70.3354C98.8691 69.4311 98.8119 68.334 98.3185 67.8847C97.825 67.4354 97.0822 67.8043 96.6593 68.7087Z" fill="white"/>
</g>
<g id="Group_282">
<path id="Vector_203" d="M94.6636 69.9947C94.4426 69.9947 94.2339 69.9211 94.0497 69.7766C93.4256 69.2871 93.2879 68.1073 93.7429 67.1467C94.0084 66.5864 94.4203 66.2034 94.8733 66.096C95.1843 66.0221 95.4816 66.0874 95.7329 66.2844C96.357 66.774 96.4946 67.9538 96.0395 68.9144C95.7742 69.4747 95.3622 69.8577 94.9091 69.9651C94.826 69.9849 94.7439 69.9947 94.6636 69.9947ZM95.1177 66.189C95.0467 66.189 94.9745 66.1976 94.9013 66.2149C94.4904 66.3123 94.0984 66.6803 93.8527 67.1992C93.4208 68.111 93.5427 69.224 94.1246 69.6803C94.3459 69.8538 94.6073 69.9112 94.8812 69.8463C95.292 69.7488 95.684 69.3809 95.9298 68.862C96.3616 67.9501 96.2397 66.8371 95.6579 66.3809C95.4959 66.2537 95.312 66.189 95.1177 66.189Z" fill="white"/>
</g>
<g id="Group_283">
<path id="Vector_204" d="M96.7314 69.0932C96.6974 69.0932 96.6639 69.078 96.6415 69.0489C96.6309 69.0354 96.3951 68.7418 95.8823 68.7291C95.8195 68.7274 95.77 68.6752 95.7715 68.6122C95.773 68.5492 95.8267 68.5016 95.8879 68.501C96.515 68.5166 96.8093 68.8938 96.8215 68.9099C96.8596 68.9599 96.8501 69.0315 96.8003 69.0698C96.7797 69.0856 96.7554 69.0932 96.7314 69.0932Z" fill="white"/>
</g>
</g>
<g id="Group_284">
<g id="Group_285">
<g id="Group_286">
<path id="Vector_205" d="M52.4853 53.1465C52.4853 53.1465 47.8654 59.1426 48.1794 63.778C48.4934 68.4134 53.9654 64.7084 53.9654 64.7084L54.4367 53.7324L52.4853 53.1465Z" fill="#F7B686"/>
</g>
<g id="Group_287">
<path id="Vector_206" d="M46.155 94.6485C46.155 94.6485 46.195 96.0111 45.2993 96.4452C44.4035 96.8792 41.7664 97.3711 42.8064 98.1916C43.4031 98.6623 46.0692 98.1908 46.8268 98.1493C47.5845 98.1077 48.3139 98.4004 48.8493 97.8602C49.4383 97.2659 48.6674 94.5107 48.6674 94.5107C48.6674 94.5107 48.032 94.8887 47.4432 94.9055C46.5946 94.93 46.155 94.6485 46.155 94.6485Z" fill="#17181D"/>
</g>
<g id="Group_288">
<path id="Vector_207" d="M37.901 94.6398C37.901 94.6398 37.9411 96.0023 37.0454 96.4364C36.1497 96.8705 33.5125 97.3624 34.5525 98.1828C35.1491 98.6535 37.8153 98.1821 38.5729 98.1406C39.3306 98.099 40.06 98.3917 40.5954 97.8514C41.1843 97.2571 40.4134 94.502 40.4134 94.502C40.4134 94.502 39.7781 94.8799 39.1893 94.8968C38.3407 94.9212 37.901 94.6398 37.901 94.6398Z" fill="#17181D"/>
</g>
<g id="Group_289">
<g id="Group_290">
<path id="Vector_208" d="M36.9185 92.3889C37.5893 83.4623 37.7474 77.4391 40.5595 73.5695C43.6374 69.3343 51.8889 66.3388 55.0706 66.1519C60.2592 65.8473 62.7041 66.6231 62.7041 66.6231C66.5987 74.7581 60.4983 75.8373 55.9859 76.0599C55.8368 76.0673 55.6871 76.0756 55.5369 76.0851C52.8048 76.258 47.9473 76.955 46.1087 79.6819C44.653 81.8411 43.6426 84.8725 43.2164 92.6916C43.1348 94.192 41.8816 95.3557 40.3862 95.3145C40.3862 95.3145 36.6772 95.5994 36.9185 92.3889Z" fill="#436E8E"/>
</g>
</g>
<g id="Group_291">
<g id="Group_292">
<path id="Vector_209" d="M44.2832 92.8485C44.1949 83.8969 43.9182 79.327 46.593 75.3602C48.3114 72.8116 50.8956 70.8879 54.2739 69.6425C56.6848 68.7536 59.5208 68.2081 62.7024 68.0211C67.891 67.7165 70.2225 67.0869 70.2225 67.0869C74.4218 77.5005 59.0612 75.2897 55.0624 79.7264C53.3199 81.6597 51.161 85.3363 50.7349 93.1554C50.6532 94.6558 49.4001 95.8196 47.9047 95.7783C47.9047 95.7783 44.3156 96.1215 44.2832 92.8485Z" fill="#436E8E"/>
</g>
</g>
<g id="Group_293">
<path id="Vector_210" d="M44.3086 84.0559L44.249 84.0531C44.2517 83.9996 44.5158 78.6773 45.4068 76.8117C46.5343 74.451 49.8029 71.9872 53.179 70.9531L53.1963 71.0104C49.8347 72.04 46.5814 74.4907 45.4605 76.8375C44.5748 78.6924 44.3113 84.0025 44.3086 84.0559Z" fill="#020202"/>
</g>
<g id="Group_294">
<path id="Vector_211" d="M66.5416 50.5528C66.5416 50.5528 64.3343 46.7628 59.2458 47.9259C54.1574 49.0889 52.0841 54.3093 51.7197 66.8459C51.7197 66.8459 56.4306 66.6722 68.8076 70.7958C70.2736 71.2842 72.4241 70.8968 71.6713 68.3882C70.2721 63.7251 68.9167 54.4238 66.5416 50.5528Z" fill="#96A7E2"/>
</g>
<g id="Group_295">
<path id="Vector_212" d="M72.1396 51.6599L66.9055 52.648C66.9055 52.648 57.7531 55.367 55.1909 55.3884C52.6288 55.41 51.5684 53.5276 51.5684 53.5276C51.5684 53.5276 53.6349 50.0043 57.966 48.3419C58.3727 48.1852 58.799 48.0458 59.2459 47.9266C59.9961 47.7272 60.7585 47.5525 61.5218 47.5437C70.1615 47.444 72.1396 51.6599 72.1396 51.6599Z" fill="#96A7E2"/>
</g>
<g id="Group_296">
<path id="Vector_213" d="M72.1395 51.6598C72.2527 52.0742 71.1556 52.7659 69.689 53.2045C68.2224 53.6432 66.9416 53.6628 66.8283 53.2483C66.7151 52.8338 67.8123 52.1423 69.2789 51.7037C70.7455 51.2649 72.0262 51.2453 72.1395 51.6598Z" fill="#17181D"/>
</g>
<g id="Group_297">
<path id="Vector_214" d="M61.5121 47.5445C60.9529 47.5902 60.4116 47.3356 60.0975 46.8687L59.113 45.4061L58.8274 44.9815L57.1475 42.4854L57.8827 45.2642L58.3243 46.932L58.4501 47.4075C58.5528 47.7955 58.3449 48.1958 57.9717 48.3393L57.9652 48.3418C57.822 48.7202 57.6658 49.4634 58.5733 49.5735C59.6397 49.7029 61.1157 48.5974 61.521 47.5436C61.518 47.544 61.5151 47.5441 61.5121 47.5445Z" fill="#F7B686"/>
</g>
<g id="Group_298">
<path id="Vector_215" d="M60.2304 41.416C60.2304 41.416 60.2092 41.8992 60.6533 42.7963C61.3029 44.1089 59.8349 44.9888 59.3564 44.6703C59.2971 44.6308 58.917 42.2597 58.917 42.2597L59.3643 41.8626L60.2304 41.416Z" fill="#74A1BD"/>
</g>
<g id="Group_299">
<path id="Vector_216" d="M59.1072 45.3588C59.1096 45.3745 59.1116 45.3903 59.1131 45.4061C59.2181 46.327 58.3312 46.936 58.3312 46.936L58.3244 46.932L57.8828 45.2642C58.158 45.0989 58.558 44.9067 58.8274 44.9815C58.9683 45.0205 59.0735 45.1325 59.1072 45.3588Z" fill="#17181D"/>
</g>
<g id="Group_300">
<path id="Vector_217" d="M54.4706 43.4633C54.1291 41.6597 55.0324 39.9722 56.4879 39.6943C57.9433 39.4163 59.3999 40.6532 59.7413 42.4568C60.0826 44.2605 59.1794 45.948 57.724 46.2259C56.2687 46.5039 54.8119 45.267 54.4706 43.4633Z" fill="#F7B686"/>
</g>
<g id="Group_301">
<path id="Vector_218" d="M55.5878 40.6527C55.6799 40.739 55.5831 42.4984 58.7578 42.3079C61.9324 42.1173 59.3563 38.6966 57.0537 39.0477C53.729 39.5549 53.6704 41.8763 54.1395 42.6181C54.6086 43.36 55.5878 40.6527 55.5878 40.6527Z" fill="#74A1BD"/>
</g>
<g id="Group_302">
<path id="Vector_219" d="M59.9728 37.6753C59.9728 37.6753 58.758 38.8765 59.9952 39.5524C61.2324 40.2283 64.2498 40.0511 63.7279 41.6901C63.2059 43.3289 62.9266 45.6626 64.4241 45.6617C65.9216 45.6608 66.8108 45.377 67.6185 46.42C68.426 47.463 70.9139 46.2467 70.4395 44.9121C69.965 43.5776 71.9845 41.9378 70.7813 40.8564C69.5782 39.7749 67.0143 39.1243 66.1131 37.5862C65.2118 36.0479 60.9618 36.7455 59.9728 37.6753Z" fill="#74A1BD"/>
</g>
<g id="Group_303">
<path id="Vector_220" d="M58.3145 41.838C58.3145 41.838 59.8345 42.9372 59.6549 44.3919C59.6549 44.3919 60.2368 43.4455 60.1961 43.1415C60.1554 42.8374 59.7545 41.7881 59.7545 41.7881L58.3145 41.838Z" fill="#74A1BD"/>
</g>
<g id="Group_304">
<path id="Vector_221" d="M59.482 43.0169C59.2376 43.3601 58.8259 43.4692 58.5621 43.2605C58.2983 43.0517 58.2826 42.6041 58.5269 42.2608C58.7713 41.9175 59.1831 41.8083 59.4468 42.0172C59.7107 42.2261 59.7263 42.6737 59.482 43.0169Z" fill="#F7B686"/>
</g>
<g id="Group_305">
<path id="Vector_222" d="M67.565 46.4345C67.1751 44.961 66.3103 44.8947 65.395 44.8243C65.032 44.7964 64.6566 44.7676 64.2984 44.6524C64.128 44.5976 64.0087 44.5025 63.9437 44.3697C63.7813 44.0378 63.9697 43.5146 64.1878 42.9087C64.5056 42.0262 64.8658 41.026 64.3283 40.2496C63.2874 38.7457 61.7122 38.6803 61.6963 38.6799C60.7793 38.7381 60.3046 38.6347 60.25 38.3638C60.1948 38.0903 60.6239 37.7862 60.7823 37.7305C62.0654 37.2798 63.549 37.0979 65.6983 38.804C67.3934 40.1497 67.277 40.907 67.1296 41.8657C67.097 42.0773 67.0634 42.2961 67.0479 42.5339C67.0358 42.722 67.0749 42.8614 67.1681 42.9599C67.3752 43.1795 67.837 43.1742 68.2842 43.1687C68.8623 43.1619 69.4598 43.1548 69.6207 43.6162C69.7467 43.9772 69.6034 44.4062 69.4649 44.8211C69.3229 45.2463 69.1888 45.6478 69.3538 45.9287C69.4617 46.1123 69.6914 46.2341 70.0565 46.3012L70.0367 46.4101C69.6383 46.3369 69.384 46.1979 69.2589 45.9851C69.0683 45.6606 69.2102 45.2358 69.3602 44.7858C69.4929 44.3886 69.63 43.978 69.5166 43.6528C69.3818 43.2664 68.8496 43.2726 68.2854 43.2795C67.8147 43.2851 67.3282 43.2908 67.0878 43.0361C66.9742 42.9156 66.9237 42.7441 66.9379 42.5265C66.9537 42.2839 66.9877 42.0627 67.0206 41.8487C67.1625 40.9256 67.2746 40.1965 65.6299 38.8908C63.5223 37.2176 62.072 37.3945 60.8185 37.8349C60.6662 37.8883 60.321 38.159 60.3579 38.3417C60.3766 38.4344 60.5442 38.6417 61.6944 38.5691C61.7159 38.5696 63.3465 38.6371 64.4187 40.1862C64.9888 41.0098 64.6021 42.0835 64.2914 42.9463C64.0818 43.5285 63.9008 44.0311 64.0425 44.3208C64.0945 44.427 64.1891 44.501 64.332 44.5469C64.6778 44.6582 65.0467 44.6865 65.4033 44.7138C66.3589 44.7873 67.2615 44.8565 67.6714 46.406L67.565 46.4345Z" fill="white"/>
</g>
<g id="Group_306">
<path id="Vector_223" d="M58.2281 41.3304C57.2434 41.3304 56.6105 40.6491 56.6035 40.6415L56.6775 40.5732C56.6851 40.5815 57.4399 41.3918 58.574 41.2001L58.5905 41.2997C58.4653 41.3209 58.3442 41.3304 58.2281 41.3304Z" fill="white"/>
</g>
<g id="Group_307">
<g id="Group_308">
<path id="Vector_224" d="M55.3483 45.4306C55.1515 45.4683 54.9421 45.4427 54.7438 45.3546C54.4237 45.2126 54.1613 44.9239 54.0237 44.5626C53.767 43.8884 54.0174 43.159 54.5819 42.9367C54.8235 42.8417 55.0969 42.8517 55.3519 42.9648C55.6721 43.1069 55.9346 43.3956 56.0722 43.7569C56.3289 44.4311 56.0784 45.1605 55.5138 45.3827C55.4601 45.4039 55.4048 45.4199 55.3483 45.4306ZM54.7596 42.9526C54.7071 42.9626 54.6555 42.9774 54.6055 42.9971C54.0737 43.2064 53.8398 43.8982 54.0839 44.5395C54.2155 44.8848 54.4655 45.1603 54.77 45.2953C55.0091 45.4015 55.2648 45.411 55.4905 45.3223C56.0222 45.1131 56.2562 44.4212 56.0121 43.78C55.8805 43.4347 55.6305 43.1591 55.3259 43.024C55.1399 42.9414 54.9436 42.9173 54.7596 42.9526Z" fill="#1B3A5F"/>
</g>
</g>
<g id="Group_309">
<g id="Group_310">
<path id="Vector_225" d="M57.8307 44.5838C57.6338 44.6215 57.4246 44.5959 57.2263 44.5079C56.9062 44.3658 56.6437 44.0772 56.5061 43.7158C56.2494 43.0416 56.4998 42.3123 57.0644 42.09C57.306 41.9951 57.5795 42.0049 57.8343 42.1181C58.1545 42.2602 58.417 42.5489 58.5546 42.9102C58.8113 43.5845 58.5609 44.3137 57.9963 44.536C57.9425 44.5572 57.887 44.5731 57.8307 44.5838ZM57.242 42.1058C57.1894 42.1158 57.1379 42.1307 57.0879 42.1503C56.5561 42.3597 56.3222 43.0515 56.5663 43.6927C56.6978 44.038 56.9479 44.3136 57.2524 44.4487C57.4916 44.5548 57.7474 44.5644 57.9728 44.4757C58.5045 44.2664 58.7385 43.5745 58.4945 42.9333C58.363 42.588 58.1128 42.3124 57.8084 42.1773C57.6224 42.0947 57.4262 42.0706 57.242 42.1058Z" fill="#1B3A5F"/>
</g>
</g>
<g id="Group_311">
<g id="Group_312">
<path id="Vector_226" d="M55.7824 43.9383C55.7725 43.9402 55.7619 43.9374 55.754 43.9299C55.7412 43.9176 55.7408 43.8971 55.7531 43.8841C55.7652 43.8713 56.06 43.5689 56.6697 43.545C56.6876 43.5442 56.7025 43.5582 56.7032 43.5761C56.7039 43.594 56.6902 43.6091 56.6723 43.6097C56.0899 43.6324 55.8024 43.926 55.7996 43.929C55.7947 43.934 55.7888 43.9372 55.7824 43.9383Z" fill="#1B3A5F"/>
</g>
</g>
<g id="Group_313">
<path id="Vector_227" d="M56.0508 45.3515C56.0508 45.3515 56.9549 45.2004 57.7951 44.7109C57.7951 44.7109 58.0385 45.5879 57.0747 45.8338C56.5144 45.9767 56.0508 45.3515 56.0508 45.3515Z" fill="#DB6B49"/>
</g>
<g id="Group_314">
<path id="Vector_228" d="M56.0508 45.3515C56.0508 45.3515 56.3029 45.4915 56.8107 45.3922C57.3186 45.293 57.7951 44.7109 57.7951 44.7109C57.7951 44.7109 56.7669 45.2174 56.0508 45.3515Z" fill="white"/>
</g>
<g id="Group_315">
<g id="Group_316">
<path id="Vector_229" d="M56.8571 43.0404C56.8386 43.039 56.8211 43.0291 56.8104 43.0123C56.7922 42.9838 56.8005 42.946 56.8288 42.9278C56.8455 42.9171 57.2096 42.6316 57.6378 42.9534C57.6648 42.9736 57.6715 43.0115 57.6518 43.039C57.6321 43.0665 57.5977 43.0664 57.5666 43.0531C57.2561 42.9198 56.9087 43.0223 56.8948 43.031C56.8829 43.0384 56.8698 43.0414 56.8571 43.0404Z" fill="#060633"/>
</g>
</g>
<g id="Group_317">
<path id="Vector_230" d="M57.4564 43.6116C57.4882 43.7544 57.4302 43.8887 57.3271 43.9119C57.224 43.9351 57.1147 43.838 57.0829 43.6954C57.0512 43.5526 57.109 43.4182 57.2122 43.395C57.3153 43.3719 57.4246 43.4688 57.4564 43.6116Z" fill="#060633"/>
</g>
<g id="Group_318">
<g id="Group_319">
<path id="Vector_231" d="M54.7761 43.7628C54.7585 43.7684 54.7386 43.7662 54.7223 43.7546C54.6948 43.7352 54.688 43.6972 54.7073 43.6694C54.7187 43.6531 54.947 43.2499 55.4649 43.3836C55.4977 43.392 55.5181 43.4244 55.5103 43.4574C55.5026 43.4903 55.4706 43.5035 55.4369 43.503C55.0992 43.4985 54.8168 43.7263 54.8074 43.7398C54.7993 43.751 54.7883 43.7588 54.7761 43.7628Z" fill="#060633"/>
</g>
</g>
<g id="Group_320">
<path id="Vector_232" d="M55.5474 44.062C55.6308 44.1818 55.6283 44.3284 55.5417 44.3891C55.4551 44.45 55.3173 44.4021 55.2339 44.2824C55.1503 44.1625 55.153 44.0159 55.2394 43.9551C55.326 43.8943 55.4639 43.9421 55.5474 44.062Z" fill="#060633"/>
</g>
<g id="Group_321">
<g id="Group_322">
<path id="Vector_233" d="M70.3818 62.7729C68.4979 65.5062 66.1668 67.0084 61.2112 67.9156L61.0215 64.7284C67.0626 62.5025 67.729 55.2626 67.4196 53.4336C67.3903 53.2601 67.4585 53.0856 67.5975 52.9785C68.0588 52.6235 69.2541 51.902 71.3901 51.8595C71.5802 51.8557 71.7483 51.9838 71.7971 52.1683C72.6908 55.5491 72.6042 59.5482 70.3818 62.7729Z" fill="#F7B686"/>
</g>
</g>
<g id="Group_323" opacity="0.3">
<path id="Vector_234" d="M68.4589 63.7331C68.377 63.7331 68.2976 63.7171 68.2227 63.685C67.8311 63.5171 67.6936 62.9503 67.916 62.4216C68.0431 62.1192 68.2709 61.8771 68.5252 61.7738C68.7005 61.7029 68.875 61.7003 69.03 61.7669C69.4215 61.9348 69.5592 62.5016 69.3368 63.0303C69.2096 63.3328 68.9818 63.5749 68.7275 63.6781C68.6369 63.7148 68.5465 63.7331 68.4589 63.7331ZM68.7938 61.8916C68.7278 61.8916 68.659 61.9058 68.5895 61.9341C68.3767 62.0205 68.1841 62.2278 68.0744 62.4889C67.8886 62.9302 67.9856 63.3956 68.2902 63.5263C68.4022 63.5742 68.5312 63.5714 68.663 63.518C68.876 63.4316 69.0686 63.2242 69.1784 62.9631C69.364 62.5218 69.2671 62.0565 68.9624 61.9257C68.9095 61.903 68.8528 61.8916 68.7938 61.8916Z" fill="#E08B65"/>
</g>
<g id="Group_324">
<g id="Group_325">
<path id="Vector_235" d="M61.0209 64.7282C61.0209 64.7282 58.0799 64.5601 57.3205 65.1937C56.5611 65.8272 56.0678 67.2132 56.6216 66.9208C57.1753 66.6286 57.7802 66.0588 57.7802 66.0588C57.7802 66.0588 56.545 67.3371 56.9677 67.4979C57.3905 67.6586 58.4541 66.5364 58.4541 66.5364C58.4541 66.5364 57.1049 68.1752 57.5532 68.1971C58.0015 68.219 59.0177 66.9667 59.0177 66.9667C59.0177 66.9667 57.8232 68.5419 58.3444 68.5551C58.8657 68.5684 59.3233 67.2469 59.746 67.4076C60.1688 67.5682 61.3792 68.4945 61.9673 67.3687L61.0209 64.7282Z" fill="#F7B686"/>
</g>
<g id="Group_326">
<path id="Vector_236" d="M57.8093 66.0798L57.75 66.0372C57.7626 66.0194 58.06 65.6067 58.3865 65.6134L58.3847 65.6865C58.3821 65.6865 58.3795 65.6865 58.3768 65.6865C58.0935 65.6865 57.8122 66.0759 57.8093 66.0798Z" fill="#DD8964"/>
</g>
<g id="Group_327">
<path id="Vector_237" d="M58.4839 66.5574L58.4238 66.5158C58.4358 66.4985 58.7188 66.092 59.1711 66.0127L59.1836 66.0849C58.7612 66.1589 58.4866 66.5534 58.4839 66.5574Z" fill="#DD8964"/>
</g>
<g id="Group_328">
<path id="Vector_238" d="M59.0477 66.9878L58.9883 66.9452C59.0032 66.9242 59.3562 66.4322 59.7015 66.472L59.6935 66.5447C59.3908 66.5122 59.0509 66.9831 59.0477 66.9878Z" fill="#DD8964"/>
</g>
</g>
<g id="Group_329">
<g id="Group_330">
<path id="Vector_239" d="M57.8521 69.2724H48.0959C47.8917 69.2724 47.7103 69.1419 47.6457 68.9486L45.6183 62.8665C45.5162 62.5602 45.7448 62.2441 46.0683 62.2441H55.4507C55.8784 62.2441 56.2579 62.5173 56.3928 62.9219L58.3023 68.6499C58.4044 68.9562 58.1758 69.2724 57.8521 69.2724Z" fill="#17181D"/>
</g>
<g id="Group_331">
<path id="Vector_240" d="M57.2399 69.2724H47.4836C47.2793 69.2724 47.098 69.1419 47.0334 68.9486L45.006 62.8665C44.9039 62.5602 45.1325 62.2441 45.456 62.2441H54.8385C55.266 62.2441 55.6456 62.5173 55.7805 62.9219L57.6901 68.6499C57.7922 68.9562 57.5635 69.2724 57.2399 69.2724Z" fill="#17181D"/>
</g>
<g id="Group_332">
<path id="Vector_241" d="M50.4033 65.5595C50.4033 65.3286 50.6685 65.2344 50.9 65.2344C51.1315 65.2344 51.5094 65.4878 51.5071 65.8113C51.5046 66.1606 51.2328 66.2059 51.0014 66.2059C50.7699 66.2061 50.4033 65.8534 50.4033 65.5595Z" fill="#DEEBE9"/>
</g>
<g id="Group_333">
<path id="Vector_242" d="M60.8293 68.4131H47.4785V69.2726H61.107C61.2655 69.2726 61.3939 69.1435 61.3939 68.9843V68.9802C61.3939 68.667 61.1411 68.4131 60.8293 68.4131Z" fill="#17181D"/>
</g>
<g id="Group_334">
<path id="Vector_243" d="M56.5464 65.3194C56.5416 65.3012 56.063 63.4981 55.7531 62.9378C55.4476 62.3856 55.0712 62.2763 55.0674 62.2753L55.0842 62.2139C55.1006 62.2184 55.4902 62.3316 55.8085 62.907C56.1223 63.4741 56.588 65.2287 56.6078 65.3032L56.5464 65.3194Z" fill="#436E8E"/>
</g>
<g id="Group_335">
<path id="Vector_244" d="M57.9884 68.4453C57.6268 68.4453 57.5367 68.2846 57.5331 68.2778L56.7705 65.9918L56.8307 65.9717L57.5911 68.2526C57.592 68.2526 57.6735 68.3817 57.9885 68.3817L57.9884 68.4453Z" fill="#436E8E"/>
</g>
</g>
</g>
</g>
<g id="Group_336">
<g id="Group_337">
<path id="Vector_245" d="M72.9669 12.0244C72.9669 12.0244 72.5769 15.4747 73.3628 15.4456C74.1489 15.4164 75.7425 13.9395 78.8612 14.2795C81.9798 14.6196 85.7843 15.4197 88.2168 11.3787C90.6489 7.33743 85.415 5.99902 85.415 5.99902L72.9669 12.0244Z" fill="#17181D"/>
</g>
<g id="Group_338">
<path id="Vector_246" d="M79.6195 11.9675L63.8302 12.8029L63.5234 12.0894L78.9525 1.33907L94.259 0L94.5337 0.638483L79.6195 11.9675Z" fill="#1B3A5F"/>
</g>
<g id="Group_339">
<g id="Group_340">
<path id="Vector_247" d="M69.3479 24.3884C69.4284 24.0776 69.731 23.8959 70.0238 23.9826C70.3167 24.0694 70.4888 24.3917 70.4083 24.7028C70.328 25.0137 70.0253 25.1953 69.7324 25.1087C69.4397 25.0217 69.2675 24.6994 69.3479 24.3884Z" fill="#D28B58"/>
</g>
<g id="Group_341">
<path id="Vector_248" d="M69.8219 24.5471C69.2525 24.5039 69.1748 30.0073 69.1748 30.0073C69.1748 30.0073 69.5475 30.1901 69.7294 30.1452C69.9113 30.1004 69.997 29.3566 69.997 29.3566L70.0224 30.1356C70.0224 30.1356 70.6465 30.1544 70.8611 29.9914C70.8611 29.9914 70.7225 24.6153 69.8219 24.5471Z" fill="#D28B58"/>
</g>
</g>
<g id="Group_342">
<path id="Vector_249" d="M69.6183 24.1432L69.5335 12.9181C69.4179 11.8994 69.8683 10.8991 70.7066 10.3137L77.5632 5.52544C77.7136 5.42039 77.9205 5.4578 78.0251 5.60902C78.0772 5.6845 78.0586 5.78807 77.9835 5.84051L70.7057 10.9223C70.1457 11.3132 69.8452 11.9817 69.9233 12.662L70.0185 24.2745L69.6183 24.1432Z" fill="#D28B58"/>
</g>
</g>
<g id="Group_343" opacity="0.5">
<path id="Vector_250" d="M85.6494 44.737H79.7405C79.064 44.737 78.5156 44.1861 78.5156 43.5066V35.3632C78.5156 34.6836 79.064 34.1328 79.7405 34.1328H85.6494C86.326 34.1328 86.8743 34.6837 86.8743 35.3632V43.5066C86.8744 44.1861 86.326 44.737 85.6494 44.737Z" fill="#96A7E2"/>
</g>
<g id="Group_344">
<path id="Vector_251" d="M85.2973 37.7262H80.1586C80.0455 37.7262 79.8715 37.6078 79.8565 37.4953C79.8256 37.2642 80.0451 37.1982 80.1583 37.1982L85.2973 37.3131C85.4104 37.3131 85.5029 37.4061 85.5029 37.5196C85.5029 37.6333 85.4104 37.7262 85.2973 37.7262Z" fill="#DEEBE9"/>
</g>
<g id="Group_345">
<path id="Vector_252" d="M83.9625 36.7562H80.0838C79.9984 36.7562 79.867 36.6611 79.8557 36.5706C79.8325 36.3851 79.998 36.332 80.0836 36.332L83.9625 36.4242C84.0479 36.4242 84.1178 36.4989 84.1178 36.5903C84.1176 36.6816 84.0478 36.7562 83.9625 36.7562Z" fill="#DEEBE9"/>
</g>
<g id="Group_346">
<path id="Vector_253" d="M83.9625 38.7035H80.0838C79.9984 38.7035 79.867 38.6084 79.8557 38.5179C79.8325 38.3323 79.998 38.2793 80.0836 38.2793L83.9625 38.3715C84.0479 38.3715 84.1178 38.4462 84.1178 38.5375C84.1176 38.6289 84.0478 38.7035 83.9625 38.7035Z" fill="#DEEBE9"/>
</g>
<g id="Group_347">
<path id="Vector_254" d="M85.2973 41.6197H80.1586C80.0455 41.6197 79.8715 41.5013 79.8565 41.3887C79.8256 41.1578 80.0451 41.0918 80.1583 41.0918L85.2973 41.2067C85.4104 41.2067 85.5029 41.2996 85.5029 41.4132C85.5029 41.5268 85.4104 41.6197 85.2973 41.6197Z" fill="#DEEBE9"/>
</g>
<g id="Group_348">
<path id="Vector_255" d="M83.9625 40.6498H80.0838C79.9984 40.6498 79.867 40.5547 79.8557 40.4643C79.8325 40.2786 79.998 40.2256 80.0836 40.2256L83.9625 40.3179C84.0479 40.3179 84.1178 40.3925 84.1178 40.4838C84.1176 40.5752 84.0478 40.6498 83.9625 40.6498Z" fill="#DEEBE9"/>
</g>
<g id="Group_349">
<path id="Vector_256" d="M83.9625 42.5971H80.0838C79.9984 42.5971 79.867 42.502 79.8557 42.4115C79.8325 42.226 79.998 42.1729 80.0836 42.1729L83.9625 42.2652C84.0479 42.2652 84.1178 42.3398 84.1178 42.4311C84.1176 42.5224 84.0478 42.5971 83.9625 42.5971Z" fill="#DEEBE9"/>
</g>
</g>
</svg>
