<svg width="732" height="298" viewBox="0 0 732 298" fill="none" xmlns="http://www.w3.org/2000/svg">
<path d="M176.45 240.771H455.113C478.04 240.771 488.261 230.552 488.261 217.946C488.261 205.341 478.04 195.121 455.113 195.121H176.45V240.771Z" fill="white"/>
<path d="M335.868 195.121H176.45V240.77H335.868V195.121Z" fill="#C0DDFD"/>
<path d="M465.431 235.612C475.174 235.612 483.102 227.687 483.102 217.946C483.102 208.204 475.175 200.279 465.431 200.279L335.867 200.233V189.963H465.006C480.365 189.963 493.182 202.157 493.417 217.512C493.656 233.14 481.01 245.93 465.431 245.93H335.868V235.469L465.431 235.612Z" fill="#FFA014"/>
<path d="M176.387 200.159C173.573 200.158 171.291 197.876 171.291 195.061C171.291 192.246 173.574 189.963 176.389 189.963H335.867V200.233L176.387 200.159Z" fill="#E38E12"/>
<path d="M171.291 240.831V240.339C171.291 237.52 173.579 235.236 176.398 235.24L335.868 235.469V245.929H176.389C173.574 245.929 171.291 243.647 171.291 240.831Z" fill="#E38E12"/>
<path d="M504.254 185.536H256.53C245.081 185.536 245.081 144.086 256.53 144.086H504.254V185.536Z" fill="white"/>
<path d="M505.377 144.088H375.669V185.538H505.377V144.088Z" fill="white"/>
<path d="M505.764 185.924H375.283V143.701H505.764V185.924ZM376.055 185.152H504.992V144.473H376.055V185.152Z" fill="#7D7DEF"/>
<path d="M259.056 139.402H383.591V148.714C380.281 149.342 377.793 152.03 377.793 155.25V174.137C377.793 177.358 380.281 180.046 383.591 180.674V190.219H258.63C243.053 190.219 240.725 178.606 240.964 164.416C241.199 150.475 243.696 139.402 259.056 139.402Z" fill="#4C7DDB"/>
<path d="M378.221 139.309L505.425 139.404C507.628 139.404 509.413 141.476 509.413 144.033C509.413 146.589 507.629 148.661 505.427 148.662L383.536 148.729C380.254 149.377 377.793 152.05 377.793 155.252V174.139C377.793 177.36 380.281 180.048 383.592 180.676V180.722L505.419 180.517C507.624 180.513 509.413 182.587 509.413 185.146V185.593C509.413 188.15 507.627 190.222 505.425 190.222H374.952C369.882 188.846 366.185 184.58 366.185 179.528V151.034C366.185 144.869 371.431 139.309 378.221 139.309Z" fill="#6694EE"/>
<path d="M605.808 292.316H245.97C233.183 292.316 233.183 250.865 245.97 250.865H605.808V292.316Z" fill="white"/>
<path d="M607.064 250.865H469.752V292.316H607.064V250.865Z" fill="white"/>
<path d="M248.79 246.18H471.043V255.491C467.345 256.119 464.566 258.807 464.566 262.028V280.915C464.566 284.135 467.344 286.823 471.043 287.451V296.996H248.316C230.917 296.996 228.317 285.383 228.584 271.193C228.845 257.253 231.636 246.18 248.79 246.18Z" fill="#0E58AB"/>
<path d="M465.045 246.086L607.116 246.182C609.577 246.182 611.571 248.254 611.571 250.811C611.571 253.367 609.578 255.439 607.118 255.44L470.979 255.507C467.314 256.154 464.565 258.827 464.565 262.03V280.917C464.565 284.137 467.344 286.825 471.042 287.453V287.499L607.11 287.295C609.573 287.29 611.571 289.365 611.571 291.924V292.37C611.571 294.927 609.577 296.999 607.116 296.999H461.393C455.729 295.623 451.6 291.357 451.6 286.306V257.812C451.6 251.647 457.46 246.086 465.045 246.086Z" fill="#1A6FCE"/>
<path d="M429.728 67.8861C420.118 61.9157 408.53 63.01 405.896 75.0577C403.263 87.1054 408.398 85.9576 400.235 88.109C392.071 90.2604 393.652 103.599 397.997 106.468C402.341 109.337 432.098 126.548 438.945 124.396C445.791 122.245 447.74 101.05 443.026 96.4283C437.76 91.265 431.276 95.4329 434.468 85.8145C438.417 73.9099 433.202 70.0446 429.728 67.8861Z" fill="#272372"/>
<path d="M266.2 76.7788C267.385 68.1733 265.278 67.8861 261.065 68.6036C256.852 69.321 244.739 59.4247 246.451 64.4439C248.111 69.3138 261.592 79.9338 265.41 81.9421C269.229 83.9504 265.674 82.2293 265.674 82.2293L266.2 76.7788Z" fill="#FFA014"/>
<path d="M318.865 73.6246C323.342 59.7128 335.06 47.0917 333.085 53.6889C331.11 60.2861 328.608 66.31 329.266 70.3255C329.924 74.3411 323.473 75.2016 323.473 75.2016L318.865 73.6246Z" fill="#FFA014"/>
<path d="M374.099 119.592C366.989 99.3688 348.82 104.962 344.278 104.962C339.735 104.962 330.65 108.405 316.431 111.201C316.629 107.329 323.344 85.6 324.529 74.8431C324.603 74.1678 318.999 72.4766 318.999 72.4766C318.999 72.4766 305.023 91.736 298.459 106.038C289.967 124.54 291.349 133.145 292.139 133.145C292.93 133.145 371.336 128.412 371.336 128.412L374.099 119.592Z" fill="#0B257A"/>
<path d="M370.939 122.462C357.169 99.9617 346.186 105.209 335.535 109.326C323.678 113.909 308.875 121.929 307.345 121.097C305.815 120.263 269.596 74.4149 265.771 76.0815C261.946 77.748 262.711 81.0811 262.711 81.0811C262.711 81.0811 289.14 137.461 294.113 139.127C299.086 140.794 370.174 139.544 370.174 139.544L370.939 122.462Z" fill="#5353A5"/>
<path d="M419.062 100.014C426.831 104.029 434.335 124.682 436.179 127.838C438.022 130.993 438.813 136.587 438.813 136.587L421.564 138.738L419.062 100.014Z" fill="#FFA014"/>
<path d="M412.479 95.1382C397.129 92.4628 376.14 123.106 367.714 123.249C364.817 127.265 362.776 138.309 364.62 139.169C366.463 140.03 406.687 139.815 417.747 139.312C424.33 136.444 428.98 126.958 425.383 115.504C421.96 104.604 419.062 96.2849 412.479 95.1382Z" fill="#FFCC5F"/>
<path d="M365.607 128.178C365.557 128.178 365.506 128.172 365.455 128.159C365.12 128.076 364.916 127.736 364.999 127.402C365.32 126.11 366.189 124.52 367.581 122.679C367.667 122.567 367.787 122.485 367.924 122.45C372.353 121.308 381.185 112.999 387.028 107.501C389.55 105.127 391.729 103.078 393.008 102.1C398.277 98.0699 409.241 89.6837 418.56 98.1173C426.486 105.29 429.278 111.246 430.62 114.107C430.74 114.365 430.849 114.597 430.948 114.801C432.123 117.218 435.398 124.352 435.431 124.423C435.575 124.737 435.437 125.108 435.123 125.252C434.808 125.395 434.437 125.259 434.293 124.945C434.26 124.873 430.99 117.751 429.823 115.348C429.721 115.139 429.61 114.902 429.486 114.639C428.18 111.851 425.46 106.05 417.72 99.0447C409.174 91.3111 398.768 99.2691 393.767 103.093C392.539 104.033 390.382 106.062 387.884 108.412C381.687 114.243 373.236 122.196 368.452 123.602C367.237 125.235 366.485 126.613 366.213 127.703C366.143 127.987 365.888 128.178 365.607 128.178Z" fill="#1A6FCE"/>
<path d="M419.062 77.0664C411.69 89.6875 408.266 96.5719 408.003 101.162C407.739 105.752 415.376 123.249 417.483 113.209C419.59 103.17 415.377 105.177 419.326 95.9985C422.047 89.6741 422.749 85.9591 422.749 85.9591L419.062 77.0664Z" fill="#6694EE"/>
<path d="M417.558 102.505C415.004 101.055 412.929 95.6496 413.451 87.008C414.978 84.1515 416.839 80.8709 419.062 77.0664L422.749 85.9591C422.749 85.9591 422.047 89.6741 419.326 95.9985C417.948 99.1998 417.564 101.039 417.558 102.505Z" fill="#1A6FCE"/>
<path d="M423.803 95.2821C427.729 95.2821 430.913 90.6587 430.913 84.9555C430.913 79.2523 427.729 74.6289 423.803 74.6289C419.876 74.6289 416.692 79.2523 416.692 84.9555C416.692 90.6587 419.876 95.2821 423.803 95.2821Z" fill="#6694EE"/>
<path d="M423.079 129.273C428.214 124.54 442.632 129.918 442.632 129.918L439.866 134.436L423.474 133.145L423.079 129.273Z" fill="#6694EE"/>
<path d="M430.351 137.868H470.238C472.287 137.868 474.087 136.389 474.65 134.243L485.885 103.379C486.112 102.511 483.813 100.941 482.984 100.941H443.096C441.047 100.941 439.247 102.421 438.684 104.566L429.15 136.135C428.923 137.004 429.522 137.868 430.351 137.868Z" fill="white"/>
<path d="M432.123 139.56L471.82 139.54C473.868 139.54 475.86 137.852 476.423 135.707L485.957 104.138C486.184 103.27 485.586 102.406 484.757 102.406H444.87C442.821 102.406 441.021 103.885 440.459 106.031L430.925 137.6C430.696 138.467 431.296 139.56 432.123 139.56Z" fill="#8EB4FB"/>
<path d="M411.454 139.7L437.233 139.539L437.247 134.074H416.296C413.622 134.074 411.44 136.275 411.44 139.188L411.454 139.7Z" fill="#8EB4FB"/>
<path d="M456.424 119.844C455.492 122.253 455.959 124.767 457.466 125.459C458.973 126.152 460.951 124.76 461.884 122.352C462.816 119.943 462.349 117.429 460.842 116.737C459.335 116.044 457.357 117.435 456.424 119.844Z" fill="#6694EE"/>
<path d="M406.362 103.264C406.32 100.367 402.619 98.6174 400.366 100.158C394.056 104.474 389.649 115.158 387.858 121.242C385.619 128.844 384.162 139.869 385.093 139.887C407.213 140.317 417.483 136.301 421.564 134.723C425.645 133.145 425.909 134.006 425.909 134.006C425.909 134.006 424.328 128.412 423.012 128.412C421.696 128.412 403.394 127.265 403.394 127.265C403.394 127.265 404.579 125.113 405.764 114.356C406.288 109.596 406.4 105.902 406.362 103.264Z" fill="#FFCC5F"/>
<path d="M388.294 140.543C387.25 140.543 386.182 140.533 385.08 140.511C384.844 140.506 384.624 140.389 384.477 140.187C383.514 138.875 385.313 127.668 387.257 121.064C387.83 119.119 389.465 114.05 392.279 108.981C392.447 108.678 392.826 108.569 393.129 108.737C393.431 108.905 393.54 109.286 393.373 109.587C390.62 114.547 389.019 119.511 388.459 121.416C386.405 128.389 385.199 137.471 385.459 139.265C407.095 139.643 417.39 135.664 421.277 134.161L421.339 134.137C422.931 133.521 424.142 133.195 424.997 133.15C424.3 131.003 423.427 129.184 422.982 129.032C422.979 129.032 422.976 129.032 422.974 129.032C421.631 129.032 404.103 127.934 403.357 127.887C403.143 127.874 402.95 127.751 402.847 127.564C402.744 127.376 402.744 127.148 402.847 126.961C402.889 126.877 404.004 124.628 405.143 114.286C405.181 113.942 405.487 113.697 405.834 113.732C406.178 113.771 406.426 114.079 406.388 114.423C405.564 121.905 404.729 125.291 404.279 126.691C407.891 126.917 421.892 127.784 423.014 127.784C424.572 127.784 425.876 131.574 426.513 133.833C426.606 134.163 426.416 134.506 426.087 134.603C425.847 134.674 425.595 134.593 425.439 134.414C425.254 134.37 424.416 134.289 421.791 135.304L421.729 135.328C417.954 136.789 408.241 140.542 388.294 140.543ZM425.31 134.188V134.19C425.31 134.19 425.31 134.189 425.31 134.188Z" fill="#1A6FCE"/>
<path d="M394.238 107.542C394.122 107.542 394.005 107.51 393.901 107.443C393.61 107.256 393.526 106.869 393.712 106.578C395.636 103.584 397.675 101.306 399.773 99.8079C400.054 99.6072 400.446 99.6721 400.646 99.9541C400.847 100.235 400.782 100.626 400.5 100.827C398.532 102.232 396.601 104.394 394.765 107.254C394.646 107.44 394.444 107.542 394.238 107.542Z" fill="#1A6FCE"/>
<path d="M404.253 100.703C404.157 100.703 404.058 100.681 403.965 100.632C403.657 100.473 403.333 100.356 402.999 100.285C402.661 100.214 402.444 99.8828 402.515 99.5441C402.586 99.2065 402.918 98.9893 403.257 99.0603C403.702 99.153 404.134 99.3084 404.543 99.5215C404.849 99.6811 404.969 100.059 404.809 100.366C404.698 100.581 404.48 100.703 404.253 100.703Z" fill="#1A6FCE"/>
<path d="M389.965 129.467C389.801 129.467 389.638 129.404 389.515 129.277C389.275 129.029 389.281 128.633 389.529 128.392C391.331 126.647 395.881 126.075 403.441 126.64C403.786 126.665 404.044 126.966 404.018 127.311C403.993 127.656 403.687 127.914 403.348 127.888C394.527 127.229 391.438 128.287 390.399 129.291C390.279 129.409 390.121 129.467 389.965 129.467Z" fill="#1A6FCE"/>
<path d="M430.781 74.4843C425.515 86.9623 415.771 83.5201 415.771 83.5201C415.771 83.5201 417.614 92.5559 413.532 95.1375C409.451 97.7192 406.554 100.301 409.846 104.747C413.137 109.192 411.294 112.061 410.635 115.504C409.977 118.946 411.952 123.822 413.795 122.388C415.638 120.954 411.689 127.408 408.529 123.248C405.369 119.089 405.889 117.019 406.027 114.07C406.422 105.607 406.817 98.4366 401.55 97.1458C398.023 96.2812 402.472 90.2614 402.472 90.2614C402.472 90.2614 409.187 90.1183 409.976 82.5165C410.766 74.9146 415.902 69.4651 419.983 69.6082C424.066 69.7513 430.781 74.4843 430.781 74.4843Z" fill="#272372"/>
<path d="M414.719 87.2389C415.891 88.6471 417.456 89.1813 418.214 88.433C418.971 87.6846 418.634 85.9357 417.461 84.5286C416.288 83.1204 414.723 82.5861 413.965 83.3345C413.207 84.0828 413.545 85.8317 414.719 87.2389Z" fill="#6694EE"/>
<path d="M83.9088 294.834C83.8594 294.521 83.4486 230.128 83.4043 229.822C80.0561 206.785 89.2564 205.856 97.8502 204.322C106.558 202.767 105.314 206.498 109.357 196.237C113.4 185.976 119.308 172.918 124.906 181.934C130.504 190.951 119.619 204.632 129.882 207.12C140.145 209.607 147.297 213.027 141.7 220.49C136.102 227.952 131.126 241.011 149.474 243.809C167.823 246.608 170.932 258.112 165.023 268.062C159.115 278.012 152.584 281.432 168.445 282.365C184.305 283.298 183.062 295.113 183.062 295.113L83.9088 294.834Z" fill="#8EB4FB"/>
<path d="M183.063 296.753C183.005 296.753 182.947 296.75 182.889 296.744C181.987 296.649 181.333 295.841 181.429 294.941C181.431 294.913 181.74 291.287 179.167 288.29C176.978 285.738 173.337 284.296 168.348 284.003C161.17 283.581 158.26 282.676 157.226 280.544C156.116 278.252 157.843 275.778 160.234 272.354C161.277 270.861 162.459 269.168 163.613 267.225C166.319 262.67 166.838 258.11 165.075 254.385C162.895 249.777 157.415 246.681 149.227 245.432C142.031 244.335 137.489 241.591 135.725 237.275C132.966 230.525 138.066 222.6 140.387 219.506C141.804 217.617 142.299 216.038 141.858 214.811C140.639 211.416 132.251 209.383 129.495 208.715C122.36 206.985 123.372 200.719 124.266 195.19C124.97 190.831 125.699 186.323 123.511 182.799C122.845 181.726 121.848 180.469 120.809 180.558C118.393 180.776 115.053 186.253 110.882 196.838C107.968 204.235 107.52 205.372 103.024 205.479C101.827 205.508 100.338 205.543 98.1374 205.935L97.3992 206.066C89.139 207.522 82.004 208.779 85.0279 229.585C85.0577 229.795 85.0649 229.846 85.2873 261.127C85.3954 276.442 85.519 293.786 85.5468 294.729C85.6003 295.567 85.0073 296.321 84.162 296.453C83.2673 296.59 82.4272 295.979 82.2882 295.085C82.2522 294.858 82.2439 294.804 82.0061 261.15C81.9021 246.44 81.794 231.239 81.7672 229.966C80.2363 219.355 81.1485 212.452 84.6367 208.247C87.8088 204.423 92.3945 203.615 96.8299 202.834L97.5608 202.704C100.009 202.267 101.707 202.227 102.947 202.198C104.599 202.159 104.749 202.106 105.043 201.763C105.7 200.995 106.529 198.934 107.829 195.635C112.047 184.929 115.818 177.713 120.513 177.289C122.685 177.093 124.621 178.366 126.3 181.068C129.135 185.633 128.269 190.988 127.506 195.712C126.474 202.097 126.444 204.597 130.268 205.524C136.629 207.065 143.346 209.242 144.947 213.7C145.784 216.03 145.132 218.645 143.011 221.473C141.463 223.538 136.578 230.69 138.762 236.031C140.058 239.204 143.746 241.275 149.721 242.186C161.492 243.981 166.181 249.045 168.041 252.979C170.285 257.721 169.714 263.374 166.434 268.898C165.218 270.945 163.999 272.691 162.924 274.231C161.723 275.951 159.907 278.55 160.179 279.111C160.273 279.305 161.115 280.289 168.54 280.725C174.485 281.075 178.913 282.918 181.702 286.203C185.173 290.293 184.714 295.081 184.692 295.282C184.603 296.128 183.891 296.753 183.063 296.753Z" fill="#C0DDFD"/>
<path d="M84.9207 294.328C84.758 293.962 62.6923 254.277 62.5275 253.922C51.3649 229.81 35.9214 229.588 33.1632 235.103C30.3638 240.7 35.9626 254.381 22.9004 253.449C9.83928 252.516 0.820248 263.709 12.6377 271.171C24.4551 278.633 34.096 281.121 28.4982 286.718C22.9004 292.314 24.1441 295.424 24.1441 295.424L84.9207 294.328Z" fill="#8EB4FB"/>
<path d="M22.6205 296.033C22.3456 295.346 21.281 291.613 27.3369 285.557C27.9094 284.985 28.5724 284.166 28.4808 283.52C28.2532 281.908 24.2379 279.687 19.9868 277.337C17.5148 275.971 14.7134 274.422 11.7606 272.558C6.61992 269.311 4.49283 264.948 5.92702 260.584C7.78539 254.927 14.9677 251.239 23.0168 251.812C25.5836 251.996 27.3781 251.585 28.5065 250.557C30.3752 248.858 30.4555 245.349 30.5327 241.956C30.5976 239.12 30.6583 236.441 31.6941 234.37C32.9244 231.91 35.799 230.47 39.3222 230.527C42.6703 230.577 54.3415 232.362 63.9999 253.199C64.3489 253.85 69.3907 262.936 74.2709 271.724C84.8878 290.851 86.3272 293.454 86.4198 293.661C86.7884 294.489 86.4147 295.458 85.5859 295.827C84.7787 296.185 83.8356 295.839 83.4485 295.054C83.1118 294.413 76.8922 283.208 71.4015 273.317C62.3495 257.009 61.1212 254.789 61.0389 254.611C54.0007 239.408 45.1814 233.896 39.2738 233.808C37.0314 233.773 35.2739 234.552 34.6304 235.836C33.9241 237.25 33.8706 239.572 33.814 242.03C33.7244 245.924 33.6235 250.337 30.715 252.983C28.8864 254.646 26.294 255.333 22.7821 255.084C15.4258 254.557 10.2121 258.052 9.04456 261.607C8.10456 264.466 9.69216 267.37 13.5119 269.782C16.3833 271.596 19.1415 273.12 21.5744 274.464C27.4162 277.694 31.274 279.826 31.7301 283.06C31.9587 284.677 31.2802 286.252 29.6566 287.875C25.0997 292.431 25.6896 294.873 25.6968 294.896C25.6814 294.839 25.667 294.811 25.667 294.811L22.6205 296.033Z" fill="#C0DDFD"/>
<path d="M91.9404 294.328C91.9713 293.974 92.0146 253.061 92.0702 252.726C94.849 236.009 128.272 243.134 125.527 255.936C122.728 268.994 121.173 274.592 130.192 278.323C139.211 282.053 124.594 295.734 124.594 295.734L91.9404 294.328Z" fill="#8EB4FB"/>
<path d="M124.595 297.375C124.157 297.375 123.719 297.201 123.397 296.857C122.777 296.196 122.811 295.157 123.472 294.537C126.873 291.35 132.045 285.067 131.444 281.777C131.346 281.238 131.044 280.45 129.564 279.838C119.591 275.712 121.029 269.034 123.638 256.911L123.922 255.591C124.394 253.392 123.519 251.302 121.323 249.378C116.345 245.02 106.698 243.283 100.258 245.586C96.5264 246.92 94.3221 249.379 93.7054 252.896C93.6766 254.19 93.6488 267.503 93.6271 278.25C93.5973 292.87 93.5911 294.286 93.5757 294.466C93.4984 295.369 92.7046 296.039 91.8007 295.961C90.9194 295.886 90.2605 295.126 90.3016 294.25C90.314 293.722 90.3294 286.202 90.3459 278.242C90.3974 252.78 90.4108 252.705 90.4519 252.455C91.2437 247.692 94.2531 244.248 99.1539 242.496C106.707 239.795 117.621 241.774 123.486 246.909C126.556 249.597 127.851 252.924 127.132 256.278L126.848 257.601C124.096 270.382 123.672 273.847 130.82 276.804C133.552 277.935 134.424 279.812 134.674 281.19C135.786 287.299 126.75 295.963 125.717 296.931C125.4 297.229 124.997 297.375 124.595 297.375Z" fill="#C0DDFD"/>
<path d="M114.642 296.047C127.704 269.307 112.777 252.517 100.337 251.895C87.8973 251.274 86.6526 252.517 87.2754 236.349C87.8973 220.181 86.0317 214.584 72.3477 215.827C58.6647 217.071 63.6396 215.206 51.8222 202.146C40.0048 189.088 36.8945 213.34 46.8463 224.533C56.7981 235.726 48.7119 242.566 49.3337 251.273C49.9556 259.979 61.773 259.979 67.9936 268.684C74.2133 277.391 64.5909 283.558 65.5052 290.449C66.0704 294.708 64.8576 297.353 67.9679 296.732C71.0782 296.11 114.642 296.047 114.642 296.047Z" fill="#4C7DDB"/>
<path d="M99.0919 297.046C98.5771 297.046 98.1396 296.651 98.0953 296.129C98.0891 296.056 97.4353 288.691 93.8092 279.627C93.5539 278.989 93.2862 278.297 92.9979 277.551C89.172 267.657 81.2124 247.069 44.2519 207.806C43.873 207.404 43.8915 206.77 44.2941 206.391C44.6977 206.013 45.3309 206.031 45.7097 206.434C82.939 245.982 90.9944 266.817 94.8655 276.829C95.1518 277.569 95.4153 278.252 95.6686 278.884C99.4132 288.243 100.065 295.651 100.091 295.962C100.137 296.513 99.7272 296.997 99.1763 297.043C99.1486 297.045 99.1197 297.046 99.0919 297.046Z" fill="white"/>
<path d="M653.582 294.836C653.63 294.523 654.042 230.13 654.086 229.824C657.435 206.787 648.234 205.857 639.64 204.324C630.932 202.769 632.177 206.5 628.134 196.239C624.091 185.978 618.182 172.92 612.584 181.936C606.987 190.953 617.871 204.634 607.609 207.122C597.346 209.609 590.193 213.029 595.791 220.492C601.389 227.954 606.365 241.013 588.017 243.811C569.669 246.61 566.558 258.114 572.467 268.064C578.376 278.014 584.906 281.434 569.046 282.367C553.185 283.3 554.429 295.115 554.429 295.115L653.582 294.836Z" fill="#8EB4FB"/>
<path d="M554.428 296.755C553.599 296.755 552.887 296.129 552.798 295.286C552.778 295.084 552.319 290.296 555.788 286.207C558.577 282.921 563.006 281.077 568.95 280.729C576.374 280.292 577.218 279.307 577.311 279.114C577.583 278.553 575.768 275.954 574.567 274.234C573.492 272.694 572.273 270.948 571.057 268.901C567.777 263.377 567.206 257.724 569.45 252.982C571.31 249.049 575.999 243.984 587.77 242.189C593.744 241.278 597.431 239.207 598.729 236.034C600.912 230.693 596.028 223.54 594.479 221.476C592.359 218.648 591.707 216.034 592.544 213.703C594.145 209.245 600.862 207.069 607.222 205.527C611.046 204.601 611.016 202.1 609.985 195.715C609.221 190.991 608.356 185.637 611.19 181.071C612.869 178.368 614.823 177.099 616.977 177.293C621.671 177.717 625.443 184.934 629.661 195.638C630.96 198.936 631.791 200.997 632.447 201.767C632.74 202.111 632.892 202.162 634.543 202.201C635.783 202.231 637.48 202.271 639.929 202.708L640.66 202.837C645.094 203.619 649.68 204.427 652.853 208.251C656.341 212.457 657.253 219.359 655.722 229.969C655.696 231.243 655.588 246.443 655.484 261.153C655.246 294.807 655.238 294.862 655.201 295.088C655.061 295.984 654.222 296.594 653.328 296.456C652.481 296.324 651.888 295.569 651.943 294.732C651.972 293.789 652.094 276.445 652.202 261.13C652.424 229.849 652.431 229.799 652.462 229.588C655.486 208.781 648.351 207.524 640.09 206.069L639.351 205.938C637.151 205.545 635.661 205.51 634.465 205.482C629.969 205.375 629.521 204.238 626.606 196.84C622.435 186.255 619.096 180.778 616.68 180.56C615.655 180.469 614.645 181.728 613.977 182.802C611.79 186.325 612.519 190.833 613.223 195.192C614.116 200.721 615.13 206.987 607.994 208.716C605.237 209.384 596.85 211.417 595.631 214.812C595.19 216.038 595.685 217.618 597.102 219.507C599.422 222.601 604.523 230.526 601.764 237.276C600 241.591 595.458 244.335 588.262 245.433C580.074 246.681 574.593 249.778 572.414 254.385C570.651 258.11 571.17 262.67 573.876 267.225C575.03 269.169 576.212 270.861 577.255 272.355C579.645 275.778 581.373 278.252 580.262 280.544C579.228 282.676 576.319 283.581 569.141 284.003C564.126 284.298 560.474 285.754 558.289 288.328C555.716 291.36 556.056 294.906 556.06 294.941C556.155 295.842 555.501 296.65 554.6 296.744C554.543 296.752 554.485 296.755 554.428 296.755Z" fill="#C0DDFD"/>
<path d="M652.57 294.33C652.733 293.964 674.799 254.279 674.963 253.924C686.126 229.812 701.57 229.59 704.328 235.105C707.127 240.702 701.528 254.383 714.591 253.451C727.653 252.518 736.671 263.711 724.853 271.173C713.036 278.635 703.395 281.123 708.993 286.72C714.591 292.316 713.347 295.426 713.347 295.426L652.57 294.33Z" fill="#8EB4FB"/>
<path d="M714.87 296.035L711.824 294.816C711.824 294.816 711.809 294.844 711.794 294.901C711.8 294.878 712.39 292.436 707.833 287.88C706.21 286.257 705.531 284.682 705.76 283.065C706.216 279.831 710.075 277.699 715.915 274.469C718.348 273.124 721.107 271.6 723.978 269.787C727.799 267.374 729.385 264.471 728.446 261.612C727.279 258.057 722.069 254.559 714.709 255.089C711.198 255.338 708.606 254.652 706.776 252.988C703.867 250.342 703.767 245.928 703.677 242.035C703.62 239.576 703.568 237.255 702.861 235.841C702.217 234.557 700.455 233.782 698.217 233.813C692.311 233.901 683.491 239.413 676.453 254.616C676.37 254.794 675.143 257.012 666.102 273.3C660.604 283.204 654.376 294.423 654.041 295.06C653.653 295.845 652.711 296.191 651.902 295.831C651.074 295.462 650.702 294.493 651.071 293.664C651.163 293.458 652.604 290.852 663.231 271.707C668.105 262.928 673.142 253.854 673.49 253.203C683.147 232.367 694.819 230.581 698.167 230.531C701.726 230.473 704.565 231.914 705.795 234.374C706.831 236.444 706.891 239.123 706.956 241.96C707.034 245.353 707.115 248.862 708.982 250.561C710.112 251.589 711.907 251.999 714.472 251.816C722.52 251.243 729.703 254.931 731.562 260.588C732.995 264.952 730.869 269.316 725.728 272.562C722.775 274.426 719.974 275.975 717.501 277.342C713.25 279.692 709.235 281.912 709.007 283.525C708.915 284.171 709.579 284.99 710.151 285.562C716.209 291.615 715.145 295.348 714.87 296.035Z" fill="#C0DDFD"/>
<path d="M645.551 294.33C645.52 293.976 645.477 253.063 645.421 252.728C642.642 236.011 609.22 243.136 611.964 255.938C614.764 268.996 616.318 274.594 607.299 278.325C598.28 282.056 612.897 295.736 612.897 295.736L645.551 294.33Z" fill="#8EB4FB"/>
<path d="M612.897 297.376C612.495 297.376 612.092 297.23 611.776 296.933C610.742 295.966 601.705 287.302 602.817 281.192C603.068 279.816 603.939 277.939 606.671 276.808C613.819 273.851 613.394 270.386 610.643 257.606L610.359 256.282C609.64 252.928 610.935 249.6 614.006 246.912C619.869 241.778 630.785 239.799 638.337 242.5C643.239 244.252 646.248 247.696 647.039 252.459C647.081 252.708 647.093 252.783 647.145 278.125C647.162 286.145 647.177 293.723 647.19 294.253C647.231 295.128 646.574 295.888 645.693 295.964C644.795 296.043 643.994 295.374 643.916 294.471C643.9 294.29 643.894 292.862 643.864 278.131C643.843 267.437 643.815 254.189 643.786 252.898C643.169 249.381 640.964 246.922 637.233 245.588C630.792 243.284 621.145 245.022 616.168 249.38C613.972 251.303 613.096 253.393 613.568 255.593L613.852 256.914C616.462 269.036 617.899 275.713 607.926 279.839C606.446 280.451 606.145 281.239 606.047 281.778C605.447 285.068 610.618 291.35 614.019 294.538C614.68 295.158 614.714 296.196 614.094 296.857C613.771 297.202 613.334 297.376 612.897 297.376Z" fill="#C0DDFD"/>
<path d="M622.848 296.047C609.786 269.308 624.714 252.518 637.154 251.896C649.593 251.274 650.837 252.518 650.215 236.349C649.593 220.181 651.459 214.584 665.143 215.828C678.827 217.071 673.851 215.206 685.668 202.147C697.486 189.087 700.596 213.34 690.644 224.533C680.692 235.727 688.779 242.567 688.157 251.273C687.535 259.979 675.717 259.979 669.497 268.685C663.277 277.391 672.9 283.558 671.985 290.45C671.42 294.708 672.633 297.354 669.523 296.732C666.412 296.11 622.848 296.047 622.848 296.047Z" fill="#4C7DDB"/>
<path d="M638.399 297.048C638.371 297.048 638.343 297.047 638.314 297.045C637.763 296.999 637.354 296.515 637.4 295.964C637.426 295.653 638.077 288.245 641.822 278.886C642.075 278.254 642.339 277.57 642.625 276.831C646.496 266.819 654.552 245.984 691.782 206.436C692.161 206.033 692.794 206.015 693.198 206.393C693.6 206.772 693.62 207.406 693.24 207.808C656.279 247.071 648.319 267.66 644.494 277.553C644.206 278.299 643.938 278.99 643.682 279.629C640.048 288.713 639.403 296.058 639.396 296.131C639.352 296.653 638.914 297.048 638.399 297.048Z" fill="white"/>
<path d="M724.49 297.999H2.54206C1.13773 297.999 -0.000976562 296.861 -0.000976562 295.457C-0.000976562 294.053 1.13773 292.914 2.54206 292.914H724.49C725.894 292.914 727.033 294.053 727.033 295.457C727.033 296.861 725.895 297.999 724.49 297.999Z" fill="#6694EE"/>
<path d="M212.637 133.807C204.23 146.216 190.35 164.496 191.284 165.43C192.218 166.363 193.953 167.164 194.888 166.898C195.821 166.631 221.179 150.219 221.179 150.219L212.637 133.807Z" fill="#FFA014"/>
<path d="M225.984 99.6457C212.906 111.995 212.027 119.355 211.303 132.737C210.579 146.118 218.931 170.071 221.785 170.944C224.639 171.817 243.325 167.048 247.01 166.427C243.271 152.532 250.266 135.739 247.605 118.327C246.667 112.188 247.122 109.757 244.802 105.918C241.933 101.169 237.996 98.045 231.981 96.3806C230.081 95.8556 228.013 97.729 225.984 99.6457Z" fill="#FFCC5F"/>
<path d="M245.869 159.826C250.139 176.549 248.715 186.691 244.623 187.936C240.53 189.182 187.135 190.734 187.859 192.206C193.019 202.702 197.824 260.167 197.289 260.167C196.755 260.167 195.154 262.124 193.197 259.989C191.24 257.854 159.874 188.836 164.192 178.684C170.776 163.206 245.869 159.826 245.869 159.826Z" fill="#0B257A"/>
<path d="M155.473 263.279C152.804 268.35 139.458 276.978 142.927 277.512C146.397 278.046 155.205 273.776 157.696 273.509C160.188 273.243 161.789 271.286 160.543 269.328C159.297 267.371 159.119 263.902 159.119 263.902L155.473 263.279Z" fill="#000E44"/>
<path d="M193.375 259.01C192.664 264.259 187.502 275.733 188.66 275.822C189.817 275.912 194.799 273.599 196.045 269.684C197.29 265.771 199.692 265.771 199.871 263.813C200.049 261.856 196.311 259.187 196.311 259.187L193.375 259.01Z" fill="#000E44"/>
<path d="M245.869 159.824C250.139 176.547 251.385 184.198 246.58 188.289C243.324 191.063 195.03 203.671 194.086 205.012C181.453 222.981 159.743 265.857 159.21 265.857C158.675 265.857 157.074 267.814 155.117 265.679C153.16 263.544 169.483 201.642 173.802 191.491C176.911 184.18 193.287 168.694 209.569 162.848C224.515 158.401 245.869 159.824 245.869 159.824Z" fill="#5353A5"/>
<path d="M195.58 166.444L160.082 169.762L190.809 178.202C191.351 178.351 191.919 178.382 192.475 178.294L223.57 173.336C224.243 173.229 224.391 171.056 223.725 170.916L196.859 166.517C196.438 166.429 196.007 166.404 195.58 166.444Z" fill="#1A6FCE"/>
<path d="M195.447 165.028L159.949 168.346L190.676 176.786C191.218 176.935 191.787 176.966 192.343 176.877L223.438 171.92C224.11 171.813 224.134 170.855 223.468 170.715L196.728 165.102C196.306 165.013 195.875 164.988 195.447 165.028Z" fill="#145EB3"/>
<path d="M215.107 165.361C213.238 166.563 208.101 163.761 203.763 167.096C200.343 169.726 199.626 170.965 201.361 171.099C203.096 171.233 205.431 169.965 209.502 171.032C213.573 172.1 216.575 170.766 217.976 168.83C219.378 166.896 215.107 165.361 215.107 165.361Z" fill="#6694EE"/>
<path d="M191.85 165.211C189.003 165.061 184.292 173.448 185.687 173.301C187.082 173.154 185.72 171.192 188.441 171.298C191.162 171.404 193.634 171.21 194.857 169.943C196.081 168.675 193.822 166.045 193.822 166.045L191.85 165.211Z" fill="#6694EE"/>
<path d="M163.788 169.871L191.816 178.244C192.368 178.391 194.154 177.211 193.82 176.749L178.497 155.631C177.511 154.274 176.087 153.296 174.466 152.865L145.082 145.044C144.53 144.897 142.543 145.736 142.878 146.198L159.757 167.105C160.743 168.463 162.167 169.439 163.788 169.871Z" fill="white"/>
<path d="M190.676 176.785C191.218 176.934 191.787 176.965 192.343 176.876L222.957 171.996L223.599 172.131C224.266 172.271 224.242 173.229 223.57 173.336L192.474 178.294C191.918 178.382 191.35 178.351 190.808 178.202L190.676 176.785Z" fill="#1A6FCE"/>
<path d="M162.235 170.463L191.619 178.283C192.171 178.431 192.601 177.803 192.267 177.342L176.944 156.224C175.958 154.866 174.534 153.888 172.913 153.457L143.529 145.637C142.977 145.49 142.547 146.118 142.881 146.579L158.204 167.696C159.19 169.055 160.613 170.032 162.235 170.463Z" fill="#1A6FCE"/>
<path d="M241.197 101.514C256.922 115.068 262.017 143.679 262.417 152.085C262.605 156.048 222.779 167.696 219.176 167.562C217.036 167.483 215.038 166.745 213.767 166.159C213.154 165.876 213.118 165.02 213.712 164.696C219.539 161.514 242.401 148.996 243.333 147.948C240.931 143.011 236.526 137.407 234.391 127.933C231.819 116.523 237.327 98.179 241.197 101.514Z" fill="#FFCC5F"/>
<path d="M233.747 120.822C233.741 120.822 233.736 120.822 233.73 120.822C233.384 120.813 233.112 120.524 233.121 120.18C233.188 117.779 233.465 115.209 233.924 112.745C233.987 112.407 234.312 112.181 234.653 112.245C234.993 112.308 235.218 112.635 235.154 112.975C234.707 115.374 234.436 117.879 234.372 120.215C234.363 120.553 234.085 120.822 233.747 120.822Z" fill="#1A6FCE"/>
<path d="M219.235 168.192C219.207 168.192 219.179 168.192 219.154 168.19C216.923 168.107 214.852 167.351 213.506 166.73C213.004 166.498 212.681 166.012 212.662 165.462C212.643 164.915 212.932 164.412 213.413 164.149C229.328 155.458 240.434 149.212 242.546 147.773C241.961 146.618 241.268 145.409 240.537 144.135C238.234 140.122 235.37 135.127 233.781 128.073C233.438 126.55 233.222 124.852 233.141 123.027C233.126 122.682 233.393 122.39 233.738 122.374C234.109 122.365 234.376 122.627 234.391 122.973C234.468 124.723 234.674 126.348 235.001 127.798C236.549 134.668 239.362 139.572 241.622 143.512C242.459 144.971 243.248 146.348 243.895 147.676C244.006 147.904 243.968 148.177 243.8 148.366C242.877 149.405 224.74 159.388 214.012 165.248C213.926 165.294 213.91 165.367 213.912 165.419C213.913 165.465 213.93 165.548 214.029 165.593C215.27 166.166 217.175 166.865 219.199 166.94C219.216 166.941 219.234 166.941 219.252 166.941C221.001 166.941 231.358 164.244 241.87 160.817C257.537 155.71 261.752 152.892 261.791 152.114C261.455 145.063 256.908 115.883 240.788 101.99C240.526 101.764 240.496 101.369 240.723 101.108C240.948 100.846 241.344 100.816 241.605 101.043C258.063 115.228 262.7 144.891 263.042 152.057C263.063 152.506 262.846 152.954 262.378 153.427C257.756 158.097 223.398 168.19 219.235 168.192Z" fill="#1A6FCE"/>
<path d="M216.656 161.603C216.398 161.603 216.157 161.442 216.066 161.185C213.295 153.329 210.221 141.157 210.678 132.705C211.407 119.226 212.4 111.614 225.554 99.1925C227.564 97.2943 229.841 95.1388 232.147 95.7791C234.619 96.4626 236.739 97.3787 238.627 98.578C238.918 98.7632 239.005 99.1503 238.82 99.4416C238.634 99.7339 238.247 99.8194 237.956 99.6341C236.174 98.5018 234.164 97.635 231.814 96.9845C230.194 96.5377 228.098 98.5131 226.414 100.101C213.581 112.22 212.66 119.255 211.929 132.771C211.481 141.04 214.514 153.021 217.247 160.769C217.362 161.094 217.19 161.453 216.865 161.567C216.795 161.592 216.725 161.603 216.656 161.603Z" fill="#1A6FCE"/>
<path d="M226.331 80.6387C229.744 87.2915 232.076 93.6674 233.286 97.3041C233.916 99.1909 233.37 101.265 231.897 102.601C230.541 103.83 228.75 105.14 227.263 106.164C225.932 107.08 224.1 106.345 223.773 104.762L220.021 86.5719L226.331 80.6387Z" fill="#6694EE"/>
<path d="M229.608 87.6344C227.812 94.4168 225.526 99.5801 223.388 103.363C222.064 97.0325 220.021 86.57 220.021 86.57L226.331 80.6367C227.566 83.0454 228.658 85.4161 229.608 87.6344Z" fill="#1A6FCE"/>
<path d="M219.191 94.9933C224.134 94.1609 227.307 88.5375 226.279 82.4332C225.25 76.3288 220.41 72.055 215.467 72.8874C210.524 73.7197 207.351 79.3431 208.38 85.4475C209.408 91.5519 214.249 95.8257 219.191 94.9933Z" fill="#6694EE"/>
<path d="M205.93 143.418C207.533 147.874 209.319 152.261 211.507 156.454C204.234 161.126 195.43 166.742 194.888 166.898C193.954 167.164 192.219 166.364 191.284 165.43C190.574 164.72 198.428 153.98 205.93 143.418Z" fill="#FFA014"/>
<path d="M229.231 86.7043C235.103 71.4933 229.053 65.978 223.27 64.1992C217.487 62.4205 205.03 73.5397 201.116 71.938C197.201 70.3363 195.866 77.4534 200.583 81.9012C205.298 86.3491 212.683 87.5947 218.733 81.9012C225.206 75.8105 223.36 79.8549 224.694 82.9687C226.028 86.0815 229.231 86.7043 229.231 86.7043Z" fill="#272372"/>
<path d="M225.253 82.4702C224.74 83.8249 225.068 85.2063 225.987 85.5542C226.905 85.9032 228.067 85.0869 228.581 83.7312C229.095 82.3766 228.766 80.9952 227.848 80.6462C226.93 80.2993 225.767 81.1156 225.253 82.4702Z" fill="#6694EE"/>
<path d="M602.023 71.9856L590.734 65.9349L579.349 71.8023L581.616 59.1988L572.517 50.1867L585.206 48.4471L590.968 37.0098L596.544 48.5387L609.203 50.4821L599.96 59.347L602.023 71.9856Z" fill="#FFDE96"/>
<path d="M590.86 26.3179C590.257 26.3179 589.764 25.8248 589.764 25.2216V8.88143C589.764 8.27822 590.257 7.78516 590.86 7.78516C591.463 7.78516 591.957 8.27822 591.957 8.88143V25.2226C591.957 25.8248 591.463 26.3179 590.86 26.3179Z" fill="#FFCC5F"/>
<path d="M590.86 101.446C590.257 101.446 589.764 100.953 589.764 100.35V84.0084C589.764 83.4052 590.257 82.9121 590.86 82.9121C591.463 82.9121 591.957 83.4052 591.957 84.0084V100.35C591.957 100.953 591.463 101.446 590.86 101.446Z" fill="#FFCC5F"/>
<path d="M619.164 54.6158C619.164 54.0126 619.657 53.5195 620.261 53.5195H636.605C637.208 53.5195 637.701 54.0126 637.701 54.6158C637.701 55.219 637.208 55.7121 636.605 55.7121H620.261C619.657 55.7121 619.164 55.219 619.164 54.6158Z" fill="#FFCC5F"/>
<path d="M544.021 54.6158C544.021 54.0126 544.514 53.5195 545.117 53.5195H561.461C562.065 53.5195 562.558 54.0126 562.558 54.6158C562.558 55.219 562.065 55.7121 561.461 55.7121H545.117C544.514 55.7121 544.021 55.219 544.021 54.6158Z" fill="#FFCC5F"/>
<path d="M610.873 74.6243C611.3 74.1981 611.998 74.1981 612.424 74.6243L623.981 86.1789C624.407 86.6051 624.407 87.303 623.981 87.7292C623.555 88.1553 622.857 88.1553 622.43 87.7292L610.873 76.1745C610.447 75.7473 610.447 75.0505 610.873 74.6243Z" fill="#FFCC5F"/>
<path d="M557.74 21.5013C558.166 21.0751 558.864 21.0751 559.29 21.5013L570.847 33.0559C571.273 33.482 571.273 34.18 570.847 34.6061C570.421 35.0323 569.723 35.0323 569.297 34.6061L557.74 23.0515C557.313 22.6253 557.313 21.9274 557.74 21.5013Z" fill="#FFCC5F"/>
<path d="M610.873 34.6061C610.447 34.18 610.447 33.482 610.873 33.0559L622.43 21.5013C622.857 21.0751 623.555 21.0751 623.981 21.5013C624.407 21.9274 624.407 22.6253 623.981 23.0515L612.424 34.6061C611.998 35.0323 611.3 35.0323 610.873 34.6061Z" fill="#FFCC5F"/>
<path d="M557.74 87.7292C557.313 87.303 557.313 86.6051 557.74 86.1789L569.297 74.6243C569.723 74.1981 570.421 74.1981 570.847 74.6243C571.273 75.0505 571.273 75.7484 570.847 76.1745L559.29 87.7292C558.864 88.1553 558.166 88.1553 557.74 87.7292Z" fill="#FFCC5F"/>
<path d="M678.533 48.4827C677.344 48.5444 676.191 48.7318 675.086 49.0272C671.165 38.6811 660.907 31.5774 649.264 32.1868C640.95 32.6212 633.754 36.8972 629.286 43.1989C626.239 41.6281 622.751 40.8149 619.079 41.0074C608.462 41.5622 600.214 50.2872 600.099 60.7692C599.187 60.5674 598.233 60.481 597.255 60.5324C591.425 60.8371 586.945 65.811 587.25 71.6403C587.555 77.4696 592.529 81.9484 598.36 81.6437C602.146 81.4461 675.695 82.0565 680.277 81.8177C689.483 81.3359 696.556 73.4839 696.076 64.2793C695.593 55.0727 687.739 48.0009 678.533 48.4827Z" fill="white"/>
<path d="M672.709 82.68C664.237 82.68 650.082 82.609 636.246 82.5379C617.699 82.4443 600.181 82.3547 598.402 82.4484C592.126 82.7747 586.771 77.9449 586.443 71.6802C586.116 65.4155 590.947 60.0514 597.214 59.7241C597.918 59.6881 598.624 59.7169 599.323 59.8106C599.917 49.2863 608.403 40.7549 619.037 40.1991C622.482 40.019 625.925 40.7004 629.033 42.1724C633.85 35.7234 641.169 31.8005 649.22 31.3795C660.737 30.7763 671.236 37.461 675.577 48.0748C676.536 47.8607 677.513 47.7268 678.49 47.6754C688.122 47.1679 696.377 54.5999 696.881 64.2348C697.386 73.8697 689.955 82.118 680.319 82.6223C679.532 82.6635 676.775 82.68 672.709 82.68ZM603.931 80.7952C610.907 80.7952 623.331 80.858 636.254 80.9239C656.707 81.0268 677.856 81.1339 680.233 81.0104C688.98 80.5523 695.724 73.0657 695.267 64.3202C694.809 55.5747 687.334 48.8344 678.574 49.2894C677.47 49.3471 676.365 49.521 675.292 49.8082L674.587 49.9966L674.329 49.3141C670.41 38.9741 660.339 32.4099 649.305 32.9935C641.519 33.4001 634.463 37.2911 629.944 43.666L629.538 44.2383L628.915 43.9172C625.902 42.3638 622.514 41.6371 619.121 41.8142C609.019 42.3422 601.018 50.6729 600.907 60.7792L600.896 61.7736L599.925 61.5584C599.061 61.367 598.18 61.2929 597.298 61.3392C591.922 61.6202 587.776 66.2225 588.057 71.5978C588.338 76.9732 592.932 81.1184 598.317 80.8374C598.872 80.8065 600.882 80.7952 603.931 80.7952Z" fill="#1A6FCE"/>
<path d="M103.367 79.1728C102.145 79.2304 100.96 79.4034 99.8232 79.6772C95.7924 70.0979 85.2465 63.5213 73.2778 64.0843C64.7313 64.4868 57.3318 68.4458 52.7409 74.2802C49.6079 72.8257 46.0219 72.0733 42.2486 72.2503C31.3341 72.764 22.8556 80.8424 22.7372 90.5473C21.7992 90.3599 20.8191 90.2807 19.8132 90.328C13.819 90.6101 9.21378 95.2144 9.52677 100.612C9.84079 106.01 14.9536 110.157 20.9478 109.875C24.8396 109.691 100.45 110.257 105.159 110.035C114.624 109.59 121.895 102.319 121.401 93.797C120.906 85.2749 112.832 78.7271 103.367 79.1728Z" fill="white"/>
<path d="M97.3679 111.233C88.6505 111.233 74.1037 111.167 59.8823 111.102C40.8249 111.016 22.826 110.934 21.0006 111.019C14.4041 111.336 8.73222 106.692 8.38216 100.68C8.22361 97.951 9.18317 95.2859 11.0827 93.1757C13.2222 90.7989 16.384 89.3444 19.7568 89.1859C20.3869 89.1561 21.0222 89.1715 21.6523 89.2333C22.4842 79.4728 31.2479 71.6239 42.1922 71.1082C45.7123 70.9414 49.218 71.5549 52.4025 72.8818C57.4124 66.9403 64.9478 63.3303 73.2224 62.9412C85.0759 62.3833 95.9018 68.5482 100.491 78.3632C101.421 78.1861 102.366 78.0749 103.313 78.0296C113.379 77.5531 122.013 84.5991 122.543 93.7316C122.783 97.8614 121.328 101.899 118.447 105.098C115.186 108.72 110.362 110.937 105.212 111.179C104.403 111.217 101.559 111.233 97.3679 111.233ZM26.6797 108.693C33.8548 108.693 46.6173 108.752 59.8926 108.812C80.9216 108.908 102.668 109.006 105.106 108.892C109.649 108.678 113.891 106.737 116.746 103.565C119.215 100.824 120.462 97.3776 120.257 93.8623C119.799 85.9764 112.257 79.898 103.421 80.3148C102.3 80.3673 101.179 80.5269 100.09 80.7883L99.1439 81.0158L98.7671 80.1193C94.796 70.682 84.5734 64.6952 73.3305 65.2264C65.4039 65.6001 58.2267 69.1576 53.639 74.9869L53.0789 75.6981L52.2573 75.3173C49.1954 73.8957 45.7566 73.2307 42.3003 73.3924C32.0829 73.8741 23.9915 81.4152 23.8793 90.5601L23.8628 91.9384L22.511 91.6687C21.6399 91.4948 20.7494 91.4279 19.865 91.4701C17.0985 91.5998 14.5184 92.7794 12.7846 94.7054C11.2969 96.3575 10.5453 98.4317 10.6678 100.545C10.9437 105.311 15.5274 108.982 20.8925 108.73C21.467 108.705 23.5385 108.693 26.6797 108.693Z" fill="#1A6FCE"/>
<path d="M89.5969 87.4781C89.3653 87.4781 89.1306 87.407 88.9277 87.2609C88.415 86.8913 88.2997 86.1749 88.6703 85.6633C91.1948 82.1686 95.029 79.659 99.4633 78.5946C100.077 78.4464 100.696 78.8252 100.844 79.4408C100.991 80.0553 100.612 80.6729 99.9977 80.8201C96.0946 81.7568 92.731 83.9514 90.5266 87.0025C90.3022 87.3134 89.9521 87.4781 89.5969 87.4781Z" fill="#1A6FCE"/>
<path d="M87.6298 91.1936C87.5011 91.1936 87.3703 91.172 87.2426 91.1257C86.6475 90.9126 86.3387 90.2569 86.5518 89.6619C86.7865 89.0093 87.0686 88.3629 87.3909 87.7401C87.6812 87.1791 88.3721 86.9588 88.9342 87.2491C89.4964 87.5394 89.7157 88.2301 89.4253 88.7911C89.1494 89.3243 88.9075 89.8781 88.7077 90.436C88.5389 90.9023 88.0982 91.1936 87.6298 91.1936Z" fill="#1A6FCE"/>
<path d="M167.796 44.0252L160.054 39.8769L152.247 43.9007L153.802 35.2571L147.562 29.0768L156.263 27.8838L160.215 20.041L164.038 27.9465L172.72 29.2796L166.381 35.359L167.796 44.0252Z" fill="#FFCC5F"/>
<path d="M160.141 12.7086C159.727 12.7086 159.39 12.3699 159.39 11.9571V0.751441C159.39 0.337635 159.728 0 160.141 0C160.554 0 160.893 0.338665 160.893 0.751441V11.9571C160.893 12.3709 160.555 12.7086 160.141 12.7086Z" fill="#FFCC5F"/>
<path d="M160.141 64.2281C159.727 64.2281 159.39 63.8894 159.39 63.4766V52.271C159.39 51.8572 159.728 51.5195 160.141 51.5195C160.554 51.5195 160.893 51.8582 160.893 52.271V63.4766C160.893 63.8904 160.555 64.2281 160.141 64.2281Z" fill="#FFCC5F"/>
<path d="M179.551 32.1147C179.551 31.7009 179.888 31.3633 180.302 31.3633H191.51C191.924 31.3633 192.262 31.7009 192.262 32.1147C192.262 32.5285 191.923 32.8662 191.51 32.8662H180.302C179.888 32.8662 179.551 32.5285 179.551 32.1147Z" fill="#FFCC5F"/>
<path d="M128.021 32.1147C128.021 31.7009 128.359 31.3633 128.772 31.3633H139.98C140.394 31.3633 140.732 31.7009 140.732 32.1147C140.732 32.5285 140.393 32.8662 139.98 32.8662H128.772C128.358 32.8662 128.021 32.5285 128.021 32.1147Z" fill="#FFCC5F"/>
<path d="M173.865 45.8364C174.157 45.5441 174.636 45.5441 174.928 45.8364L182.854 53.7605C183.146 54.0528 183.146 54.5315 182.854 54.8238C182.562 55.1162 182.083 55.1162 181.79 54.8238L173.865 46.8998C173.572 46.6074 173.572 46.1288 173.865 45.8364Z" fill="#FFCC5F"/>
<path d="M137.428 9.40675C137.721 9.11442 138.199 9.11442 138.492 9.40675L146.417 17.3308C146.71 17.6232 146.71 18.1018 146.417 18.3942C146.125 18.6865 145.646 18.6865 145.354 18.3942L137.428 10.4701C137.136 10.1767 137.136 9.69909 137.428 9.40675Z" fill="#FFCC5F"/>
<path d="M173.865 18.3922C173.572 18.0999 173.572 17.6212 173.865 17.3289L181.79 9.4048C182.083 9.11246 182.562 9.11246 182.854 9.4048C183.146 9.69714 183.146 10.1758 182.854 10.4681L174.928 18.3922C174.636 18.6845 174.157 18.6845 173.865 18.3922Z" fill="#FFCC5F"/>
<path d="M137.428 54.8219C137.136 54.5295 137.136 54.0509 137.428 53.7585L145.354 45.8345C145.646 45.5421 146.125 45.5421 146.417 45.8345C146.71 46.1268 146.71 46.6055 146.417 46.8978L138.492 54.8219C138.198 55.1142 137.721 55.1142 137.428 54.8219Z" fill="#FFCC5F"/>
<path d="M406.87 13.8827C405.925 13.9269 405.007 14.0618 404.128 14.2728C401.009 6.86135 392.851 1.7732 383.591 2.20965C376.979 2.52052 371.255 5.58391 367.703 10.0977C365.279 8.97258 362.504 8.38997 359.585 8.5279C351.14 8.92524 344.581 15.1755 344.489 22.6837C343.763 22.5386 343.005 22.4768 342.227 22.5139C337.59 22.7321 334.027 26.2948 334.27 30.4709C334.513 34.647 338.468 37.8556 343.105 37.6363C346.117 37.4943 404.613 37.9317 408.257 37.7609C415.579 37.416 421.204 31.7916 420.821 25.1975C420.438 18.6033 414.192 13.5378 406.87 13.8827Z" fill="white"/>
<path d="M402.231 38.6857C395.489 38.6857 384.237 38.6343 373.238 38.5838C358.489 38.5169 344.559 38.4531 343.147 38.52C338.042 38.7568 333.655 35.1725 333.384 30.5208C333.262 28.4096 334.004 26.3478 335.474 24.7152C337.13 22.8757 339.576 21.7506 342.185 21.6281C342.674 21.6055 343.164 21.6168 343.651 21.6652C344.295 14.1137 351.074 8.04152 359.541 7.64212C362.259 7.51345 364.977 7.98799 367.44 9.01427C371.317 4.41815 377.146 1.62445 383.548 1.32388C392.714 0.892571 401.094 5.66162 404.644 13.2553C405.363 13.1183 406.094 13.0319 406.826 12.9979C414.623 12.6315 421.294 18.0809 421.704 25.1455C421.889 28.3406 420.764 31.4637 418.536 33.9393C416.012 36.7423 412.28 38.4572 408.297 38.6446C407.672 38.6744 405.472 38.6857 402.231 38.6857ZM347.545 36.7217C353.098 36.7217 362.974 36.767 373.246 36.8133C389.51 36.8874 406.329 36.9636 408.215 36.8751C411.73 36.7094 415.013 35.2075 417.221 32.7535C419.131 30.632 420.096 27.967 419.937 25.2474C419.583 19.1463 413.738 14.4421 406.911 14.7664C406.044 14.8075 405.176 14.9311 404.335 15.1328L403.603 15.3088L403.312 14.615C400.239 7.31375 392.335 2.68366 383.632 3.09232C377.5 3.38157 371.947 6.13307 368.398 10.6438L367.964 11.1945L367.329 10.899C364.96 9.79967 362.297 9.28499 359.626 9.40954C351.721 9.78217 345.461 15.6166 345.375 22.6915L345.361 23.7579L344.315 23.5489C343.642 23.4151 342.951 23.3626 342.268 23.3955C340.128 23.4964 338.132 24.4084 336.791 25.8979C335.64 27.1764 335.058 28.7812 335.153 30.4158C335.367 34.103 338.913 36.942 343.063 36.7485C343.508 36.7299 345.112 36.7217 347.545 36.7217Z" fill="#1A6FCE"/>
<path d="M396.217 20.3082C396.038 20.3082 395.856 20.2537 395.699 20.1405C395.303 19.8543 395.213 19.3005 395.5 18.9042C397.453 16.2011 400.419 14.2587 403.849 13.4352C404.325 13.3199 404.803 13.6143 404.917 14.0898C405.031 14.5654 404.738 15.043 404.262 15.1573C401.242 15.882 398.641 17.5804 396.935 19.9408C396.763 20.1806 396.492 20.3082 396.217 20.3082Z" fill="#1A6FCE"/>
<path d="M394.694 23.1823C394.594 23.1823 394.493 23.1659 394.395 23.1298C393.934 22.9641 393.695 22.4577 393.861 21.9965C394.043 21.4901 394.262 20.9898 394.51 20.5101C394.734 20.0757 395.269 19.9059 395.703 20.1303C396.138 20.3547 396.307 20.8889 396.083 21.3233C395.871 21.7351 395.684 22.1622 395.528 22.5956C395.397 22.9579 395.058 23.1823 394.694 23.1823Z" fill="#1A6FCE"/>
<path d="M557.531 243.899C548.302 248.652 535.159 247.534 531.244 246.276C527.329 245.018 537.956 239.146 537.956 239.146L557.531 243.899Z" fill="#272372"/>
<path d="M581.768 219.62C610.246 199.302 627.259 204.522 632.292 213.282C637.326 222.043 624.276 231.549 602.649 239.937C581.023 248.326 560.281 243.712 550.4 242.781C540.519 241.849 510.177 229.686 505.33 221.298C500.483 212.909 504.771 200.421 518.381 203.963C531.99 207.504 556.973 220.925 556.973 220.925L581.768 219.62Z" fill="#FFA014"/>
<path d="M572.074 235.019C571.829 235.019 571.596 234.874 571.496 234.634C571.363 234.315 571.513 233.948 571.833 233.815C572.011 233.741 572.879 233.263 573.978 232.658C600.029 218.31 617.634 211.914 626.31 213.649C626.649 213.717 626.869 214.046 626.801 214.385C626.733 214.724 626.406 214.943 626.065 214.876C617.69 213.203 600.369 219.554 574.582 233.755C573.177 234.529 572.547 234.875 572.314 234.971C572.235 235.003 572.154 235.019 572.074 235.019Z" fill="#272372"/>
<path d="M578.06 245.51C573.292 245.51 558.756 245.329 549.288 243.251C537.742 240.717 514.838 231.587 509.568 226.744C509.313 226.51 509.296 226.114 509.531 225.86C509.765 225.605 510.161 225.589 510.415 225.822C515.568 230.558 538.144 239.523 549.556 242.029C559.546 244.221 575.312 244.277 578.884 244.257C578.655 243.032 578.213 241.091 577.707 240.331C576.347 238.509 546.726 213.035 518.212 211.671C517.867 211.654 517.6 211.361 517.617 211.016C517.633 210.67 517.933 210.4 518.272 210.421C547.62 211.825 577.61 237.93 578.749 239.638C579.639 240.973 580.186 244.396 580.245 244.782C580.272 244.961 580.221 245.144 580.105 245.282C579.988 245.42 579.816 245.501 579.636 245.504C579.601 245.503 579.035 245.51 578.06 245.51Z" fill="#272372"/>
<path d="M523.227 208.997C524.718 200.05 535.717 173.768 542.429 169.853C547.276 166.497 565.361 162.584 566.853 162.956C568.188 163.29 581.931 163.926 589.206 168.608L589.224 168.549C589.349 168.652 590.917 169.852 591.461 170.413C591.541 170.495 591.614 170.585 591.686 170.678C608.613 187.935 615.657 206.667 610.291 213.285C605.669 218.984 588.292 224.842 584.191 223.537C582.614 223.035 554.174 222.231 554.174 222.231C554.174 222.231 521.736 217.944 523.227 208.997Z" fill="white"/>
<path d="M585.619 224.327C584.965 224.327 584.419 224.264 584.003 224.132C582.831 223.781 565.513 223.177 554.159 222.857C554.137 222.856 554.115 222.855 554.094 222.852C553.062 222.715 528.75 219.43 523.569 212.431C522.731 211.298 522.408 210.108 522.61 208.894C524.163 199.582 535.296 173.29 542.115 169.313C547.011 165.921 565.34 161.929 567.005 162.349C567.204 162.398 567.919 162.477 568.746 162.566C573.09 163.038 583.186 164.135 589.301 167.927C589.418 167.941 589.531 167.989 589.625 168.067C589.646 168.085 589.706 168.131 589.793 168.199C590.556 168.797 591.487 169.538 591.912 169.977C591.999 170.067 592.08 170.164 592.159 170.264C608.405 186.836 616.756 206.307 610.779 213.678C606.397 219.081 591.588 224.327 585.619 224.327ZM554.227 221.606C557.301 221.694 582.773 222.428 584.382 222.939C588.26 224.176 605.286 218.464 609.807 212.89C614.706 206.849 608.414 188.621 591.241 171.115C591.224 171.099 591.209 171.08 591.194 171.061C591.136 170.987 591.077 170.913 591.013 170.846C590.606 170.428 589.52 169.574 589.063 169.216C588.995 169.199 588.929 169.173 588.868 169.133C583.031 165.377 572.927 164.279 568.611 163.811C567.512 163.691 566.973 163.63 566.702 163.564C565.333 163.301 547.559 167.064 542.787 170.368C536.317 174.143 525.329 200.203 523.846 209.1C523.699 209.978 523.938 210.824 524.576 211.685C529.362 218.153 553.214 221.468 554.227 221.606Z" fill="#272372"/>
<path d="M567.226 175.631C569.994 175.631 572.259 173.366 572.259 170.598V157.177C572.259 154.409 569.994 152.145 567.226 152.145C564.457 152.145 562.192 154.409 562.192 157.177V170.598C562.192 173.366 564.457 175.631 567.226 175.631Z" fill="#6694EE"/>
<path d="M567.226 152.145C569.994 152.145 572.259 154.409 572.259 157.177V166.464C567.009 172.07 564.873 172.146 562.192 169.193V157.177C562.192 154.409 564.457 152.145 567.226 152.145Z" fill="#1A6FCE"/>
<path d="M576.985 150.005C576.154 151.537 576.377 153.33 577.481 154.01C578.586 154.689 580.155 153.998 580.986 152.466C581.817 150.933 581.594 149.14 580.49 148.461C579.385 147.781 577.816 148.472 576.985 150.005Z" fill="#6694EE"/>
<path d="M557.187 150.051C558.018 151.584 557.796 153.377 556.691 154.057C555.586 154.736 554.017 154.044 553.186 152.513C552.355 150.98 552.578 149.187 553.682 148.507C554.787 147.828 556.356 148.52 557.187 150.051Z" fill="#6694EE"/>
<path d="M557.105 150.385C557.105 157.237 561.603 162.792 567.152 162.792C572.7 162.792 577.198 157.237 577.198 150.385C579.625 139.608 572.7 137.977 567.152 137.977C561.603 137.978 554.595 140.028 557.105 150.385Z" fill="#6694EE"/>
<path d="M547.323 185.39C546.986 185.39 546.708 185.121 546.698 184.781C546.696 184.677 546.398 174.353 544.369 169.488C544.237 169.169 544.388 168.802 544.707 168.669C545.026 168.536 545.392 168.688 545.526 169.006C547.644 174.088 547.939 184.315 547.95 184.748C547.96 185.093 547.687 185.381 547.341 185.39C547.336 185.39 547.329 185.39 547.323 185.39Z" fill="#272372"/>
<path d="M585.778 180.776C585.75 180.776 585.722 180.774 585.694 180.771C585.353 180.725 585.111 180.41 585.156 180.069C585.196 179.763 586.165 172.533 587.852 168.315C587.981 167.994 588.346 167.839 588.666 167.966C588.987 168.095 589.143 168.459 589.015 168.78C587.385 172.854 586.407 180.159 586.398 180.232C586.355 180.547 586.087 180.776 585.778 180.776Z" fill="#272372"/>
<path d="M537.116 206.779C537.012 206.779 536.907 206.753 536.81 206.699C532.652 204.361 529.637 205.206 529.606 205.215C529.271 205.312 528.927 205.124 528.828 204.794C528.73 204.465 528.914 204.117 529.244 204.017C529.386 203.974 532.769 202.99 537.424 205.609C537.726 205.779 537.832 206.159 537.663 206.461C537.548 206.665 537.336 206.779 537.116 206.779Z" fill="#272372"/>
<path d="M595.285 207.756C595.124 207.756 594.964 207.695 594.842 207.573C594.598 207.328 594.598 206.933 594.842 206.689C595.059 206.472 600.225 201.393 605.713 203.471C606.037 203.594 606.199 203.955 606.077 204.278C605.954 204.601 605.593 204.764 605.27 204.641C600.54 202.852 595.774 207.527 595.727 207.574C595.605 207.696 595.446 207.756 595.285 207.756Z" fill="#272372"/>
<path d="M504.035 211.269C503.984 211.269 503.932 211.263 503.88 211.25C503.546 211.165 503.343 210.825 503.427 210.489C503.662 209.564 503.981 208.591 504.375 207.6C504.503 207.278 504.868 207.122 505.187 207.25C505.508 207.377 505.666 207.741 505.538 208.062C505.164 209.004 504.862 209.924 504.64 210.798C504.569 211.08 504.315 211.269 504.035 211.269Z" fill="#272372"/>
<path d="M508.015 224.976C507.849 224.976 507.684 224.91 507.56 224.781C505.09 222.168 502.338 218.445 502.995 212.798C503.034 212.454 503.351 212.209 503.689 212.248C504.032 212.288 504.278 212.599 504.238 212.942C503.765 217.001 505.032 220.284 508.469 223.92C508.707 224.171 508.696 224.568 508.444 224.804C508.325 224.92 508.17 224.976 508.015 224.976Z" fill="#272372"/>
<path d="M541.311 227.636H591.09L598.196 193.972C598.569 192.205 597.221 190.543 595.415 190.543H536.986C535.18 190.543 533.831 192.205 534.205 193.972L541.311 227.636Z" fill="#4C7DDB"/>
<path d="M591.09 228.373H541.311C540.962 228.373 540.662 228.129 540.59 227.787L533.483 194.123C533.259 193.063 533.524 191.972 534.206 191.129C534.889 190.287 535.903 189.805 536.987 189.805H595.416C596.5 189.805 597.514 190.287 598.197 191.129C598.88 191.972 599.143 193.063 598.92 194.123L591.814 227.787C591.74 228.129 591.438 228.373 591.09 228.373ZM541.909 226.898H590.491L597.473 193.819C597.605 193.195 597.451 192.554 597.049 192.059C596.648 191.564 596.052 191.28 595.414 191.28H536.985C536.348 191.28 535.752 191.564 535.35 192.059C534.948 192.554 534.794 193.195 534.926 193.819L541.909 226.898Z" fill="#272372"/>
<path d="M566.092 213.096H566.867C568.5 213.096 570.085 212.035 570.445 210.503C570.886 208.63 569.397 206.758 567.039 206.758H565.919C563.561 206.758 562.072 208.63 562.513 210.503C562.874 212.035 564.46 213.096 566.092 213.096Z" fill="#8EB4FB"/>
<path d="M578.225 239.985C586.335 236.07 588.573 236.21 594.305 239.845C600.038 243.48 607.17 244.179 601.856 246.275C596.543 248.372 582.001 246.974 579.764 245.018C577.526 243.061 578.225 239.985 578.225 239.985Z" fill="#272372"/>
<path d="M577.107 154.148C584.54 137.935 581.302 128.706 574.59 130.522C567.878 132.34 562.006 124.092 558.23 128.705C554.455 133.318 550.12 133.877 549.84 137.932C549.56 141.987 557.531 156.105 557.95 155.826C558.369 155.546 556.272 142.545 559.488 142.405C562.705 142.265 564.382 146.04 569.695 146.18C575.009 146.32 576.547 143.943 576.686 145.341C576.827 146.739 575.569 157.503 577.107 154.148Z" fill="#272372"/>
<path d="M571.584 156.005C569.237 156.005 567.328 154.336 567.328 152.285C567.328 150.233 569.237 148.564 571.584 148.564C573.932 148.564 575.842 150.233 575.842 152.285C575.842 154.336 573.932 156.005 571.584 156.005ZM571.584 150.04C570.051 150.04 568.803 151.046 568.803 152.285C568.803 153.523 570.051 154.53 571.584 154.53C573.118 154.53 574.366 153.523 574.366 152.285C574.366 151.046 573.118 150.04 571.584 150.04Z" fill="#272372"/>
<path d="M562.729 156.005C560.382 156.005 558.473 154.336 558.473 152.285C558.473 150.233 560.382 148.564 562.729 148.564C565.076 148.564 566.986 150.233 566.986 152.285C566.985 154.336 565.075 156.005 562.729 156.005ZM562.729 150.04C561.196 150.04 559.948 151.046 559.948 152.285C559.948 153.523 561.196 154.53 562.729 154.53C564.263 154.53 565.511 153.523 565.511 152.285C565.51 151.046 564.262 150.04 562.729 150.04Z" fill="#272372"/>
<path d="M559.163 152.557C558.931 152.557 558.704 152.448 558.559 152.245L555.437 147.818C555.202 147.485 555.281 147.024 555.614 146.789C555.945 146.555 556.407 146.634 556.642 146.966L559.766 151.394C560.001 151.726 559.922 152.187 559.589 152.422C559.459 152.513 559.31 152.557 559.163 152.557Z" fill="#272372"/>
<path d="M565.921 151.158C565.513 151.158 565.183 150.828 565.183 150.42C565.183 150.013 565.513 149.682 565.921 149.682C567.073 149.682 568.378 149.67 568.628 149.648C568.986 149.578 569.345 149.785 569.464 150.139C569.592 150.525 569.384 150.943 568.997 151.073C568.867 151.117 568.744 151.158 565.921 151.158Z" fill="#272372"/>
<path d="M575.149 152.789C575.019 152.789 574.888 152.755 574.769 152.683C574.42 152.473 574.308 152.021 574.518 151.672L576.989 147.571C577.2 147.221 577.653 147.108 578.002 147.319C578.351 147.529 578.463 147.982 578.253 148.331L575.782 152.432C575.642 152.663 575.398 152.789 575.149 152.789Z" fill="#272372"/>
</svg>
