<svg width="83" height="82" viewBox="0 0 83 82" fill="none" xmlns="http://www.w3.org/2000/svg">
<g id="teacher_10426288 1" clip-path="url(#clip0_1487_48030)">
<g id="Group">
<g id="Group_2">
<path id="Vector" d="M45.4587 50.5939V53.5408C45.4587 53.8932 45.747 54.1654 46.0834 54.1654H74.5591C74.9115 54.1654 75.1998 54.4537 75.1998 54.8061V56.776C75.1998 57.1283 74.9115 57.4006 74.5591 57.4006H43.4568C42.2076 57.4166 41.1826 56.0713 41.2146 54.6459V49.4408C41.2146 47.9193 42.2076 46.7021 43.4568 46.7021H74.5751C74.9275 46.7021 75.2158 46.9904 75.2158 47.3428V49.3127C75.2158 49.665 74.9275 49.9373 74.5751 49.9373H46.0994C45.747 49.9533 45.4587 50.2416 45.4587 50.5939Z" fill="#056042"/>
</g>
<path id="Vector_2" d="M30.4521 18.0342C31.2529 18.7229 32.1338 19.4275 33.1268 20.1162H33.0947C32.1178 19.4275 31.2369 18.7229 30.4521 18.0342Z" stroke="#231F20" stroke-width="2" stroke-miterlimit="10" stroke-linecap="round" stroke-linejoin="round"/>
<path id="Vector_3" d="M42.368 24.4881C42.352 24.5041 42.3359 24.5201 42.3359 24.5361C41.6633 24.3439 40.9266 24.1037 40.0938 23.7834C40.1098 23.7674 40.1098 23.7514 40.1098 23.7354C40.9266 24.0557 41.6953 24.2959 42.368 24.4881Z" stroke="#231F20" stroke-width="2" stroke-miterlimit="10" stroke-linecap="round" stroke-linejoin="round"/>
<path id="Vector_4" d="M43.0571 7.41556C37.0993 3.57181 30.1485 5.23743 26.7372 7.57571C22.7493 6.43861 17.8805 8.31243 16.5833 13.3093C15.3341 17.2331 16.8075 21.1249 17.9446 23.7355C17.6563 23.9757 17.368 24.2159 17.0798 24.4402C15.318 20.8206 12.9637 16.7847 14.4212 11.4034C15.7505 6.40657 20.5391 4.51673 24.5751 5.66986C25.8243 4.86907 28.9313 3.09134 33.1594 3.21946C34.4727 3.2515 39.7739 3.57181 43.0571 7.41556Z" fill="#515968"/>
<path id="Vector_5" d="M43.553 22.6301C43.2007 23.2707 42.7843 23.9274 42.3198 24.536C41.6472 24.3278 40.8944 24.1035 40.0776 23.7832C40.1737 23.4629 40.1097 20.516 40.1257 20.1157H33.0788C30.6284 18.386 28.4663 16.3199 26.5925 14.0297C25.1671 16.1598 23.8058 17.9856 21.8038 20.1157H19.3855V22.4699C18.889 22.9184 18.4085 23.3348 17.9441 23.7192C16.7909 21.1086 15.3335 17.2168 16.5827 13.293C17.912 8.26409 22.7487 6.43831 26.7366 7.5594C30.164 5.22112 37.0827 3.55549 43.0566 7.39924C46.3398 11.275 46.4999 17.3289 43.553 22.6301Z" fill="#687387"/>
<path id="Vector_6" d="M42.368 24.4879C42.2398 29.4207 38.1078 34.3375 33.9277 36.6598C30.4043 38.3574 26.016 37.7008 23.1012 35.0422C20.1223 32.3355 17.1434 28.7 17.1113 24.4719H17.1273C17.8641 23.8953 18.6648 23.1906 19.4016 22.518C18.7449 27.9953 27.3934 28.6199 27.5855 23.2066V20.0996H21.8359C23.8379 17.9535 25.1992 16.1437 26.5926 14.0137C28.4824 16.3359 30.5805 18.3379 33.0789 20.0996H31.9418V23.2227C31.8777 27.8992 39.4371 28.2996 40.0777 23.7832C40.9105 24.1035 41.6473 24.3437 42.3199 24.5359C42.3359 24.5199 42.352 24.5039 42.368 24.4879Z" fill="#FCE4DB"/>
<path id="Vector_7" d="M34.6002 41.2244L29.6193 45.8529H29.1869L24.2061 41.2244L24.5904 36.1475C27.5053 37.9572 31.2689 38.1174 34.2639 36.4998L34.6002 41.2244Z" fill="#F7D4C6"/>
<path id="Vector_8" d="M17.1117 24.4883C17.1117 26.0578 17.5601 27.5793 18.2648 29.0207C13.2519 30.318 10.8495 24.0398 16.1347 22.5664C16.3749 23.0949 16.8394 24.0398 17.0796 24.4402C17.7042 23.9438 18.3449 23.4152 19.0015 22.8227C19.0175 22.8227 19.0335 22.8387 19.0495 22.8387C18.3929 23.4473 17.7523 23.9918 17.1117 24.4883Z" fill="#F7D4C6"/>
<path id="Vector_9" d="M46.3238 26.0738C46.2598 28.268 43.4891 29.7414 41.2148 29.0367C41.9195 27.5953 42.352 26.0898 42.368 24.5043C42.8164 23.9117 43.2168 23.2711 43.5531 22.6465C45.2508 23.0949 46.4359 24.5043 46.3238 26.0738Z" fill="#F7D4C6"/>
<path id="Vector_10" d="M40.1264 19.2354H31.9425C31.4139 19.2354 31.0135 19.6998 31.0616 20.2123H28.4511C28.4991 19.6998 28.0987 19.2354 27.5702 19.2354H19.3702C18.8897 19.2354 18.4893 19.6357 18.4893 20.1162V23.2232C18.4733 26.09 21.0678 28.124 23.8386 27.8197C26.369 27.8197 28.435 25.7537 28.435 23.2232V21.974H31.0776V23.2232C31.0776 25.7537 33.1436 27.8197 35.6741 27.8197C38.4608 28.124 41.0393 26.1061 41.0233 23.2232V20.1162C41.0073 19.6357 40.6229 19.2354 40.1264 19.2354ZM26.7214 21.0771C26.7053 21.0932 26.7214 21.0932 26.7214 21.1252V23.2232C26.7214 24.7928 25.4561 26.058 23.8866 26.058H23.1339C21.5643 26.058 20.2991 24.7768 20.2991 23.2232V20.9971H26.7374V21.0771H26.7214ZM39.2456 23.2232C39.2616 24.7768 37.9803 26.074 36.4108 26.058H35.6581C34.0886 26.058 32.8233 24.7768 32.8233 23.2232V20.9971H39.2456V23.2232Z" fill="#039661"/>
<path id="Vector_11" d="M39.2455 20.9971C39.2455 21.2693 39.2615 23.3834 39.2295 23.5916C39.0213 25.001 37.8521 26.074 36.4107 26.058H35.658C34.0885 26.058 32.8232 24.7768 32.8232 23.2232V20.9971H39.2455Z" fill="#F3F3FF"/>
<path id="Vector_12" d="M26.7211 21.0771C26.7051 21.0932 26.7211 21.0932 26.7211 21.1252V23.2232C26.7211 24.7928 25.4559 26.058 23.8863 26.058H23.1336C21.5641 26.058 20.2988 24.7768 20.2988 23.2232V20.9971H26.7371V21.0771H26.7211Z" fill="#F3F3FF"/>
<path id="Vector_13" d="M45.459 49.9531H72.0449V54.1652H45.459V49.9531Z" fill="#FCE4DB"/>
<path id="Vector_14" d="M37.3076 60.6514H63.1729V64.8635H37.3076V60.6514Z" fill="#FCE4DB"/>
<path id="Vector_15" d="M37.3076 71.334H72.2217V75.5461H37.3076V71.334Z" fill="#FCE4DB"/>
<path id="Vector_16" d="M41.215 49.4405V54.6456C41.183 56.071 42.208 57.4163 43.4572 57.4003H34.8568C33.6236 57.4003 32.6307 58.6335 32.6307 60.139V65.344C32.6307 66.8655 33.6236 68.0827 34.8568 68.0827C33.6397 68.0667 32.7748 69.2999 32.6467 70.437C32.5826 70.7573 32.6467 72.0065 32.6147 72.3429L33.167 76.5002C33.167 77.5733 33.667 78.0002 34.4084 78.7331C30.1002 78.6851 12.483 78.7811 7.34199 78.7651C3.6584 78.7811 0.423242 75.8343 0.407227 72.1026V64.4952C0.407227 55.4624 8.16745 47.4065 18.3534 45.3886L21.1795 44.9241C21.8361 44.78 22.5408 44.9722 23.0533 45.3886C23.774 45.9491 28.3865 49.6327 29.2033 50.3054H29.6357L34.6326 46.3175C36.167 45.0002 36.167 44.5002 36.167 44.5002C37.167 44.0002 40.2221 45.5007 41.0389 45.5808C42.3842 45.837 43.6814 46.2054 44.9146 46.6698H43.4732C42.224 46.7018 41.215 47.9351 41.215 49.4405Z" fill="#17181D"/>
<path id="Vector_17" d="M37.3068 60.6352V64.8473H67.4643V68.0824H34.8404C33.6072 68.0824 32.6143 66.8492 32.6143 65.3438V60.1547C32.6143 58.6332 33.6072 57.416 34.8404 57.416H67.4643V60.6512H37.3068V60.6352Z" fill="#70A56C"/>
<path id="Vector_18" d="M37.3077 71.8788V75.0179C37.3077 75.3062 37.5479 75.5464 37.8362 75.5464H76.7061C76.9944 75.5464 77.2346 75.7867 77.2346 76.0749V78.2531C77.2346 78.5413 76.9944 78.7816 76.7061 78.7816H34.8412C33.608 78.7816 32.6151 77.5484 32.6151 76.0269V70.8218C32.583 69.5566 33.4959 68.0671 34.8412 68.0831H76.7061C76.9944 68.0831 77.2346 68.3234 77.2346 68.6116V70.7898C77.2346 71.0781 76.9944 71.3183 76.7061 71.3183H37.8522C37.5479 71.3343 37.3077 71.5745 37.3077 71.8788Z" fill="#056042"/>
<path id="Vector_19" d="M23.5814 55.9912V57.1924H19.3693C17.8799 57.1924 16.6627 58.4096 16.6627 59.899C16.6787 61.4045 16.4225 63.6627 17.5115 64.8318C16.1662 64.1432 15.2373 62.7338 15.2373 61.1162V55.9912H23.5814Z" fill="#039661"/>
<path id="Vector_20" d="M66.8883 6.03809C58.5441 6.03809 51.7695 12.8127 51.7695 21.1568C52.6023 41.2404 81.1902 41.2244 82.023 21.1568C82.007 12.8287 75.2324 6.03809 66.8883 6.03809ZM66.8883 34.5459C59.5211 34.5459 53.5152 28.54 53.5152 21.1729C54.252 3.42754 79.5246 3.44356 80.2613 21.1729C80.2453 28.54 74.2555 34.5459 66.8883 34.5459Z" fill="#70A56C"/>
<path id="Vector_21" d="M66.8877 7.7998C59.5205 7.7998 53.5146 13.8057 53.5146 21.1729C54.2514 38.9182 79.524 38.9182 80.2607 21.1729C80.2447 13.8057 74.2549 7.7998 66.8877 7.7998ZM66.0068 9.7377C66.0068 8.58457 67.7525 8.58457 67.7686 9.7377V11.5314C67.7686 12.0119 67.3682 12.4123 66.8877 12.4123C66.4072 12.4123 66.0068 12.0119 66.0068 11.5314V9.7377ZM57.2463 22.0537H55.4525C54.2994 22.0537 54.2994 20.308 55.4525 20.292H57.2463C58.3994 20.308 58.3994 22.0217 57.2463 22.0537ZM67.7525 32.608C67.7365 33.7611 66.0229 33.7611 65.9908 32.608V30.7982C66.0068 29.6451 67.7205 29.6451 67.7525 30.7982V32.608ZM72.0768 26.474C71.7404 26.8104 71.1639 26.7943 70.8436 26.458L67.8006 23.351C65.6385 24.2959 63.5564 21.6373 64.9978 19.7795L62.3713 14.0939C62.1631 13.6615 62.3553 13.133 62.7877 12.9408C63.2361 12.7326 63.7486 12.9248 63.9568 13.3572L66.5033 18.8506C68.2811 18.4982 69.7705 20.4521 69.0338 22.0857L72.0768 25.2248C72.4291 25.5771 72.4131 26.1217 72.0768 26.474ZM78.3229 22.0537H76.5131C75.36 22.0377 75.36 20.324 76.5131 20.292H78.3229C79.476 20.308 79.476 22.0217 78.3229 22.0537Z" fill="#F3F3FF"/>
<g id="Group_3">
<path id="Vector_22" d="M58.1277 21.1729C58.1277 21.6533 57.7273 22.0537 57.2469 22.0537H55.4531C54.9566 22.0537 54.5723 21.6533 54.5723 21.1729C54.5723 20.6924 54.9566 20.292 55.4531 20.292H57.2469C57.7273 20.292 58.1277 20.6924 58.1277 21.1729Z" fill="#70A56C"/>
<path id="Vector_23" d="M79.2043 21.1729C79.2043 21.6533 78.8039 22.0537 78.3234 22.0537H76.5137C76.0332 22.0537 75.6328 21.6533 75.6328 21.1729C75.6328 20.6924 76.0332 20.292 76.5137 20.292H78.3234C78.8039 20.292 79.2043 20.6924 79.2043 21.1729Z" fill="#70A56C"/>
<path id="Vector_24" d="M67.7529 9.73789V11.5316C67.7369 12.6848 66.0232 12.6848 65.9912 11.5316V9.73789C66.0072 8.58477 67.7529 8.58477 67.7529 9.73789Z" fill="#70A56C"/>
<path id="Vector_25" d="M67.7529 30.7984V32.6082C67.7529 33.7613 66.0072 33.7613 65.9912 32.6082V30.7984C66.0232 29.6453 67.7369 29.6453 67.7529 30.7984Z" fill="#70A56C"/>
<path id="Vector_26" d="M72.0934 25.2247L69.0505 22.0856C69.7872 20.452 68.2977 18.4981 66.52 18.8505L63.9735 13.3571C63.7653 12.9247 63.2528 12.7325 62.8044 12.9407C62.372 13.1489 62.1798 13.6614 62.388 14.0938L65.0145 19.7634C63.5731 21.6212 65.6552 24.2798 67.8173 23.3348L70.8602 26.4419C71.645 27.2747 72.8782 26.0575 72.0934 25.2247ZM66.8884 21.7653C66.1036 21.7653 66.1036 20.5802 66.8884 20.5641C67.6571 20.5802 67.6571 21.7653 66.8884 21.7653Z" fill="#70A56C"/>
</g>
<path id="Vector_27" d="M28.3067 78.7488V49.6164L24.2067 46.3332C23.3739 45.6925 22.3489 44.6195 21.1797 44.9558C9.66449 46.3812 3.16721 54.9999 0.667221 64.9999C0.167212 54.9999 6.74965 42.8578 17.8164 40.3914L21.1797 39.6386C22.3649 39.2382 23.4059 40.5355 24.2067 41.2242C24.2227 41.2402 29.1875 45.8527 29.2036 45.8527H29.636L34.6329 41.2242C35.1133 40.8398 35.9461 39.8628 36.5387 39.6867C36.8911 39.5585 37.2914 39.5425 37.6758 39.6226L41.0391 40.3753C45.4114 41.3683 49.2231 43.6265 52.17 46.6855H44.9149C42.8809 45.8527 39.87 45.3722 37.6758 44.9238C36.4907 44.6035 35.4657 45.6445 34.6329 46.3171L30.0844 49.9527V78.7328H28.3067V78.7488Z" fill="#039661"/>
</g>
</g>
<defs>
<clipPath id="clip0_1487_48030">
<rect width="82" height="82" fill="white" transform="translate(0.166992)"/>
</clipPath>
</defs>
</svg>
