<svg width="77" height="76" viewBox="0 0 77 76" fill="none" xmlns="http://www.w3.org/2000/svg">
<path d="M2.8427 21.4972C2.8642 22.2621 2.26158 22.8995 1.49671 22.921C0.731842 22.9425 0.0943577 22.3399 0.0728526 21.5751C0.0513472 20.8102 0.623251 19.0803 1.38812 19.0588C2.15299 19.0373 2.82119 20.7323 2.8427 21.4972Z" fill="#51504F"/>
<path d="M41.5028 71.3117H27.4336L31.3326 55.1406H45.4018L41.5028 71.3117Z" fill="#3A3A3A"/>
<path d="M75.99 15.3667C75.3752 29.922 73.6627 43.0419 70.7083 55.5947C70.2744 57.44 68.6825 58.8026 66.7892 58.9715C49.3764 60.503 31.5172 61.0212 13.0671 59.6228C10.6674 59.442 8.87065 57.38 8.97929 54.98C9.54601 41.3414 11.2703 27.7635 14.1646 14.2332C14.5865 12.2795 16.2749 10.8446 18.2766 10.7363C35.6412 9.83184 53.5004 9.85598 71.7576 10.7003C74.2176 10.8205 76.0865 12.919 75.99 15.3667Z" fill="#3A3A3A"/>
<path d="M69.9248 15.162C69.3098 29.7168 67.73 43.452 64.7757 56.0054C64.3414 57.8502 62.7496 59.2127 60.8686 59.3817C43.4437 60.9132 25.4517 60.8166 7.00167 59.4299C4.60227 59.2492 2.80522 57.1754 2.91385 54.7754C3.48058 41.1368 5.20521 27.5583 8.09921 14.0286C8.52138 12.0749 10.2095 10.64 12.2112 10.5316C29.5878 9.62724 47.4349 9.65138 65.6922 10.5075C68.1519 10.6158 70.0332 12.7144 69.9248 15.162Z" fill="#51504F"/>
<path d="M66.4841 16.7082C65.7811 30.6916 64.2346 42.8976 61.8059 53.8766C61.5759 54.912 60.6941 55.679 59.6331 55.7682C51.4916 56.4204 43.0173 56.7524 34.4027 56.7524C26.1076 56.7524 17.4418 56.446 8.62273 55.8325C7.29342 55.7427 6.28364 54.6056 6.34761 53.2762C7.01226 40.8525 8.60994 28.3906 11.115 16.1459C11.345 15.0594 12.278 14.2543 13.3902 14.2031C21.6597 13.8068 30.1976 13.6152 38.8125 13.6152C47.0437 13.6152 55.5688 13.7943 64.1578 14.152C65.4999 14.2031 66.5609 15.3664 66.4841 16.7082Z" fill="white"/>
<path d="M62.5444 21.9392C61.9053 30.6094 60.9529 35.1679 59.3731 42.3909C58.9871 44.1638 57.4918 45.4898 55.683 45.6105C48.8457 46.0568 41.7912 46.2858 34.6646 46.2858C28.0926 46.2858 21.2912 46.0927 14.4057 45.707C12.1146 45.5746 10.39 43.5726 10.5831 41.2816C11.222 33.5399 12.235 28.8123 13.8389 20.914C14.2125 19.0693 15.7923 17.7062 17.6736 17.6344C24.5108 17.3688 31.6016 17.2363 38.8127 17.2363C45.2882 17.2363 51.9329 17.3447 58.6132 17.5619C60.9287 17.6461 62.7134 19.6357 62.5444 21.9392Z" fill="#8A9BEA"/>
<path d="M61.6159 30.7188C61.0491 34.6379 60.3258 38.0265 59.3731 42.3919C58.9871 44.1648 57.4918 45.4908 55.683 45.6115C48.8458 46.0578 41.7912 46.2869 34.6646 46.2869C28.0926 46.2869 21.2912 46.0937 14.4057 45.7081C12.1146 45.5756 10.39 43.5736 10.5831 41.2826C10.7277 39.5097 10.8964 37.9058 11.0774 36.3749C16.7933 39.5338 24.4266 41.4633 32.8195 41.4633C45.4692 41.4633 56.4067 37.0738 61.6159 30.7188Z" fill="#4269C4"/>
<path d="M49.7387 70.9809C49.7387 73.5043 42.9059 75.5499 34.4773 75.5499C26.0486 75.5499 19.2158 73.5043 19.2158 70.9809C19.2158 68.4575 26.0486 70.9809 34.4773 70.9809C42.9059 70.9809 49.7387 68.4575 49.7387 70.9809Z" fill="#51504F"/>
<path d="M42.0767 33.8487C39.3494 35.8644 36.4378 37.502 33.3184 38.732C31.8121 39.3378 30.2083 38.2624 30.1326 36.6593C29.9817 33.062 30.1936 29.5159 30.8188 26.05C31.1117 24.4206 32.8947 23.5982 34.3037 24.4509C36.9703 26.0707 39.5864 28.0527 42.2034 30.4017C43.2408 31.3343 43.1791 33.033 42.0767 33.8487Z" fill="white"/>
<path d="M42.0766 33.8487C39.3493 35.8643 36.4377 37.502 33.3183 38.732C31.812 39.3378 30.2083 38.2623 30.1325 36.6593C30.1032 35.9248 30.0745 35.1903 30.0968 34.458C34.6633 34.6855 38.8259 32.7406 41.2396 29.5508C41.5613 29.8344 41.8823 30.1181 42.2033 30.4017C43.2407 31.3343 43.179 33.0329 42.0766 33.8487Z" fill="#D1DAFE"/>
<path d="M10.5684 50.3062C18.4855 49.5949 26.4023 49.4312 34.3195 49.4023C42.2366 49.4277 50.1535 49.5902 58.0706 50.3062C50.1535 51.0216 42.2366 51.1847 34.3195 51.21C26.4023 51.1805 18.4855 51.0174 10.5684 50.3062Z" fill="#D1DAFE"/>
<path d="M27.1198 49.4863C21.6027 49.59 16.0855 49.8108 10.5684 50.3065C16.0855 50.8023 21.6027 51.0231 27.1198 51.1262V49.4863Z" fill="#B53016"/>
<path d="M27.1202 51.713C27.8974 51.713 28.5274 51.0829 28.5274 50.3057C28.5274 49.5285 27.8974 48.8984 27.1202 48.8984C26.3429 48.8984 25.7129 49.5285 25.7129 50.3057C25.7129 51.0829 26.3429 51.713 27.1202 51.713Z" fill="#B53016"/>
<path d="M27.3832 5.9707L28.416 15.7482C28.5011 16.5544 27.9014 17.2848 26.8524 17.9241C26.3368 18.2355 25.7106 18.5289 25.0022 18.7917C24.4553 18.9928 23.8628 19.1837 23.2287 19.3544C21.0051 19.9598 18.3388 20.3503 15.8156 20.4585C11.2718 20.6618 7.19677 19.9709 6.98979 18.0114L5.95703 8.23388L27.3832 5.9707Z" fill="#FA990E"/>
<path d="M31.9306 5.80581L18.3357 12.9241C17.6915 13.2602 16.9434 13.3392 16.2432 13.1451L1.47527 9.0227C0.908364 8.86707 0.82686 8.09544 1.34876 7.82504L14.9242 0.703925C15.5728 0.36264 16.3208 0.283626 17.0215 0.48239L31.8036 4.6033C32.371 4.76355 32.4525 5.53517 31.9306 5.80581Z" fill="#FBAD3E"/>
<path d="M19.3016 6.52731C19.368 7.15655 18.2267 7.79377 16.758 7.9489C15.2892 8.10404 14.0438 7.71892 13.9774 7.08968C13.9109 6.46044 15.0489 5.82848 16.5176 5.67334C17.9864 5.5182 19.2351 5.89807 19.3016 6.52731Z" fill="#51504F"/>
<path d="M16.6369 6.81836C15.3345 7.10746 14.032 7.34888 12.7296 7.59029C11.4154 7.83111 10.1008 8.03661 8.78632 8.24151C6.35042 8.59127 3.8786 8.91629 1.43062 9.16948C1.57517 12.9202 1.62345 16.6703 1.44269 20.4446C0.827678 16.5378 0.489996 12.6064 0.236808 8.68724C0.224737 8.37399 0.441714 8.10844 0.743184 8.07252H0.755255C3.384 7.72277 6.0251 7.46958 8.67798 7.22817C9.99221 7.11983 11.3188 7.02327 12.6454 6.95084C13.9837 6.89078 15.3103 6.81836 16.6369 6.81836Z" fill="#D1DAFE"/>
<path d="M46.6205 75.2223C45.0247 75.1149 43.6842 73.8952 43.5232 72.3C43.349 70.7314 43.349 69.1631 43.5232 67.5947C43.6842 66.013 45.0247 64.7929 46.6068 64.6859C55.2666 64.1361 64.1679 64.1897 73.297 64.7527C74.2218 64.8063 74.8384 65.7312 74.5838 66.6296C73.9404 68.8413 73.9404 71.0665 74.5838 73.292C74.8384 74.1901 74.2349 75.1019 73.31 75.1686C64.4087 75.7584 55.5212 75.7721 46.6205 75.2223Z" fill="#FBAD3E"/>
<path d="M47.17 73.7336C46.2451 73.68 45.4812 72.956 45.387 72.0848C45.3065 71.3609 45.2803 70.6503 45.2803 69.9532C45.2803 69.2427 45.3065 68.5322 45.387 67.8217C45.4812 66.9371 46.2451 66.2399 47.17 66.1729C55.1595 65.6636 63.7388 65.6905 72.68 66.2399C72.7337 66.2399 72.7612 66.307 72.7612 66.3607C72.5864 66.9773 72.4522 67.5805 72.3724 68.1971C72.3586 68.2776 72.3449 68.3581 72.3318 68.452C72.265 68.9478 72.2382 69.4574 72.2382 69.9532C72.2382 70.4628 72.265 70.9721 72.3449 71.4682C72.3449 71.5618 72.3586 71.6423 72.3724 71.7228C72.4522 72.326 72.5864 72.9292 72.7612 73.5189V73.5592C72.7612 73.5995 72.7474 73.68 72.68 73.68C64.2487 74.2429 55.6694 74.2563 47.17 73.7336Z" fill="white"/>
<path d="M60.7761 69.0026C56.5536 68.9758 52.3179 68.855 48.0947 68.3324C52.3179 67.796 56.5536 67.6755 60.7761 67.6621C64.6504 67.6755 68.511 67.7691 72.3722 68.1982C72.3585 68.2787 72.3447 68.3592 72.3316 68.4531C68.4842 68.8819 64.6367 68.9758 60.7761 69.0026Z" fill="#D1DAFE"/>
<path d="M60.7761 72.2607C56.5536 72.2473 52.3179 72.1265 48.0947 71.5904C52.3179 71.0674 56.5536 70.947 60.7761 70.9336C64.6367 70.947 68.4979 71.0409 72.3447 71.47C72.3447 71.5636 72.3585 71.6441 72.3722 71.7246C68.511 72.1534 64.6504 72.2473 60.7761 72.2607Z" fill="#D1DAFE"/>
<path d="M73.6927 63.9C75.2885 63.7927 76.6291 62.5729 76.7901 60.9778C76.9642 59.4091 76.9642 57.8408 76.7901 56.2725C76.6291 54.6907 75.2885 53.4707 73.7065 53.3636C65.0467 52.8138 56.1454 52.8675 47.0163 53.4304C46.0914 53.4841 45.4748 54.409 45.7294 55.3073C46.3729 57.5191 46.3729 59.7442 45.7294 61.9697C45.4748 62.8678 46.0783 63.7796 47.0032 63.8463C55.9045 64.4361 64.7921 64.4499 73.6927 63.9Z" fill="#B53016"/>
<path d="M73.1439 62.4114C74.0688 62.3577 74.8327 61.6338 74.9269 60.7625C75.0074 60.0386 75.0336 59.3281 75.0336 58.631C75.0336 57.9205 75.0074 57.2099 74.9269 56.4994C74.8327 55.6148 74.0688 54.9177 73.1439 54.8506C65.1544 54.3413 56.5751 54.3682 47.6339 54.9177C47.5802 54.9177 47.5527 54.9848 47.5527 55.0384C47.7275 55.655 47.8617 56.2582 47.9415 56.8748C47.9553 56.9553 47.969 57.0358 47.9821 57.1298C48.0489 57.6256 48.0757 58.1352 48.0757 58.631C48.0757 59.1406 48.0489 59.6498 47.969 60.1459C47.969 60.2396 47.9553 60.3201 47.9415 60.4006C47.8617 61.0037 47.7275 61.6069 47.5527 62.1967V62.2369C47.5527 62.2772 47.5665 62.3577 47.6339 62.3577C56.0652 62.9206 64.6445 62.934 73.1439 62.4114Z" fill="white"/>
<path d="M59.5375 57.6804C63.7601 57.6535 67.9957 57.5328 72.2189 57.0101C67.9957 56.4737 63.7601 56.3533 59.5375 56.3398C55.6632 56.3533 51.8026 56.4469 47.9414 56.8759C47.9552 56.9564 47.9689 57.0369 47.982 57.1309C51.8295 57.5596 55.6769 57.6535 59.5375 57.6804Z" fill="#D1DAFE"/>
<path d="M59.5375 60.9384C63.7601 60.925 67.9957 60.8043 72.2189 60.2682C67.9957 59.7452 63.7601 59.6247 59.5375 59.6113C55.6769 59.6247 51.8157 59.7187 47.9689 60.1477C47.9689 60.2413 47.9552 60.3218 47.9414 60.4024C51.8026 60.8311 55.6632 60.925 59.5375 60.9384Z" fill="#D1DAFE"/>
<path d="M62.2676 15.173C62.3364 15.9208 62.9002 16.5191 63.6367 16.6686C63.9587 16.7377 64.2694 16.7955 64.5916 16.8416V18.2338C64.5916 18.8434 65.3281 19.1659 65.7652 18.7282L67.1577 17.3709C67.2957 17.2439 67.4797 17.1753 67.6752 17.1866C70.1838 17.336 72.7151 17.1293 75.2464 16.6225C75.9139 16.4961 76.4316 15.9556 76.5353 15.2882C77.0645 12.0896 77.0415 8.97092 76.5468 5.91062C76.4316 5.22013 75.8793 4.66785 75.2004 4.55267C71.4265 3.92005 67.5718 3.90825 63.648 4.54087C62.9002 4.65605 62.3249 5.27744 62.2558 6.02523C62.0027 9.01699 62.0027 12.066 62.2676 15.173Z" fill="#3D5E2A"/>
<path d="M60.8408 15.3097C60.9096 16.0575 61.4734 16.6558 62.21 16.8053C62.5319 16.8744 62.8426 16.9323 63.1648 16.9783V18.3706C63.1648 18.9801 63.9014 19.3026 64.3385 18.865L65.731 17.5076C65.8689 17.3806 66.0529 17.3121 66.2484 17.3233C68.757 17.4727 71.2883 17.266 73.8197 16.7592C74.4871 16.6328 75.0049 16.0923 75.1085 15.4249C75.6378 12.2264 75.6147 9.10764 75.12 6.04734C75.0049 5.35685 74.4526 4.80457 73.7736 4.68939C69.9998 4.05677 66.1451 4.04497 62.2212 4.67759C61.4734 4.79277 60.8981 5.41415 60.829 6.16195C60.5759 9.15371 60.5759 12.2028 60.8408 15.3097Z" fill="#AEC46E"/>
<path d="M60.6445 10.7871C60.6445 12.2827 60.7021 13.7783 60.8403 15.3087C60.9092 16.0565 61.4729 16.6549 62.2095 16.8043C62.5314 16.8734 62.8421 16.9313 63.1643 16.9774V18.3696C63.1643 18.9792 63.9009 19.3017 64.338 18.864L65.7305 17.5066C65.8684 17.3796 66.0524 17.3111 66.248 17.3223C68.7565 17.4718 71.2879 17.265 73.8192 16.7583C74.4867 16.6318 75.0044 16.0914 75.108 15.4239C75.1884 14.9059 75.269 14.3885 75.3151 13.8817C73.7501 14.584 71.9208 14.975 69.9532 14.975C65.8684 14.975 62.3244 13.2721 60.6445 10.7871Z" fill="#617F4D"/>
<path d="M62.043 10.5938C63.2674 8.61673 65.7025 7.43351 68.1072 7.43951C70.5118 7.43035 72.949 8.61483 74.1714 10.5941C73.1861 9.99415 72.2093 9.52111 71.196 9.20407C70.184 8.88766 69.1451 8.73735 68.1072 8.73262C67.0689 8.73514 66.0298 8.88672 65.0176 9.20218C64.0039 9.5189 63.0269 9.99289 62.043 10.5938Z" fill="white"/>
<path d="M64.293 12.2437C64.9288 10.8577 66.5352 10.0111 68.1076 10.0196C69.6798 10.0089 71.2884 10.8555 71.9222 12.244C71.2312 11.9396 70.609 11.6974 69.9776 11.5461C69.3509 11.3901 68.7298 11.315 68.1076 11.3127C67.4852 11.3134 66.8636 11.3885 66.2367 11.5445C65.6049 11.6948 64.9826 11.9383 64.293 12.2437Z" fill="white"/>
<path d="M66.0811 13.8356C66.4188 13.0995 67.272 12.6498 68.1071 12.6544C68.9422 12.6486 69.7966 13.0983 70.1332 13.8358C69.7662 13.6741 69.4357 13.5454 69.1004 13.4651C68.7675 13.3823 68.4376 13.3423 68.1071 13.3412C67.7765 13.3415 67.4464 13.3814 67.1135 13.4643C66.7779 13.5441 66.4474 13.6734 66.0811 13.8356Z" fill="white"/>
</svg>
